<svg xmlns="http://www.w3.org/2000/svg" xmlns:xlink="http://www.w3.org/1999/xlink" width="400" zoomAndPan="magnify" viewBox="0 0 300 299.999988" height="400" preserveAspectRatio="xMidYMid meet" version="1.0"><defs><g/><clipPath id="id1"><path d="M 41.015625 78.410156 L 101 78.410156 L 101 235.910156 L 41.015625 235.910156 Z M 41.015625 78.410156 " clip-rule="nonzero"/></clipPath><clipPath id="id2"><path d="M 113.761719 112 L 180.511719 112 L 180.511719 235.910156 L 113.761719 235.910156 Z M 113.761719 112 " clip-rule="nonzero"/></clipPath><clipPath id="id3"><path d="M 132 78.410156 L 163 78.410156 L 163 109 L 132 109 Z M 132 78.410156 " clip-rule="nonzero"/></clipPath><clipPath id="id4"><path d="M 192.597656 112 L 259.347656 112 L 259.347656 235.910156 L 192.597656 235.910156 Z M 192.597656 112 " clip-rule="nonzero"/></clipPath><clipPath id="id5"><path d="M 210 78.410156 L 241 78.410156 L 241 109 L 210 109 Z M 210 78.410156 " clip-rule="nonzero"/></clipPath></defs><rect x="-30" width="360" fill="#ffffff" y="-29.999999" height="359.999986" fill-opacity="1"/><rect x="-30" width="360" fill="#ffffff" y="-29.999999" height="359.999986" fill-opacity="1"/><rect x="-30" width="360" fill="#ffffff" y="-29.999999" height="359.999986" fill-opacity="1"/><rect x="-30" width="360" fill="#ffffff" y="-29.999999" height="359.999986" fill-opacity="1"/><path fill="#feb449" d="M 87.59375 131.242188 C 87.59375 131.960938 87.527344 132.675781 87.386719 133.382812 C 87.246094 134.085938 87.039062 134.773438 86.765625 135.4375 C 86.492188 136.105469 86.15625 136.738281 85.757812 137.335938 C 85.363281 137.933594 84.910156 138.488281 84.40625 139 C 83.898438 139.507812 83.347656 139.964844 82.753906 140.363281 C 82.160156 140.761719 81.53125 141.101562 80.871094 141.378906 C 80.210938 141.652344 79.53125 141.859375 78.828125 142 C 78.125 142.140625 77.417969 142.210938 76.703125 142.210938 C 75.988281 142.210938 75.28125 142.140625 74.578125 142 C 73.875 141.859375 73.195312 141.652344 72.535156 141.378906 C 71.875 141.101562 71.246094 140.761719 70.652344 140.363281 C 70.058594 139.964844 69.507812 139.507812 69 139 C 68.496094 138.488281 68.042969 137.933594 67.648438 137.335938 C 67.25 136.738281 66.914062 136.105469 66.640625 135.4375 C 66.367188 134.773438 66.160156 134.085938 66.019531 133.382812 C 65.882812 132.675781 65.8125 131.960938 65.8125 131.242188 C 65.8125 130.519531 65.882812 129.808594 66.019531 129.101562 C 66.160156 128.394531 66.367188 127.707031 66.640625 127.042969 C 66.914062 126.375 67.25 125.746094 67.648438 125.144531 C 68.042969 124.546875 68.496094 123.992188 69 123.484375 C 69.507812 122.972656 70.058594 122.519531 70.652344 122.117188 C 71.246094 121.71875 71.875 121.378906 72.535156 121.105469 C 73.195312 120.828125 73.875 120.621094 74.578125 120.480469 C 75.28125 120.339844 75.988281 120.269531 76.703125 120.269531 C 77.417969 120.269531 78.125 120.339844 78.828125 120.480469 C 79.53125 120.621094 80.210938 120.828125 80.871094 121.105469 C 81.53125 121.378906 82.160156 121.71875 82.753906 122.117188 C 83.347656 122.519531 83.898438 122.972656 84.40625 123.484375 C 84.910156 123.992188 85.363281 124.546875 85.757812 125.144531 C 86.15625 125.746094 86.492188 126.375 86.765625 127.042969 C 87.039062 127.707031 87.246094 128.394531 87.386719 129.101562 C 87.527344 129.808594 87.59375 130.519531 87.59375 131.242188 Z M 87.59375 131.242188 " fill-opacity="1" fill-rule="nonzero"/><g clip-path="url(#id1)"><path fill="#feb449" d="M 52.976562 110.375 L 52.695312 110.542969 C 52.378906 110.734375 52.277344 111.144531 52.464844 111.464844 C 52.652344 111.78125 53.0625 111.886719 53.378906 111.695312 L 54.144531 111.234375 C 54.144531 111.3125 54.148438 111.386719 54.148438 111.460938 C 54.179688 115.277344 51.433594 119.449219 51.410156 124.417969 C 51.410156 125.726562 51.609375 127.09375 52.109375 128.507812 C 53.566406 132.628906 55.378906 137.761719 55.375 143.558594 C 55.375 144.492188 55.328125 145.445312 55.222656 146.410156 C 55.191406 146.410156 55.160156 146.40625 55.128906 146.40625 C 52.988281 146.40625 51.253906 148.152344 51.253906 150.308594 C 51.257812 153.324219 51.289062 155.734375 51.367188 157.683594 C 51.277344 157.828125 51.195312 157.972656 51.109375 158.117188 L 51.390625 158.292969 C 51.4375 159.28125 51.492188 160.140625 51.566406 160.890625 C 51.683594 162.0625 51.800781 162.953125 52.109375 163.929688 C 52.28125 164.425781 52.46875 164.972656 53.027344 165.683594 C 53.308594 166.035156 53.707031 166.429688 54.285156 166.757812 C 54.847656 167.082031 55.589844 167.292969 56.285156 167.292969 C 56.296875 167.292969 56.308594 167.292969 56.320312 167.292969 C 57.0625 167.292969 57.699219 167.089844 58.160156 166.867188 C 59.054688 166.414062 59.449219 165.949219 59.78125 165.578125 C 60.363281 164.875 60.675781 164.289062 61.027344 163.636719 C 61.617188 162.515625 62.1875 161.234375 62.824219 159.882812 C 63.078125 159.34375 63.339844 158.796875 63.613281 158.257812 L 63.613281 229.894531 C 63.613281 233.226562 66.292969 235.925781 69.597656 235.925781 C 72.902344 235.925781 75.582031 233.226562 75.582031 229.894531 L 75.582031 185.878906 L 77.824219 185.878906 L 77.824219 229.894531 C 77.824219 233.226562 80.507812 235.925781 83.8125 235.925781 C 87.117188 235.925781 89.796875 233.226562 89.796875 229.894531 L 89.796875 156.773438 C 90.082031 157.367188 90.371094 158.046875 90.65625 158.839844 C 92.023438 162.648438 93.167969 168.898438 93.164062 178.65625 C 93.164062 181.34375 93.078125 184.296875 92.894531 187.542969 C 92.769531 189.691406 94.398438 191.535156 96.535156 191.664062 C 96.609375 191.667969 96.6875 191.667969 96.761719 191.667969 C 98.796875 191.667969 100.503906 190.070312 100.625 187.996094 C 100.820312 184.613281 100.910156 181.511719 100.910156 178.65625 C 100.890625 163.9375 98.558594 155.792969 95.375 150.894531 C 93.785156 148.464844 91.925781 146.90625 90.207031 146.039062 C 88.550781 145.199219 87.097656 145.011719 86.226562 145 C 86.167969 144.996094 86.113281 144.992188 86.054688 144.992188 L 67.351562 144.992188 C 67.121094 144.992188 66.898438 145.015625 66.679688 145.054688 C 65.457031 145.1875 64.335938 145.617188 63.414062 146.171875 C 61.441406 147.371094 60.136719 149.011719 59 150.6875 C 59 150.5625 59 150.433594 59 150.308594 C 59 148.523438 57.808594 147.019531 56.179688 146.558594 C 56.292969 145.539062 56.34375 144.539062 56.34375 143.558594 C 56.34375 137.554688 54.476562 132.304688 53.023438 128.179688 C 52.5625 126.875 52.378906 125.628906 52.378906 124.417969 C 52.355469 119.816406 55.089844 115.714844 55.117188 111.460938 C 55.117188 111.410156 55.117188 111.359375 55.113281 111.3125 L 55.953125 111.621094 C 56.296875 111.75 56.679688 111.570312 56.804688 111.222656 C 56.933594 110.875 56.753906 110.488281 56.410156 110.363281 L 56.160156 110.269531 C 62.558594 108.890625 67.480469 100.644531 67.480469 92.566406 C 67.480469 83.710938 61.574219 78.410156 54.289062 78.410156 C 47.003906 78.410156 41.097656 83.710938 41.097656 92.566406 C 41.097656 100.882812 46.308594 109.375 52.976562 110.375 Z M 59.648438 82.160156 C 58.511719 81.78125 57.265625 81.582031 55.933594 81.582031 C 53.984375 81.582031 52.226562 82.007812 50.714844 82.792969 L 49.542969 81.859375 C 50.941406 81.210938 52.53125 80.847656 54.289062 80.847656 C 56.304688 80.847656 58.113281 81.3125 59.648438 82.160156 Z M 47.722656 82.964844 L 49.132812 83.8125 C 46.511719 85.886719 44.96875 89.285156 44.96875 93.507812 C 44.96875 94.21875 45.011719 94.925781 45.09375 95.625 L 43.839844 95.996094 C 43.632812 94.878906 43.519531 93.726562 43.519531 92.566406 C 43.519531 88.359375 45.085938 84.992188 47.722656 82.964844 Z M 47.722656 82.964844 " fill-opacity="1" fill-rule="nonzero"/></g><g clip-path="url(#id2)"><path fill="#434343" d="M 119.546875 175.636719 C 119.652344 175.636719 119.753906 175.632812 119.863281 175.628906 C 122.800781 175.457031 125.039062 172.941406 124.871094 170.015625 C 124.609375 165.597656 124.492188 161.574219 124.492188 157.914062 C 124.46875 141.835938 126.820312 132.804688 129.132812 128.089844 L 129.132812 227.691406 C 129.132812 232.226562 132.820312 235.898438 137.363281 235.898438 C 141.914062 235.898438 145.601562 232.226562 145.601562 227.691406 L 145.601562 167.75 L 148.6875 167.75 L 148.6875 227.691406 C 148.6875 232.226562 152.375 235.898438 156.921875 235.898438 C 161.46875 235.898438 165.15625 232.226562 165.15625 227.691406 L 165.15625 128.117188 C 165.550781 128.925781 165.949219 129.851562 166.34375 130.933594 C 168.21875 136.121094 169.800781 144.628906 169.792969 157.917969 C 169.792969 161.578125 169.675781 165.597656 169.417969 170.015625 C 169.246094 172.945312 171.488281 175.457031 174.425781 175.628906 C 174.53125 175.632812 174.636719 175.636719 174.742188 175.636719 C 177.542969 175.636719 179.890625 173.457031 180.054688 170.636719 C 180.324219 166.03125 180.453125 161.804688 180.453125 157.917969 C 180.425781 137.875 177.214844 126.78125 172.835938 120.113281 C 170.644531 116.804688 168.085938 114.679688 165.722656 113.503906 C 163.445312 112.359375 161.445312 112.101562 160.242188 112.085938 C 160.164062 112.082031 160.089844 112.074219 160.011719 112.074219 L 134.277344 112.074219 C 134.199219 112.074219 134.121094 112.082031 134.042969 112.085938 C 132.84375 112.101562 130.839844 112.355469 128.5625 113.503906 C 124.980469 115.273438 121.117188 119.148438 118.414062 126.015625 C 115.679688 132.90625 113.84375 142.871094 113.832031 157.914062 C 113.835938 161.804688 113.960938 166.03125 114.230469 170.636719 C 114.398438 173.457031 116.746094 175.636719 119.546875 175.636719 Z M 119.546875 175.636719 " fill-opacity="1" fill-rule="nonzero"/></g><g clip-path="url(#id3)"><path fill="#434343" d="M 162.128906 93.351562 C 162.128906 94.332031 162.035156 95.304688 161.84375 96.265625 C 161.648438 97.226562 161.367188 98.160156 160.988281 99.066406 C 160.613281 99.972656 160.152344 100.835938 159.605469 101.652344 C 159.058594 102.46875 158.4375 103.222656 157.742188 103.914062 C 157.042969 104.609375 156.289062 105.226562 155.46875 105.773438 C 154.652344 106.316406 153.789062 106.777344 152.878906 107.152344 C 151.96875 107.527344 151.03125 107.8125 150.066406 108.003906 C 149.101562 108.195312 148.128906 108.289062 147.144531 108.289062 C 146.160156 108.289062 145.183594 108.195312 144.21875 108.003906 C 143.253906 107.8125 142.316406 107.527344 141.410156 107.152344 C 140.5 106.777344 139.636719 106.316406 138.816406 105.773438 C 138 105.226562 137.242188 104.609375 136.546875 103.914062 C 135.851562 103.222656 135.230469 102.46875 134.683594 101.652344 C 134.136719 100.835938 133.675781 99.972656 133.296875 99.066406 C 132.921875 98.160156 132.636719 97.226562 132.445312 96.265625 C 132.253906 95.304688 132.15625 94.332031 132.15625 93.351562 C 132.15625 92.371094 132.253906 91.398438 132.445312 90.4375 C 132.636719 89.472656 132.921875 88.539062 133.296875 87.632812 C 133.675781 86.726562 134.136719 85.867188 134.683594 85.050781 C 135.230469 84.234375 135.851562 83.480469 136.546875 82.785156 C 137.242188 82.09375 138 81.472656 138.816406 80.929688 C 139.636719 80.382812 140.5 79.921875 141.410156 79.546875 C 142.316406 79.171875 143.253906 78.890625 144.21875 78.699219 C 145.183594 78.507812 146.160156 78.410156 147.144531 78.410156 C 148.128906 78.410156 149.101562 78.507812 150.066406 78.699219 C 151.03125 78.890625 151.96875 79.171875 152.878906 79.546875 C 153.789062 79.921875 154.652344 80.382812 155.46875 80.929688 C 156.289062 81.472656 157.042969 82.09375 157.742188 82.785156 C 158.4375 83.480469 159.058594 84.234375 159.605469 85.050781 C 160.152344 85.867188 160.613281 86.726562 160.988281 87.632812 C 161.367188 88.539062 161.648438 89.472656 161.84375 90.4375 C 162.035156 91.398438 162.128906 92.371094 162.128906 93.351562 Z M 162.128906 93.351562 " fill-opacity="1" fill-rule="nonzero"/></g><g clip-path="url(#id4)"><path fill="#434343" d="M 198.382812 175.636719 C 198.488281 175.636719 198.59375 175.632812 198.699219 175.628906 C 201.636719 175.457031 203.875 172.941406 203.707031 170.015625 C 203.445312 165.597656 203.328125 161.574219 203.328125 157.914062 C 203.304688 141.835938 205.65625 132.804688 207.96875 128.089844 L 207.96875 227.691406 C 207.96875 232.226562 211.65625 235.898438 216.203125 235.898438 C 220.75 235.898438 224.4375 232.226562 224.4375 227.691406 L 224.4375 167.75 L 227.523438 167.75 L 227.523438 227.691406 C 227.523438 232.226562 231.210938 235.898438 235.757812 235.898438 C 240.304688 235.898438 243.992188 232.226562 243.992188 227.691406 L 243.992188 128.117188 C 244.390625 128.925781 244.785156 129.851562 245.179688 130.933594 C 247.054688 136.121094 248.636719 144.628906 248.628906 157.917969 C 248.628906 161.578125 248.511719 165.597656 248.253906 170.015625 C 248.082031 172.945312 250.324219 175.457031 253.261719 175.628906 C 253.367188 175.632812 253.472656 175.636719 253.578125 175.636719 C 256.378906 175.636719 258.726562 173.457031 258.890625 170.636719 C 259.160156 166.03125 259.289062 161.804688 259.289062 157.917969 C 259.261719 137.875 256.050781 126.78125 251.671875 120.113281 C 249.480469 116.804688 246.921875 114.679688 244.558594 113.503906 C 242.28125 112.359375 240.28125 112.101562 239.078125 112.085938 C 239 112.082031 238.925781 112.074219 238.847656 112.074219 L 213.113281 112.074219 C 213.035156 112.074219 212.957031 112.082031 212.878906 112.085938 C 211.679688 112.101562 209.675781 112.355469 207.398438 113.503906 C 203.816406 115.273438 199.953125 119.148438 197.25 126.015625 C 194.515625 132.90625 192.679688 142.871094 192.671875 157.914062 C 192.671875 161.804688 192.796875 166.03125 193.066406 170.636719 C 193.234375 173.457031 195.582031 175.636719 198.382812 175.636719 Z M 198.382812 175.636719 " fill-opacity="1" fill-rule="nonzero"/></g><g clip-path="url(#id5)"><path fill="#434343" d="M 240.964844 93.351562 C 240.964844 94.332031 240.871094 95.304688 240.679688 96.265625 C 240.484375 97.226562 240.203125 98.160156 239.824219 99.066406 C 239.449219 99.972656 238.988281 100.835938 238.441406 101.652344 C 237.894531 102.46875 237.273438 103.222656 236.578125 103.914062 C 235.882812 104.609375 235.125 105.226562 234.304688 105.773438 C 233.488281 106.316406 232.625 106.777344 231.714844 107.152344 C 230.804688 107.527344 229.867188 107.8125 228.902344 108.003906 C 227.9375 108.195312 226.964844 108.289062 225.980469 108.289062 C 224.996094 108.289062 224.023438 108.195312 223.054688 108.003906 C 222.089844 107.8125 221.15625 107.527344 220.246094 107.152344 C 219.335938 106.777344 218.472656 106.316406 217.65625 105.773438 C 216.835938 105.226562 216.078125 104.609375 215.382812 103.914062 C 214.6875 103.222656 214.066406 102.46875 213.519531 101.652344 C 212.972656 100.835938 212.511719 99.972656 212.136719 99.066406 C 211.757812 98.160156 211.472656 97.226562 211.28125 96.265625 C 211.089844 95.304688 210.996094 94.332031 210.996094 93.351562 C 210.996094 92.371094 211.089844 91.398438 211.28125 90.4375 C 211.472656 89.472656 211.757812 88.539062 212.136719 87.632812 C 212.511719 86.726562 212.972656 85.867188 213.519531 85.050781 C 214.066406 84.234375 214.6875 83.480469 215.382812 82.785156 C 216.078125 82.09375 216.835938 81.472656 217.65625 80.929688 C 218.472656 80.382812 219.335938 79.921875 220.246094 79.546875 C 221.15625 79.171875 222.089844 78.890625 223.054688 78.699219 C 224.023438 78.507812 224.996094 78.410156 225.980469 78.410156 C 226.964844 78.410156 227.9375 78.507812 228.902344 78.699219 C 229.867188 78.890625 230.804688 79.171875 231.714844 79.546875 C 232.625 79.921875 233.488281 80.382812 234.304688 80.929688 C 235.125 81.472656 235.882812 82.09375 236.578125 82.785156 C 237.273438 83.480469 237.894531 84.234375 238.441406 85.050781 C 238.988281 85.867188 239.449219 86.726562 239.824219 87.632812 C 240.203125 88.539062 240.484375 89.472656 240.679688 90.4375 C 240.871094 91.398438 240.964844 92.371094 240.964844 93.351562 Z M 240.964844 93.351562 " fill-opacity="1" fill-rule="nonzero"/></g><g fill="#feb449" fill-opacity="1"><g transform="translate(53.460939, 30.953322)"><g><path d="M 12.515625 -3.15625 C 12.816406 -3.15625 12.96875 -3.019531 12.96875 -2.75 L 12.96875 -0.421875 C 12.96875 -0.304688 12.925781 -0.207031 12.84375 -0.125 C 12.769531 -0.0390625 12.648438 0 12.484375 0 L 1.703125 0 C 1.398438 0 1.25 -0.128906 1.25 -0.390625 L 1.25 -2.75 C 1.25 -3.019531 1.390625 -3.15625 1.671875 -3.15625 L 4.859375 -3.15625 C 5.023438 -3.15625 5.109375 -3.207031 5.109375 -3.3125 L 5.109375 -16.515625 C 5.109375 -16.648438 5.082031 -16.734375 5.03125 -16.765625 C 4.988281 -16.804688 4.898438 -16.816406 4.765625 -16.796875 L 1.765625 -15.8125 C 1.722656 -15.789062 1.664062 -15.78125 1.59375 -15.78125 C 1.34375 -15.78125 1.21875 -15.941406 1.21875 -16.265625 L 1.21875 -17.90625 C 1.21875 -18.070312 1.238281 -18.1875 1.28125 -18.25 C 1.332031 -18.320312 1.4375 -18.394531 1.59375 -18.46875 L 6.15625 -20.765625 C 6.363281 -20.859375 6.546875 -20.925781 6.703125 -20.96875 C 6.867188 -21.019531 7.046875 -21.046875 7.234375 -21.046875 L 8.9375 -21.046875 C 9.1875 -21.046875 9.3125 -20.894531 9.3125 -20.59375 L 9.3125 -3.40625 C 9.3125 -3.238281 9.394531 -3.15625 9.5625 -3.15625 Z M 12.515625 -3.15625 "/></g></g></g><g fill="#434343" fill-opacity="1"><g transform="translate(67.464844, 30.953322)"><g/></g></g><g fill="#434343" fill-opacity="1"><g transform="translate(73.394417, 30.953322)"><g><path d="M 8.484375 0.28125 C 7.023438 0.28125 5.726562 -0.0390625 4.59375 -0.6875 C 3.457031 -1.34375 2.578125 -2.253906 1.953125 -3.421875 C 1.328125 -4.597656 1.015625 -5.9375 1.015625 -7.4375 C 1.015625 -8.96875 1.335938 -10.332031 1.984375 -11.53125 C 2.628906 -12.738281 3.519531 -13.671875 4.65625 -14.328125 C 5.789062 -14.992188 7.078125 -15.328125 8.515625 -15.328125 C 9.972656 -15.328125 11.269531 -14.988281 12.40625 -14.3125 C 13.539062 -13.644531 14.414062 -12.710938 15.03125 -11.515625 C 15.65625 -10.328125 15.96875 -8.976562 15.96875 -7.46875 C 15.96875 -5.96875 15.648438 -4.628906 15.015625 -3.453125 C 14.390625 -2.285156 13.507812 -1.367188 12.375 -0.703125 C 11.238281 -0.046875 9.941406 0.28125 8.484375 0.28125 Z M 8.515625 -2.234375 C 9.722656 -2.234375 10.644531 -2.6875 11.28125 -3.59375 C 11.914062 -4.507812 12.234375 -5.816406 12.234375 -7.515625 C 12.234375 -9.234375 11.910156 -10.554688 11.265625 -11.484375 C 10.617188 -12.410156 9.703125 -12.875 8.515625 -12.875 C 7.316406 -12.875 6.390625 -12.410156 5.734375 -11.484375 C 5.085938 -10.554688 4.765625 -9.234375 4.765625 -7.515625 C 4.765625 -5.816406 5.085938 -4.507812 5.734375 -3.59375 C 6.390625 -2.6875 7.316406 -2.234375 8.515625 -2.234375 Z M 8.515625 -2.234375 "/></g></g></g><g fill="#434343" fill-opacity="1"><g transform="translate(90.388743, 30.953322)"><g><path d="M 7.609375 -2.40625 C 8.753906 -2.40625 9.953125 -3.0625 11.203125 -4.375 L 11.203125 -14.46875 C 11.203125 -14.84375 11.421875 -15.03125 11.859375 -15.03125 L 14.421875 -15.03125 C 14.753906 -15.03125 14.921875 -14.851562 14.921875 -14.5 L 14.875 -0.453125 C 14.875 -0.148438 14.738281 0 14.46875 0 L 11.6875 0 C 11.425781 0 11.296875 -0.140625 11.296875 -0.421875 L 11.296875 -1.921875 C 11.296875 -2.023438 11.265625 -2.082031 11.203125 -2.09375 C 11.148438 -2.113281 11.085938 -2.085938 11.015625 -2.015625 C 10.140625 -1.179688 9.304688 -0.585938 8.515625 -0.234375 C 7.734375 0.109375 6.898438 0.28125 6.015625 0.28125 C 4.734375 0.28125 3.679688 -0.125 2.859375 -0.9375 C 2.035156 -1.75 1.625 -2.835938 1.625 -4.203125 L 1.625 -14.4375 C 1.625 -14.832031 1.820312 -15.03125 2.21875 -15.03125 L 4.828125 -15.03125 C 4.992188 -15.03125 5.113281 -14.988281 5.1875 -14.90625 C 5.269531 -14.820312 5.3125 -14.6875 5.3125 -14.5 L 5.3125 -4.828125 C 5.3125 -4.085938 5.515625 -3.5 5.921875 -3.0625 C 6.335938 -2.625 6.898438 -2.40625 7.609375 -2.40625 Z M 7.609375 -2.40625 "/></g></g></g><g fill="#434343" fill-opacity="1"><g transform="translate(107.070977, 30.953322)"><g><path d="M 7.296875 -12.453125 C 7.109375 -12.453125 7.015625 -12.347656 7.015625 -12.140625 L 7.015625 -4.5625 C 7.015625 -3.84375 7.160156 -3.335938 7.453125 -3.046875 C 7.742188 -2.753906 8.21875 -2.609375 8.875 -2.609375 L 10.5625 -2.609375 C 10.664062 -2.609375 10.753906 -2.570312 10.828125 -2.5 C 10.910156 -2.425781 10.953125 -2.332031 10.953125 -2.21875 L 10.921875 -0.734375 C 10.921875 -0.410156 10.742188 -0.222656 10.390625 -0.171875 C 9.703125 -0.0546875 8.660156 0 7.265625 0 C 5.972656 0 4.988281 -0.296875 4.3125 -0.890625 C 3.644531 -1.484375 3.3125 -2.390625 3.3125 -3.609375 L 3.3125 -12.09375 C 3.3125 -12.332031 3.203125 -12.453125 2.984375 -12.453125 L 1.078125 -12.453125 C 0.773438 -12.453125 0.625 -12.59375 0.625 -12.875 L 0.625 -14.671875 C 0.625 -14.910156 0.765625 -15.03125 1.046875 -15.03125 L 3.15625 -15.03125 C 3.320312 -15.03125 3.40625 -15.128906 3.40625 -15.328125 L 3.78125 -19.6875 C 3.789062 -19.863281 3.820312 -19.984375 3.875 -20.046875 C 3.9375 -20.109375 4.035156 -20.140625 4.171875 -20.140625 L 6.703125 -20.140625 C 6.804688 -20.140625 6.894531 -20.097656 6.96875 -20.015625 C 7.050781 -19.929688 7.09375 -19.8125 7.09375 -19.65625 L 7.09375 -15.328125 C 7.09375 -15.148438 7.175781 -15.0625 7.34375 -15.0625 L 10.5625 -15.0625 C 10.84375 -15.0625 10.984375 -14.929688 10.984375 -14.671875 L 10.984375 -12.875 C 10.984375 -12.59375 10.820312 -12.453125 10.5 -12.453125 Z M 7.296875 -12.453125 "/></g></g></g><g fill="#434343" fill-opacity="1"><g transform="translate(118.901752, 30.953322)"><g/></g></g><g fill="#434343" fill-opacity="1"><g transform="translate(124.831325, 30.953322)"><g><path d="M 8.484375 0.28125 C 7.023438 0.28125 5.726562 -0.0390625 4.59375 -0.6875 C 3.457031 -1.34375 2.578125 -2.253906 1.953125 -3.421875 C 1.328125 -4.597656 1.015625 -5.9375 1.015625 -7.4375 C 1.015625 -8.96875 1.335938 -10.332031 1.984375 -11.53125 C 2.628906 -12.738281 3.519531 -13.671875 4.65625 -14.328125 C 5.789062 -14.992188 7.078125 -15.328125 8.515625 -15.328125 C 9.972656 -15.328125 11.269531 -14.988281 12.40625 -14.3125 C 13.539062 -13.644531 14.414062 -12.710938 15.03125 -11.515625 C 15.65625 -10.328125 15.96875 -8.976562 15.96875 -7.46875 C 15.96875 -5.96875 15.648438 -4.628906 15.015625 -3.453125 C 14.390625 -2.285156 13.507812 -1.367188 12.375 -0.703125 C 11.238281 -0.046875 9.941406 0.28125 8.484375 0.28125 Z M 8.515625 -2.234375 C 9.722656 -2.234375 10.644531 -2.6875 11.28125 -3.59375 C 11.914062 -4.507812 12.234375 -5.816406 12.234375 -7.515625 C 12.234375 -9.234375 11.910156 -10.554688 11.265625 -11.484375 C 10.617188 -12.410156 9.703125 -12.875 8.515625 -12.875 C 7.316406 -12.875 6.390625 -12.410156 5.734375 -11.484375 C 5.085938 -10.554688 4.765625 -9.234375 4.765625 -7.515625 C 4.765625 -5.816406 5.085938 -4.507812 5.734375 -3.59375 C 6.390625 -2.6875 7.316406 -2.234375 8.515625 -2.234375 Z M 8.515625 -2.234375 "/></g></g></g><g fill="#434343" fill-opacity="1"><g transform="translate(141.825651, 30.953322)"><g><path d="M 10.125 -15.03125 C 10.425781 -15.03125 10.578125 -14.890625 10.578125 -14.609375 L 10.578125 -12.828125 C 10.578125 -12.578125 10.4375 -12.453125 10.15625 -12.453125 L 7.515625 -12.453125 C 7.328125 -12.453125 7.234375 -12.359375 7.234375 -12.171875 L 7.234375 -0.484375 C 7.234375 -0.160156 7.09375 0 6.8125 0 L 3.9375 0 C 3.675781 0 3.546875 -0.148438 3.546875 -0.453125 L 3.546875 -12.203125 C 3.546875 -12.367188 3.476562 -12.453125 3.34375 -12.453125 L 1.046875 -12.453125 C 0.765625 -12.453125 0.625 -12.578125 0.625 -12.828125 L 0.625 -14.609375 C 0.625 -14.890625 0.773438 -15.03125 1.078125 -15.03125 L 3.234375 -15.03125 C 3.441406 -15.03125 3.546875 -15.15625 3.546875 -15.40625 L 3.546875 -17.25 C 3.546875 -18.457031 3.882812 -19.390625 4.5625 -20.046875 C 5.25 -20.710938 6.21875 -21.046875 7.46875 -21.046875 L 10.15625 -21.046875 C 10.519531 -21.046875 10.703125 -20.878906 10.703125 -20.546875 L 10.71875 -18.953125 C 10.71875 -18.835938 10.6875 -18.742188 10.625 -18.671875 C 10.5625 -18.597656 10.460938 -18.5625 10.328125 -18.5625 L 8.65625 -18.5625 C 8.164062 -18.5625 7.789062 -18.394531 7.53125 -18.0625 C 7.28125 -17.726562 7.15625 -17.285156 7.15625 -16.734375 L 7.15625 -15.328125 C 7.15625 -15.128906 7.257812 -15.03125 7.46875 -15.03125 Z M 10.125 -15.03125 "/></g></g></g><g fill="#434343" fill-opacity="1"><g transform="translate(153.003884, 30.953322)"><g/></g></g><g fill="#feb449" fill-opacity="1"><g transform="translate(158.929681, 30.953322)"><g><path d="M 1.953125 -17.875 C 1.878906 -17.988281 1.84375 -18.070312 1.84375 -18.125 C 1.84375 -18.1875 1.878906 -18.289062 1.953125 -18.4375 C 2.765625 -19.363281 3.789062 -20.078125 5.03125 -20.578125 C 6.269531 -21.085938 7.609375 -21.34375 9.046875 -21.34375 C 10.597656 -21.34375 11.953125 -21.109375 13.109375 -20.640625 C 14.265625 -20.179688 15.148438 -19.539062 15.765625 -18.71875 C 16.378906 -17.894531 16.6875 -16.953125 16.6875 -15.890625 C 16.6875 -14.921875 16.382812 -14.03125 15.78125 -13.21875 C 15.175781 -12.40625 14.332031 -11.828125 13.25 -11.484375 C 13.039062 -11.429688 12.9375 -11.347656 12.9375 -11.234375 C 12.9375 -11.140625 13.039062 -11.066406 13.25 -11.015625 C 14.457031 -10.628906 15.441406 -9.992188 16.203125 -9.109375 C 16.960938 -8.222656 17.34375 -7.179688 17.34375 -5.984375 C 17.34375 -4.015625 16.609375 -2.476562 15.140625 -1.375 C 13.671875 -0.269531 11.519531 0.28125 8.6875 0.28125 C 7.113281 0.28125 5.664062 -0.0078125 4.34375 -0.59375 C 3.019531 -1.175781 1.941406 -2 1.109375 -3.0625 C 1.015625 -3.195312 0.96875 -3.300781 0.96875 -3.375 C 0.96875 -3.53125 1.050781 -3.664062 1.21875 -3.78125 L 3.09375 -5.140625 C 3.238281 -5.234375 3.351562 -5.28125 3.4375 -5.28125 C 3.53125 -5.28125 3.601562 -5.234375 3.65625 -5.140625 C 4.53125 -4.242188 5.359375 -3.613281 6.140625 -3.25 C 6.929688 -2.894531 7.863281 -2.71875 8.9375 -2.71875 C 10.257812 -2.71875 11.300781 -3.007812 12.0625 -3.59375 C 12.832031 -4.1875 13.21875 -4.957031 13.21875 -5.90625 C 13.21875 -6.957031 12.785156 -7.789062 11.921875 -8.40625 C 11.066406 -9.019531 10.023438 -9.335938 8.796875 -9.359375 L 6.328125 -9.390625 C 6.023438 -9.390625 5.875 -9.515625 5.875 -9.765625 L 5.875 -12 C 5.875 -12.207031 6.023438 -12.332031 6.328125 -12.375 L 8.3125 -12.421875 C 9.5625 -12.460938 10.585938 -12.78125 11.390625 -13.375 C 12.191406 -13.96875 12.59375 -14.726562 12.59375 -15.65625 C 12.59375 -16.4375 12.253906 -17.085938 11.578125 -17.609375 C 10.898438 -18.128906 10.039062 -18.390625 9 -18.390625 C 8.101562 -18.390625 7.273438 -18.21875 6.515625 -17.875 C 5.765625 -17.53125 5.007812 -17 4.25 -16.28125 C 4.125 -16.15625 4.019531 -16.09375 3.9375 -16.09375 C 3.863281 -16.09375 3.769531 -16.148438 3.65625 -16.265625 Z M 1.953125 -17.875 "/></g></g></g><g fill="#434343" fill-opacity="1"><g transform="translate(177.597651, 30.953322)"><g/></g></g><g fill="#434343" fill-opacity="1"><g transform="translate(183.527224, 30.953322)"><g><path d="M 4.9375 -15.03125 C 5.289062 -15.03125 5.46875 -14.863281 5.46875 -14.53125 L 5.46875 -13.5625 C 5.46875 -13.414062 5.519531 -13.34375 5.625 -13.34375 C 5.675781 -13.34375 5.75 -13.390625 5.84375 -13.484375 C 6.445312 -14.046875 7.054688 -14.492188 7.671875 -14.828125 C 8.285156 -15.160156 9.09375 -15.328125 10.09375 -15.328125 C 11.25 -15.328125 12.273438 -15.039062 13.171875 -14.46875 C 14.078125 -13.90625 14.785156 -13.050781 15.296875 -11.90625 C 15.804688 -10.757812 16.0625 -9.351562 16.0625 -7.6875 C 16.0625 -5.09375 15.492188 -3.113281 14.359375 -1.75 C 13.222656 -0.394531 11.71875 0.28125 9.84375 0.28125 C 8.332031 0.28125 7.046875 -0.195312 5.984375 -1.15625 C 5.796875 -1.3125 5.675781 -1.390625 5.625 -1.390625 C 5.519531 -1.390625 5.46875 -1.257812 5.46875 -1 L 5.46875 4.234375 C 5.46875 4.535156 5.335938 4.6875 5.078125 4.6875 L 2.1875 4.6875 C 1.914062 4.6875 1.78125 4.535156 1.78125 4.234375 L 1.78125 -14.46875 C 1.78125 -14.675781 1.820312 -14.820312 1.90625 -14.90625 C 2 -14.988281 2.148438 -15.03125 2.359375 -15.03125 Z M 5.46875 -3.6875 C 6.414062 -2.644531 7.445312 -2.125 8.5625 -2.125 C 9.738281 -2.125 10.65625 -2.582031 11.3125 -3.5 C 11.976562 -4.414062 12.3125 -5.820312 12.3125 -7.71875 C 12.3125 -9.53125 11.984375 -10.847656 11.328125 -11.671875 C 10.679688 -12.492188 9.800781 -12.90625 8.6875 -12.90625 C 8.082031 -12.90625 7.53125 -12.773438 7.03125 -12.515625 C 6.539062 -12.265625 6.15625 -11.941406 5.875 -11.546875 C 5.601562 -11.148438 5.46875 -10.734375 5.46875 -10.296875 Z M 5.46875 -3.6875 "/></g></g></g><g fill="#434343" fill-opacity="1"><g transform="translate(200.69177, 30.953322)"><g><path d="M 5.46875 -0.625 C 5.46875 -0.375 5.421875 -0.207031 5.328125 -0.125 C 5.234375 -0.0390625 5.066406 0 4.828125 0 L 2.328125 0 C 2.117188 0 1.972656 -0.0351562 1.890625 -0.109375 C 1.804688 -0.191406 1.765625 -0.328125 1.765625 -0.515625 L 1.84375 -20.578125 C 1.84375 -20.890625 1.984375 -21.046875 2.265625 -21.046875 L 5.078125 -21.046875 C 5.335938 -21.046875 5.46875 -20.894531 5.46875 -20.59375 Z M 5.46875 -0.625 "/></g></g></g><g fill="#434343" fill-opacity="1"><g transform="translate(207.983155, 30.953322)"><g><path d="M 10.21875 -1.5625 C 8.894531 -0.332031 7.34375 0.28125 5.5625 0.28125 C 4.125 0.28125 2.984375 -0.0976562 2.140625 -0.859375 C 1.296875 -1.628906 0.875 -2.628906 0.875 -3.859375 C 0.875 -5.429688 1.570312 -6.679688 2.96875 -7.609375 C 4.375 -8.535156 6.335938 -9.046875 8.859375 -9.140625 L 10.265625 -9.21875 C 10.566406 -9.257812 10.71875 -9.398438 10.71875 -9.640625 L 10.71875 -10.296875 C 10.71875 -11.128906 10.46875 -11.773438 9.96875 -12.234375 C 9.46875 -12.703125 8.785156 -12.9375 7.921875 -12.9375 C 6.484375 -12.9375 5.375 -12.3125 4.59375 -11.0625 C 4.539062 -10.988281 4.488281 -10.925781 4.4375 -10.875 C 4.394531 -10.832031 4.332031 -10.8125 4.25 -10.8125 C 4.15625 -10.8125 4.082031 -10.820312 4.03125 -10.84375 L 1.640625 -11.4375 C 1.492188 -11.46875 1.421875 -11.550781 1.421875 -11.6875 C 1.421875 -11.78125 1.457031 -11.90625 1.53125 -12.0625 C 2.019531 -13.113281 2.828125 -13.921875 3.953125 -14.484375 C 5.078125 -15.046875 6.457031 -15.328125 8.09375 -15.328125 C 10.207031 -15.328125 11.757812 -14.910156 12.75 -14.078125 C 13.75 -13.242188 14.25 -12.070312 14.25 -10.5625 L 14.25 -0.5625 C 14.25 -0.351562 14.210938 -0.207031 14.140625 -0.125 C 14.078125 -0.0390625 13.953125 0 13.765625 0 L 11.34375 0 C 11.175781 0 11.054688 -0.0546875 10.984375 -0.171875 C 10.910156 -0.285156 10.851562 -0.457031 10.8125 -0.6875 L 10.78125 -1.53125 C 10.757812 -1.695312 10.691406 -1.78125 10.578125 -1.78125 C 10.523438 -1.78125 10.40625 -1.707031 10.21875 -1.5625 Z M 10.71875 -6.859375 C 10.71875 -7.035156 10.6875 -7.160156 10.625 -7.234375 C 10.5625 -7.304688 10.453125 -7.34375 10.296875 -7.34375 L 9.140625 -7.265625 C 7.816406 -7.171875 6.710938 -6.875 5.828125 -6.375 C 4.953125 -5.875 4.515625 -5.1875 4.515625 -4.3125 C 4.515625 -3.664062 4.742188 -3.15625 5.203125 -2.78125 C 5.671875 -2.40625 6.289062 -2.21875 7.0625 -2.21875 C 8.050781 -2.21875 8.910156 -2.519531 9.640625 -3.125 C 10.359375 -3.6875 10.71875 -4.265625 10.71875 -4.859375 Z M 10.71875 -6.859375 "/></g></g></g><g fill="#434343" fill-opacity="1"><g transform="translate(223.814258, 30.953322)"><g><path d="M 2.296875 0 C 2.109375 0 1.972656 -0.0351562 1.890625 -0.109375 C 1.816406 -0.191406 1.78125 -0.328125 1.78125 -0.515625 L 1.78125 -14.5625 C 1.78125 -14.875 1.914062 -15.03125 2.1875 -15.03125 L 5.015625 -15.03125 C 5.265625 -15.03125 5.390625 -14.890625 5.390625 -14.609375 L 5.390625 -13.140625 C 5.390625 -13.023438 5.414062 -12.957031 5.46875 -12.9375 C 5.53125 -12.914062 5.609375 -12.945312 5.703125 -13.03125 C 6.585938 -13.800781 7.410156 -14.375 8.171875 -14.75 C 8.941406 -15.132812 9.773438 -15.328125 10.671875 -15.328125 C 12.066406 -15.328125 13.164062 -14.921875 13.96875 -14.109375 C 14.78125 -13.304688 15.1875 -12.242188 15.1875 -10.921875 L 15.1875 -0.59375 C 15.1875 -0.195312 14.984375 0 14.578125 0 L 11.96875 0 C 11.78125 0 11.648438 -0.0351562 11.578125 -0.109375 C 11.515625 -0.191406 11.484375 -0.328125 11.484375 -0.515625 L 11.484375 -10.265625 C 11.484375 -11.003906 11.28125 -11.578125 10.875 -11.984375 C 10.46875 -12.390625 9.878906 -12.59375 9.109375 -12.59375 C 8.441406 -12.59375 7.835938 -12.441406 7.296875 -12.140625 C 6.765625 -11.835938 6.15625 -11.347656 5.46875 -10.671875 L 5.46875 -0.5625 C 5.46875 -0.351562 5.421875 -0.207031 5.328125 -0.125 C 5.234375 -0.0390625 5.066406 0 4.828125 0 Z M 2.296875 0 "/></g></g></g><g fill="#434343" fill-opacity="1"><g transform="translate(240.609361, 30.953322)"><g/></g></g><g fill="#434343" fill-opacity="1"><g transform="translate(50.320314, 60.953319)"><g><path d="M 10.21875 -1.5625 C 8.894531 -0.332031 7.34375 0.28125 5.5625 0.28125 C 4.125 0.28125 2.984375 -0.0976562 2.140625 -0.859375 C 1.296875 -1.628906 0.875 -2.628906 0.875 -3.859375 C 0.875 -5.429688 1.570312 -6.679688 2.96875 -7.609375 C 4.375 -8.535156 6.335938 -9.046875 8.859375 -9.140625 L 10.265625 -9.21875 C 10.566406 -9.257812 10.71875 -9.398438 10.71875 -9.640625 L 10.71875 -10.296875 C 10.71875 -11.128906 10.46875 -11.773438 9.96875 -12.234375 C 9.46875 -12.703125 8.785156 -12.9375 7.921875 -12.9375 C 6.484375 -12.9375 5.375 -12.3125 4.59375 -11.0625 C 4.539062 -10.988281 4.488281 -10.925781 4.4375 -10.875 C 4.394531 -10.832031 4.332031 -10.8125 4.25 -10.8125 C 4.15625 -10.8125 4.082031 -10.820312 4.03125 -10.84375 L 1.640625 -11.4375 C 1.492188 -11.46875 1.421875 -11.550781 1.421875 -11.6875 C 1.421875 -11.78125 1.457031 -11.90625 1.53125 -12.0625 C 2.019531 -13.113281 2.828125 -13.921875 3.953125 -14.484375 C 5.078125 -15.046875 6.457031 -15.328125 8.09375 -15.328125 C 10.207031 -15.328125 11.757812 -14.910156 12.75 -14.078125 C 13.75 -13.242188 14.25 -12.070312 14.25 -10.5625 L 14.25 -0.5625 C 14.25 -0.351562 14.210938 -0.207031 14.140625 -0.125 C 14.078125 -0.0390625 13.953125 0 13.765625 0 L 11.34375 0 C 11.175781 0 11.054688 -0.0546875 10.984375 -0.171875 C 10.910156 -0.285156 10.851562 -0.457031 10.8125 -0.6875 L 10.78125 -1.53125 C 10.757812 -1.695312 10.691406 -1.78125 10.578125 -1.78125 C 10.523438 -1.78125 10.40625 -1.707031 10.21875 -1.5625 Z M 10.71875 -6.859375 C 10.71875 -7.035156 10.6875 -7.160156 10.625 -7.234375 C 10.5625 -7.304688 10.453125 -7.34375 10.296875 -7.34375 L 9.140625 -7.265625 C 7.816406 -7.171875 6.710938 -6.875 5.828125 -6.375 C 4.953125 -5.875 4.515625 -5.1875 4.515625 -4.3125 C 4.515625 -3.664062 4.742188 -3.15625 5.203125 -2.78125 C 5.671875 -2.40625 6.289062 -2.21875 7.0625 -2.21875 C 8.050781 -2.21875 8.910156 -2.519531 9.640625 -3.125 C 10.359375 -3.6875 10.71875 -4.265625 10.71875 -4.859375 Z M 10.71875 -6.859375 "/></g></g></g><g fill="#434343" fill-opacity="1"><g transform="translate(66.151417, 60.953319)"><g><path d="M 2.296875 0 C 1.953125 0 1.78125 -0.171875 1.78125 -0.515625 L 1.78125 -14.5625 C 1.78125 -14.875 1.914062 -15.03125 2.1875 -15.03125 L 4.9375 -15.03125 C 5.195312 -15.03125 5.328125 -14.890625 5.328125 -14.609375 L 5.328125 -12.875 C 5.328125 -12.726562 5.375 -12.65625 5.46875 -12.65625 C 5.53125 -12.65625 5.609375 -12.703125 5.703125 -12.796875 C 6.328125 -13.585938 7.015625 -14.207031 7.765625 -14.65625 C 8.523438 -15.101562 9.265625 -15.328125 9.984375 -15.328125 C 10.671875 -15.328125 11.015625 -15.175781 11.015625 -14.875 L 11.015625 -12.140625 C 11.015625 -11.878906 10.890625 -11.765625 10.640625 -11.796875 C 10.109375 -11.929688 9.519531 -12 8.875 -12 C 8.382812 -12 7.867188 -11.863281 7.328125 -11.59375 C 6.796875 -11.332031 6.351562 -10.988281 6 -10.5625 C 5.644531 -10.144531 5.46875 -9.707031 5.46875 -9.25 L 5.46875 -0.5625 C 5.46875 -0.1875 5.253906 0 4.828125 0 Z M 2.296875 0 "/></g></g></g><g fill="#434343" fill-opacity="1"><g transform="translate(77.811962, 60.953319)"><g><path d="M 4.859375 -6.359375 C 4.859375 -5.578125 5.035156 -4.878906 5.390625 -4.265625 C 5.753906 -3.648438 6.25 -3.164062 6.875 -2.8125 C 7.507812 -2.46875 8.207031 -2.296875 8.96875 -2.296875 C 9.738281 -2.296875 10.441406 -2.460938 11.078125 -2.796875 C 11.710938 -3.128906 12.3125 -3.644531 12.875 -4.34375 C 12.976562 -4.4375 13.054688 -4.484375 13.109375 -4.484375 C 13.160156 -4.484375 13.242188 -4.453125 13.359375 -4.390625 L 15.09375 -3.625 C 15.226562 -3.570312 15.296875 -3.488281 15.296875 -3.375 C 15.296875 -3.320312 15.257812 -3.238281 15.1875 -3.125 C 14.332031 -1.894531 13.390625 -1.019531 12.359375 -0.5 C 11.328125 0.0195312 10.054688 0.28125 8.546875 0.28125 C 7.109375 0.28125 5.816406 -0.0351562 4.671875 -0.671875 C 3.523438 -1.316406 2.628906 -2.21875 1.984375 -3.375 C 1.335938 -4.53125 1.015625 -5.847656 1.015625 -7.328125 C 1.015625 -8.910156 1.34375 -10.304688 2 -11.515625 C 2.664062 -12.734375 3.566406 -13.671875 4.703125 -14.328125 C 5.835938 -14.992188 7.097656 -15.328125 8.484375 -15.328125 C 9.898438 -15.328125 11.148438 -15.015625 12.234375 -14.390625 C 13.328125 -13.765625 14.171875 -12.859375 14.765625 -11.671875 C 15.359375 -10.492188 15.65625 -9.09375 15.65625 -7.46875 L 15.65625 -7.34375 C 15.65625 -7.15625 15.628906 -7.023438 15.578125 -6.953125 C 15.523438 -6.878906 15.398438 -6.832031 15.203125 -6.8125 L 5.171875 -6.8125 C 4.960938 -6.8125 4.859375 -6.660156 4.859375 -6.359375 Z M 11.578125 -8.90625 C 11.765625 -8.90625 11.890625 -8.925781 11.953125 -8.96875 C 12.023438 -9.019531 12.0625 -9.132812 12.0625 -9.3125 C 12.0625 -9.914062 11.925781 -10.5 11.65625 -11.0625 C 11.394531 -11.632812 11.003906 -12.097656 10.484375 -12.453125 C 9.960938 -12.816406 9.34375 -13 8.625 -13 C 7.507812 -13 6.601562 -12.601562 5.90625 -11.8125 C 5.21875 -11.03125 4.882812 -10.0625 4.90625 -8.90625 Z M 11.578125 -8.90625 "/></g></g></g><g fill="#434343" fill-opacity="1"><g transform="translate(94.380717, 60.953319)"><g><path d="M 10.21875 -1.5625 C 8.894531 -0.332031 7.34375 0.28125 5.5625 0.28125 C 4.125 0.28125 2.984375 -0.0976562 2.140625 -0.859375 C 1.296875 -1.628906 0.875 -2.628906 0.875 -3.859375 C 0.875 -5.429688 1.570312 -6.679688 2.96875 -7.609375 C 4.375 -8.535156 6.335938 -9.046875 8.859375 -9.140625 L 10.265625 -9.21875 C 10.566406 -9.257812 10.71875 -9.398438 10.71875 -9.640625 L 10.71875 -10.296875 C 10.71875 -11.128906 10.46875 -11.773438 9.96875 -12.234375 C 9.46875 -12.703125 8.785156 -12.9375 7.921875 -12.9375 C 6.484375 -12.9375 5.375 -12.3125 4.59375 -11.0625 C 4.539062 -10.988281 4.488281 -10.925781 4.4375 -10.875 C 4.394531 -10.832031 4.332031 -10.8125 4.25 -10.8125 C 4.15625 -10.8125 4.082031 -10.820312 4.03125 -10.84375 L 1.640625 -11.4375 C 1.492188 -11.46875 1.421875 -11.550781 1.421875 -11.6875 C 1.421875 -11.78125 1.457031 -11.90625 1.53125 -12.0625 C 2.019531 -13.113281 2.828125 -13.921875 3.953125 -14.484375 C 5.078125 -15.046875 6.457031 -15.328125 8.09375 -15.328125 C 10.207031 -15.328125 11.757812 -14.910156 12.75 -14.078125 C 13.75 -13.242188 14.25 -12.070312 14.25 -10.5625 L 14.25 -0.5625 C 14.25 -0.351562 14.210938 -0.207031 14.140625 -0.125 C 14.078125 -0.0390625 13.953125 0 13.765625 0 L 11.34375 0 C 11.175781 0 11.054688 -0.0546875 10.984375 -0.171875 C 10.910156 -0.285156 10.851562 -0.457031 10.8125 -0.6875 L 10.78125 -1.53125 C 10.757812 -1.695312 10.691406 -1.78125 10.578125 -1.78125 C 10.523438 -1.78125 10.40625 -1.707031 10.21875 -1.5625 Z M 10.71875 -6.859375 C 10.71875 -7.035156 10.6875 -7.160156 10.625 -7.234375 C 10.5625 -7.304688 10.453125 -7.34375 10.296875 -7.34375 L 9.140625 -7.265625 C 7.816406 -7.171875 6.710938 -6.875 5.828125 -6.375 C 4.953125 -5.875 4.515625 -5.1875 4.515625 -4.3125 C 4.515625 -3.664062 4.742188 -3.15625 5.203125 -2.78125 C 5.671875 -2.40625 6.289062 -2.21875 7.0625 -2.21875 C 8.050781 -2.21875 8.910156 -2.519531 9.640625 -3.125 C 10.359375 -3.6875 10.71875 -4.265625 10.71875 -4.859375 Z M 10.71875 -6.859375 "/></g></g></g><g fill="#434343" fill-opacity="1"><g transform="translate(110.21182, 60.953319)"><g/></g></g><g fill="#434343" fill-opacity="1"><g transform="translate(116.141392, 60.953319)"><g><path d="M 2.296875 0 C 1.953125 0 1.78125 -0.171875 1.78125 -0.515625 L 1.78125 -14.5625 C 1.78125 -14.875 1.914062 -15.03125 2.1875 -15.03125 L 4.9375 -15.03125 C 5.195312 -15.03125 5.328125 -14.890625 5.328125 -14.609375 L 5.328125 -12.875 C 5.328125 -12.726562 5.375 -12.65625 5.46875 -12.65625 C 5.53125 -12.65625 5.609375 -12.703125 5.703125 -12.796875 C 6.328125 -13.585938 7.015625 -14.207031 7.765625 -14.65625 C 8.523438 -15.101562 9.265625 -15.328125 9.984375 -15.328125 C 10.671875 -15.328125 11.015625 -15.175781 11.015625 -14.875 L 11.015625 -12.140625 C 11.015625 -11.878906 10.890625 -11.765625 10.640625 -11.796875 C 10.109375 -11.929688 9.519531 -12 8.875 -12 C 8.382812 -12 7.867188 -11.863281 7.328125 -11.59375 C 6.796875 -11.332031 6.351562 -10.988281 6 -10.5625 C 5.644531 -10.144531 5.46875 -9.707031 5.46875 -9.25 L 5.46875 -0.5625 C 5.46875 -0.1875 5.253906 0 4.828125 0 Z M 2.296875 0 "/></g></g></g><g fill="#434343" fill-opacity="1"><g transform="translate(127.801937, 60.953319)"><g><path d="M 4.859375 -6.359375 C 4.859375 -5.578125 5.035156 -4.878906 5.390625 -4.265625 C 5.753906 -3.648438 6.25 -3.164062 6.875 -2.8125 C 7.507812 -2.46875 8.207031 -2.296875 8.96875 -2.296875 C 9.738281 -2.296875 10.441406 -2.460938 11.078125 -2.796875 C 11.710938 -3.128906 12.3125 -3.644531 12.875 -4.34375 C 12.976562 -4.4375 13.054688 -4.484375 13.109375 -4.484375 C 13.160156 -4.484375 13.242188 -4.453125 13.359375 -4.390625 L 15.09375 -3.625 C 15.226562 -3.570312 15.296875 -3.488281 15.296875 -3.375 C 15.296875 -3.320312 15.257812 -3.238281 15.1875 -3.125 C 14.332031 -1.894531 13.390625 -1.019531 12.359375 -0.5 C 11.328125 0.0195312 10.054688 0.28125 8.546875 0.28125 C 7.109375 0.28125 5.816406 -0.0351562 4.671875 -0.671875 C 3.523438 -1.316406 2.628906 -2.21875 1.984375 -3.375 C 1.335938 -4.53125 1.015625 -5.847656 1.015625 -7.328125 C 1.015625 -8.910156 1.34375 -10.304688 2 -11.515625 C 2.664062 -12.734375 3.566406 -13.671875 4.703125 -14.328125 C 5.835938 -14.992188 7.097656 -15.328125 8.484375 -15.328125 C 9.898438 -15.328125 11.148438 -15.015625 12.234375 -14.390625 C 13.328125 -13.765625 14.171875 -12.859375 14.765625 -11.671875 C 15.359375 -10.492188 15.65625 -9.09375 15.65625 -7.46875 L 15.65625 -7.34375 C 15.65625 -7.15625 15.628906 -7.023438 15.578125 -6.953125 C 15.523438 -6.878906 15.398438 -6.832031 15.203125 -6.8125 L 5.171875 -6.8125 C 4.960938 -6.8125 4.859375 -6.660156 4.859375 -6.359375 Z M 11.578125 -8.90625 C 11.765625 -8.90625 11.890625 -8.925781 11.953125 -8.96875 C 12.023438 -9.019531 12.0625 -9.132812 12.0625 -9.3125 C 12.0625 -9.914062 11.925781 -10.5 11.65625 -11.0625 C 11.394531 -11.632812 11.003906 -12.097656 10.484375 -12.453125 C 9.960938 -12.816406 9.34375 -13 8.625 -13 C 7.507812 -13 6.601562 -12.601562 5.90625 -11.8125 C 5.21875 -11.03125 4.882812 -10.0625 4.90625 -8.90625 Z M 11.578125 -8.90625 "/></g></g></g><g fill="#434343" fill-opacity="1"><g transform="translate(144.370691, 60.953319)"><g><path d="M 10.984375 -11.328125 C 10.597656 -11.835938 10.101562 -12.242188 9.5 -12.546875 C 8.894531 -12.847656 8.195312 -13 7.40625 -13 C 6.570312 -13 5.882812 -12.828125 5.34375 -12.484375 C 4.8125 -12.140625 4.546875 -11.695312 4.546875 -11.15625 C 4.546875 -10.832031 4.675781 -10.539062 4.9375 -10.28125 C 5.195312 -10.03125 5.679688 -9.8125 6.390625 -9.625 L 9.765625 -8.71875 C 11.179688 -8.351562 12.21875 -7.800781 12.875 -7.0625 C 13.539062 -6.320312 13.875 -5.441406 13.875 -4.421875 C 13.875 -3.460938 13.59375 -2.625 13.03125 -1.90625 C 12.476562 -1.195312 11.703125 -0.65625 10.703125 -0.28125 C 9.710938 0.09375 8.585938 0.28125 7.328125 0.28125 C 5.753906 0.28125 4.378906 -0.00390625 3.203125 -0.578125 C 2.035156 -1.160156 1.203125 -1.914062 0.703125 -2.84375 C 0.628906 -2.988281 0.59375 -3.09375 0.59375 -3.15625 C 0.59375 -3.257812 0.648438 -3.351562 0.765625 -3.4375 L 2.4375 -4.28125 C 2.570312 -4.351562 2.6875 -4.390625 2.78125 -4.390625 C 2.851562 -4.390625 2.9375 -4.34375 3.03125 -4.25 C 3.488281 -3.613281 4.039062 -3.101562 4.6875 -2.71875 C 5.34375 -2.34375 6.191406 -2.15625 7.234375 -2.15625 C 8.203125 -2.15625 8.992188 -2.320312 9.609375 -2.65625 C 10.222656 -2.988281 10.53125 -3.445312 10.53125 -4.03125 C 10.53125 -4.425781 10.363281 -4.757812 10.03125 -5.03125 C 9.695312 -5.3125 9.125 -5.554688 8.3125 -5.765625 L 5.421875 -6.4375 C 3.984375 -6.78125 2.925781 -7.289062 2.25 -7.96875 C 1.582031 -8.65625 1.25 -9.523438 1.25 -10.578125 C 1.25 -11.503906 1.5 -12.328125 2 -13.046875 C 2.5 -13.765625 3.21875 -14.320312 4.15625 -14.71875 C 5.09375 -15.125 6.1875 -15.328125 7.4375 -15.328125 C 8.78125 -15.328125 9.96875 -15.070312 11 -14.5625 C 12.039062 -14.0625 12.8125 -13.425781 13.3125 -12.65625 C 13.40625 -12.5 13.453125 -12.375 13.453125 -12.28125 C 13.453125 -12.1875 13.40625 -12.113281 13.3125 -12.0625 L 11.546875 -11.1875 C 11.429688 -11.144531 11.363281 -11.125 11.34375 -11.125 C 11.195312 -11.125 11.078125 -11.191406 10.984375 -11.328125 Z M 10.984375 -11.328125 "/></g></g></g><g fill="#434343" fill-opacity="1"><g transform="translate(159.237172, 60.953319)"><g><path d="M 5.53125 -17.8125 C 5.53125 -17.59375 5.476562 -17.429688 5.375 -17.328125 C 5.269531 -17.222656 5.097656 -17.171875 4.859375 -17.171875 L 2.265625 -17.171875 C 2.054688 -17.171875 1.914062 -17.21875 1.84375 -17.3125 C 1.769531 -17.40625 1.734375 -17.546875 1.734375 -17.734375 L 1.734375 -20.515625 C 1.734375 -20.867188 1.882812 -21.046875 2.1875 -21.046875 L 5.109375 -21.046875 C 5.242188 -21.046875 5.347656 -21.003906 5.421875 -20.921875 C 5.492188 -20.835938 5.53125 -20.722656 5.53125 -20.578125 Z M 5.46875 -0.625 C 5.46875 -0.394531 5.414062 -0.234375 5.3125 -0.140625 C 5.21875 -0.046875 5.046875 0 4.796875 0 L 2.328125 0 C 2.117188 0 1.972656 -0.0351562 1.890625 -0.109375 C 1.816406 -0.191406 1.78125 -0.328125 1.78125 -0.515625 L 1.78125 -14.5625 C 1.78125 -14.875 1.925781 -15.03125 2.21875 -15.03125 L 5.078125 -15.03125 C 5.335938 -15.03125 5.46875 -14.878906 5.46875 -14.578125 Z M 5.46875 -0.625 "/></g></g></g><g fill="#434343" fill-opacity="1"><g transform="translate(166.500187, 60.953319)"><g><path d="M 12.3125 0 C 11.957031 0 11.78125 -0.171875 11.78125 -0.515625 L 11.78125 -1.453125 C 11.78125 -1.617188 11.734375 -1.703125 11.640625 -1.703125 C 11.578125 -1.703125 11.5 -1.65625 11.40625 -1.5625 C 10.851562 -1.03125 10.238281 -0.585938 9.5625 -0.234375 C 8.894531 0.109375 8.082031 0.28125 7.125 0.28125 C 5.945312 0.28125 4.90625 -0.00390625 4 -0.578125 C 3.09375 -1.160156 2.378906 -2.019531 1.859375 -3.15625 C 1.335938 -4.300781 1.078125 -5.707031 1.078125 -7.375 C 1.078125 -8.925781 1.351562 -10.304688 1.90625 -11.515625 C 2.46875 -12.734375 3.226562 -13.671875 4.1875 -14.328125 C 5.15625 -14.992188 6.238281 -15.328125 7.4375 -15.328125 C 8.226562 -15.328125 8.921875 -15.195312 9.515625 -14.9375 C 10.109375 -14.6875 10.679688 -14.3125 11.234375 -13.8125 C 11.328125 -13.71875 11.429688 -13.671875 11.546875 -13.671875 C 11.660156 -13.671875 11.71875 -13.796875 11.71875 -14.046875 L 11.71875 -20.59375 C 11.71875 -20.894531 11.847656 -21.046875 12.109375 -21.046875 L 14.984375 -21.046875 C 15.265625 -21.046875 15.40625 -20.890625 15.40625 -20.578125 L 15.40625 -0.546875 C 15.40625 -0.347656 15.363281 -0.207031 15.28125 -0.125 C 15.195312 -0.0390625 15.039062 0 14.8125 0 Z M 11.71875 -11.328125 C 11.207031 -11.847656 10.707031 -12.234375 10.21875 -12.484375 C 9.738281 -12.742188 9.195312 -12.875 8.59375 -12.875 C 7.457031 -12.875 6.546875 -12.414062 5.859375 -11.5 C 5.171875 -10.582031 4.828125 -9.226562 4.828125 -7.4375 C 4.828125 -5.613281 5.160156 -4.265625 5.828125 -3.390625 C 6.503906 -2.523438 7.398438 -2.09375 8.515625 -2.09375 C 9.097656 -2.09375 9.632812 -2.226562 10.125 -2.5 C 10.625 -2.78125 11.015625 -3.140625 11.296875 -3.578125 C 11.578125 -4.015625 11.71875 -4.457031 11.71875 -4.90625 Z M 11.71875 -11.328125 "/></g></g></g><g fill="#434343" fill-opacity="1"><g transform="translate(183.693103, 60.953319)"><g><path d="M 4.859375 -6.359375 C 4.859375 -5.578125 5.035156 -4.878906 5.390625 -4.265625 C 5.753906 -3.648438 6.25 -3.164062 6.875 -2.8125 C 7.507812 -2.46875 8.207031 -2.296875 8.96875 -2.296875 C 9.738281 -2.296875 10.441406 -2.460938 11.078125 -2.796875 C 11.710938 -3.128906 12.3125 -3.644531 12.875 -4.34375 C 12.976562 -4.4375 13.054688 -4.484375 13.109375 -4.484375 C 13.160156 -4.484375 13.242188 -4.453125 13.359375 -4.390625 L 15.09375 -3.625 C 15.226562 -3.570312 15.296875 -3.488281 15.296875 -3.375 C 15.296875 -3.320312 15.257812 -3.238281 15.1875 -3.125 C 14.332031 -1.894531 13.390625 -1.019531 12.359375 -0.5 C 11.328125 0.0195312 10.054688 0.28125 8.546875 0.28125 C 7.109375 0.28125 5.816406 -0.0351562 4.671875 -0.671875 C 3.523438 -1.316406 2.628906 -2.21875 1.984375 -3.375 C 1.335938 -4.53125 1.015625 -5.847656 1.015625 -7.328125 C 1.015625 -8.910156 1.34375 -10.304688 2 -11.515625 C 2.664062 -12.734375 3.566406 -13.671875 4.703125 -14.328125 C 5.835938 -14.992188 7.097656 -15.328125 8.484375 -15.328125 C 9.898438 -15.328125 11.148438 -15.015625 12.234375 -14.390625 C 13.328125 -13.765625 14.171875 -12.859375 14.765625 -11.671875 C 15.359375 -10.492188 15.65625 -9.09375 15.65625 -7.46875 L 15.65625 -7.34375 C 15.65625 -7.15625 15.628906 -7.023438 15.578125 -6.953125 C 15.523438 -6.878906 15.398438 -6.832031 15.203125 -6.8125 L 5.171875 -6.8125 C 4.960938 -6.8125 4.859375 -6.660156 4.859375 -6.359375 Z M 11.578125 -8.90625 C 11.765625 -8.90625 11.890625 -8.925781 11.953125 -8.96875 C 12.023438 -9.019531 12.0625 -9.132812 12.0625 -9.3125 C 12.0625 -9.914062 11.925781 -10.5 11.65625 -11.0625 C 11.394531 -11.632812 11.003906 -12.097656 10.484375 -12.453125 C 9.960938 -12.816406 9.34375 -13 8.625 -13 C 7.507812 -13 6.601562 -12.601562 5.90625 -11.8125 C 5.21875 -11.03125 4.882812 -10.0625 4.90625 -8.90625 Z M 11.578125 -8.90625 "/></g></g></g><g fill="#434343" fill-opacity="1"><g transform="translate(200.261858, 60.953319)"><g><path d="M 2.296875 0 C 2.109375 0 1.972656 -0.0351562 1.890625 -0.109375 C 1.816406 -0.191406 1.78125 -0.328125 1.78125 -0.515625 L 1.78125 -14.5625 C 1.78125 -14.875 1.914062 -15.03125 2.1875 -15.03125 L 5.015625 -15.03125 C 5.265625 -15.03125 5.390625 -14.890625 5.390625 -14.609375 L 5.390625 -13.140625 C 5.390625 -13.023438 5.414062 -12.957031 5.46875 -12.9375 C 5.53125 -12.914062 5.609375 -12.945312 5.703125 -13.03125 C 6.585938 -13.800781 7.410156 -14.375 8.171875 -14.75 C 8.941406 -15.132812 9.773438 -15.328125 10.671875 -15.328125 C 12.066406 -15.328125 13.164062 -14.921875 13.96875 -14.109375 C 14.78125 -13.304688 15.1875 -12.242188 15.1875 -10.921875 L 15.1875 -0.59375 C 15.1875 -0.195312 14.984375 0 14.578125 0 L 11.96875 0 C 11.78125 0 11.648438 -0.0351562 11.578125 -0.109375 C 11.515625 -0.191406 11.484375 -0.328125 11.484375 -0.515625 L 11.484375 -10.265625 C 11.484375 -11.003906 11.28125 -11.578125 10.875 -11.984375 C 10.46875 -12.390625 9.878906 -12.59375 9.109375 -12.59375 C 8.441406 -12.59375 7.835938 -12.441406 7.296875 -12.140625 C 6.765625 -11.835938 6.15625 -11.347656 5.46875 -10.671875 L 5.46875 -0.5625 C 5.46875 -0.351562 5.421875 -0.207031 5.328125 -0.125 C 5.234375 -0.0390625 5.066406 0 4.828125 0 Z M 2.296875 0 "/></g></g></g><g fill="#434343" fill-opacity="1"><g transform="translate(217.057583, 60.953319)"><g><path d="M 7.296875 -12.453125 C 7.109375 -12.453125 7.015625 -12.347656 7.015625 -12.140625 L 7.015625 -4.5625 C 7.015625 -3.84375 7.160156 -3.335938 7.453125 -3.046875 C 7.742188 -2.753906 8.21875 -2.609375 8.875 -2.609375 L 10.5625 -2.609375 C 10.664062 -2.609375 10.753906 -2.570312 10.828125 -2.5 C 10.910156 -2.425781 10.953125 -2.332031 10.953125 -2.21875 L 10.921875 -0.734375 C 10.921875 -0.410156 10.742188 -0.222656 10.390625 -0.171875 C 9.703125 -0.0546875 8.660156 0 7.265625 0 C 5.972656 0 4.988281 -0.296875 4.3125 -0.890625 C 3.644531 -1.484375 3.3125 -2.390625 3.3125 -3.609375 L 3.3125 -12.09375 C 3.3125 -12.332031 3.203125 -12.453125 2.984375 -12.453125 L 1.078125 -12.453125 C 0.773438 -12.453125 0.625 -12.59375 0.625 -12.875 L 0.625 -14.671875 C 0.625 -14.910156 0.765625 -15.03125 1.046875 -15.03125 L 3.15625 -15.03125 C 3.320312 -15.03125 3.40625 -15.128906 3.40625 -15.328125 L 3.78125 -19.6875 C 3.789062 -19.863281 3.820312 -19.984375 3.875 -20.046875 C 3.9375 -20.109375 4.035156 -20.140625 4.171875 -20.140625 L 6.703125 -20.140625 C 6.804688 -20.140625 6.894531 -20.097656 6.96875 -20.015625 C 7.050781 -19.929688 7.09375 -19.8125 7.09375 -19.65625 L 7.09375 -15.328125 C 7.09375 -15.148438 7.175781 -15.0625 7.34375 -15.0625 L 10.5625 -15.0625 C 10.84375 -15.0625 10.984375 -14.929688 10.984375 -14.671875 L 10.984375 -12.875 C 10.984375 -12.59375 10.820312 -12.453125 10.5 -12.453125 Z M 7.296875 -12.453125 "/></g></g></g><g fill="#434343" fill-opacity="1"><g transform="translate(228.888358, 60.953319)"><g><path d="M 10.984375 -11.328125 C 10.597656 -11.835938 10.101562 -12.242188 9.5 -12.546875 C 8.894531 -12.847656 8.195312 -13 7.40625 -13 C 6.570312 -13 5.882812 -12.828125 5.34375 -12.484375 C 4.8125 -12.140625 4.546875 -11.695312 4.546875 -11.15625 C 4.546875 -10.832031 4.675781 -10.539062 4.9375 -10.28125 C 5.195312 -10.03125 5.679688 -9.8125 6.390625 -9.625 L 9.765625 -8.71875 C 11.179688 -8.351562 12.21875 -7.800781 12.875 -7.0625 C 13.539062 -6.320312 13.875 -5.441406 13.875 -4.421875 C 13.875 -3.460938 13.59375 -2.625 13.03125 -1.90625 C 12.476562 -1.195312 11.703125 -0.65625 10.703125 -0.28125 C 9.710938 0.09375 8.585938 0.28125 7.328125 0.28125 C 5.753906 0.28125 4.378906 -0.00390625 3.203125 -0.578125 C 2.035156 -1.160156 1.203125 -1.914062 0.703125 -2.84375 C 0.628906 -2.988281 0.59375 -3.09375 0.59375 -3.15625 C 0.59375 -3.257812 0.648438 -3.351562 0.765625 -3.4375 L 2.4375 -4.28125 C 2.570312 -4.351562 2.6875 -4.390625 2.78125 -4.390625 C 2.851562 -4.390625 2.9375 -4.34375 3.03125 -4.25 C 3.488281 -3.613281 4.039062 -3.101562 4.6875 -2.71875 C 5.34375 -2.34375 6.191406 -2.15625 7.234375 -2.15625 C 8.203125 -2.15625 8.992188 -2.320312 9.609375 -2.65625 C 10.222656 -2.988281 10.53125 -3.445312 10.53125 -4.03125 C 10.53125 -4.425781 10.363281 -4.757812 10.03125 -5.03125 C 9.695312 -5.3125 9.125 -5.554688 8.3125 -5.765625 L 5.421875 -6.4375 C 3.984375 -6.78125 2.925781 -7.289062 2.25 -7.96875 C 1.582031 -8.65625 1.25 -9.523438 1.25 -10.578125 C 1.25 -11.503906 1.5 -12.328125 2 -13.046875 C 2.5 -13.765625 3.21875 -14.320312 4.15625 -14.71875 C 5.09375 -15.125 6.1875 -15.328125 7.4375 -15.328125 C 8.78125 -15.328125 9.96875 -15.070312 11 -14.5625 C 12.039062 -14.0625 12.8125 -13.425781 13.3125 -12.65625 C 13.40625 -12.5 13.453125 -12.375 13.453125 -12.28125 C 13.453125 -12.1875 13.40625 -12.113281 13.3125 -12.0625 L 11.546875 -11.1875 C 11.429688 -11.144531 11.363281 -11.125 11.34375 -11.125 C 11.195312 -11.125 11.078125 -11.191406 10.984375 -11.328125 Z M 10.984375 -11.328125 "/></g></g></g><g fill="#434343" fill-opacity="1"><g transform="translate(243.749986, 60.953319)"><g/></g></g><g fill="#434343" fill-opacity="1"><g transform="translate(60.703126, 263.033139)"><g><path d="M 10.21875 -1.5625 C 8.894531 -0.332031 7.34375 0.28125 5.5625 0.28125 C 4.125 0.28125 2.984375 -0.0976562 2.140625 -0.859375 C 1.296875 -1.628906 0.875 -2.628906 0.875 -3.859375 C 0.875 -5.429688 1.570312 -6.679688 2.96875 -7.609375 C 4.375 -8.535156 6.335938 -9.046875 8.859375 -9.140625 L 10.28125 -9.234375 C 10.582031 -9.265625 10.734375 -9.40625 10.734375 -9.65625 L 10.734375 -10.3125 C 10.734375 -11.144531 10.484375 -11.789062 9.984375 -12.25 C 9.484375 -12.71875 8.796875 -12.953125 7.921875 -12.953125 C 6.484375 -12.953125 5.375 -12.328125 4.59375 -11.078125 C 4.539062 -10.992188 4.488281 -10.925781 4.4375 -10.875 C 4.394531 -10.832031 4.335938 -10.8125 4.265625 -10.8125 C 4.160156 -10.8125 4.082031 -10.820312 4.03125 -10.84375 L 1.640625 -11.4375 C 1.492188 -11.476562 1.421875 -11.566406 1.421875 -11.703125 C 1.421875 -11.796875 1.457031 -11.914062 1.53125 -12.0625 C 2.019531 -13.125 2.828125 -13.929688 3.953125 -14.484375 C 5.085938 -15.046875 6.46875 -15.328125 8.09375 -15.328125 C 10.207031 -15.328125 11.757812 -14.910156 12.75 -14.078125 C 13.75 -13.242188 14.25 -12.070312 14.25 -10.5625 L 14.25 -0.5625 C 14.25 -0.351562 14.210938 -0.207031 14.140625 -0.125 C 14.078125 -0.0390625 13.953125 0 13.765625 0 L 11.359375 0 C 11.179688 0 11.054688 -0.0546875 10.984375 -0.171875 C 10.910156 -0.285156 10.851562 -0.457031 10.8125 -0.6875 L 10.78125 -1.53125 C 10.769531 -1.695312 10.707031 -1.78125 10.59375 -1.78125 C 10.53125 -1.78125 10.40625 -1.707031 10.21875 -1.5625 Z M 10.734375 -6.875 C 10.734375 -7.039062 10.695312 -7.160156 10.625 -7.234375 C 10.5625 -7.316406 10.457031 -7.359375 10.3125 -7.359375 L 9.140625 -7.265625 C 7.816406 -7.171875 6.710938 -6.875 5.828125 -6.375 C 4.953125 -5.875 4.515625 -5.1875 4.515625 -4.3125 C 4.515625 -3.664062 4.742188 -3.15625 5.203125 -2.78125 C 5.671875 -2.40625 6.289062 -2.21875 7.0625 -2.21875 C 8.050781 -2.21875 8.914062 -2.519531 9.65625 -3.125 C 10.375 -3.6875 10.734375 -4.265625 10.734375 -4.859375 Z M 10.734375 -6.875 "/></g></g></g><g fill="#434343" fill-opacity="1"><g transform="translate(76.547298, 263.033139)"><g><path d="M 2.296875 0 C 1.953125 0 1.78125 -0.171875 1.78125 -0.515625 L 1.78125 -14.5625 C 1.78125 -14.882812 1.914062 -15.046875 2.1875 -15.046875 L 4.9375 -15.046875 C 5.207031 -15.046875 5.34375 -14.90625 5.34375 -14.625 L 5.34375 -12.890625 C 5.34375 -12.734375 5.390625 -12.65625 5.484375 -12.65625 C 5.535156 -12.65625 5.609375 -12.703125 5.703125 -12.796875 C 6.328125 -13.597656 7.019531 -14.21875 7.78125 -14.65625 C 8.539062 -15.101562 9.28125 -15.328125 10 -15.328125 C 10.675781 -15.328125 11.015625 -15.175781 11.015625 -14.875 L 11.015625 -12.15625 C 11.015625 -11.882812 10.890625 -11.769531 10.640625 -11.8125 C 10.109375 -11.945312 9.523438 -12.015625 8.890625 -12.015625 C 8.390625 -12.015625 7.867188 -11.878906 7.328125 -11.609375 C 6.796875 -11.347656 6.351562 -11.003906 6 -10.578125 C 5.65625 -10.148438 5.484375 -9.707031 5.484375 -9.25 L 5.484375 -0.5625 C 5.484375 -0.1875 5.265625 0 4.828125 0 Z M 2.296875 0 "/></g></g></g><g fill="#434343" fill-opacity="1"><g transform="translate(88.217467, 263.033139)"><g><path d="M 4.859375 -6.359375 C 4.859375 -5.585938 5.035156 -4.890625 5.390625 -4.265625 C 5.753906 -3.648438 6.25 -3.164062 6.875 -2.8125 C 7.507812 -2.46875 8.207031 -2.296875 8.96875 -2.296875 C 9.75 -2.296875 10.453125 -2.460938 11.078125 -2.796875 C 11.710938 -3.128906 12.316406 -3.644531 12.890625 -4.34375 C 12.984375 -4.4375 13.054688 -4.484375 13.109375 -4.484375 C 13.171875 -4.484375 13.257812 -4.457031 13.375 -4.40625 L 15.109375 -3.640625 C 15.234375 -3.578125 15.296875 -3.488281 15.296875 -3.375 C 15.296875 -3.320312 15.257812 -3.238281 15.1875 -3.125 C 14.332031 -1.894531 13.390625 -1.019531 12.359375 -0.5 C 11.328125 0.0195312 10.054688 0.28125 8.546875 0.28125 C 7.109375 0.28125 5.816406 -0.0351562 4.671875 -0.671875 C 3.523438 -1.316406 2.628906 -2.21875 1.984375 -3.375 C 1.335938 -4.53125 1.015625 -5.847656 1.015625 -7.328125 C 1.015625 -8.910156 1.347656 -10.304688 2.015625 -11.515625 C 2.679688 -12.734375 3.582031 -13.671875 4.71875 -14.328125 C 5.851562 -14.992188 7.109375 -15.328125 8.484375 -15.328125 C 9.910156 -15.328125 11.164062 -15.015625 12.25 -14.390625 C 13.34375 -13.765625 14.1875 -12.859375 14.78125 -11.671875 C 15.375 -10.492188 15.671875 -9.09375 15.671875 -7.46875 L 15.671875 -7.359375 C 15.671875 -7.160156 15.640625 -7.023438 15.578125 -6.953125 C 15.523438 -6.878906 15.40625 -6.832031 15.21875 -6.8125 L 5.171875 -6.8125 C 4.960938 -6.8125 4.859375 -6.660156 4.859375 -6.359375 Z M 11.578125 -8.921875 C 11.773438 -8.921875 11.90625 -8.941406 11.96875 -8.984375 C 12.03125 -9.035156 12.0625 -9.144531 12.0625 -9.3125 C 12.0625 -9.914062 11.925781 -10.5 11.65625 -11.0625 C 11.394531 -11.632812 11.003906 -12.097656 10.484375 -12.453125 C 9.960938 -12.816406 9.34375 -13 8.625 -13 C 7.507812 -13 6.609375 -12.601562 5.921875 -11.8125 C 5.234375 -11.03125 4.894531 -10.066406 4.90625 -8.921875 Z M 11.578125 -8.921875 "/></g></g></g><g fill="#434343" fill-opacity="1"><g transform="translate(104.799898, 263.033139)"><g/></g></g><g fill="#feb449" fill-opacity="1"><g transform="translate(110.730466, 263.033139)"><g><path d="M 7.609375 -2.40625 C 8.765625 -2.40625 9.96875 -3.0625 11.21875 -4.375 L 11.21875 -14.484375 C 11.21875 -14.859375 11.4375 -15.046875 11.875 -15.046875 L 14.421875 -15.046875 C 14.765625 -15.046875 14.9375 -14.863281 14.9375 -14.5 L 14.875 -0.453125 C 14.875 -0.148438 14.742188 0 14.484375 0 L 11.703125 0 C 11.429688 0 11.296875 -0.140625 11.296875 -0.421875 L 11.296875 -1.9375 C 11.296875 -2.03125 11.265625 -2.082031 11.203125 -2.09375 C 11.148438 -2.113281 11.085938 -2.085938 11.015625 -2.015625 C 10.140625 -1.179688 9.3125 -0.585938 8.53125 -0.234375 C 7.75 0.109375 6.910156 0.28125 6.015625 0.28125 C 4.734375 0.28125 3.679688 -0.125 2.859375 -0.9375 C 2.035156 -1.75 1.625 -2.835938 1.625 -4.203125 L 1.625 -14.453125 C 1.625 -14.847656 1.820312 -15.046875 2.21875 -15.046875 L 4.828125 -15.046875 C 4.992188 -15.046875 5.113281 -15.003906 5.1875 -14.921875 C 5.269531 -14.835938 5.3125 -14.695312 5.3125 -14.5 L 5.3125 -4.828125 C 5.3125 -4.085938 5.519531 -3.5 5.9375 -3.0625 C 6.351562 -2.625 6.910156 -2.40625 7.609375 -2.40625 Z M 7.609375 -2.40625 "/></g></g></g><g fill="#feb449" fill-opacity="1"><g transform="translate(127.426479, 263.033139)"><g><path d="M 2.296875 0 C 2.109375 0 1.972656 -0.0351562 1.890625 -0.109375 C 1.816406 -0.191406 1.78125 -0.328125 1.78125 -0.515625 L 1.78125 -14.5625 C 1.78125 -14.882812 1.914062 -15.046875 2.1875 -15.046875 L 5.03125 -15.046875 C 5.269531 -15.046875 5.390625 -14.90625 5.390625 -14.625 L 5.390625 -13.140625 C 5.390625 -13.023438 5.414062 -12.957031 5.46875 -12.9375 C 5.53125 -12.925781 5.609375 -12.957031 5.703125 -13.03125 C 6.597656 -13.8125 7.425781 -14.390625 8.1875 -14.765625 C 8.957031 -15.140625 9.785156 -15.328125 10.671875 -15.328125 C 12.078125 -15.328125 13.179688 -14.925781 13.984375 -14.125 C 14.785156 -13.320312 15.1875 -12.257812 15.1875 -10.9375 L 15.1875 -0.59375 C 15.1875 -0.195312 14.988281 0 14.59375 0 L 11.984375 0 C 11.796875 0 11.664062 -0.0351562 11.59375 -0.109375 C 11.53125 -0.191406 11.5 -0.328125 11.5 -0.515625 L 11.5 -10.28125 C 11.5 -11.019531 11.296875 -11.59375 10.890625 -12 C 10.484375 -12.40625 9.890625 -12.609375 9.109375 -12.609375 C 8.453125 -12.609375 7.851562 -12.457031 7.3125 -12.15625 C 6.769531 -11.851562 6.160156 -11.359375 5.484375 -10.671875 L 5.484375 -0.5625 C 5.484375 -0.351562 5.4375 -0.207031 5.34375 -0.125 C 5.25 -0.0390625 5.078125 0 4.828125 0 Z M 2.296875 0 "/></g></g></g><g fill="#feb449" fill-opacity="1"><g transform="translate(144.236075, 263.033139)"><g><path d="M 12.328125 0 C 11.960938 0 11.78125 -0.171875 11.78125 -0.515625 L 11.78125 -1.453125 C 11.78125 -1.617188 11.734375 -1.703125 11.640625 -1.703125 C 11.585938 -1.703125 11.507812 -1.65625 11.40625 -1.5625 C 10.863281 -1.03125 10.253906 -0.585938 9.578125 -0.234375 C 8.910156 0.109375 8.09375 0.28125 7.125 0.28125 C 5.945312 0.28125 4.90625 -0.00390625 4 -0.578125 C 3.09375 -1.160156 2.378906 -2.023438 1.859375 -3.171875 C 1.335938 -4.316406 1.078125 -5.71875 1.078125 -7.375 C 1.078125 -8.925781 1.351562 -10.304688 1.90625 -11.515625 C 2.46875 -12.734375 3.234375 -13.671875 4.203125 -14.328125 C 5.171875 -14.992188 6.25 -15.328125 7.4375 -15.328125 C 8.226562 -15.328125 8.921875 -15.195312 9.515625 -14.9375 C 10.117188 -14.6875 10.695312 -14.316406 11.25 -13.828125 C 11.34375 -13.734375 11.445312 -13.6875 11.5625 -13.6875 C 11.664062 -13.6875 11.71875 -13.804688 11.71875 -14.046875 L 11.71875 -20.609375 C 11.71875 -20.910156 11.851562 -21.0625 12.125 -21.0625 L 14.984375 -21.0625 C 15.273438 -21.0625 15.421875 -20.898438 15.421875 -20.578125 L 15.421875 -0.546875 C 15.421875 -0.347656 15.375 -0.207031 15.28125 -0.125 C 15.195312 -0.0390625 15.039062 0 14.8125 0 Z M 11.71875 -11.328125 C 11.207031 -11.859375 10.710938 -12.25 10.234375 -12.5 C 9.753906 -12.757812 9.210938 -12.890625 8.609375 -12.890625 C 7.472656 -12.890625 6.554688 -12.429688 5.859375 -11.515625 C 5.171875 -10.597656 4.828125 -9.238281 4.828125 -7.4375 C 4.828125 -5.625 5.160156 -4.28125 5.828125 -3.40625 C 6.503906 -2.53125 7.398438 -2.09375 8.515625 -2.09375 C 9.097656 -2.09375 9.632812 -2.226562 10.125 -2.5 C 10.625 -2.78125 11.015625 -3.140625 11.296875 -3.578125 C 11.578125 -4.015625 11.71875 -4.457031 11.71875 -4.90625 Z M 11.71875 -11.328125 "/></g></g></g><g fill="#feb449" fill-opacity="1"><g transform="translate(161.443192, 263.033139)"><g><path d="M 4.859375 -6.359375 C 4.859375 -5.585938 5.035156 -4.890625 5.390625 -4.265625 C 5.753906 -3.648438 6.25 -3.164062 6.875 -2.8125 C 7.507812 -2.46875 8.207031 -2.296875 8.96875 -2.296875 C 9.75 -2.296875 10.453125 -2.460938 11.078125 -2.796875 C 11.710938 -3.128906 12.316406 -3.644531 12.890625 -4.34375 C 12.984375 -4.4375 13.054688 -4.484375 13.109375 -4.484375 C 13.171875 -4.484375 13.257812 -4.457031 13.375 -4.40625 L 15.109375 -3.640625 C 15.234375 -3.578125 15.296875 -3.488281 15.296875 -3.375 C 15.296875 -3.320312 15.257812 -3.238281 15.1875 -3.125 C 14.332031 -1.894531 13.390625 -1.019531 12.359375 -0.5 C 11.328125 0.0195312 10.054688 0.28125 8.546875 0.28125 C 7.109375 0.28125 5.816406 -0.0351562 4.671875 -0.671875 C 3.523438 -1.316406 2.628906 -2.21875 1.984375 -3.375 C 1.335938 -4.53125 1.015625 -5.847656 1.015625 -7.328125 C 1.015625 -8.910156 1.347656 -10.304688 2.015625 -11.515625 C 2.679688 -12.734375 3.582031 -13.671875 4.71875 -14.328125 C 5.851562 -14.992188 7.109375 -15.328125 8.484375 -15.328125 C 9.910156 -15.328125 11.164062 -15.015625 12.25 -14.390625 C 13.34375 -13.765625 14.1875 -12.859375 14.78125 -11.671875 C 15.375 -10.492188 15.671875 -9.09375 15.671875 -7.46875 L 15.671875 -7.359375 C 15.671875 -7.160156 15.640625 -7.023438 15.578125 -6.953125 C 15.523438 -6.878906 15.40625 -6.832031 15.21875 -6.8125 L 5.171875 -6.8125 C 4.960938 -6.8125 4.859375 -6.660156 4.859375 -6.359375 Z M 11.578125 -8.921875 C 11.773438 -8.921875 11.90625 -8.941406 11.96875 -8.984375 C 12.03125 -9.035156 12.0625 -9.144531 12.0625 -9.3125 C 12.0625 -9.914062 11.925781 -10.5 11.65625 -11.0625 C 11.394531 -11.632812 11.003906 -12.097656 10.484375 -12.453125 C 9.960938 -12.816406 9.34375 -13 8.625 -13 C 7.507812 -13 6.609375 -12.601562 5.921875 -11.8125 C 5.234375 -11.03125 4.894531 -10.066406 4.90625 -8.921875 Z M 11.578125 -8.921875 "/></g></g></g><g fill="#feb449" fill-opacity="1"><g transform="translate(178.025622, 263.033139)"><g><path d="M 2.296875 0 C 1.953125 0 1.78125 -0.171875 1.78125 -0.515625 L 1.78125 -14.5625 C 1.78125 -14.882812 1.914062 -15.046875 2.1875 -15.046875 L 4.9375 -15.046875 C 5.207031 -15.046875 5.34375 -14.90625 5.34375 -14.625 L 5.34375 -12.890625 C 5.34375 -12.734375 5.390625 -12.65625 5.484375 -12.65625 C 5.535156 -12.65625 5.609375 -12.703125 5.703125 -12.796875 C 6.328125 -13.597656 7.019531 -14.21875 7.78125 -14.65625 C 8.539062 -15.101562 9.28125 -15.328125 10 -15.328125 C 10.675781 -15.328125 11.015625 -15.175781 11.015625 -14.875 L 11.015625 -12.15625 C 11.015625 -11.882812 10.890625 -11.769531 10.640625 -11.8125 C 10.109375 -11.945312 9.523438 -12.015625 8.890625 -12.015625 C 8.390625 -12.015625 7.867188 -11.878906 7.328125 -11.609375 C 6.796875 -11.347656 6.351562 -11.003906 6 -10.578125 C 5.65625 -10.148438 5.484375 -9.707031 5.484375 -9.25 L 5.484375 -0.5625 C 5.484375 -0.1875 5.265625 0 4.828125 0 Z M 2.296875 0 "/></g></g></g><g fill="#feb449" fill-opacity="1"><g transform="translate(189.695791, 263.033139)"><g/></g></g><g fill="#feb449" fill-opacity="1"><g transform="translate(195.630262, 263.033139)"><g><path d="M 7.828125 -9.03125 C 9.023438 -10.09375 9.929688 -10.957031 10.546875 -11.625 C 11.160156 -12.300781 11.585938 -12.90625 11.828125 -13.4375 C 12.078125 -13.976562 12.203125 -14.550781 12.203125 -15.15625 C 12.203125 -16.101562 11.859375 -16.851562 11.171875 -17.40625 C 10.492188 -17.96875 9.664062 -18.25 8.6875 -18.25 C 6.945312 -18.25 5.488281 -17.273438 4.3125 -15.328125 C 4.257812 -15.191406 4.144531 -15.125 3.96875 -15.125 C 3.851562 -15.125 3.734375 -15.164062 3.609375 -15.25 L 1.5 -16.359375 C 1.3125 -16.460938 1.21875 -16.601562 1.21875 -16.78125 C 1.21875 -16.894531 1.265625 -17.023438 1.359375 -17.171875 C 3.160156 -19.953125 5.695312 -21.34375 8.96875 -21.34375 C 10.382812 -21.34375 11.644531 -21.097656 12.75 -20.609375 C 13.863281 -20.117188 14.734375 -19.40625 15.359375 -18.46875 C 15.984375 -17.53125 16.296875 -16.414062 16.296875 -15.125 C 16.296875 -13.957031 15.972656 -12.863281 15.328125 -11.84375 C 14.679688 -10.832031 13.582031 -9.675781 12.03125 -8.375 L 6.609375 -3.796875 C 6.515625 -3.703125 6.46875 -3.640625 6.46875 -3.609375 C 6.46875 -3.515625 6.570312 -3.46875 6.78125 -3.46875 L 16.015625 -3.46875 C 16.179688 -3.46875 16.300781 -3.4375 16.375 -3.375 C 16.457031 -3.320312 16.5 -3.21875 16.5 -3.0625 L 16.5 -0.453125 C 16.5 -0.148438 16.328125 0 15.984375 0 L 1.765625 0 C 1.535156 0 1.375 -0.0351562 1.28125 -0.109375 C 1.195312 -0.191406 1.15625 -0.335938 1.15625 -0.546875 L 1.15625 -2.390625 C 1.15625 -2.554688 1.222656 -2.738281 1.359375 -2.9375 C 1.492188 -3.132812 1.804688 -3.429688 2.296875 -3.828125 Z M 7.828125 -9.03125 "/></g></g></g><g fill="#feb449" fill-opacity="1"><g transform="translate(213.462055, 263.033139)"><g><path d="M 10 -21.375 C 11.601562 -21.375 13.039062 -20.929688 14.3125 -20.046875 C 15.59375 -19.171875 16.597656 -17.90625 17.328125 -16.25 C 18.054688 -14.59375 18.421875 -12.664062 18.421875 -10.46875 C 18.421875 -8.28125 18.0625 -6.375 17.34375 -4.75 C 16.625 -3.132812 15.625 -1.894531 14.34375 -1.03125 C 13.070312 -0.175781 11.613281 0.25 9.96875 0.25 C 8.320312 0.25 6.859375 -0.175781 5.578125 -1.03125 C 4.296875 -1.894531 3.289062 -3.128906 2.5625 -4.734375 C 1.832031 -6.347656 1.46875 -8.253906 1.46875 -10.453125 C 1.46875 -12.660156 1.835938 -14.585938 2.578125 -16.234375 C 3.316406 -17.878906 4.328125 -19.144531 5.609375 -20.03125 C 6.898438 -20.925781 8.363281 -21.375 10 -21.375 Z M 9.96875 -2.75 C 11.363281 -2.75 12.410156 -3.359375 13.109375 -4.578125 C 13.816406 -5.804688 14.171875 -7.765625 14.171875 -10.453125 C 14.171875 -13.191406 13.8125 -15.195312 13.09375 -16.46875 C 12.382812 -17.75 11.34375 -18.390625 9.96875 -18.390625 C 7.144531 -18.390625 5.734375 -15.742188 5.734375 -10.453125 C 5.734375 -7.773438 6.09375 -5.820312 6.8125 -4.59375 C 7.53125 -3.363281 8.582031 -2.75 9.96875 -2.75 Z M 9.96875 -2.75 "/></g></g></g><g fill="#434343" fill-opacity="1"><g transform="translate(233.355459, 263.033139)"><g/></g></g><g fill="#434343" fill-opacity="1"><g transform="translate(88.921874, 293.033136)"><g><path d="M 2.984375 4.6875 C 2.335938 4.6875 1.890625 4.65625 1.640625 4.59375 C 1.398438 4.539062 1.28125 4.410156 1.28125 4.203125 L 1.28125 2.390625 C 1.28125 2.097656 1.550781 1.953125 2.09375 1.953125 L 3.96875 1.953125 C 4.582031 1.953125 5.101562 1.695312 5.53125 1.1875 C 5.96875 0.675781 6.1875 0.140625 6.1875 -0.421875 C 6.1875 -0.609375 6.160156 -0.789062 6.109375 -0.96875 L 0.65625 -14.421875 C 0.632812 -14.460938 0.625 -14.53125 0.625 -14.625 C 0.625 -14.738281 0.664062 -14.835938 0.75 -14.921875 C 0.832031 -15.003906 0.941406 -15.046875 1.078125 -15.046875 L 4.03125 -15.046875 C 4.164062 -15.046875 4.285156 -15.003906 4.390625 -14.921875 C 4.492188 -14.847656 4.5625 -14.75 4.59375 -14.625 L 8.125 -5.28125 C 8.175781 -5.113281 8.25 -5.03125 8.34375 -5.03125 C 8.4375 -5.03125 8.523438 -5.132812 8.609375 -5.34375 L 12.09375 -14.65625 C 12.226562 -14.914062 12.410156 -15.046875 12.640625 -15.046875 L 14.703125 -15.046875 C 14.859375 -15.046875 14.96875 -14.984375 15.03125 -14.859375 C 15.09375 -14.734375 15.097656 -14.609375 15.046875 -14.484375 L 9.078125 0.453125 C 8.609375 1.609375 8.101562 2.488281 7.5625 3.09375 C 7.019531 3.695312 6.394531 4.113281 5.6875 4.34375 C 4.976562 4.570312 4.078125 4.6875 2.984375 4.6875 Z M 2.984375 4.6875 "/></g></g></g><g fill="#434343" fill-opacity="1"><g transform="translate(104.652474, 293.033136)"><g><path d="M 4.859375 -6.359375 C 4.859375 -5.585938 5.035156 -4.890625 5.390625 -4.265625 C 5.753906 -3.648438 6.25 -3.164062 6.875 -2.8125 C 7.507812 -2.46875 8.207031 -2.296875 8.96875 -2.296875 C 9.75 -2.296875 10.453125 -2.460938 11.078125 -2.796875 C 11.710938 -3.128906 12.316406 -3.644531 12.890625 -4.34375 C 12.984375 -4.4375 13.054688 -4.484375 13.109375 -4.484375 C 13.171875 -4.484375 13.257812 -4.457031 13.375 -4.40625 L 15.109375 -3.640625 C 15.234375 -3.578125 15.296875 -3.488281 15.296875 -3.375 C 15.296875 -3.320312 15.257812 -3.238281 15.1875 -3.125 C 14.332031 -1.894531 13.390625 -1.019531 12.359375 -0.5 C 11.328125 0.0195312 10.054688 0.28125 8.546875 0.28125 C 7.109375 0.28125 5.816406 -0.0351562 4.671875 -0.671875 C 3.523438 -1.316406 2.628906 -2.21875 1.984375 -3.375 C 1.335938 -4.53125 1.015625 -5.847656 1.015625 -7.328125 C 1.015625 -8.910156 1.347656 -10.304688 2.015625 -11.515625 C 2.679688 -12.734375 3.582031 -13.671875 4.71875 -14.328125 C 5.851562 -14.992188 7.109375 -15.328125 8.484375 -15.328125 C 9.910156 -15.328125 11.164062 -15.015625 12.25 -14.390625 C 13.34375 -13.765625 14.1875 -12.859375 14.78125 -11.671875 C 15.375 -10.492188 15.671875 -9.09375 15.671875 -7.46875 L 15.671875 -7.359375 C 15.671875 -7.160156 15.640625 -7.023438 15.578125 -6.953125 C 15.523438 -6.878906 15.40625 -6.832031 15.21875 -6.8125 L 5.171875 -6.8125 C 4.960938 -6.8125 4.859375 -6.660156 4.859375 -6.359375 Z M 11.578125 -8.921875 C 11.773438 -8.921875 11.90625 -8.941406 11.96875 -8.984375 C 12.03125 -9.035156 12.0625 -9.144531 12.0625 -9.3125 C 12.0625 -9.914062 11.925781 -10.5 11.65625 -11.0625 C 11.394531 -11.632812 11.003906 -12.097656 10.484375 -12.453125 C 9.960938 -12.816406 9.34375 -13 8.625 -13 C 7.507812 -13 6.609375 -12.601562 5.921875 -11.8125 C 5.234375 -11.03125 4.894531 -10.066406 4.90625 -8.921875 Z M 11.578125 -8.921875 "/></g></g></g><g fill="#434343" fill-opacity="1"><g transform="translate(121.234905, 293.033136)"><g><path d="M 10.21875 -1.5625 C 8.894531 -0.332031 7.34375 0.28125 5.5625 0.28125 C 4.125 0.28125 2.984375 -0.0976562 2.140625 -0.859375 C 1.296875 -1.628906 0.875 -2.628906 0.875 -3.859375 C 0.875 -5.429688 1.570312 -6.679688 2.96875 -7.609375 C 4.375 -8.535156 6.335938 -9.046875 8.859375 -9.140625 L 10.28125 -9.234375 C 10.582031 -9.265625 10.734375 -9.40625 10.734375 -9.65625 L 10.734375 -10.3125 C 10.734375 -11.144531 10.484375 -11.789062 9.984375 -12.25 C 9.484375 -12.71875 8.796875 -12.953125 7.921875 -12.953125 C 6.484375 -12.953125 5.375 -12.328125 4.59375 -11.078125 C 4.539062 -10.992188 4.488281 -10.925781 4.4375 -10.875 C 4.394531 -10.832031 4.335938 -10.8125 4.265625 -10.8125 C 4.160156 -10.8125 4.082031 -10.820312 4.03125 -10.84375 L 1.640625 -11.4375 C 1.492188 -11.476562 1.421875 -11.566406 1.421875 -11.703125 C 1.421875 -11.796875 1.457031 -11.914062 1.53125 -12.0625 C 2.019531 -13.125 2.828125 -13.929688 3.953125 -14.484375 C 5.085938 -15.046875 6.46875 -15.328125 8.09375 -15.328125 C 10.207031 -15.328125 11.757812 -14.910156 12.75 -14.078125 C 13.75 -13.242188 14.25 -12.070312 14.25 -10.5625 L 14.25 -0.5625 C 14.25 -0.351562 14.210938 -0.207031 14.140625 -0.125 C 14.078125 -0.0390625 13.953125 0 13.765625 0 L 11.359375 0 C 11.179688 0 11.054688 -0.0546875 10.984375 -0.171875 C 10.910156 -0.285156 10.851562 -0.457031 10.8125 -0.6875 L 10.78125 -1.53125 C 10.769531 -1.695312 10.707031 -1.78125 10.59375 -1.78125 C 10.53125 -1.78125 10.40625 -1.707031 10.21875 -1.5625 Z M 10.734375 -6.875 C 10.734375 -7.039062 10.695312 -7.160156 10.625 -7.234375 C 10.5625 -7.316406 10.457031 -7.359375 10.3125 -7.359375 L 9.140625 -7.265625 C 7.816406 -7.171875 6.710938 -6.875 5.828125 -6.375 C 4.953125 -5.875 4.515625 -5.1875 4.515625 -4.3125 C 4.515625 -3.664062 4.742188 -3.15625 5.203125 -2.78125 C 5.671875 -2.40625 6.289062 -2.21875 7.0625 -2.21875 C 8.050781 -2.21875 8.914062 -2.519531 9.65625 -3.125 C 10.375 -3.6875 10.734375 -4.265625 10.734375 -4.859375 Z M 10.734375 -6.875 "/></g></g></g><g fill="#434343" fill-opacity="1"><g transform="translate(137.079077, 293.033136)"><g><path d="M 2.296875 0 C 1.953125 0 1.78125 -0.171875 1.78125 -0.515625 L 1.78125 -14.5625 C 1.78125 -14.882812 1.914062 -15.046875 2.1875 -15.046875 L 4.9375 -15.046875 C 5.207031 -15.046875 5.34375 -14.90625 5.34375 -14.625 L 5.34375 -12.890625 C 5.34375 -12.734375 5.390625 -12.65625 5.484375 -12.65625 C 5.535156 -12.65625 5.609375 -12.703125 5.703125 -12.796875 C 6.328125 -13.597656 7.019531 -14.21875 7.78125 -14.65625 C 8.539062 -15.101562 9.28125 -15.328125 10 -15.328125 C 10.675781 -15.328125 11.015625 -15.175781 11.015625 -14.875 L 11.015625 -12.15625 C 11.015625 -11.882812 10.890625 -11.769531 10.640625 -11.8125 C 10.109375 -11.945312 9.523438 -12.015625 8.890625 -12.015625 C 8.390625 -12.015625 7.867188 -11.878906 7.328125 -11.609375 C 6.796875 -11.347656 6.351562 -11.003906 6 -10.578125 C 5.65625 -10.148438 5.484375 -9.707031 5.484375 -9.25 L 5.484375 -0.5625 C 5.484375 -0.1875 5.265625 0 4.828125 0 Z M 2.296875 0 "/></g></g></g><g fill="#434343" fill-opacity="1"><g transform="translate(148.749246, 293.033136)"><g><path d="M 10.984375 -11.328125 C 10.609375 -11.835938 10.117188 -12.242188 9.515625 -12.546875 C 8.910156 -12.847656 8.207031 -13 7.40625 -13 C 6.570312 -13 5.882812 -12.828125 5.34375 -12.484375 C 4.8125 -12.148438 4.546875 -11.707031 4.546875 -11.15625 C 4.546875 -10.832031 4.675781 -10.539062 4.9375 -10.28125 C 5.207031 -10.03125 5.691406 -9.8125 6.390625 -9.625 L 9.765625 -8.71875 C 11.179688 -8.351562 12.222656 -7.800781 12.890625 -7.0625 C 13.554688 -6.332031 13.890625 -5.453125 13.890625 -4.421875 C 13.890625 -3.460938 13.609375 -2.628906 13.046875 -1.921875 C 12.484375 -1.210938 11.707031 -0.664062 10.71875 -0.28125 C 9.726562 0.09375 8.597656 0.28125 7.328125 0.28125 C 5.753906 0.28125 4.378906 -0.00390625 3.203125 -0.578125 C 2.035156 -1.160156 1.203125 -1.914062 0.703125 -2.84375 C 0.628906 -2.988281 0.59375 -3.09375 0.59375 -3.15625 C 0.59375 -3.269531 0.648438 -3.363281 0.765625 -3.4375 L 2.4375 -4.28125 C 2.570312 -4.363281 2.6875 -4.40625 2.78125 -4.40625 C 2.851562 -4.40625 2.9375 -4.359375 3.03125 -4.265625 C 3.488281 -3.617188 4.039062 -3.101562 4.6875 -2.71875 C 5.34375 -2.34375 6.191406 -2.15625 7.234375 -2.15625 C 8.203125 -2.15625 8.992188 -2.320312 9.609375 -2.65625 C 10.222656 -2.988281 10.53125 -3.445312 10.53125 -4.03125 C 10.53125 -4.425781 10.363281 -4.757812 10.03125 -5.03125 C 9.707031 -5.3125 9.132812 -5.554688 8.3125 -5.765625 L 5.421875 -6.4375 C 3.984375 -6.78125 2.925781 -7.289062 2.25 -7.96875 C 1.582031 -8.65625 1.25 -9.53125 1.25 -10.59375 C 1.25 -11.519531 1.5 -12.34375 2 -13.0625 C 2.5 -13.78125 3.21875 -14.335938 4.15625 -14.734375 C 5.09375 -15.128906 6.1875 -15.328125 7.4375 -15.328125 C 8.78125 -15.328125 9.972656 -15.078125 11.015625 -14.578125 C 12.054688 -14.078125 12.820312 -13.4375 13.3125 -12.65625 C 13.40625 -12.507812 13.453125 -12.390625 13.453125 -12.296875 C 13.453125 -12.203125 13.40625 -12.125 13.3125 -12.0625 L 11.5625 -11.1875 C 11.445312 -11.144531 11.378906 -11.125 11.359375 -11.125 C 11.203125 -11.125 11.078125 -11.191406 10.984375 -11.328125 Z M 10.984375 -11.328125 "/></g></g></g><g fill="#434343" fill-opacity="1"><g transform="translate(163.628006, 293.033136)"><g/></g></g><g fill="#434343" fill-opacity="1"><g transform="translate(169.562477, 293.033136)"><g><path d="M 8.484375 0.28125 C 7.023438 0.28125 5.726562 -0.0390625 4.59375 -0.6875 C 3.457031 -1.34375 2.578125 -2.257812 1.953125 -3.4375 C 1.328125 -4.613281 1.015625 -5.945312 1.015625 -7.4375 C 1.015625 -8.96875 1.335938 -10.332031 1.984375 -11.53125 C 2.628906 -12.738281 3.519531 -13.671875 4.65625 -14.328125 C 5.789062 -14.992188 7.078125 -15.328125 8.515625 -15.328125 C 9.972656 -15.328125 11.269531 -14.988281 12.40625 -14.3125 C 13.539062 -13.644531 14.421875 -12.710938 15.046875 -11.515625 C 15.671875 -10.328125 15.984375 -8.976562 15.984375 -7.46875 C 15.984375 -5.96875 15.664062 -4.628906 15.03125 -3.453125 C 14.394531 -2.285156 13.507812 -1.367188 12.375 -0.703125 C 11.238281 -0.046875 9.941406 0.28125 8.484375 0.28125 Z M 8.515625 -2.25 C 9.722656 -2.25 10.644531 -2.703125 11.28125 -3.609375 C 11.914062 -4.515625 12.234375 -5.820312 12.234375 -7.53125 C 12.234375 -9.25 11.910156 -10.570312 11.265625 -11.5 C 10.628906 -12.425781 9.710938 -12.890625 8.515625 -12.890625 C 7.328125 -12.890625 6.40625 -12.425781 5.75 -11.5 C 5.09375 -10.570312 4.765625 -9.25 4.765625 -7.53125 C 4.765625 -5.820312 5.09375 -4.515625 5.75 -3.609375 C 6.40625 -2.703125 7.328125 -2.25 8.515625 -2.25 Z M 8.515625 -2.25 "/></g></g></g><g fill="#434343" fill-opacity="1"><g transform="translate(186.570833, 293.033136)"><g><path d="M 5.484375 -0.625 C 5.484375 -0.375 5.4375 -0.207031 5.34375 -0.125 C 5.25 -0.0390625 5.078125 0 4.828125 0 L 2.328125 0 C 2.117188 0 1.972656 -0.0351562 1.890625 -0.109375 C 1.804688 -0.191406 1.765625 -0.328125 1.765625 -0.515625 L 1.84375 -20.578125 C 1.84375 -20.898438 1.984375 -21.0625 2.265625 -21.0625 L 5.078125 -21.0625 C 5.347656 -21.0625 5.484375 -20.910156 5.484375 -20.609375 Z M 5.484375 -0.625 "/></g></g></g><g fill="#434343" fill-opacity="1"><g transform="translate(193.868238, 293.033136)"><g><path d="M 12.328125 0 C 11.960938 0 11.78125 -0.171875 11.78125 -0.515625 L 11.78125 -1.453125 C 11.78125 -1.617188 11.734375 -1.703125 11.640625 -1.703125 C 11.585938 -1.703125 11.507812 -1.65625 11.40625 -1.5625 C 10.863281 -1.03125 10.253906 -0.585938 9.578125 -0.234375 C 8.910156 0.109375 8.09375 0.28125 7.125 0.28125 C 5.945312 0.28125 4.90625 -0.00390625 4 -0.578125 C 3.09375 -1.160156 2.378906 -2.023438 1.859375 -3.171875 C 1.335938 -4.316406 1.078125 -5.71875 1.078125 -7.375 C 1.078125 -8.925781 1.351562 -10.304688 1.90625 -11.515625 C 2.46875 -12.734375 3.234375 -13.671875 4.203125 -14.328125 C 5.171875 -14.992188 6.25 -15.328125 7.4375 -15.328125 C 8.226562 -15.328125 8.921875 -15.195312 9.515625 -14.9375 C 10.117188 -14.6875 10.695312 -14.316406 11.25 -13.828125 C 11.34375 -13.734375 11.445312 -13.6875 11.5625 -13.6875 C 11.664062 -13.6875 11.71875 -13.804688 11.71875 -14.046875 L 11.71875 -20.609375 C 11.71875 -20.910156 11.851562 -21.0625 12.125 -21.0625 L 14.984375 -21.0625 C 15.273438 -21.0625 15.421875 -20.898438 15.421875 -20.578125 L 15.421875 -0.546875 C 15.421875 -0.347656 15.375 -0.207031 15.28125 -0.125 C 15.195312 -0.0390625 15.039062 0 14.8125 0 Z M 11.71875 -11.328125 C 11.207031 -11.859375 10.710938 -12.25 10.234375 -12.5 C 9.753906 -12.757812 9.210938 -12.890625 8.609375 -12.890625 C 7.472656 -12.890625 6.554688 -12.429688 5.859375 -11.515625 C 5.171875 -10.597656 4.828125 -9.238281 4.828125 -7.4375 C 4.828125 -5.625 5.160156 -4.28125 5.828125 -3.40625 C 6.503906 -2.53125 7.398438 -2.09375 8.515625 -2.09375 C 9.097656 -2.09375 9.632812 -2.226562 10.125 -2.5 C 10.625 -2.78125 11.015625 -3.140625 11.296875 -3.578125 C 11.578125 -4.015625 11.71875 -4.457031 11.71875 -4.90625 Z M 11.71875 -11.328125 "/></g></g></g></svg>