<svg xmlns="http://www.w3.org/2000/svg" xmlns:xlink="http://www.w3.org/1999/xlink" width="1920" zoomAndPan="magnify" viewBox="0 0 1440 809.999993" height="1080" preserveAspectRatio="xMidYMid meet" version="1.0"><defs><g/></defs><path fill="rgb(34.899902%, 69.018555%, 74.508667%)" d="M 25.0625 354.058594 L 46.375 375.371094 L 115.949219 305.792969 L 94.636719 284.480469 L 25.0625 354.058594 M 106.605469 305.722656 L 46.207031 366.121094 L 34.210938 354.128906 L 94.609375 293.730469 L 106.605469 305.722656 " fill-opacity="1" fill-rule="nonzero"/><path fill="rgb(32.548523%, 68.629456%, 74.508667%)" d="M 95.183594 284.285156 L 73.871094 305.597656 L 143.449219 375.171875 L 164.761719 353.863281 L 95.183594 284.285156 M 143.519531 365.828125 L 83.121094 305.429688 L 95.113281 293.4375 L 155.511719 353.835938 L 143.519531 365.828125 " fill-opacity="1" fill-rule="nonzero"/><path fill="rgb(99.21875%, 70.588684%, 29.40979%)" d="M 24.949219 417.246094 L 46.261719 438.554688 L 115.835938 368.980469 L 94.523438 347.667969 L 24.949219 417.246094 M 106.492188 368.910156 L 46.089844 429.308594 L 34.097656 417.316406 L 94.496094 356.914062 L 106.492188 368.910156 " fill-opacity="1" fill-rule="nonzero"/><path fill="rgb(99.21875%, 70.588684%, 29.40979%)" d="M 95.070312 347.472656 L 73.757812 368.785156 L 143.335938 438.359375 L 164.648438 417.050781 L 95.070312 347.472656 M 143.40625 429.015625 L 83.007812 368.617188 L 95 356.621094 L 155.398438 417.023438 L 143.40625 429.015625 " fill-opacity="1" fill-rule="nonzero"/><path fill="rgb(99.21875%, 36.859131%, 21.958923%)" d="M 80.070312 527.734375 L 110.207031 527.734375 L 110.207031 423.132812 L 80.070312 423.132812 L 80.070312 527.734375 M 103.550781 429.683594 L 103.550781 521.316406 L 86.589844 521.316406 L 86.589844 429.683594 L 103.550781 429.683594 " fill-opacity="1" fill-rule="nonzero"/><g fill="rgb(4.708862%, 20.779419%, 42.749023%)" fill-opacity="1"><g transform="translate(184.057015, 373.42471)"><g><path d="M 78.1875 -88.171875 C 79.0625 -88.171875 79.5 -87.65625 79.5 -86.625 L 79.5 -1.546875 C 79.5 -1.066406 79.335938 -0.6875 79.015625 -0.40625 C 78.703125 -0.132812 78.269531 0 77.71875 0 L 69.984375 0 C 69.359375 0 68.863281 -0.0546875 68.5 -0.171875 C 68.144531 -0.296875 67.769531 -0.632812 67.375 -1.1875 L 24 -63.453125 C 23.6875 -64.003906 23.390625 -64.238281 23.109375 -64.15625 C 22.835938 -64.082031 22.703125 -63.804688 22.703125 -63.328125 L 22.703125 -1.65625 C 22.703125 -0.550781 22.066406 0 20.796875 0 L 12.359375 0 C 11.085938 0 10.453125 -0.550781 10.453125 -1.65625 L 10.453125 -86.390625 C 10.453125 -87.023438 10.585938 -87.476562 10.859375 -87.75 C 11.140625 -88.03125 11.597656 -88.171875 12.234375 -88.171875 L 21.515625 -88.171875 C 22.222656 -88.171875 22.753906 -88.070312 23.109375 -87.875 C 23.460938 -87.675781 23.800781 -87.300781 24.125 -86.75 L 65.71875 -26.5 C 66.1875 -25.945312 66.539062 -25.671875 66.78125 -25.671875 C 67.257812 -25.671875 67.5 -26.023438 67.5 -26.734375 L 67.5 -86.5 C 67.5 -87.613281 68.050781 -88.171875 69.15625 -88.171875 Z M 78.1875 -88.171875 "/></g></g></g><g fill="rgb(4.708862%, 20.779419%, 42.749023%)" fill-opacity="1"><g transform="translate(274.00015, 373.42471)"><g><path d="M 35.53125 1.1875 C 29.507812 1.1875 24.179688 -0.175781 19.546875 -2.90625 C 14.910156 -5.644531 11.320312 -9.46875 8.78125 -14.375 C 6.25 -19.289062 4.984375 -24.878906 4.984375 -31.140625 C 4.984375 -37.554688 6.289062 -43.273438 8.90625 -48.296875 C 11.519531 -53.328125 15.144531 -57.226562 19.78125 -60 C 24.414062 -62.78125 29.703125 -64.171875 35.640625 -64.171875 C 41.660156 -64.171875 46.988281 -62.765625 51.625 -59.953125 C 56.257812 -57.140625 59.84375 -53.238281 62.375 -48.25 C 64.914062 -43.257812 66.1875 -37.59375 66.1875 -31.25 C 66.1875 -24.988281 64.898438 -19.398438 62.328125 -14.484375 C 59.753906 -9.578125 56.148438 -5.738281 51.515625 -2.96875 C 46.878906 -0.195312 41.550781 1.1875 35.53125 1.1875 Z M 35.765625 -7.71875 C 41.304688 -7.71875 45.625 -9.796875 48.71875 -13.953125 C 51.8125 -18.117188 53.359375 -23.960938 53.359375 -31.484375 C 53.359375 -39.015625 51.789062 -44.898438 48.65625 -49.140625 C 45.53125 -53.378906 41.191406 -55.5 35.640625 -55.5 C 30.097656 -55.5 25.742188 -53.378906 22.578125 -49.140625 C 19.410156 -44.898438 17.828125 -39.015625 17.828125 -31.484375 C 17.828125 -24.035156 19.410156 -18.210938 22.578125 -14.015625 C 25.742188 -9.816406 30.140625 -7.71875 35.765625 -7.71875 Z M 35.765625 -7.71875 "/></g></g></g><g fill="rgb(4.708862%, 20.779419%, 42.749023%)" fill-opacity="1"><g transform="translate(345.170478, 373.42471)"><g><path d="M 10.21875 0 C 8.945312 0 8.3125 -0.632812 8.3125 -1.90625 L 8.3125 -61.203125 C 8.3125 -62.390625 8.828125 -62.984375 9.859375 -62.984375 L 19.015625 -62.984375 C 19.960938 -62.984375 20.4375 -62.46875 20.4375 -61.4375 L 20.4375 -53.953125 C 20.4375 -53.472656 20.570312 -53.191406 20.84375 -53.109375 C 21.125 -53.035156 21.425781 -53.195312 21.75 -53.59375 C 24.675781 -57 27.703125 -59.613281 30.828125 -61.4375 C 33.960938 -63.257812 37.035156 -64.171875 40.046875 -64.171875 C 42.816406 -64.171875 44.203125 -63.613281 44.203125 -62.5 L 44.203125 -53.234375 C 44.203125 -52.285156 43.765625 -51.890625 42.890625 -52.046875 C 41.390625 -52.441406 39.289062 -52.640625 36.59375 -52.640625 C 34.375 -52.640625 32.035156 -52.023438 29.578125 -50.796875 C 27.128906 -49.566406 25.070312 -47.960938 23.40625 -45.984375 C 21.738281 -44.003906 20.90625 -41.984375 20.90625 -39.921875 L 20.90625 -2.015625 C 20.90625 -0.671875 20.15625 0 18.65625 0 Z M 10.21875 0 "/></g></g></g><g fill="rgb(4.708862%, 20.779419%, 42.749023%)" fill-opacity="1"><g transform="translate(392.221321, 373.42471)"><g><path d="M 28.046875 -53.953125 C 27.328125 -53.953125 26.96875 -53.554688 26.96875 -52.765625 L 26.96875 -17.9375 C 26.96875 -14.613281 27.582031 -12.316406 28.8125 -11.046875 C 30.039062 -9.785156 32.003906 -9.15625 34.703125 -9.15625 L 42.296875 -9.15625 C 43.253906 -9.15625 43.734375 -8.675781 43.734375 -7.71875 L 43.734375 -2.609375 C 43.734375 -1.503906 43.140625 -0.832031 41.953125 -0.59375 C 39.410156 -0.195312 35.367188 0 29.828125 0 C 24.597656 0 20.710938 -1.207031 18.171875 -3.625 C 15.640625 -6.039062 14.375 -9.785156 14.375 -14.859375 L 14.375 -52.515625 C 14.375 -53.472656 13.976562 -53.953125 13.1875 -53.953125 L 4.28125 -53.953125 C 3.25 -53.953125 2.734375 -54.425781 2.734375 -55.375 L 2.734375 -61.671875 C 2.734375 -62.546875 3.207031 -62.984375 4.15625 -62.984375 L 13.671875 -62.984375 C 14.296875 -62.984375 14.609375 -63.335938 14.609375 -64.046875 L 16.046875 -82.703125 C 16.203125 -83.816406 16.675781 -84.375 17.46875 -84.375 L 25.671875 -84.375 C 26.703125 -84.375 27.21875 -83.738281 27.21875 -82.46875 L 27.21875 -64.046875 C 27.21875 -63.335938 27.570312 -62.984375 28.28125 -62.984375 L 42.546875 -62.984375 C 43.492188 -62.984375 43.96875 -62.546875 43.96875 -61.671875 L 43.96875 -55.375 C 43.96875 -54.425781 43.410156 -53.953125 42.296875 -53.953125 Z M 28.046875 -53.953125 "/></g></g></g><g fill="rgb(4.708862%, 20.779419%, 42.749023%)" fill-opacity="1"><g transform="translate(439.866234, 373.42471)"><g><path d="M 10.34375 0 C 9.625 0 9.125 -0.15625 8.84375 -0.46875 C 8.570312 -0.789062 8.4375 -1.269531 8.4375 -1.90625 L 8.4375 -86.390625 C 8.4375 -87.578125 8.910156 -88.171875 9.859375 -88.171875 L 19.25 -88.171875 C 20.195312 -88.171875 20.671875 -87.65625 20.671875 -86.625 L 20.671875 -55.25 C 20.671875 -54.300781 21.066406 -54.1875 21.859375 -54.90625 C 26.054688 -58.226562 29.738281 -60.601562 32.90625 -62.03125 C 36.082031 -63.457031 39.53125 -64.171875 43.25 -64.171875 C 49.351562 -64.171875 54.023438 -62.546875 57.265625 -59.296875 C 60.515625 -56.046875 62.140625 -51.570312 62.140625 -45.875 L 62.140625 -2.140625 C 62.140625 -0.710938 61.46875 0 60.125 0 L 51.328125 0 C 50.140625 0 49.546875 -0.632812 49.546875 -1.90625 L 49.546875 -43.484375 C 49.546875 -47.054688 48.632812 -49.8125 46.8125 -51.75 C 44.988281 -53.6875 42.21875 -54.65625 38.5 -54.65625 C 35.40625 -54.65625 32.609375 -53.984375 30.109375 -52.640625 C 27.617188 -51.296875 24.59375 -49 21.03125 -45.75 L 21.03125 -2.015625 C 21.03125 -0.671875 20.28125 0 18.78125 0 Z M 10.34375 0 "/></g></g></g><g fill="rgb(4.708862%, 20.779419%, 42.749023%)" fill-opacity="1"><g transform="translate(509.729603, 373.42471)"><g/></g></g><g fill="rgb(4.708862%, 20.779419%, 42.749023%)" fill-opacity="1"><g transform="translate(534.918421, 373.42471)"><g><path d="M 45.03125 -89.359375 C 50.5 -89.359375 55.648438 -88.226562 60.484375 -85.96875 C 65.316406 -83.707031 69.316406 -80.675781 72.484375 -76.875 C 75.648438 -73.070312 77.59375 -68.914062 78.3125 -64.40625 C 78.382812 -64.082031 78.421875 -63.6875 78.421875 -63.21875 C 78.421875 -62.820312 78.34375 -62.5625 78.1875 -62.4375 C 78.03125 -62.320312 77.710938 -62.222656 77.234375 -62.140625 L 66.1875 -61.4375 L 65.828125 -61.4375 C 65.359375 -61.4375 65.003906 -61.867188 64.765625 -62.734375 C 63.648438 -67.648438 61.410156 -71.570312 58.046875 -74.5 C 54.679688 -77.4375 50.503906 -78.90625 45.515625 -78.90625 C 37.828125 -78.90625 31.984375 -76.03125 27.984375 -70.28125 C 23.984375 -64.539062 21.984375 -55.847656 21.984375 -44.203125 C 21.984375 -32.640625 23.984375 -24.003906 27.984375 -18.296875 C 31.984375 -12.597656 37.984375 -9.75 45.984375 -9.75 C 51.367188 -9.75 55.863281 -11.054688 59.46875 -13.671875 C 63.070312 -16.285156 65.984375 -20.484375 68.203125 -26.265625 C 68.285156 -26.816406 68.878906 -27.015625 69.984375 -26.859375 L 78.421875 -24.828125 C 79.140625 -24.671875 79.421875 -24 79.265625 -22.8125 C 78.148438 -19.007812 76.144531 -15.285156 73.25 -11.640625 C 70.363281 -7.992188 66.539062 -4.941406 61.78125 -2.484375 C 57.03125 -0.0351562 51.566406 1.1875 45.390625 1.1875 C 37.472656 1.1875 30.617188 -0.671875 24.828125 -4.390625 C 19.046875 -8.117188 14.609375 -13.40625 11.515625 -20.25 C 8.429688 -27.101562 6.890625 -35.128906 6.890625 -44.328125 C 6.890625 -53.585938 8.414062 -61.601562 11.46875 -68.375 C 14.519531 -75.15625 18.914062 -80.347656 24.65625 -83.953125 C 30.394531 -87.554688 37.1875 -89.359375 45.03125 -89.359375 Z M 45.03125 -89.359375 "/></g></g></g><g fill="rgb(4.708862%, 20.779419%, 42.749023%)" fill-opacity="1"><g transform="translate(619.514866, 373.42471)"><g><path d="M 17.9375 -27.09375 C 17.9375 -23.53125 18.785156 -20.300781 20.484375 -17.40625 C 22.191406 -14.519531 24.507812 -12.222656 27.4375 -10.515625 C 30.375 -8.816406 33.585938 -7.96875 37.078125 -7.96875 C 40.722656 -7.96875 43.96875 -8.71875 46.8125 -10.21875 C 49.664062 -11.726562 52.28125 -14.066406 54.65625 -17.234375 C 54.894531 -17.546875 55.175781 -17.703125 55.5 -17.703125 C 55.894531 -17.703125 56.207031 -17.625 56.4375 -17.46875 L 62.5 -14.609375 C 62.894531 -14.378906 63.09375 -14.066406 63.09375 -13.671875 C 63.09375 -13.429688 62.972656 -13.113281 62.734375 -12.71875 C 59.410156 -7.800781 55.609375 -4.253906 51.328125 -2.078125 C 47.054688 0.0976562 41.867188 1.1875 35.765625 1.1875 C 29.828125 1.1875 24.519531 -0.15625 19.84375 -2.84375 C 15.164062 -5.539062 11.519531 -9.328125 8.90625 -14.203125 C 6.289062 -19.078125 4.984375 -24.601562 4.984375 -30.78125 C 4.984375 -37.4375 6.332031 -43.296875 9.03125 -48.359375 C 11.726562 -53.429688 15.390625 -57.332031 20.015625 -60.0625 C 24.648438 -62.800781 29.820312 -64.171875 35.53125 -64.171875 C 41.394531 -64.171875 46.539062 -62.878906 50.96875 -60.296875 C 55.40625 -57.722656 58.832031 -53.976562 61.25 -49.0625 C 63.664062 -44.15625 64.875 -38.335938 64.875 -31.609375 L 64.875 -31.140625 C 64.875 -30.421875 64.773438 -29.882812 64.578125 -29.53125 C 64.378906 -29.175781 63.882812 -29 63.09375 -29 L 19.125 -29 C 18.332031 -29 17.9375 -28.363281 17.9375 -27.09375 Z M 50.390625 -36.484375 C 51.179688 -36.484375 51.710938 -36.597656 51.984375 -36.828125 C 52.265625 -37.066406 52.40625 -37.503906 52.40625 -38.140625 C 52.40625 -41.234375 51.75 -44.125 50.4375 -46.8125 C 49.132812 -49.507812 47.234375 -51.671875 44.734375 -53.296875 C 42.242188 -54.921875 39.296875 -55.734375 35.890625 -55.734375 C 32.316406 -55.734375 29.179688 -54.84375 26.484375 -53.0625 C 23.796875 -51.28125 21.71875 -48.941406 20.25 -46.046875 C 18.789062 -43.148438 18.101562 -40 18.1875 -36.59375 Z M 50.390625 -36.484375 "/></g></g></g><g fill="rgb(4.708862%, 20.779419%, 42.749023%)" fill-opacity="1"><g transform="translate(688.665322, 373.42471)"><g><path d="M 10.21875 0 C 8.945312 0 8.3125 -0.632812 8.3125 -1.90625 L 8.3125 -61.203125 C 8.3125 -62.390625 8.828125 -62.984375 9.859375 -62.984375 L 19.25 -62.984375 C 20.195312 -62.984375 20.671875 -62.46875 20.671875 -61.4375 L 20.671875 -54.90625 C 20.671875 -54.425781 20.769531 -54.144531 20.96875 -54.0625 C 21.164062 -53.988281 21.460938 -54.148438 21.859375 -54.546875 C 25.984375 -57.867188 29.628906 -60.300781 32.796875 -61.84375 C 35.960938 -63.394531 39.410156 -64.171875 43.140625 -64.171875 C 49.078125 -64.171875 53.726562 -62.523438 57.09375 -59.234375 C 60.457031 -55.941406 62.140625 -51.523438 62.140625 -45.984375 L 62.140625 -2.140625 C 62.140625 -0.710938 61.46875 0 60.125 0 L 51.328125 0 C 50.140625 0 49.546875 -0.632812 49.546875 -1.90625 L 49.546875 -43.484375 C 49.546875 -47.054688 48.613281 -49.8125 46.75 -51.75 C 44.894531 -53.6875 42.101562 -54.65625 38.375 -54.65625 C 35.363281 -54.65625 32.570312 -53.960938 30 -52.578125 C 27.425781 -51.191406 24.394531 -48.914062 20.90625 -45.75 L 20.90625 -2.015625 C 20.90625 -1.304688 20.726562 -0.789062 20.375 -0.46875 C 20.019531 -0.15625 19.445312 0 18.65625 0 Z M 10.21875 0 "/></g></g></g><g fill="rgb(4.708862%, 20.779419%, 42.749023%)" fill-opacity="1"><g transform="translate(758.528668, 373.42471)"><g><path d="M 28.046875 -53.953125 C 27.328125 -53.953125 26.96875 -53.554688 26.96875 -52.765625 L 26.96875 -17.9375 C 26.96875 -14.613281 27.582031 -12.316406 28.8125 -11.046875 C 30.039062 -9.785156 32.003906 -9.15625 34.703125 -9.15625 L 42.296875 -9.15625 C 43.253906 -9.15625 43.734375 -8.675781 43.734375 -7.71875 L 43.734375 -2.609375 C 43.734375 -1.503906 43.140625 -0.832031 41.953125 -0.59375 C 39.410156 -0.195312 35.367188 0 29.828125 0 C 24.597656 0 20.710938 -1.207031 18.171875 -3.625 C 15.640625 -6.039062 14.375 -9.785156 14.375 -14.859375 L 14.375 -52.515625 C 14.375 -53.472656 13.976562 -53.953125 13.1875 -53.953125 L 4.28125 -53.953125 C 3.25 -53.953125 2.734375 -54.425781 2.734375 -55.375 L 2.734375 -61.671875 C 2.734375 -62.546875 3.207031 -62.984375 4.15625 -62.984375 L 13.671875 -62.984375 C 14.296875 -62.984375 14.609375 -63.335938 14.609375 -64.046875 L 16.046875 -82.703125 C 16.203125 -83.816406 16.675781 -84.375 17.46875 -84.375 L 25.671875 -84.375 C 26.703125 -84.375 27.21875 -83.738281 27.21875 -82.46875 L 27.21875 -64.046875 C 27.21875 -63.335938 27.570312 -62.984375 28.28125 -62.984375 L 42.546875 -62.984375 C 43.492188 -62.984375 43.96875 -62.546875 43.96875 -61.671875 L 43.96875 -55.375 C 43.96875 -54.425781 43.410156 -53.953125 42.296875 -53.953125 Z M 28.046875 -53.953125 "/></g></g></g><g fill="rgb(4.708862%, 20.779419%, 42.749023%)" fill-opacity="1"><g transform="translate(806.173605, 373.42471)"><g><path d="M 10.21875 0 C 8.945312 0 8.3125 -0.632812 8.3125 -1.90625 L 8.3125 -61.203125 C 8.3125 -62.390625 8.828125 -62.984375 9.859375 -62.984375 L 19.015625 -62.984375 C 19.960938 -62.984375 20.4375 -62.46875 20.4375 -61.4375 L 20.4375 -53.953125 C 20.4375 -53.472656 20.570312 -53.191406 20.84375 -53.109375 C 21.125 -53.035156 21.425781 -53.195312 21.75 -53.59375 C 24.675781 -57 27.703125 -59.613281 30.828125 -61.4375 C 33.960938 -63.257812 37.035156 -64.171875 40.046875 -64.171875 C 42.816406 -64.171875 44.203125 -63.613281 44.203125 -62.5 L 44.203125 -53.234375 C 44.203125 -52.285156 43.765625 -51.890625 42.890625 -52.046875 C 41.390625 -52.441406 39.289062 -52.640625 36.59375 -52.640625 C 34.375 -52.640625 32.035156 -52.023438 29.578125 -50.796875 C 27.128906 -49.566406 25.070312 -47.960938 23.40625 -45.984375 C 21.738281 -44.003906 20.90625 -41.984375 20.90625 -39.921875 L 20.90625 -2.015625 C 20.90625 -0.671875 20.15625 0 18.65625 0 Z M 10.21875 0 "/></g></g></g><g fill="rgb(4.708862%, 20.779419%, 42.749023%)" fill-opacity="1"><g transform="translate(853.22446, 373.42471)"><g><path d="M 44.328125 -7.125 C 38.535156 -1.582031 31.757812 1.1875 24 1.1875 C 17.90625 1.1875 13.09375 -0.375 9.5625 -3.5 C 6.039062 -6.632812 4.28125 -10.816406 4.28125 -16.046875 C 4.28125 -22.460938 7.070312 -27.570312 12.65625 -31.375 C 18.238281 -35.175781 26.179688 -37.3125 36.484375 -37.78125 L 44.203125 -38.375 C 45.472656 -38.539062 46.109375 -39.132812 46.109375 -40.15625 L 46.109375 -43.140625 C 46.109375 -47.015625 44.914062 -50.082031 42.53125 -52.34375 C 40.15625 -54.601562 36.910156 -55.734375 32.796875 -55.734375 C 26.296875 -55.734375 21.109375 -52.800781 17.234375 -46.9375 C 16.992188 -46.457031 16.734375 -46.160156 16.453125 -46.046875 C 16.179688 -45.929688 15.765625 -45.953125 15.203125 -46.109375 L 7.125 -48.484375 C 6.65625 -48.640625 6.421875 -48.957031 6.421875 -49.4375 C 6.421875 -49.75 6.535156 -50.179688 6.765625 -50.734375 C 8.984375 -55.015625 12.367188 -58.320312 16.921875 -60.65625 C 21.484375 -63 26.972656 -64.171875 33.390625 -64.171875 C 41.710938 -64.171875 47.929688 -62.382812 52.046875 -58.8125 C 56.160156 -55.25 58.21875 -50.300781 58.21875 -43.96875 L 58.21875 -2.015625 C 58.21875 -1.222656 58.078125 -0.6875 57.796875 -0.40625 C 57.523438 -0.132812 57.070312 0 56.4375 0 L 48.484375 0 C 47.367188 0 46.734375 -0.789062 46.578125 -2.375 L 46.34375 -6.890625 C 46.1875 -7.523438 45.945312 -7.84375 45.625 -7.84375 C 45.394531 -7.84375 44.960938 -7.601562 44.328125 -7.125 Z M 46.109375 -29.59375 C 46.109375 -30.851562 45.550781 -31.445312 44.4375 -31.375 L 38.03125 -30.890625 C 31.445312 -30.492188 26.234375 -29.164062 22.390625 -26.90625 C 18.554688 -24.65625 16.640625 -21.550781 16.640625 -17.59375 C 16.640625 -14.5 17.75 -12.0625 19.96875 -10.28125 C 22.1875 -8.5 25.15625 -7.609375 28.875 -7.609375 C 33.15625 -7.609375 37.195312 -9.070312 41 -12 C 44.40625 -14.769531 46.109375 -17.539062 46.109375 -20.3125 Z M 46.109375 -29.59375 "/></g></g></g><g fill="rgb(4.708862%, 20.779419%, 42.749023%)" fill-opacity="1"><g transform="translate(918.810472, 373.42471)"><g><path d="M 21.03125 -2.25 C 21.03125 -1.382812 20.851562 -0.789062 20.5 -0.46875 C 20.144531 -0.15625 19.488281 0 18.53125 0 L 10.453125 0 C 9.660156 0 9.101562 -0.132812 8.78125 -0.40625 C 8.46875 -0.6875 8.3125 -1.1875 8.3125 -1.90625 L 8.5625 -86.390625 C 8.5625 -87.578125 9.070312 -88.171875 10.09375 -88.171875 L 19.484375 -88.171875 C 20.515625 -88.171875 21.03125 -87.578125 21.03125 -86.390625 Z M 21.03125 -2.25 "/></g></g></g><g fill="rgb(4.708862%, 20.779419%, 42.749023%)" fill-opacity="1"><g transform="translate(948.276623, 373.42471)"><g/></g></g><g fill="rgb(4.708862%, 20.779419%, 42.749023%)" fill-opacity="1"><g transform="translate(973.465441, 373.42471)"><g><path d="M 6.296875 0 C 5.347656 0 4.875 -0.472656 4.875 -1.421875 L 5.109375 -2.5 L 35.40625 -86.265625 C 35.644531 -86.984375 35.960938 -87.476562 36.359375 -87.75 C 36.753906 -88.03125 37.3125 -88.171875 38.03125 -88.171875 L 50.03125 -88.171875 C 51.53125 -88.171875 52.519531 -87.5 53 -86.15625 L 83.0625 -2.375 C 83.132812 -2.21875 83.171875 -1.941406 83.171875 -1.546875 C 83.171875 -0.515625 82.738281 0 81.875 0 L 70.578125 0 C 69.554688 0 68.882812 -0.472656 68.5625 -1.421875 L 60.953125 -22.578125 C 60.796875 -22.972656 60.640625 -23.25 60.484375 -23.40625 C 60.328125 -23.5625 60.007812 -23.640625 59.53125 -23.640625 L 26.625 -23.640625 C 25.90625 -23.640625 25.425781 -23.328125 25.1875 -22.703125 L 17.46875 -1.1875 C 17.226562 -0.394531 16.554688 0 15.453125 0 Z M 55.84375 -34.8125 C 56.40625 -34.8125 56.742188 -34.945312 56.859375 -35.21875 C 56.972656 -35.5 56.953125 -35.921875 56.796875 -36.484375 L 43.96875 -72.125 C 43.726562 -72.675781 43.453125 -72.953125 43.140625 -72.953125 C 42.816406 -72.953125 42.535156 -72.640625 42.296875 -72.015625 L 29.109375 -36.359375 L 29 -35.640625 C 29 -35.085938 29.351562 -34.8125 30.0625 -34.8125 Z M 55.84375 -34.8125 "/></g></g></g><g fill="rgb(4.708862%, 20.779419%, 42.749023%)" fill-opacity="1"><g transform="translate(1061.507572, 373.42471)"><g><path d="M 10.21875 0 C 8.945312 0 8.3125 -0.632812 8.3125 -1.90625 L 8.3125 -61.203125 C 8.3125 -62.390625 8.828125 -62.984375 9.859375 -62.984375 L 19.015625 -62.984375 C 19.960938 -62.984375 20.4375 -62.46875 20.4375 -61.4375 L 20.4375 -53.953125 C 20.4375 -53.472656 20.570312 -53.191406 20.84375 -53.109375 C 21.125 -53.035156 21.425781 -53.195312 21.75 -53.59375 C 24.675781 -57 27.703125 -59.613281 30.828125 -61.4375 C 33.960938 -63.257812 37.035156 -64.171875 40.046875 -64.171875 C 42.816406 -64.171875 44.203125 -63.613281 44.203125 -62.5 L 44.203125 -53.234375 C 44.203125 -52.285156 43.765625 -51.890625 42.890625 -52.046875 C 41.390625 -52.441406 39.289062 -52.640625 36.59375 -52.640625 C 34.375 -52.640625 32.035156 -52.023438 29.578125 -50.796875 C 27.128906 -49.566406 25.070312 -47.960938 23.40625 -45.984375 C 21.738281 -44.003906 20.90625 -41.984375 20.90625 -39.921875 L 20.90625 -2.015625 C 20.90625 -0.671875 20.15625 0 18.65625 0 Z M 10.21875 0 "/></g></g></g><g fill="rgb(4.708862%, 20.779419%, 42.749023%)" fill-opacity="1"><g transform="translate(1108.558427, 373.42471)"><g><path d="M 17.9375 -27.09375 C 17.9375 -23.53125 18.785156 -20.300781 20.484375 -17.40625 C 22.191406 -14.519531 24.507812 -12.222656 27.4375 -10.515625 C 30.375 -8.816406 33.585938 -7.96875 37.078125 -7.96875 C 40.722656 -7.96875 43.96875 -8.71875 46.8125 -10.21875 C 49.664062 -11.726562 52.28125 -14.066406 54.65625 -17.234375 C 54.894531 -17.546875 55.175781 -17.703125 55.5 -17.703125 C 55.894531 -17.703125 56.207031 -17.625 56.4375 -17.46875 L 62.5 -14.609375 C 62.894531 -14.378906 63.09375 -14.066406 63.09375 -13.671875 C 63.09375 -13.429688 62.972656 -13.113281 62.734375 -12.71875 C 59.410156 -7.800781 55.609375 -4.253906 51.328125 -2.078125 C 47.054688 0.0976562 41.867188 1.1875 35.765625 1.1875 C 29.828125 1.1875 24.519531 -0.15625 19.84375 -2.84375 C 15.164062 -5.539062 11.519531 -9.328125 8.90625 -14.203125 C 6.289062 -19.078125 4.984375 -24.601562 4.984375 -30.78125 C 4.984375 -37.4375 6.332031 -43.296875 9.03125 -48.359375 C 11.726562 -53.429688 15.390625 -57.332031 20.015625 -60.0625 C 24.648438 -62.800781 29.820312 -64.171875 35.53125 -64.171875 C 41.394531 -64.171875 46.539062 -62.878906 50.96875 -60.296875 C 55.40625 -57.722656 58.832031 -53.976562 61.25 -49.0625 C 63.664062 -44.15625 64.875 -38.335938 64.875 -31.609375 L 64.875 -31.140625 C 64.875 -30.421875 64.773438 -29.882812 64.578125 -29.53125 C 64.378906 -29.175781 63.882812 -29 63.09375 -29 L 19.125 -29 C 18.332031 -29 17.9375 -28.363281 17.9375 -27.09375 Z M 50.390625 -36.484375 C 51.179688 -36.484375 51.710938 -36.597656 51.984375 -36.828125 C 52.265625 -37.066406 52.40625 -37.503906 52.40625 -38.140625 C 52.40625 -41.234375 51.75 -44.125 50.4375 -46.8125 C 49.132812 -49.507812 47.234375 -51.671875 44.734375 -53.296875 C 42.242188 -54.921875 39.296875 -55.734375 35.890625 -55.734375 C 32.316406 -55.734375 29.179688 -54.84375 26.484375 -53.0625 C 23.796875 -51.28125 21.71875 -48.941406 20.25 -46.046875 C 18.789062 -43.148438 18.101562 -40 18.1875 -36.59375 Z M 50.390625 -36.484375 "/></g></g></g><g fill="rgb(4.708862%, 20.779419%, 42.749023%)" fill-opacity="1"><g transform="translate(1177.708884, 373.42471)"><g><path d="M 44.328125 -7.125 C 38.535156 -1.582031 31.757812 1.1875 24 1.1875 C 17.90625 1.1875 13.09375 -0.375 9.5625 -3.5 C 6.039062 -6.632812 4.28125 -10.816406 4.28125 -16.046875 C 4.28125 -22.460938 7.070312 -27.570312 12.65625 -31.375 C 18.238281 -35.175781 26.179688 -37.3125 36.484375 -37.78125 L 44.203125 -38.375 C 45.472656 -38.539062 46.109375 -39.132812 46.109375 -40.15625 L 46.109375 -43.140625 C 46.109375 -47.015625 44.914062 -50.082031 42.53125 -52.34375 C 40.15625 -54.601562 36.910156 -55.734375 32.796875 -55.734375 C 26.296875 -55.734375 21.109375 -52.800781 17.234375 -46.9375 C 16.992188 -46.457031 16.734375 -46.160156 16.453125 -46.046875 C 16.179688 -45.929688 15.765625 -45.953125 15.203125 -46.109375 L 7.125 -48.484375 C 6.65625 -48.640625 6.421875 -48.957031 6.421875 -49.4375 C 6.421875 -49.75 6.535156 -50.179688 6.765625 -50.734375 C 8.984375 -55.015625 12.367188 -58.320312 16.921875 -60.65625 C 21.484375 -63 26.972656 -64.171875 33.390625 -64.171875 C 41.710938 -64.171875 47.929688 -62.382812 52.046875 -58.8125 C 56.160156 -55.25 58.21875 -50.300781 58.21875 -43.96875 L 58.21875 -2.015625 C 58.21875 -1.222656 58.078125 -0.6875 57.796875 -0.40625 C 57.523438 -0.132812 57.070312 0 56.4375 0 L 48.484375 0 C 47.367188 0 46.734375 -0.789062 46.578125 -2.375 L 46.34375 -6.890625 C 46.1875 -7.523438 45.945312 -7.84375 45.625 -7.84375 C 45.394531 -7.84375 44.960938 -7.601562 44.328125 -7.125 Z M 46.109375 -29.59375 C 46.109375 -30.851562 45.550781 -31.445312 44.4375 -31.375 L 38.03125 -30.890625 C 31.445312 -30.492188 26.234375 -29.164062 22.390625 -26.90625 C 18.554688 -24.65625 16.640625 -21.550781 16.640625 -17.59375 C 16.640625 -14.5 17.75 -12.0625 19.96875 -10.28125 C 22.1875 -8.5 25.15625 -7.609375 28.875 -7.609375 C 33.15625 -7.609375 37.195312 -9.070312 41 -12 C 44.40625 -14.769531 46.109375 -17.539062 46.109375 -20.3125 Z M 46.109375 -29.59375 "/></g></g></g><g fill="rgb(4.708862%, 20.779419%, 42.749023%)" fill-opacity="1"><g transform="translate(184.057015, 475.906468)"><g><path d="M 8.15625 -67.359375 C 8.15625 -68.285156 8.585938 -68.75 9.453125 -68.75 L 18.15625 -68.75 C 18.957031 -68.75 19.359375 -68.285156 19.359375 -67.359375 L 19.359375 -9.453125 C 19.359375 -9.078125 19.4375 -8.8125 19.59375 -8.65625 C 19.75 -8.507812 19.984375 -8.4375 20.296875 -8.4375 L 51.609375 -8.4375 C 52.046875 -8.4375 52.367188 -8.359375 52.578125 -8.203125 C 52.796875 -8.046875 52.90625 -7.75 52.90625 -7.3125 L 52.90625 -1.203125 C 52.90625 -0.398438 52.472656 0 51.609375 0 L 9.734375 0 C 9.171875 0 8.765625 -0.117188 8.515625 -0.359375 C 8.273438 -0.609375 8.15625 -0.984375 8.15625 -1.484375 Z M 8.15625 -67.359375 "/></g></g></g><g fill="rgb(4.708862%, 20.779419%, 42.749023%)" fill-opacity="1"><g transform="translate(240.571273, 475.906468)"><g><path d="M 34.5625 -5.5625 C 30.050781 -1.238281 24.769531 0.921875 18.71875 0.921875 C 13.957031 0.921875 10.203125 -0.296875 7.453125 -2.734375 C 4.703125 -5.171875 3.328125 -8.429688 3.328125 -12.515625 C 3.328125 -17.515625 5.503906 -21.492188 9.859375 -24.453125 C 14.222656 -27.421875 20.421875 -29.09375 28.453125 -29.46875 L 34.46875 -29.921875 C 35.457031 -30.046875 35.953125 -30.507812 35.953125 -31.3125 L 35.953125 -33.640625 C 35.953125 -36.660156 35.023438 -39.050781 33.171875 -40.8125 C 31.316406 -42.570312 28.785156 -43.453125 25.578125 -43.453125 C 20.503906 -43.453125 16.457031 -41.164062 13.4375 -36.59375 C 13.25 -36.226562 13.046875 -36 12.828125 -35.90625 C 12.617188 -35.8125 12.296875 -35.828125 11.859375 -35.953125 L 5.5625 -37.796875 C 5.1875 -37.921875 5 -38.171875 5 -38.546875 C 5 -38.796875 5.09375 -39.132812 5.28125 -39.5625 C 7.007812 -42.894531 9.648438 -45.472656 13.203125 -47.296875 C 16.753906 -49.117188 21.03125 -50.03125 26.03125 -50.03125 C 32.519531 -50.03125 37.367188 -48.640625 40.578125 -45.859375 C 43.796875 -43.078125 45.40625 -39.21875 45.40625 -34.28125 L 45.40625 -1.578125 C 45.40625 -0.960938 45.296875 -0.546875 45.078125 -0.328125 C 44.859375 -0.109375 44.503906 0 44.015625 0 L 37.796875 0 C 36.929688 0 36.441406 -0.617188 36.328125 -1.859375 L 36.140625 -5.375 C 36.015625 -5.863281 35.828125 -6.109375 35.578125 -6.109375 C 35.390625 -6.109375 35.050781 -5.925781 34.5625 -5.5625 Z M 35.953125 -23.078125 C 35.953125 -24.054688 35.519531 -24.519531 34.65625 -24.46875 L 29.65625 -24.09375 C 24.519531 -23.78125 20.453125 -22.742188 17.453125 -20.984375 C 14.460938 -19.222656 12.96875 -16.800781 12.96875 -13.71875 C 12.96875 -11.300781 13.832031 -9.398438 15.5625 -8.015625 C 17.289062 -6.628906 19.609375 -5.9375 22.515625 -5.9375 C 25.847656 -5.9375 29 -7.078125 31.96875 -9.359375 C 34.625 -11.515625 35.953125 -13.675781 35.953125 -15.84375 Z M 35.953125 -23.078125 "/></g></g></g><g fill="rgb(4.708862%, 20.779419%, 42.749023%)" fill-opacity="1"><g transform="translate(291.712037, 475.906468)"><g><path d="M 7.96875 0 C 6.976562 0 6.484375 -0.492188 6.484375 -1.484375 L 6.484375 -47.71875 C 6.484375 -48.644531 6.882812 -49.109375 7.6875 -49.109375 L 15.015625 -49.109375 C 15.753906 -49.109375 16.125 -48.707031 16.125 -47.90625 L 16.125 -42.8125 C 16.125 -42.4375 16.195312 -42.21875 16.34375 -42.15625 C 16.5 -42.09375 16.734375 -42.21875 17.046875 -42.53125 C 20.253906 -45.125 23.09375 -47.019531 25.5625 -48.21875 C 28.039062 -49.425781 30.734375 -50.03125 33.640625 -50.03125 C 38.265625 -50.03125 41.890625 -48.75 44.515625 -46.1875 C 47.140625 -43.625 48.453125 -40.179688 48.453125 -35.859375 L 48.453125 -1.671875 C 48.453125 -0.554688 47.929688 0 46.890625 0 L 40.03125 0 C 39.101562 0 38.640625 -0.492188 38.640625 -1.484375 L 38.640625 -33.90625 C 38.640625 -36.6875 37.910156 -38.832031 36.453125 -40.34375 C 35.003906 -41.863281 32.828125 -42.625 29.921875 -42.625 C 27.578125 -42.625 25.398438 -42.082031 23.390625 -41 C 21.390625 -39.914062 19.03125 -38.140625 16.3125 -35.671875 L 16.3125 -1.578125 C 16.3125 -1.015625 16.171875 -0.609375 15.890625 -0.359375 C 15.609375 -0.117188 15.160156 0 14.546875 0 Z M 7.96875 0 "/></g></g></g><g fill="rgb(4.708862%, 20.779419%, 42.749023%)" fill-opacity="1"><g transform="translate(346.18807, 475.906468)"><g><path d="M 41.140625 0 C 40.148438 0 39.65625 -0.492188 39.65625 -1.484375 L 39.65625 -5 C 39.65625 -5.5625 39.5 -5.84375 39.1875 -5.84375 C 39.007812 -5.84375 38.765625 -5.6875 38.453125 -5.375 C 36.597656 -3.582031 34.585938 -2.082031 32.421875 -0.875 C 30.265625 0.320312 27.519531 0.921875 24.1875 0.921875 C 20.289062 0.921875 16.8125 -0.015625 13.75 -1.890625 C 10.695312 -3.773438 8.304688 -6.585938 6.578125 -10.328125 C 4.847656 -14.066406 3.984375 -18.59375 3.984375 -23.90625 C 3.984375 -29.03125 4.894531 -33.566406 6.71875 -37.515625 C 8.539062 -41.472656 11.070312 -44.546875 14.3125 -46.734375 C 17.5625 -48.929688 21.191406 -50.03125 25.203125 -50.03125 C 27.859375 -50.03125 30.203125 -49.597656 32.234375 -48.734375 C 34.273438 -47.867188 36.191406 -46.664062 37.984375 -45.125 C 38.296875 -44.8125 38.609375 -44.65625 38.921875 -44.65625 C 39.285156 -44.65625 39.46875 -45.023438 39.46875 -45.765625 L 39.46875 -67.359375 C 39.46875 -68.285156 39.867188 -68.75 40.671875 -68.75 L 48.09375 -68.75 C 48.457031 -68.75 48.75 -68.625 48.96875 -68.375 C 49.1875 -68.132812 49.296875 -67.796875 49.296875 -67.359375 L 49.296875 -1.578125 C 49.296875 -1.015625 49.15625 -0.609375 48.875 -0.359375 C 48.59375 -0.117188 48.144531 0 47.53125 0 Z M 39.46875 -37.625 C 37.613281 -39.53125 35.789062 -40.945312 34 -41.875 C 32.207031 -42.800781 30.234375 -43.265625 28.078125 -43.265625 C 23.878906 -43.265625 20.476562 -41.628906 17.875 -38.359375 C 15.28125 -35.085938 13.984375 -30.363281 13.984375 -24.1875 C 13.984375 -18.007812 15.25 -13.390625 17.78125 -10.328125 C 20.320312 -7.273438 23.597656 -5.75 27.609375 -5.75 C 29.773438 -5.75 31.753906 -6.253906 33.546875 -7.265625 C 35.335938 -8.285156 36.769531 -9.582031 37.84375 -11.15625 C 38.925781 -12.738281 39.46875 -14.332031 39.46875 -15.9375 Z M 39.46875 -37.625 "/></g></g></g><g fill="rgb(4.708862%, 20.779419%, 42.749023%)" fill-opacity="1"><g transform="translate(401.961144, 475.906468)"><g/></g></g><g fill="rgb(4.708862%, 20.779419%, 42.749023%)" fill-opacity="1"><g transform="translate(421.602174, 475.906468)"><g><path d="M 58.65625 -23.71875 C 58.65625 -15.132812 56.488281 -8.878906 52.15625 -4.953125 C 47.832031 -1.035156 41.441406 0.921875 32.984375 0.921875 C 24.023438 0.921875 17.503906 -1.222656 13.421875 -5.515625 C 9.347656 -9.804688 7.3125 -16.398438 7.3125 -25.296875 L 7.3125 -67.265625 C 7.3125 -68.253906 7.71875 -68.75 8.53125 -68.75 L 17.328125 -68.75 C 18.128906 -68.75 18.53125 -68.285156 18.53125 -67.359375 L 18.53125 -23.34375 C 18.53125 -12.71875 23.625 -7.40625 33.8125 -7.40625 C 44.195312 -7.40625 49.390625 -12.8125 49.390625 -23.625 L 49.390625 -67.359375 C 49.390625 -68.285156 49.757812 -68.75 50.5 -68.75 L 57.546875 -68.75 C 58.285156 -68.75 58.65625 -68.316406 58.65625 -67.453125 Z M 58.65625 -23.71875 "/></g></g></g><g fill="rgb(4.708862%, 20.779419%, 42.749023%)" fill-opacity="1"><g transform="translate(487.659, 475.906468)"><g><path d="M 36.234375 -37.625 C 34.929688 -39.414062 33.226562 -40.847656 31.125 -41.921875 C 29.03125 -43.003906 26.59375 -43.546875 23.8125 -43.546875 C 20.726562 -43.546875 18.195312 -42.910156 16.21875 -41.640625 C 14.238281 -40.378906 13.25 -38.664062 13.25 -36.5 C 13.25 -35.269531 13.742188 -34.160156 14.734375 -33.171875 C 15.722656 -32.179688 17.515625 -31.316406 20.109375 -30.578125 L 31.5 -27.328125 C 35.820312 -26.222656 39.019531 -24.507812 41.09375 -22.1875 C 43.164062 -19.875 44.203125 -17.140625 44.203125 -13.984375 C 44.203125 -11.023438 43.320312 -8.414062 41.5625 -6.15625 C 39.800781 -3.90625 37.34375 -2.160156 34.1875 -0.921875 C 31.039062 0.304688 27.488281 0.921875 23.53125 0.921875 C 18.59375 0.921875 14.238281 -0.015625 10.46875 -1.890625 C 6.695312 -3.773438 4.007812 -6.234375 2.40625 -9.265625 C 2.21875 -9.578125 2.125 -9.851562 2.125 -10.09375 C 2.125 -10.46875 2.28125 -10.75 2.59375 -10.9375 L 7.140625 -13.34375 C 7.503906 -13.53125 7.8125 -13.625 8.0625 -13.625 C 8.375 -13.625 8.617188 -13.5 8.796875 -13.25 C 12.078125 -8.3125 16.925781 -5.84375 23.34375 -5.84375 C 26.75 -5.84375 29.5625 -6.472656 31.78125 -7.734375 C 34 -9.003906 35.109375 -10.71875 35.109375 -12.875 C 35.109375 -14.425781 34.472656 -15.738281 33.203125 -16.8125 C 31.941406 -17.894531 29.863281 -18.804688 26.96875 -19.546875 L 17.515625 -21.953125 C 12.941406 -23.066406 9.601562 -24.703125 7.5 -26.859375 C 5.40625 -29.023438 4.359375 -31.75 4.359375 -35.03125 C 4.359375 -37.988281 5.175781 -40.59375 6.8125 -42.84375 C 8.445312 -45.101562 10.726562 -46.863281 13.65625 -48.125 C 16.59375 -49.394531 20.007812 -50.03125 23.90625 -50.03125 C 28.101562 -50.03125 31.867188 -49.226562 35.203125 -47.625 C 38.546875 -46.019531 41.050781 -43.921875 42.71875 -41.328125 C 42.957031 -40.953125 43.078125 -40.640625 43.078125 -40.390625 C 43.078125 -40.148438 42.925781 -39.9375 42.625 -39.75 L 37.796875 -37.25 C 37.679688 -37.1875 37.5 -37.15625 37.25 -37.15625 C 36.875 -37.15625 36.535156 -37.3125 36.234375 -37.625 Z M 36.234375 -37.625 "/></g></g></g><g fill="rgb(4.708862%, 20.779419%, 42.749023%)" fill-opacity="1"><g transform="translate(535.649785, 475.906468)"><g><path d="M 13.984375 -21.125 C 13.984375 -18.34375 14.644531 -15.820312 15.96875 -13.5625 C 17.300781 -11.3125 19.109375 -9.519531 21.390625 -8.1875 C 23.679688 -6.863281 26.1875 -6.203125 28.90625 -6.203125 C 31.75 -6.203125 34.28125 -6.789062 36.5 -7.96875 C 38.726562 -9.144531 40.769531 -10.96875 42.625 -13.4375 C 42.8125 -13.6875 43.023438 -13.8125 43.265625 -13.8125 C 43.578125 -13.8125 43.828125 -13.75 44.015625 -13.625 L 48.734375 -11.390625 C 49.046875 -11.210938 49.203125 -10.96875 49.203125 -10.65625 C 49.203125 -10.46875 49.109375 -10.222656 48.921875 -9.921875 C 46.328125 -6.085938 43.363281 -3.320312 40.03125 -1.625 C 36.695312 0.0703125 32.648438 0.921875 27.890625 0.921875 C 23.253906 0.921875 19.113281 -0.125 15.46875 -2.21875 C 11.820312 -4.320312 8.976562 -7.269531 6.9375 -11.0625 C 4.90625 -14.863281 3.890625 -19.175781 3.890625 -24 C 3.890625 -29.1875 4.9375 -33.753906 7.03125 -37.703125 C 9.132812 -41.660156 11.992188 -44.703125 15.609375 -46.828125 C 19.222656 -48.960938 23.253906 -50.03125 27.703125 -50.03125 C 32.273438 -50.03125 36.289062 -49.023438 39.75 -47.015625 C 43.207031 -45.015625 45.878906 -42.097656 47.765625 -38.265625 C 49.648438 -34.429688 50.59375 -29.890625 50.59375 -24.640625 L 50.59375 -24.28125 C 50.59375 -23.71875 50.515625 -23.296875 50.359375 -23.015625 C 50.203125 -22.742188 49.816406 -22.609375 49.203125 -22.609375 L 14.921875 -22.609375 C 14.296875 -22.609375 13.984375 -22.113281 13.984375 -21.125 Z M 39.28125 -28.453125 C 39.90625 -28.453125 40.320312 -28.539062 40.53125 -28.71875 C 40.75 -28.90625 40.859375 -29.25 40.859375 -29.75 C 40.859375 -32.15625 40.347656 -34.40625 39.328125 -36.5 C 38.304688 -38.601562 36.820312 -40.285156 34.875 -41.546875 C 32.9375 -42.816406 30.640625 -43.453125 27.984375 -43.453125 C 25.203125 -43.453125 22.757812 -42.753906 20.65625 -41.359375 C 18.5625 -39.972656 16.941406 -38.148438 15.796875 -35.890625 C 14.648438 -33.640625 14.109375 -31.1875 14.171875 -28.53125 Z M 39.28125 -28.453125 "/></g></g></g><g fill="rgb(4.708862%, 20.779419%, 42.749023%)" fill-opacity="1"><g transform="translate(589.569948, 475.906468)"><g/></g></g><g fill="rgb(4.708862%, 20.779419%, 42.749023%)" fill-opacity="1"><g transform="translate(609.210977, 475.906468)"><g><path d="M 60.140625 -48.28125 C 60.140625 -41.664062 57.898438 -36.628906 53.421875 -33.171875 C 48.941406 -29.710938 42.960938 -27.984375 35.484375 -27.984375 L 20.296875 -27.984375 C 19.671875 -27.984375 19.359375 -27.675781 19.359375 -27.0625 L 19.359375 -1.578125 C 19.359375 -0.523438 18.804688 0 17.703125 0 L 9.640625 0 C 8.648438 0 8.15625 -0.460938 8.15625 -1.390625 L 8.15625 -67.359375 C 8.15625 -67.859375 8.242188 -68.210938 8.421875 -68.421875 C 8.609375 -68.640625 8.953125 -68.75 9.453125 -68.75 L 34.1875 -68.75 C 41.96875 -68.75 48.238281 -67.035156 53 -63.609375 C 57.757812 -60.179688 60.140625 -55.070312 60.140625 -48.28125 Z M 48.640625 -48.546875 C 48.640625 -56.515625 43.609375 -60.5 33.546875 -60.5 L 20.75 -60.5 C 20.257812 -60.5 19.90625 -60.40625 19.6875 -60.21875 C 19.46875 -60.039062 19.359375 -59.703125 19.359375 -59.203125 L 19.359375 -37.625 C 19.359375 -36.695312 19.703125 -36.234375 20.390625 -36.234375 L 34.1875 -36.234375 C 38.695312 -36.234375 42.234375 -37.265625 44.796875 -39.328125 C 47.359375 -41.398438 48.640625 -44.472656 48.640625 -48.546875 Z M 48.640625 -48.546875 "/></g></g></g><g fill="rgb(4.708862%, 20.779419%, 42.749023%)" fill-opacity="1"><g transform="translate(673.878104, 475.906468)"><g><path d="M 16.40625 -1.765625 C 16.40625 -1.078125 16.265625 -0.609375 15.984375 -0.359375 C 15.703125 -0.117188 15.191406 0 14.453125 0 L 8.15625 0 C 7.539062 0 7.109375 -0.109375 6.859375 -0.328125 C 6.609375 -0.546875 6.484375 -0.929688 6.484375 -1.484375 L 6.671875 -67.359375 C 6.671875 -68.285156 7.070312 -68.75 7.875 -68.75 L 15.203125 -68.75 C 16.003906 -68.75 16.40625 -68.285156 16.40625 -67.359375 Z M 16.40625 -1.765625 "/></g></g></g><g fill="rgb(4.708862%, 20.779419%, 42.749023%)" fill-opacity="1"><g transform="translate(696.854402, 475.906468)"><g><path d="M 34.5625 -5.5625 C 30.050781 -1.238281 24.769531 0.921875 18.71875 0.921875 C 13.957031 0.921875 10.203125 -0.296875 7.453125 -2.734375 C 4.703125 -5.171875 3.328125 -8.429688 3.328125 -12.515625 C 3.328125 -17.515625 5.503906 -21.492188 9.859375 -24.453125 C 14.222656 -27.421875 20.421875 -29.09375 28.453125 -29.46875 L 34.46875 -29.921875 C 35.457031 -30.046875 35.953125 -30.507812 35.953125 -31.3125 L 35.953125 -33.640625 C 35.953125 -36.660156 35.023438 -39.050781 33.171875 -40.8125 C 31.316406 -42.570312 28.785156 -43.453125 25.578125 -43.453125 C 20.503906 -43.453125 16.457031 -41.164062 13.4375 -36.59375 C 13.25 -36.226562 13.046875 -36 12.828125 -35.90625 C 12.617188 -35.8125 12.296875 -35.828125 11.859375 -35.953125 L 5.5625 -37.796875 C 5.1875 -37.921875 5 -38.171875 5 -38.546875 C 5 -38.796875 5.09375 -39.132812 5.28125 -39.5625 C 7.007812 -42.894531 9.648438 -45.472656 13.203125 -47.296875 C 16.753906 -49.117188 21.03125 -50.03125 26.03125 -50.03125 C 32.519531 -50.03125 37.367188 -48.640625 40.578125 -45.859375 C 43.796875 -43.078125 45.40625 -39.21875 45.40625 -34.28125 L 45.40625 -1.578125 C 45.40625 -0.960938 45.296875 -0.546875 45.078125 -0.328125 C 44.859375 -0.109375 44.503906 0 44.015625 0 L 37.796875 0 C 36.929688 0 36.441406 -0.617188 36.328125 -1.859375 L 36.140625 -5.375 C 36.015625 -5.863281 35.828125 -6.109375 35.578125 -6.109375 C 35.390625 -6.109375 35.050781 -5.925781 34.5625 -5.5625 Z M 35.953125 -23.078125 C 35.953125 -24.054688 35.519531 -24.519531 34.65625 -24.46875 L 29.65625 -24.09375 C 24.519531 -23.78125 20.453125 -22.742188 17.453125 -20.984375 C 14.460938 -19.222656 12.96875 -16.800781 12.96875 -13.71875 C 12.96875 -11.300781 13.832031 -9.398438 15.5625 -8.015625 C 17.289062 -6.628906 19.609375 -5.9375 22.515625 -5.9375 C 25.847656 -5.9375 29 -7.078125 31.96875 -9.359375 C 34.625 -11.515625 35.953125 -13.675781 35.953125 -15.84375 Z M 35.953125 -23.078125 "/></g></g></g><g fill="rgb(4.708862%, 20.779419%, 42.749023%)" fill-opacity="1"><g transform="translate(747.995166, 475.906468)"><g><path d="M 7.96875 0 C 6.976562 0 6.484375 -0.492188 6.484375 -1.484375 L 6.484375 -47.71875 C 6.484375 -48.644531 6.882812 -49.109375 7.6875 -49.109375 L 15.015625 -49.109375 C 15.753906 -49.109375 16.125 -48.707031 16.125 -47.90625 L 16.125 -42.8125 C 16.125 -42.4375 16.195312 -42.21875 16.34375 -42.15625 C 16.5 -42.09375 16.734375 -42.21875 17.046875 -42.53125 C 20.253906 -45.125 23.09375 -47.019531 25.5625 -48.21875 C 28.039062 -49.425781 30.734375 -50.03125 33.640625 -50.03125 C 38.265625 -50.03125 41.890625 -48.75 44.515625 -46.1875 C 47.140625 -43.625 48.453125 -40.179688 48.453125 -35.859375 L 48.453125 -1.671875 C 48.453125 -0.554688 47.929688 0 46.890625 0 L 40.03125 0 C 39.101562 0 38.640625 -0.492188 38.640625 -1.484375 L 38.640625 -33.90625 C 38.640625 -36.6875 37.910156 -38.832031 36.453125 -40.34375 C 35.003906 -41.863281 32.828125 -42.625 29.921875 -42.625 C 27.578125 -42.625 25.398438 -42.082031 23.390625 -41 C 21.390625 -39.914062 19.03125 -38.140625 16.3125 -35.671875 L 16.3125 -1.578125 C 16.3125 -1.015625 16.171875 -0.609375 15.890625 -0.359375 C 15.609375 -0.117188 15.160156 0 14.546875 0 Z M 7.96875 0 "/></g></g></g><g fill="rgb(99.21875%, 36.859131%, 21.958923%)" fill-opacity="1"><g transform="translate(184.057015, 522.612496)"><g><path d="M 10.109375 -16.265625 C 8.140625 -16.265625 6.585938 -15.609375 5.453125 -14.296875 C 4.316406 -12.992188 3.75 -11.207031 3.75 -8.9375 C 3.75 -6.59375 4.296875 -4.78125 5.390625 -3.5 C 6.492188 -2.226562 8.054688 -1.59375 10.078125 -1.59375 C 11.328125 -1.59375 12.75 -1.816406 14.34375 -2.265625 L 14.34375 -0.453125 C 13.101562 0.015625 11.578125 0.25 9.765625 0.25 C 7.128906 0.25 5.097656 -0.546875 3.671875 -2.140625 C 2.242188 -3.742188 1.53125 -6.015625 1.53125 -8.953125 C 1.53125 -10.796875 1.875 -12.410156 2.5625 -13.796875 C 3.25 -15.179688 4.242188 -16.25 5.546875 -17 C 6.847656 -17.75 8.375 -18.125 10.125 -18.125 C 12 -18.125 13.640625 -17.78125 15.046875 -17.09375 L 14.171875 -15.3125 C 12.816406 -15.945312 11.460938 -16.265625 10.109375 -16.265625 Z M 10.109375 -16.265625 "/></g></g><g transform="translate(199.845458, 522.612496)"><g><path d="M 4.0625 -13.390625 L 4.0625 -4.703125 C 4.0625 -3.609375 4.304688 -2.789062 4.796875 -2.25 C 5.296875 -1.71875 6.078125 -1.453125 7.140625 -1.453125 C 8.535156 -1.453125 9.554688 -1.832031 10.203125 -2.59375 C 10.859375 -3.363281 11.1875 -4.617188 11.1875 -6.359375 L 11.1875 -13.390625 L 13.21875 -13.390625 L 13.21875 0 L 11.53125 0 L 11.25 -1.796875 L 11.140625 -1.796875 C 10.722656 -1.140625 10.144531 -0.632812 9.40625 -0.28125 C 8.664062 0.0703125 7.820312 0.25 6.875 0.25 C 5.25 0.25 4.03125 -0.132812 3.21875 -0.90625 C 2.40625 -1.6875 2 -2.925781 2 -4.625 L 2 -13.390625 Z M 4.0625 -13.390625 "/></g></g><g transform="translate(215.206195, 522.612496)"><g><path d="M 19.21875 0 L 19.21875 -8.71875 C 19.21875 -9.78125 18.988281 -10.578125 18.53125 -11.109375 C 18.082031 -11.648438 17.378906 -11.921875 16.421875 -11.921875 C 15.148438 -11.921875 14.210938 -11.554688 13.609375 -10.828125 C 13.015625 -10.097656 12.71875 -8.984375 12.71875 -7.484375 L 12.71875 0 L 10.6875 0 L 10.6875 -8.71875 C 10.6875 -9.78125 10.457031 -10.578125 10 -11.109375 C 9.539062 -11.648438 8.828125 -11.921875 7.859375 -11.921875 C 6.585938 -11.921875 5.65625 -11.535156 5.0625 -10.765625 C 4.476562 -10.003906 4.1875 -8.757812 4.1875 -7.03125 L 4.1875 0 L 2.15625 0 L 2.15625 -13.390625 L 3.796875 -13.390625 L 4.125 -11.5625 L 4.234375 -11.5625 C 4.609375 -12.21875 5.144531 -12.726562 5.84375 -13.09375 C 6.539062 -13.457031 7.320312 -13.640625 8.1875 -13.640625 C 10.28125 -13.640625 11.648438 -12.878906 12.296875 -11.359375 L 12.390625 -11.359375 C 12.796875 -12.066406 13.375 -12.625 14.125 -13.03125 C 14.882812 -13.4375 15.75 -13.640625 16.71875 -13.640625 C 18.238281 -13.640625 19.375 -13.25 20.125 -12.46875 C 20.875 -11.695312 21.25 -10.453125 21.25 -8.734375 L 21.25 0 Z M 19.21875 0 "/></g></g><g transform="translate(238.485594, 522.612496)"><g><path d="M 8.390625 -13.609375 C 10.148438 -13.609375 11.515625 -13.007812 12.484375 -11.8125 C 13.460938 -10.613281 13.953125 -8.910156 13.953125 -6.703125 C 13.953125 -4.503906 13.457031 -2.796875 12.46875 -1.578125 C 11.488281 -0.359375 10.128906 0.25 8.390625 0.25 C 7.515625 0.25 6.710938 0.0859375 5.984375 -0.234375 C 5.265625 -0.554688 4.664062 -1.050781 4.1875 -1.71875 L 4.03125 -1.71875 L 3.609375 0 L 2.15625 0 L 2.15625 -19.015625 L 4.1875 -19.015625 L 4.1875 -14.390625 C 4.1875 -13.359375 4.148438 -12.429688 4.078125 -11.609375 L 4.1875 -11.609375 C 5.125 -12.941406 6.523438 -13.609375 8.390625 -13.609375 Z M 8.09375 -11.921875 C 6.707031 -11.921875 5.707031 -11.519531 5.09375 -10.71875 C 4.488281 -9.925781 4.1875 -8.585938 4.1875 -6.703125 C 4.1875 -4.828125 4.5 -3.484375 5.125 -2.671875 C 5.75 -1.859375 6.753906 -1.453125 8.140625 -1.453125 C 9.390625 -1.453125 10.316406 -1.90625 10.921875 -2.8125 C 11.535156 -3.726562 11.84375 -5.035156 11.84375 -6.734375 C 11.84375 -8.472656 11.535156 -9.769531 10.921875 -10.625 C 10.316406 -11.488281 9.375 -11.921875 8.09375 -11.921875 Z M 8.09375 -11.921875 "/></g></g><g transform="translate(253.821891, 522.612496)"><g><path d="M 7.8125 0.25 C 5.832031 0.25 4.269531 -0.351562 3.125 -1.5625 C 1.976562 -2.769531 1.40625 -4.445312 1.40625 -6.59375 C 1.40625 -8.75 1.9375 -10.460938 3 -11.734375 C 4.0625 -13.003906 5.488281 -13.640625 7.28125 -13.640625 C 8.957031 -13.640625 10.285156 -13.085938 11.265625 -11.984375 C 12.242188 -10.878906 12.734375 -9.421875 12.734375 -7.609375 L 12.734375 -6.328125 L 3.5 -6.328125 C 3.539062 -4.753906 3.9375 -3.5625 4.6875 -2.75 C 5.445312 -1.9375 6.515625 -1.53125 7.890625 -1.53125 C 9.328125 -1.53125 10.75 -1.832031 12.15625 -2.4375 L 12.15625 -0.625 C 11.4375 -0.3125 10.757812 -0.0859375 10.125 0.046875 C 9.488281 0.179688 8.71875 0.25 7.8125 0.25 Z M 7.265625 -11.9375 C 6.179688 -11.9375 5.320312 -11.585938 4.6875 -10.890625 C 4.050781 -10.191406 3.675781 -9.222656 3.5625 -7.984375 L 10.5625 -7.984375 C 10.5625 -9.265625 10.273438 -10.242188 9.703125 -10.921875 C 9.128906 -11.597656 8.316406 -11.9375 7.265625 -11.9375 Z M 7.265625 -11.9375 "/></g></g><g transform="translate(267.862852, 522.612496)"><g><path d="M 8.265625 -13.640625 C 8.859375 -13.640625 9.390625 -13.59375 9.859375 -13.5 L 9.578125 -11.609375 C 9.023438 -11.734375 8.535156 -11.796875 8.109375 -11.796875 C 7.023438 -11.796875 6.097656 -11.351562 5.328125 -10.46875 C 4.566406 -9.59375 4.1875 -8.5 4.1875 -7.1875 L 4.1875 0 L 2.15625 0 L 2.15625 -13.390625 L 3.828125 -13.390625 L 4.0625 -10.921875 L 4.15625 -10.921875 C 4.65625 -11.785156 5.253906 -12.453125 5.953125 -12.921875 C 6.648438 -13.398438 7.421875 -13.640625 8.265625 -13.640625 Z M 8.265625 -13.640625 "/></g></g><g transform="translate(278.078903, 522.612496)"><g><path d="M 4.1875 0 L 2.15625 0 L 2.15625 -19.015625 L 4.1875 -19.015625 Z M 4.1875 0 "/></g></g><g transform="translate(284.408945, 522.612496)"><g><path d="M 10.390625 0 L 9.984375 -1.90625 L 9.890625 -1.90625 C 9.222656 -1.0625 8.554688 -0.488281 7.890625 -0.1875 C 7.222656 0.101562 6.394531 0.25 5.40625 0.25 C 4.070312 0.25 3.03125 -0.09375 2.28125 -0.78125 C 1.53125 -1.46875 1.15625 -2.441406 1.15625 -3.703125 C 1.15625 -6.410156 3.316406 -7.828125 7.640625 -7.953125 L 9.90625 -8.03125 L 9.90625 -8.859375 C 9.90625 -9.910156 9.679688 -10.6875 9.234375 -11.1875 C 8.785156 -11.6875 8.0625 -11.9375 7.0625 -11.9375 C 5.945312 -11.9375 4.6875 -11.597656 3.28125 -10.921875 L 2.65625 -12.46875 C 3.3125 -12.820312 4.03125 -13.097656 4.8125 -13.296875 C 5.601562 -13.503906 6.394531 -13.609375 7.1875 -13.609375 C 8.78125 -13.609375 9.960938 -13.253906 10.734375 -12.546875 C 11.503906 -11.835938 11.890625 -10.703125 11.890625 -9.140625 L 11.890625 0 Z M 5.8125 -1.4375 C 7.070312 -1.4375 8.0625 -1.78125 8.78125 -2.46875 C 9.5 -3.15625 9.859375 -4.125 9.859375 -5.375 L 9.859375 -6.59375 L 7.828125 -6.5 C 6.222656 -6.445312 5.0625 -6.195312 4.34375 -5.75 C 3.632812 -5.300781 3.28125 -4.609375 3.28125 -3.671875 C 3.28125 -2.941406 3.5 -2.382812 3.9375 -2 C 4.382812 -1.625 5.007812 -1.4375 5.8125 -1.4375 Z M 5.8125 -1.4375 "/></g></g><g transform="translate(298.327704, 522.612496)"><g><path d="M 11.3125 0 L 11.3125 -8.671875 C 11.3125 -9.753906 11.0625 -10.566406 10.5625 -11.109375 C 10.070312 -11.648438 9.296875 -11.921875 8.234375 -11.921875 C 6.835938 -11.921875 5.8125 -11.539062 5.15625 -10.78125 C 4.507812 -10.019531 4.1875 -8.769531 4.1875 -7.03125 L 4.1875 0 L 2.15625 0 L 2.15625 -13.390625 L 3.796875 -13.390625 L 4.125 -11.5625 L 4.234375 -11.5625 C 4.648438 -12.21875 5.226562 -12.726562 5.96875 -13.09375 C 6.71875 -13.457031 7.554688 -13.640625 8.484375 -13.640625 C 10.097656 -13.640625 11.3125 -13.25 12.125 -12.46875 C 12.9375 -11.695312 13.34375 -10.453125 13.34375 -8.734375 L 13.34375 0 Z M 11.3125 0 "/></g></g><g transform="translate(313.688441, 522.612496)"><g><path d="M 11.265625 -1.796875 L 11.15625 -1.796875 C 10.21875 -0.429688 8.816406 0.25 6.953125 0.25 C 5.203125 0.25 3.835938 -0.347656 2.859375 -1.546875 C 1.890625 -2.742188 1.40625 -4.445312 1.40625 -6.65625 C 1.40625 -8.863281 1.894531 -10.578125 2.875 -11.796875 C 3.851562 -13.023438 5.210938 -13.640625 6.953125 -13.640625 C 8.773438 -13.640625 10.171875 -12.976562 11.140625 -11.65625 L 11.296875 -11.65625 L 11.203125 -12.625 L 11.15625 -13.5625 L 11.15625 -19.015625 L 13.1875 -19.015625 L 13.1875 0 L 11.53125 0 Z M 7.21875 -1.453125 C 8.59375 -1.453125 9.59375 -1.828125 10.21875 -2.578125 C 10.84375 -3.335938 11.15625 -4.554688 11.15625 -6.234375 L 11.15625 -6.65625 C 11.15625 -8.5625 10.835938 -9.914062 10.203125 -10.71875 C 9.578125 -11.53125 8.570312 -11.9375 7.1875 -11.9375 C 6 -11.9375 5.085938 -11.472656 4.453125 -10.546875 C 3.816406 -9.628906 3.5 -8.328125 3.5 -6.640625 C 3.5 -4.921875 3.8125 -3.625 4.4375 -2.75 C 5.070312 -1.882812 6 -1.453125 7.21875 -1.453125 Z M 7.21875 -1.453125 "/></g></g><g transform="translate(329.024738, 522.612496)"><g/></g><g transform="translate(335.525862, 522.612496)"><g><path d="M 10.109375 -16.265625 C 8.140625 -16.265625 6.585938 -15.609375 5.453125 -14.296875 C 4.316406 -12.992188 3.75 -11.207031 3.75 -8.9375 C 3.75 -6.59375 4.296875 -4.78125 5.390625 -3.5 C 6.492188 -2.226562 8.054688 -1.59375 10.078125 -1.59375 C 11.328125 -1.59375 12.75 -1.816406 14.34375 -2.265625 L 14.34375 -0.453125 C 13.101562 0.015625 11.578125 0.25 9.765625 0.25 C 7.128906 0.25 5.097656 -0.546875 3.671875 -2.140625 C 2.242188 -3.742188 1.53125 -6.015625 1.53125 -8.953125 C 1.53125 -10.796875 1.875 -12.410156 2.5625 -13.796875 C 3.25 -15.179688 4.242188 -16.25 5.546875 -17 C 6.847656 -17.75 8.375 -18.125 10.125 -18.125 C 12 -18.125 13.640625 -17.78125 15.046875 -17.09375 L 14.171875 -15.3125 C 12.816406 -15.945312 11.460938 -16.265625 10.109375 -16.265625 Z M 10.109375 -16.265625 "/></g></g><g transform="translate(351.314305, 522.612496)"><g><path d="M 13.71875 -6.703125 C 13.71875 -4.523438 13.164062 -2.820312 12.0625 -1.59375 C 10.957031 -0.363281 9.4375 0.25 7.5 0.25 C 6.300781 0.25 5.238281 -0.03125 4.3125 -0.59375 C 3.382812 -1.15625 2.664062 -1.960938 2.15625 -3.015625 C 1.65625 -4.066406 1.40625 -5.296875 1.40625 -6.703125 C 1.40625 -8.890625 1.953125 -10.59375 3.046875 -11.8125 C 4.140625 -13.03125 5.65625 -13.640625 7.59375 -13.640625 C 9.46875 -13.640625 10.957031 -13.015625 12.0625 -11.765625 C 13.164062 -10.523438 13.71875 -8.835938 13.71875 -6.703125 Z M 3.5 -6.703125 C 3.5 -4.992188 3.84375 -3.691406 4.53125 -2.796875 C 5.21875 -1.898438 6.222656 -1.453125 7.546875 -1.453125 C 8.878906 -1.453125 9.890625 -1.894531 10.578125 -2.78125 C 11.265625 -3.675781 11.609375 -4.984375 11.609375 -6.703125 C 11.609375 -8.410156 11.265625 -9.707031 10.578125 -10.59375 C 9.890625 -11.476562 8.875 -11.921875 7.53125 -11.921875 C 6.195312 -11.921875 5.191406 -11.484375 4.515625 -10.609375 C 3.835938 -9.734375 3.5 -8.429688 3.5 -6.703125 Z M 3.5 -6.703125 "/></g></g><g transform="translate(366.430639, 522.612496)"><g><path d="M 4.0625 -13.390625 L 4.0625 -4.703125 C 4.0625 -3.609375 4.304688 -2.789062 4.796875 -2.25 C 5.296875 -1.71875 6.078125 -1.453125 7.140625 -1.453125 C 8.535156 -1.453125 9.554688 -1.832031 10.203125 -2.59375 C 10.859375 -3.363281 11.1875 -4.617188 11.1875 -6.359375 L 11.1875 -13.390625 L 13.21875 -13.390625 L 13.21875 0 L 11.53125 0 L 11.25 -1.796875 L 11.140625 -1.796875 C 10.722656 -1.140625 10.144531 -0.632812 9.40625 -0.28125 C 8.664062 0.0703125 7.820312 0.25 6.875 0.25 C 5.25 0.25 4.03125 -0.132812 3.21875 -0.90625 C 2.40625 -1.6875 2 -2.925781 2 -4.625 L 2 -13.390625 Z M 4.0625 -13.390625 "/></g></g><g transform="translate(381.791377, 522.612496)"><g><path d="M 11.3125 0 L 11.3125 -8.671875 C 11.3125 -9.753906 11.0625 -10.566406 10.5625 -11.109375 C 10.070312 -11.648438 9.296875 -11.921875 8.234375 -11.921875 C 6.835938 -11.921875 5.8125 -11.539062 5.15625 -10.78125 C 4.507812 -10.019531 4.1875 -8.769531 4.1875 -7.03125 L 4.1875 0 L 2.15625 0 L 2.15625 -13.390625 L 3.796875 -13.390625 L 4.125 -11.5625 L 4.234375 -11.5625 C 4.648438 -12.21875 5.226562 -12.726562 5.96875 -13.09375 C 6.71875 -13.457031 7.554688 -13.640625 8.484375 -13.640625 C 10.097656 -13.640625 11.3125 -13.25 12.125 -12.46875 C 12.9375 -11.695312 13.34375 -10.453125 13.34375 -8.734375 L 13.34375 0 Z M 11.3125 0 "/></g></g><g transform="translate(397.152114, 522.612496)"><g><path d="M 6.484375 -1.4375 C 6.835938 -1.4375 7.179688 -1.460938 7.515625 -1.515625 C 7.847656 -1.566406 8.113281 -1.617188 8.3125 -1.671875 L 8.3125 -0.125 C 8.09375 -0.0195312 7.769531 0.0664062 7.34375 0.140625 C 6.914062 0.210938 6.53125 0.25 6.1875 0.25 C 3.59375 0.25 2.296875 -1.113281 2.296875 -3.84375 L 2.296875 -11.8125 L 0.375 -11.8125 L 0.375 -12.796875 L 2.296875 -13.640625 L 3.15625 -16.5 L 4.328125 -16.5 L 4.328125 -13.390625 L 8.21875 -13.390625 L 8.21875 -11.8125 L 4.328125 -11.8125 L 4.328125 -3.9375 C 4.328125 -3.125 4.515625 -2.503906 4.890625 -2.078125 C 5.273438 -1.648438 5.804688 -1.4375 6.484375 -1.4375 Z M 6.484375 -1.4375 "/></g></g><g transform="translate(405.987288, 522.612496)"><g><path d="M 0.03125 -13.390625 L 2.203125 -13.390625 L 5.140625 -5.75 C 5.773438 -4.007812 6.171875 -2.753906 6.328125 -1.984375 L 6.421875 -1.984375 C 6.535156 -2.398438 6.757812 -3.109375 7.09375 -4.109375 C 7.4375 -5.117188 8.539062 -8.210938 10.40625 -13.390625 L 12.59375 -13.390625 L 6.828125 1.859375 C 6.265625 3.367188 5.597656 4.4375 4.828125 5.0625 C 4.066406 5.695312 3.132812 6.015625 2.03125 6.015625 C 1.40625 6.015625 0.796875 5.945312 0.203125 5.8125 L 0.203125 4.1875 C 0.648438 4.28125 1.148438 4.328125 1.703125 4.328125 C 3.085938 4.328125 4.082031 3.546875 4.6875 1.984375 L 5.421875 0.078125 Z M 0.03125 -13.390625 "/></g></g><g transform="translate(418.59849, 522.612496)"><g><path d="M 4.28125 -2.90625 L 4.46875 -2.625 C 4.25 -1.8125 3.941406 -0.867188 3.546875 0.203125 C 3.148438 1.285156 2.734375 2.296875 2.296875 3.234375 L 0.765625 3.234375 C 0.984375 2.378906 1.222656 1.328125 1.484375 0.078125 C 1.753906 -1.160156 1.941406 -2.15625 2.046875 -2.90625 Z M 4.28125 -2.90625 "/></g></g><g transform="translate(424.733009, 522.612496)"><g/></g><g transform="translate(431.234132, 522.612496)"><g><path d="M 16.421875 0 L 14.046875 0 L 4.28125 -15 L 4.1875 -15 C 4.3125 -13.238281 4.375 -11.625 4.375 -10.15625 L 4.375 0 L 2.453125 0 L 2.453125 -17.875 L 4.796875 -17.875 L 14.546875 -2.9375 L 14.640625 -2.9375 C 14.628906 -3.15625 14.59375 -3.859375 14.53125 -5.046875 C 14.476562 -6.242188 14.457031 -7.097656 14.46875 -7.609375 L 14.46875 -17.875 L 16.421875 -17.875 Z M 16.421875 0 "/></g></g><g transform="translate(450.102055, 522.612496)"><g><path d="M 10.109375 -16.265625 C 8.140625 -16.265625 6.585938 -15.609375 5.453125 -14.296875 C 4.316406 -12.992188 3.75 -11.207031 3.75 -8.9375 C 3.75 -6.59375 4.296875 -4.78125 5.390625 -3.5 C 6.492188 -2.226562 8.054688 -1.59375 10.078125 -1.59375 C 11.328125 -1.59375 12.75 -1.816406 14.34375 -2.265625 L 14.34375 -0.453125 C 13.101562 0.015625 11.578125 0.25 9.765625 0.25 C 7.128906 0.25 5.097656 -0.546875 3.671875 -2.140625 C 2.242188 -3.742188 1.53125 -6.015625 1.53125 -8.953125 C 1.53125 -10.796875 1.875 -12.410156 2.5625 -13.796875 C 3.25 -15.179688 4.242188 -16.25 5.546875 -17 C 6.847656 -17.75 8.375 -18.125 10.125 -18.125 C 12 -18.125 13.640625 -17.78125 15.046875 -17.09375 L 14.171875 -15.3125 C 12.816406 -15.945312 11.460938 -16.265625 10.109375 -16.265625 Z M 10.109375 -16.265625 "/></g></g></g><g fill="rgb(99.21875%, 36.859131%, 21.958923%)" fill-opacity="1"><g transform="translate(465.877579, 522.612496)"><g/></g></g></svg>