<svg xmlns="http://www.w3.org/2000/svg" xmlns:xlink="http://www.w3.org/1999/xlink" width="400" zoomAndPan="magnify" viewBox="0 0 300 299.999988" height="400" preserveAspectRatio="xMidYMid meet" version="1.0"><defs><clipPath id="id1"><path d="M 23.816406 6.207031 L 275.816406 6.207031 L 275.816406 293.457031 L 23.816406 293.457031 Z M 23.816406 6.207031 " clip-rule="nonzero"/></clipPath><clipPath id="id2"><path d="M 54 41 L 245 41 L 245 141 L 54 141 Z M 54 41 " clip-rule="nonzero"/></clipPath><clipPath id="id3"><path d="M 53.871094 44.21875 L 241.195312 36.09375 L 245.679688 139.496094 L 58.355469 147.621094 Z M 53.871094 44.21875 " clip-rule="nonzero"/></clipPath><clipPath id="id4"><path d="M 58.351562 147.574219 L 245.675781 139.449219 L 241.191406 36.046875 L 53.867188 44.171875 Z M 58.351562 147.574219 " clip-rule="nonzero"/></clipPath><clipPath id="id5"><path d="M 53.367188 91.101562 L 245 91.101562 L 245 263.601562 L 53.367188 263.601562 Z M 53.367188 91.101562 " clip-rule="nonzero"/></clipPath><clipPath id="id6"><path d="M 70.855469 53.253906 L 130.105469 53.253906 L 130.105469 111.753906 L 70.855469 111.753906 Z M 70.855469 53.253906 " clip-rule="nonzero"/></clipPath><clipPath id="id7"><path d="M 68 116 L 117 116 L 117 250 L 68 250 Z M 68 116 " clip-rule="nonzero"/></clipPath><clipPath id="id8"><path d="M 108.910156 250.953125 L 59.644531 246.160156 L 72.71875 111.796875 L 121.984375 116.589844 Z M 108.910156 250.953125 " clip-rule="nonzero"/></clipPath><clipPath id="id9"><path d="M 108.910156 250.953125 L 59.644531 246.160156 L 72.71875 111.796875 L 121.984375 116.589844 Z M 108.910156 250.953125 " clip-rule="nonzero"/></clipPath><clipPath id="id10"><path d="M 119 116 L 213 116 L 213 209 L 119 209 Z M 119 116 " clip-rule="nonzero"/></clipPath><clipPath id="id11"><path d="M 213.003906 117.492188 L 209.601562 211.933594 L 118.910156 208.664062 L 122.3125 114.226562 Z M 213.003906 117.492188 " clip-rule="nonzero"/></clipPath><clipPath id="id12"><path d="M 118.5625 208.863281 L 121.964844 114.425781 L 212.65625 117.691406 L 209.253906 212.132812 Z M 118.5625 208.863281 " clip-rule="nonzero"/></clipPath><clipPath id="id13"><path d="M 149 155 L 228 155 L 228 243 L 149 243 Z M 149 155 " clip-rule="nonzero"/></clipPath><clipPath id="id14"><path d="M 133.953125 225.652344 L 165.535156 141.375 L 246.300781 171.640625 L 214.71875 255.917969 Z M 133.953125 225.652344 " clip-rule="nonzero"/></clipPath><clipPath id="id15"><path d="M 215.058594 256.046875 L 246.640625 171.769531 L 165.875 141.503906 L 134.292969 225.78125 Z M 215.058594 256.046875 " clip-rule="nonzero"/></clipPath><clipPath id="id16"><path d="M 149 171 L 206 171 L 206 234 L 149 234 Z M 149 171 " clip-rule="nonzero"/></clipPath><clipPath id="id17"><path d="M 133.953125 225.652344 L 165.535156 141.375 L 246.300781 171.640625 L 214.71875 255.917969 Z M 133.953125 225.652344 " clip-rule="nonzero"/></clipPath><clipPath id="id18"><path d="M 215.058594 256.046875 L 246.640625 171.769531 L 165.875 141.503906 L 134.292969 225.78125 Z M 215.058594 256.046875 " clip-rule="nonzero"/></clipPath><clipPath id="id19"><path d="M 118 215 L 157 215 L 157 252 L 118 252 Z M 118 215 " clip-rule="nonzero"/></clipPath><clipPath id="id20"><path d="M 157.546875 249.054688 L 117.78125 256.722656 L 110.398438 218.425781 L 150.164062 210.761719 Z M 157.546875 249.054688 " clip-rule="nonzero"/></clipPath><clipPath id="id21"><path d="M 117.828125 256.710938 L 157.59375 249.046875 L 150.210938 210.75 L 110.445312 218.417969 Z M 117.828125 256.710938 " clip-rule="nonzero"/></clipPath><clipPath id="id22"><path d="M 135 85 L 229 85 L 229 112 L 135 112 Z M 135 85 " clip-rule="nonzero"/></clipPath><clipPath id="id23"><path d="M 133.953125 86.09375 L 228.296875 80.675781 L 230.015625 110.628906 L 135.671875 116.042969 Z M 133.953125 86.09375 " clip-rule="nonzero"/></clipPath><clipPath id="id24"><path d="M 228.132812 80.6875 L 133.789062 86.101562 L 135.507812 116.054688 L 229.855469 110.636719 Z M 228.132812 80.6875 " clip-rule="nonzero"/></clipPath><clipPath id="id25"><path d="M 135 55 L 229 55 L 229 82 L 135 82 Z M 135 55 " clip-rule="nonzero"/></clipPath><clipPath id="id26"><path d="M 134.054688 56.355469 L 228.398438 50.941406 L 230.117188 80.890625 L 135.773438 86.308594 Z M 134.054688 56.355469 " clip-rule="nonzero"/></clipPath><clipPath id="id27"><path d="M 228.128906 50.957031 L 133.785156 56.371094 L 135.503906 86.324219 L 229.847656 80.90625 Z M 228.128906 50.957031 " clip-rule="nonzero"/></clipPath><clipPath id="id28"><path d="M 218 115 L 230 115 L 230 155 L 218 155 Z M 218 115 " clip-rule="nonzero"/></clipPath><clipPath id="id29"><path d="M 228.910156 115.265625 L 231.703125 154.917969 L 218.984375 155.8125 L 216.191406 116.160156 Z M 228.910156 115.265625 " clip-rule="nonzero"/></clipPath><clipPath id="id30"><path d="M 231.683594 154.636719 L 228.890625 114.984375 L 216.171875 115.878906 L 218.964844 155.53125 Z M 231.683594 154.636719 " clip-rule="nonzero"/></clipPath><clipPath id="id31"><path d="M 214 116 L 227 116 L 227 155 L 214 155 Z M 214 116 " clip-rule="nonzero"/></clipPath><clipPath id="id32"><path d="M 226.804688 116.144531 L 226 154.386719 L 214.003906 154.132812 L 214.808594 115.890625 Z M 226.804688 116.144531 " clip-rule="nonzero"/></clipPath><clipPath id="id33"><path d="M 225.996094 154.640625 L 226.800781 116.402344 L 214.804688 116.148438 L 213.996094 154.390625 Z M 225.996094 154.640625 " clip-rule="nonzero"/></clipPath></defs><path fill="#c7d0d8" d="M 56.585938 287.285156 C 42.363281 287.285156 30.824219 274.949219 30.824219 261.792969 L 30.824219 31.90625 C 30.824219 28.203125 31.648438 24.503906 33.089844 21.214844 C 28.554688 25.53125 25.875 31.492188 25.875 38.175781 L 25.875 267.960938 C 25.875 280.910156 36.59375 291.601562 49.578125 291.601562 L 243.046875 291.601562 C 249.023438 291.601562 254.382812 289.339844 258.503906 285.84375 C 255.824219 286.875 252.9375 287.285156 250.054688 287.285156 L 56.585938 287.285156 " fill-opacity="1" fill-rule="nonzero"/><path fill="#f5f6f7" d="M 32.882812 31.90625 L 32.882812 261.382812 C 32.882812 274.332031 43.601562 285.023438 56.585938 285.023438 L 250.054688 285.023438 C 263.039062 285.023438 273.753906 274.332031 273.753906 261.382812 L 273.753906 31.90625 C 273.753906 18.953125 263.039062 8.265625 250.054688 8.265625 L 56.585938 8.265625 C 43.394531 8.265625 32.882812 18.953125 32.882812 31.90625 " fill-opacity="1" fill-rule="nonzero"/><g clip-path="url(#id1)"><path fill="#a6a6a6" d="M 263.65625 283.171875 C 270.871094 278.652344 275.816406 270.632812 275.816406 261.382812 L 275.816406 31.90625 C 275.816406 17.722656 264.273438 6.207031 250.054688 6.207031 L 56.585938 6.207031 C 48.136719 6.207031 40.714844 10.320312 35.976562 16.488281 C 28.761719 21.011719 23.816406 29.027344 23.816406 38.394531 L 23.816406 267.753906 C 23.816406 281.941406 35.355469 293.453125 49.578125 293.453125 L 243.046875 293.453125 C 251.496094 293.453125 258.914062 289.339844 263.65625 283.171875 M 56.585938 8.265625 L 250.054688 8.265625 C 263.039062 8.265625 273.753906 18.953125 273.753906 31.90625 L 273.753906 261.382812 C 273.753906 274.332031 263.039062 285.023438 250.054688 285.023438 L 56.585938 285.023438 C 43.601562 285.023438 32.882812 274.332031 32.882812 261.382812 L 32.882812 31.90625 C 32.882812 18.953125 43.394531 8.265625 56.585938 8.265625 M 49.578125 291.601562 C 36.59375 291.601562 25.875 280.707031 25.875 267.753906 L 25.875 38.394531 C 25.875 31.699219 28.554688 25.738281 33.089844 21.421875 C 31.648438 24.710938 30.824219 28.203125 30.824219 32.109375 L 30.824219 261.589844 C 30.824219 275.773438 42.363281 287.285156 56.585938 287.285156 L 250.054688 287.285156 C 252.9375 287.285156 255.824219 286.667969 258.503906 285.84375 C 254.382812 289.339844 249.023438 291.601562 243.046875 291.601562 L 49.578125 291.601562 " fill-opacity="1" fill-rule="nonzero"/></g><g clip-path="url(#id2)"><g clip-path="url(#id3)"><g clip-path="url(#id4)"><path fill="#ffffff" d="M 60.691406 134.648438 C 63.453125 135.171875 66.296875 135.773438 69.132812 136.132812 C 76.746094 137.089844 84.363281 138.125 92.125 138.835938 C 97.300781 139.335938 102.535156 139.269531 107.699219 139.449219 C 116.574219 139.785156 125.320312 139.003906 134.058594 138.0625 C 143.671875 136.921875 153.410156 136.742188 163.183594 137.28125 C 167.304688 137.585938 171.398438 137.328125 175.515625 137.550781 C 181.171875 137.949219 186.753906 138.511719 192.417969 139.070312 C 197.839844 139.640625 203.269531 140.453125 208.757812 140.695312 C 212.066406 140.792969 215.277344 140.574219 218.554688 139.949219 C 223.191406 139.183594 227.738281 138.183594 232.367188 137.179688 C 235.957031 136.378906 239.355469 134.863281 242.324219 132.722656 C 243.816406 131.855469 244.632812 130.210938 244.558594 128.523438 C 244.496094 127.078125 244.597656 125.707031 244.613281 124.257812 C 244.214844 111.324219 243.890625 98.308594 243.328125 85.300781 C 243.050781 78.875 242.289062 72.472656 241.6875 66.066406 C 241.335938 61.65625 240.984375 57.246094 240.46875 52.84375 C 240.226562 50.925781 239.90625 49.089844 239.417969 47.179688 C 239.214844 46.140625 238.292969 45.378906 237.25 45.421875 C 236.523438 45.375 235.792969 45.246094 235.148438 45.273438 C 230.5625 45.390625 226.042969 45.183594 221.507812 44.65625 C 215.519531 44.03125 209.40625 44.214844 203.371094 44.316406 C 197.011719 44.433594 190.660156 44.707031 184.296875 44.660156 C 180.183594 44.519531 176.058594 44.132812 172.007812 43.585938 C 165.117188 42.597656 158.246094 42.011719 151.3125 41.910156 C 143.253906 41.777344 135.097656 41.324219 126.964844 41.355469 C 120.84375 41.378906 114.738281 41.726562 108.632812 42.152344 C 99.796875 42.695312 91.042969 43.316406 82.292969 43.9375 C 73.699219 44.550781 65.113281 45.324219 56.527344 46.019531 C 54.601562 46.183594 54.523438 46.265625 54.4375 48.039062 C 54.367188 50.136719 54.375 52.144531 54.464844 54.234375 C 55.027344 65.308594 55.671875 76.464844 56.230469 87.539062 C 56.441406 92.359375 56.488281 97.183594 56.539062 102.007812 C 56.707031 109.640625 57.601562 117.246094 59.132812 124.742188 C 59.65625 127.535156 60.019531 130.332031 60.464844 133.128906 C 60.40625 133.613281 60.503906 134.011719 60.691406 134.648438 Z M 60.691406 134.648438 " fill-opacity="1" fill-rule="nonzero"/></g></g></g><g clip-path="url(#id5)"><path fill="#ffffff" d="M 56.871094 107.242188 C 57.765625 109.027344 59.054688 108.53125 60.34375 108.132812 C 64.90625 106.746094 69.371094 105.164062 74.230469 104.964844 C 86.332031 104.273438 98.332031 102.09375 110.433594 102.09375 C 117.875 102.191406 125.3125 101.300781 132.753906 100.609375 C 146.640625 99.320312 160.527344 97.835938 174.414062 96.449219 C 181.753906 95.855469 189.09375 94.667969 196.234375 92.984375 C 197.824219 92.6875 199.507812 92.488281 201.195312 92.585938 C 205.859375 92.585938 210.519531 92.785156 215.179688 92.882812 C 222.621094 92.984375 230.160156 92.390625 237.5 91.199219 C 238.492188 91.101562 239.582031 91.101562 240.574219 91.199219 C 242.359375 91.398438 242.855469 91.992188 242.957031 93.875 C 242.957031 94.371094 242.957031 94.863281 242.957031 95.261719 C 243.253906 105.957031 243.449219 116.648438 243.75 127.34375 C 243.945312 134.078125 244.441406 140.8125 244.640625 147.546875 C 244.839844 157.644531 244.144531 167.847656 242.558594 177.847656 C 242.359375 179.730469 242.160156 181.609375 242.160156 183.492188 C 241.863281 193.292969 241.664062 203.097656 241.167969 212.902344 C 240.972656 218.050781 240.179688 223.101562 239.683594 228.25 C 239.382812 231.417969 239.1875 234.589844 238.886719 237.757812 C 238.691406 239.636719 238.390625 241.519531 237.996094 243.402344 C 237.699219 245.382812 236.109375 246.867188 234.128906 246.964844 C 226.589844 247.558594 219.644531 250.433594 212.503906 252.511719 C 208.039062 253.796875 203.378906 254.691406 198.714844 255.183594 C 189.292969 256.273438 180.066406 257.660156 170.742188 259.246094 C 161.71875 260.828125 152.691406 262.117188 143.566406 261.917969 C 130.570312 261.621094 117.675781 262.316406 104.78125 262.910156 C 89.308594 263.601562 74.328125 260.828125 59.449219 256.867188 C 59.253906 256.769531 58.953125 256.769531 58.757812 256.671875 C 54.886719 255.480469 54.292969 254.988281 54.195312 250.828125 C 53.996094 242.210938 53.894531 233.5 53.894531 224.785156 C 53.894531 217.457031 54.195312 210.03125 54.09375 202.703125 C 53.996094 194.382812 54.691406 186.066406 55.183594 177.847656 C 55.679688 170.914062 55.78125 163.984375 55.878906 156.953125 C 56.078125 141.503906 56.078125 126.058594 56.078125 110.609375 C 56.175781 109.519531 56.277344 108.53125 56.375 107.441406 Z M 56.871094 107.242188 " fill-opacity="1" fill-rule="nonzero"/></g><g clip-path="url(#id6)"><path fill="#53afbe" d="M 70.855469 110.429688 C 70.855469 110.953125 71.28125 111.378906 71.804688 111.378906 C 71.804688 111.378906 71.816406 111.378906 71.816406 111.378906 C 75.796875 111.332031 91.476562 111.140625 105.8125 111.390625 C 122.402344 111.6875 130.105469 109.910156 130.105469 109.910156 L 130.105469 55.695312 C 130.105469 55.695312 113.515625 53.324219 100.777344 53.917969 C 88.039062 54.507812 78.855469 53.917969 75.003906 55.992188 C 71.152344 58.066406 71.449219 83.246094 71.152344 90.652344 C 70.902344 96.863281 70.867188 107.230469 70.855469 110.429688 Z M 70.855469 110.429688 " fill-opacity="1" fill-rule="nonzero"/></g><g clip-path="url(#id7)"><g clip-path="url(#id8)"><g clip-path="url(#id9)"><path fill="#434343" d="M 116.328125 116.59375 C 116.328125 116.59375 115 165.976562 112.933594 177.398438 C 110.867188 188.820312 109.992188 233.585938 109.992188 233.585938 C 109.992188 233.585938 109.261719 247.070312 108.554688 248.351562 C 107.84375 249.632812 101.753906 250.257812 88.339844 244.769531 C 74.925781 239.28125 72.375 223.171875 71.671875 220.589844 C 70.964844 218.003906 67.863281 185.984375 68.496094 175.402344 C 69.125 164.820312 71.367188 125.960938 73.011719 119.15625 C 73.011719 119.15625 78.628906 117.402344 94.242188 116.40625 C 109.855469 115.410156 116.328125 116.59375 116.328125 116.59375 Z M 116.328125 116.59375 " fill-opacity="1" fill-rule="nonzero"/></g></g></g><g clip-path="url(#id10)"><g clip-path="url(#id11)"><g clip-path="url(#id12)"><path fill="#0c356d" d="M 119.25 205.875 C 119.25 205.875 120.914062 173.78125 120.84375 161.683594 C 120.769531 149.585938 121.609375 124.316406 122.542969 121.050781 C 123.472656 117.78125 125.289062 116.199219 129.417969 116.617188 C 133.550781 117.039062 155.949219 118.0625 167.289062 117.945312 C 178.628906 117.828125 203.648438 117.445312 206.996094 117.527344 C 210.339844 117.613281 212.636719 118.238281 212.253906 121.796875 C 211.875 125.355469 209.089844 142.847656 209.089844 142.847656 C 209.089844 142.847656 202.859375 144.816406 190.03125 146.09375 C 174.566406 147.640625 165.382812 149.25 161.03125 155.421875 C 156.679688 161.597656 141.503906 182.738281 140.59375 207.984375 C 140.59375 207.984375 136.1875 209.203125 130.011719 208.710938 C 123.835938 208.214844 120.425781 208.925781 119.25 205.875 Z M 119.25 205.875 " fill-opacity="1" fill-rule="nonzero"/></g></g></g><g clip-path="url(#id13)"><g clip-path="url(#id14)"><g clip-path="url(#id15)"><path fill="#fe5c36" d="M 219.972656 229.363281 C 228.191406 220.96875 231.265625 182.75 222.015625 171.226562 C 212.761719 159.703125 204.839844 156.105469 191.296875 155.992188 C 177.753906 155.882812 165.046875 163.460938 159.347656 173.753906 C 153.648438 184.042969 144.488281 198.59375 152.71875 212.847656 C 160.945312 227.097656 160.617188 231.3125 165.285156 233.671875 C 169.949219 236.03125 184.074219 244.433594 197.550781 241.429688 C 211.027344 238.421875 211.96875 237.53125 219.972656 229.363281 Z M 219.972656 229.363281 " fill-opacity="1" fill-rule="nonzero"/></g></g></g><g clip-path="url(#id16)"><g clip-path="url(#id17)"><g clip-path="url(#id18)"><path fill="#fe5c36" d="M 200.46875 223.976562 C 206.359375 217.972656 208.558594 190.613281 201.941406 182.351562 C 195.324219 174.09375 189.652344 171.527344 179.957031 171.445312 C 170.257812 171.363281 161.167969 176.796875 157.082031 184.175781 C 153 191.550781 146.441406 201.960938 152.332031 212.160156 C 158.222656 222.355469 157.992188 225.363281 161.332031 227.058594 C 164.675781 228.75 174.789062 234.765625 184.429688 232.601562 C 194.074219 230.4375 194.746094 229.820312 200.46875 223.976562 Z M 200.46875 223.976562 " fill-opacity="1" fill-rule="nonzero"/></g></g></g><g clip-path="url(#id19)"><g clip-path="url(#id20)"><g clip-path="url(#id21)"><path fill="#feb449" d="M 119.066406 251.253906 C 119.066406 251.253906 128.132812 251.324219 134.234375 251.28125 C 140.335938 251.234375 154.511719 249.640625 156.609375 248.785156 C 156.609375 248.785156 157.140625 246.863281 154.964844 240.25 C 152.789062 233.636719 147.140625 216.109375 147.140625 216.109375 C 147.140625 216.109375 134.289062 215.179688 127.617188 215.785156 C 120.945312 216.394531 119.324219 217.382812 119.324219 217.382812 C 119.324219 217.382812 116.550781 249.925781 119.066406 251.253906 Z M 119.066406 251.253906 " fill-opacity="1" fill-rule="nonzero"/></g></g></g><g clip-path="url(#id22)"><g clip-path="url(#id23)"><g clip-path="url(#id24)"><path fill="#feb449" d="M 135.117188 102.972656 C 135.140625 104.664062 135.164062 106.394531 135.1875 108.125 C 135.195312 108.917969 136.023438 109.585938 137.035156 109.566406 C 142.09375 109.5 147.132812 109.699219 152.148438 110.164062 C 153.996094 110.324219 155.871094 110.328125 157.714844 110.375 C 161.019531 110.484375 164.328125 110.597656 167.632812 110.632812 C 171.199219 110.691406 174.804688 110.746094 178.359375 110.617188 C 183.753906 110.460938 189.1875 110.335938 194.5625 110.515625 C 197.265625 110.585938 199.960938 110.46875 202.664062 110.503906 C 208.183594 110.5625 213.691406 110.472656 219.195312 110.949219 C 220.855469 111.117188 222.539062 111.058594 224.210938 110.773438 C 224.730469 110.667969 225.25 110.523438 225.726562 110.347656 C 226.460938 110.042969 226.921875 109.636719 227.03125 108.878906 C 227.503906 104.070312 228.054688 99.292969 228.640625 94.476562 C 228.753906 93.152344 228.527344 91.808594 227.933594 90.601562 C 227.371094 89.351562 226.699219 88.113281 226.507812 86.730469 C 226.382812 85.832031 225.496094 85.394531 224.261719 85.464844 C 222.878906 85.542969 221.53125 85.660156 220.148438 85.703125 C 217.113281 85.800781 214.042969 85.863281 211.007812 85.925781 C 208.609375 85.988281 206.207031 85.9375 203.8125 86.113281 C 196.265625 86.621094 188.730469 86.714844 181.195312 86.808594 C 177.371094 86.878906 173.53125 86.609375 169.699219 86.488281 C 167.40625 86.433594 165.152344 86.375 162.855469 86.242188 C 159.65625 86.050781 156.492188 85.816406 153.328125 85.621094 C 151.746094 85.523438 150.132812 85.503906 148.519531 85.519531 C 145.261719 85.59375 141.964844 85.707031 138.707031 85.820312 C 138.148438 85.851562 137.589844 85.960938 137.035156 86.066406 C 136.550781 86.132812 136.160156 86.496094 136.113281 86.988281 C 135.820312 89.753906 135.453125 92.484375 135.160156 95.25 C 135.019531 96.6875 135.027344 98.121094 135.03125 99.550781 C 135.023438 100.679688 135.160156 101.765625 135.226562 102.890625 L 135.113281 102.898438 Z M 135.117188 102.972656 " fill-opacity="1" fill-rule="nonzero"/></g></g></g><g clip-path="url(#id25)"><g clip-path="url(#id26)"><g clip-path="url(#id27)"><path fill="#feb449" d="M 135.097656 73.242188 C 135.117188 74.933594 135.140625 76.664062 135.167969 78.398438 C 135.175781 79.1875 136 79.855469 137.011719 79.835938 C 142.074219 79.769531 147.117188 79.96875 152.132812 80.433594 C 153.980469 80.59375 155.859375 80.597656 157.699219 80.644531 C 161.007812 80.753906 164.316406 80.863281 167.621094 80.902344 C 171.191406 80.960938 174.796875 81.015625 178.355469 80.886719 C 183.75 80.730469 189.183594 80.605469 194.558594 80.785156 C 197.265625 80.855469 199.960938 80.738281 202.664062 80.773438 C 208.183594 80.832031 213.695312 80.742188 219.203125 81.214844 C 220.863281 81.382812 222.550781 81.324219 224.222656 81.039062 C 224.742188 80.9375 225.257812 80.792969 225.734375 80.613281 C 226.46875 80.308594 226.933594 79.90625 227.039062 79.148438 C 227.515625 74.335938 228.066406 69.5625 228.652344 64.746094 C 228.765625 63.421875 228.535156 62.078125 227.941406 60.871094 C 227.382812 59.621094 226.710938 58.378906 226.519531 56.996094 C 226.390625 56.101562 225.503906 55.664062 224.269531 55.734375 C 222.886719 55.8125 221.542969 55.925781 220.15625 55.96875 C 217.121094 56.070312 214.046875 56.132812 211.011719 56.195312 C 208.613281 56.253906 206.207031 56.207031 203.816406 56.378906 C 196.265625 56.890625 188.726562 56.984375 181.191406 57.078125 C 177.367188 57.144531 173.523438 56.878906 169.6875 56.757812 C 167.394531 56.703125 165.140625 56.644531 162.84375 56.511719 C 159.644531 56.316406 156.476562 56.085938 153.3125 55.890625 C 151.730469 55.792969 150.117188 55.773438 148.503906 55.789062 C 145.242188 55.863281 141.949219 55.980469 138.691406 56.089844 C 138.128906 56.121094 137.570312 56.230469 137.015625 56.335938 C 136.53125 56.402344 136.140625 56.765625 136.09375 57.257812 C 135.800781 60.023438 135.433594 62.753906 135.140625 65.519531 C 134.996094 66.957031 135.003906 68.390625 135.011719 69.820312 C 135 70.949219 135.140625 72.035156 135.203125 73.160156 L 135.089844 73.167969 Z M 135.097656 73.242188 " fill-opacity="1" fill-rule="nonzero"/></g></g></g><g clip-path="url(#id28)"><g clip-path="url(#id29)"><g clip-path="url(#id30)"><path fill="#53afbe" d="M 221.726562 115.644531 C 221.007812 115.664062 220.273438 115.683594 219.539062 115.703125 C 219.203125 115.710938 218.921875 116.0625 218.9375 116.488281 C 218.988281 118.617188 218.929688 120.734375 218.757812 122.847656 C 218.703125 123.625 218.710938 124.414062 218.699219 125.1875 C 218.667969 126.582031 218.640625 127.972656 218.640625 129.363281 C 218.636719 130.863281 218.628906 132.378906 218.703125 133.875 C 218.796875 136.140625 218.878906 138.425781 218.832031 140.6875 C 218.816406 141.824219 218.878906 142.957031 218.878906 144.09375 C 218.882812 146.414062 218.949219 148.730469 218.777344 151.046875 C 218.714844 151.746094 218.746094 152.457031 218.875 153.15625 C 218.921875 153.375 218.988281 153.589844 219.066406 153.789062 C 219.199219 154.097656 219.371094 154.289062 219.695312 154.332031 C 221.742188 154.503906 223.773438 154.707031 225.824219 154.925781 C 226.386719 154.964844 226.957031 154.863281 227.46875 154.605469 C 227.996094 154.363281 228.519531 154.074219 229.105469 153.984375 C 229.484375 153.925781 229.667969 153.550781 229.632812 153.03125 C 229.589844 152.449219 229.535156 151.886719 229.507812 151.300781 C 229.453125 150.027344 229.410156 148.734375 229.367188 147.460938 C 229.328125 146.453125 229.335938 145.441406 229.25 144.4375 C 228.996094 141.265625 228.914062 138.097656 228.835938 134.929688 C 228.785156 133.320312 228.882812 131.703125 228.910156 130.089844 C 228.925781 129.125 228.9375 128.179688 228.980469 127.210938 C 229.046875 125.867188 229.128906 124.535156 229.195312 123.203125 C 229.230469 122.535156 229.230469 121.859375 229.214844 121.179688 C 229.164062 119.808594 229.097656 118.425781 229.035156 117.054688 C 229.019531 116.820312 228.96875 116.585938 228.921875 116.351562 C 228.890625 116.148438 228.734375 115.988281 228.527344 115.96875 C 227.347656 115.863281 226.1875 115.722656 225.007812 115.617188 C 224.398438 115.566406 223.789062 115.578125 223.179688 115.589844 C 222.699219 115.589844 222.242188 115.65625 221.761719 115.6875 L 221.757812 115.640625 Z M 221.726562 115.644531 " fill-opacity="1" fill-rule="nonzero"/></g></g></g><g clip-path="url(#id31)"><g clip-path="url(#id32)"><g clip-path="url(#id33)"><path fill="#53afbe" d="M 220.03125 116.410156 C 219.355469 116.363281 218.664062 116.320312 217.976562 116.273438 C 217.660156 116.253906 217.367188 116.566406 217.34375 116.972656 C 217.210938 119.015625 216.972656 121.042969 216.628906 123.050781 C 216.507812 123.792969 216.445312 124.550781 216.371094 125.289062 C 216.222656 126.621094 216.074219 127.953125 215.957031 129.285156 C 215.820312 130.722656 215.683594 132.171875 215.625 133.613281 C 215.519531 135.792969 215.394531 137.988281 215.15625 140.152344 C 215.042969 141.238281 215.003906 142.332031 214.90625 143.421875 C 214.707031 145.644531 214.570312 147.871094 214.207031 150.074219 C 214.089844 150.738281 214.058594 151.421875 214.121094 152.105469 C 214.148438 152.316406 214.1875 152.53125 214.242188 152.730469 C 214.34375 153.035156 214.488281 153.234375 214.789062 153.300781 C 216.691406 153.644531 218.578125 154.019531 220.480469 154.40625 C 221.003906 154.492188 221.546875 154.445312 222.046875 154.242188 C 222.5625 154.054688 223.078125 153.824219 223.636719 153.789062 C 223.996094 153.769531 224.199219 153.425781 224.210938 152.921875 C 224.222656 152.363281 224.21875 151.816406 224.246094 151.257812 C 224.300781 150.03125 224.375 148.789062 224.445312 147.5625 C 224.496094 146.59375 224.589844 145.625 224.597656 144.65625 C 224.628906 141.59375 224.832031 138.550781 225.03125 135.507812 C 225.121094 133.964844 225.351562 132.421875 225.519531 130.878906 C 225.613281 129.957031 225.707031 129.050781 225.832031 128.128906 C 226.007812 126.84375 226.203125 125.574219 226.378906 124.304688 C 226.46875 123.667969 226.527344 123.019531 226.570312 122.367188 C 226.644531 121.050781 226.703125 119.71875 226.757812 118.398438 C 226.765625 118.171875 226.738281 117.945312 226.714844 117.714844 C 226.703125 117.519531 226.570312 117.351562 226.375 117.316406 C 225.28125 117.109375 224.203125 116.875 223.109375 116.671875 C 222.542969 116.566406 221.96875 116.523438 221.398438 116.484375 C 220.949219 116.441406 220.511719 116.464844 220.0625 116.453125 L 220.0625 116.410156 Z M 220.03125 116.410156 " fill-opacity="1" fill-rule="nonzero"/></g></g></g></svg>