<svg xmlns="http://www.w3.org/2000/svg" xmlns:xlink="http://www.w3.org/1999/xlink" width="1920" zoomAndPan="magnify" viewBox="0 0 1440 809.999993" height="1080" preserveAspectRatio="xMidYMid meet" version="1.0"><defs><g/></defs><path fill="rgb(34.899902%, 69.018555%, 74.508667%)" d="M 81.117188 363.550781 L 103.242188 385.675781 L 175.855469 313.0625 L 153.730469 290.9375 L 81.117188 363.550781 M 166.128906 313.011719 L 103.09375 376.046875 L 90.644531 363.597656 L 153.679688 300.5625 L 166.128906 313.011719 " fill-opacity="1" fill-rule="nonzero"/><path fill="rgb(32.548523%, 68.629456%, 74.508667%)" d="M 154.332031 290.707031 L 132.207031 312.832031 L 204.820312 385.445312 L 226.945312 363.320312 L 154.332031 290.707031 M 204.867188 375.71875 L 141.832031 312.679688 L 154.285156 300.230469 L 217.320312 363.265625 L 204.867188 375.71875 " fill-opacity="1" fill-rule="nonzero"/><path fill="rgb(99.21875%, 70.588684%, 29.40979%)" d="M 81 429.523438 L 103.125 451.644531 L 175.738281 379.03125 L 153.613281 356.910156 L 81 429.523438 M 166.011719 378.984375 L 102.976562 442.019531 L 90.523438 429.570312 L 153.558594 366.535156 L 166.011719 378.984375 " fill-opacity="1" fill-rule="nonzero"/><path fill="rgb(99.21875%, 70.588684%, 29.40979%)" d="M 154.210938 356.679688 L 132.085938 378.800781 L 204.699219 451.414062 L 226.824219 429.292969 L 154.210938 356.679688 M 204.75 441.6875 L 141.714844 378.652344 L 154.164062 366.203125 L 217.199219 429.238281 L 204.75 441.6875 " fill-opacity="1" fill-rule="nonzero"/><path fill="rgb(99.21875%, 36.859131%, 21.958923%)" d="M 138.550781 544.878906 L 169.835938 544.878906 L 169.835938 434.96875 L 138.550781 434.96875 L 138.550781 544.878906 M 162.925781 441.851562 L 162.925781 538.136719 L 145.316406 538.136719 L 145.316406 441.851562 L 162.925781 441.851562 " fill-opacity="1" fill-rule="nonzero"/><g fill="rgb(4.708862%, 20.779419%, 42.749023%)" fill-opacity="1"><g transform="translate(247.122152, 383.77206)"><g><path d="M 81.640625 -92.046875 C 82.546875 -92.046875 83 -91.507812 83 -90.4375 L 83 -1.609375 C 83 -1.117188 82.832031 -0.726562 82.5 -0.4375 C 82.164062 -0.144531 81.710938 0 81.140625 0 L 73.078125 0 C 72.410156 0 71.890625 -0.0625 71.515625 -0.1875 C 71.148438 -0.3125 70.757812 -0.660156 70.34375 -1.234375 L 25.0625 -66.25 C 24.726562 -66.832031 24.414062 -67.082031 24.125 -67 C 23.84375 -66.914062 23.703125 -66.625 23.703125 -66.125 L 23.703125 -1.734375 C 23.703125 -0.578125 23.039062 0 21.71875 0 L 12.90625 0 C 11.582031 0 10.921875 -0.578125 10.921875 -1.734375 L 10.921875 -90.1875 C 10.921875 -90.851562 11.0625 -91.328125 11.34375 -91.609375 C 11.632812 -91.898438 12.113281 -92.046875 12.78125 -92.046875 L 22.453125 -92.046875 C 23.203125 -92.046875 23.757812 -91.941406 24.125 -91.734375 C 24.5 -91.535156 24.851562 -91.144531 25.1875 -90.5625 L 68.609375 -27.671875 C 69.097656 -27.085938 69.46875 -26.796875 69.71875 -26.796875 C 70.21875 -26.796875 70.46875 -27.171875 70.46875 -27.921875 L 70.46875 -90.3125 C 70.46875 -91.46875 71.046875 -92.046875 72.203125 -92.046875 Z M 81.640625 -92.046875 "/></g></g></g><g fill="rgb(4.708862%, 20.779419%, 42.749023%)" fill-opacity="1"><g transform="translate(341.029886, 383.77206)"><g><path d="M 37.09375 1.234375 C 30.8125 1.234375 25.25 -0.1875 20.40625 -3.03125 C 15.570312 -5.882812 11.828125 -9.875 9.171875 -15 C 6.523438 -20.132812 5.203125 -25.96875 5.203125 -32.5 C 5.203125 -39.195312 6.566406 -45.171875 9.296875 -50.421875 C 12.035156 -55.679688 15.820312 -59.757812 20.65625 -62.65625 C 25.5 -65.550781 31.019531 -67 37.21875 -67 C 43.5 -67 49.054688 -65.53125 53.890625 -62.59375 C 58.734375 -59.65625 62.476562 -55.578125 65.125 -50.359375 C 67.78125 -45.148438 69.109375 -39.238281 69.109375 -32.625 C 69.109375 -26.09375 67.757812 -20.257812 65.0625 -15.125 C 62.375 -10 58.613281 -5.988281 53.78125 -3.09375 C 48.945312 -0.207031 43.382812 1.234375 37.09375 1.234375 Z M 37.34375 -8.0625 C 43.132812 -8.0625 47.640625 -10.234375 50.859375 -14.578125 C 54.085938 -18.921875 55.703125 -25.019531 55.703125 -32.875 C 55.703125 -40.726562 54.066406 -46.867188 50.796875 -51.296875 C 47.535156 -55.722656 43.007812 -57.9375 37.21875 -57.9375 C 31.425781 -57.9375 26.875 -55.722656 23.5625 -51.296875 C 20.257812 -46.867188 18.609375 -40.726562 18.609375 -32.875 C 18.609375 -25.101562 20.257812 -19.023438 23.5625 -14.640625 C 26.875 -10.253906 31.46875 -8.0625 37.34375 -8.0625 Z M 37.34375 -8.0625 "/></g></g></g><g fill="rgb(4.708862%, 20.779419%, 42.749023%)" fill-opacity="1"><g transform="translate(415.337327, 383.77206)"><g><path d="M 10.671875 0 C 9.347656 0 8.6875 -0.660156 8.6875 -1.984375 L 8.6875 -63.890625 C 8.6875 -65.128906 9.222656 -65.75 10.296875 -65.75 L 19.84375 -65.75 C 20.84375 -65.75 21.34375 -65.210938 21.34375 -64.140625 L 21.34375 -56.328125 C 21.34375 -55.828125 21.484375 -55.535156 21.765625 -55.453125 C 22.054688 -55.367188 22.367188 -55.535156 22.703125 -55.953125 C 25.765625 -59.503906 28.925781 -62.234375 32.1875 -64.140625 C 35.457031 -66.046875 38.664062 -67 41.8125 -67 C 44.707031 -67 46.15625 -66.414062 46.15625 -65.25 L 46.15625 -55.578125 C 46.15625 -54.585938 45.695312 -54.175781 44.78125 -54.34375 C 43.207031 -54.75 41.019531 -54.953125 38.21875 -54.953125 C 35.894531 -54.953125 33.453125 -54.3125 30.890625 -53.03125 C 28.328125 -51.75 26.175781 -50.070312 24.4375 -48 C 22.695312 -45.9375 21.828125 -43.832031 21.828125 -41.6875 L 21.828125 -2.109375 C 21.828125 -0.703125 21.046875 0 19.484375 0 Z M 10.671875 0 "/></g></g></g><g fill="rgb(4.708862%, 20.779419%, 42.749023%)" fill-opacity="1"><g transform="translate(464.462122, 383.77206)"><g><path d="M 29.28125 -56.328125 C 28.53125 -56.328125 28.15625 -55.910156 28.15625 -55.078125 L 28.15625 -18.734375 C 28.15625 -15.253906 28.796875 -12.851562 30.078125 -11.53125 C 31.367188 -10.207031 33.414062 -9.546875 36.21875 -9.546875 L 44.171875 -9.546875 C 45.160156 -9.546875 45.65625 -9.050781 45.65625 -8.0625 L 45.65625 -2.734375 C 45.65625 -1.578125 45.035156 -0.875 43.796875 -0.625 C 41.148438 -0.207031 36.929688 0 31.140625 0 C 25.679688 0 21.628906 -1.257812 18.984375 -3.78125 C 16.335938 -6.300781 15.015625 -10.210938 15.015625 -15.515625 L 15.015625 -54.828125 C 15.015625 -55.828125 14.597656 -56.328125 13.765625 -56.328125 L 4.46875 -56.328125 C 3.394531 -56.328125 2.859375 -56.820312 2.859375 -57.8125 L 2.859375 -64.390625 C 2.859375 -65.296875 3.351562 -65.75 4.34375 -65.75 L 14.265625 -65.75 C 14.929688 -65.75 15.265625 -66.125 15.265625 -66.875 L 16.75 -86.34375 C 16.914062 -87.5 17.410156 -88.078125 18.234375 -88.078125 L 26.796875 -88.078125 C 27.867188 -88.078125 28.40625 -87.414062 28.40625 -86.09375 L 28.40625 -66.875 C 28.40625 -66.125 28.78125 -65.75 29.53125 -65.75 L 44.421875 -65.75 C 45.410156 -65.75 45.90625 -65.296875 45.90625 -64.390625 L 45.90625 -57.8125 C 45.90625 -56.820312 45.328125 -56.328125 44.171875 -56.328125 Z M 29.28125 -56.328125 "/></g></g></g><g fill="rgb(4.708862%, 20.779419%, 42.749023%)" fill-opacity="1"><g transform="translate(514.207172, 383.77206)"><g><path d="M 10.796875 0 C 10.046875 0 9.523438 -0.164062 9.234375 -0.5 C 8.953125 -0.832031 8.8125 -1.328125 8.8125 -1.984375 L 8.8125 -90.1875 C 8.8125 -91.425781 9.304688 -92.046875 10.296875 -92.046875 L 20.09375 -92.046875 C 21.09375 -92.046875 21.59375 -91.507812 21.59375 -90.4375 L 21.59375 -57.6875 C 21.59375 -56.695312 22.003906 -56.570312 22.828125 -57.3125 C 27.210938 -60.789062 31.054688 -63.273438 34.359375 -64.765625 C 37.671875 -66.253906 41.269531 -67 45.15625 -67 C 51.53125 -67 56.410156 -65.300781 59.796875 -61.90625 C 63.191406 -58.519531 64.890625 -53.847656 64.890625 -47.890625 L 64.890625 -2.234375 C 64.890625 -0.742188 64.1875 0 62.78125 0 L 53.59375 0 C 52.351562 0 51.734375 -0.660156 51.734375 -1.984375 L 51.734375 -45.40625 C 51.734375 -49.125 50.78125 -51.992188 48.875 -54.015625 C 46.976562 -56.046875 44.085938 -57.0625 40.203125 -57.0625 C 36.972656 -57.0625 34.054688 -56.359375 31.453125 -54.953125 C 28.847656 -53.546875 25.679688 -51.148438 21.953125 -47.765625 L 21.953125 -2.109375 C 21.953125 -0.703125 21.171875 0 19.609375 0 Z M 10.796875 0 "/></g></g></g><g fill="rgb(4.708862%, 20.779419%, 42.749023%)" fill-opacity="1"><g transform="translate(587.150044, 383.77206)"><g/></g></g><g fill="rgb(4.708862%, 20.779419%, 42.749023%)" fill-opacity="1"><g transform="translate(613.449159, 383.77206)"><g><path d="M 47.015625 -93.296875 C 52.722656 -93.296875 58.097656 -92.113281 63.140625 -89.75 C 68.191406 -87.394531 72.367188 -84.234375 75.671875 -80.265625 C 78.984375 -76.296875 81.007812 -71.953125 81.75 -67.234375 C 81.832031 -66.910156 81.875 -66.5 81.875 -66 C 81.875 -65.582031 81.789062 -65.3125 81.625 -65.1875 C 81.46875 -65.070312 81.140625 -64.972656 80.640625 -64.890625 L 69.109375 -64.140625 L 68.734375 -64.140625 C 68.234375 -64.140625 67.859375 -64.59375 67.609375 -65.5 C 66.453125 -70.632812 64.113281 -74.726562 60.59375 -77.78125 C 57.082031 -80.84375 52.722656 -82.375 47.515625 -82.375 C 39.492188 -82.375 33.394531 -79.375 29.21875 -73.375 C 25.039062 -67.382812 22.953125 -58.3125 22.953125 -46.15625 C 22.953125 -34.070312 25.039062 -25.050781 29.21875 -19.09375 C 33.394531 -13.144531 39.660156 -10.171875 48.015625 -10.171875 C 53.640625 -10.171875 58.332031 -11.535156 62.09375 -14.265625 C 65.851562 -16.992188 68.894531 -21.378906 71.21875 -27.421875 C 71.300781 -27.992188 71.921875 -28.195312 73.078125 -28.03125 L 81.875 -25.921875 C 82.625 -25.765625 82.914062 -25.0625 82.75 -23.8125 C 81.59375 -19.84375 79.503906 -15.957031 76.484375 -12.15625 C 73.460938 -8.351562 69.46875 -5.171875 64.5 -2.609375 C 59.539062 -0.046875 53.835938 1.234375 47.390625 1.234375 C 39.117188 1.234375 31.960938 -0.707031 25.921875 -4.59375 C 19.890625 -8.476562 15.257812 -14 12.03125 -21.15625 C 8.8125 -28.3125 7.203125 -36.6875 7.203125 -46.28125 C 7.203125 -55.957031 8.789062 -64.328125 11.96875 -71.390625 C 15.15625 -78.460938 19.742188 -83.878906 25.734375 -87.640625 C 31.734375 -91.410156 38.828125 -93.296875 47.015625 -93.296875 Z M 47.015625 -93.296875 "/></g></g></g><g fill="rgb(4.708862%, 20.779419%, 42.749023%)" fill-opacity="1"><g transform="translate(701.774526, 383.77206)"><g><path d="M 18.734375 -28.28125 C 18.734375 -24.5625 19.617188 -21.191406 21.390625 -18.171875 C 23.171875 -15.148438 25.59375 -12.75 28.65625 -10.96875 C 31.71875 -9.195312 35.066406 -8.3125 38.703125 -8.3125 C 42.515625 -8.3125 45.90625 -9.097656 48.875 -10.671875 C 51.851562 -12.242188 54.582031 -14.679688 57.0625 -17.984375 C 57.3125 -18.316406 57.601562 -18.484375 57.9375 -18.484375 C 58.351562 -18.484375 58.6875 -18.398438 58.9375 -18.234375 L 65.25 -15.265625 C 65.664062 -15.015625 65.875 -14.679688 65.875 -14.265625 C 65.875 -14.015625 65.75 -13.6875 65.5 -13.28125 C 62.03125 -8.144531 58.0625 -4.441406 53.59375 -2.171875 C 49.125 0.0976562 43.707031 1.234375 37.34375 1.234375 C 31.132812 1.234375 25.59375 -0.171875 20.71875 -2.984375 C 15.84375 -5.796875 12.035156 -9.742188 9.296875 -14.828125 C 6.566406 -19.910156 5.203125 -25.675781 5.203125 -32.125 C 5.203125 -39.070312 6.609375 -45.191406 9.421875 -50.484375 C 12.234375 -55.785156 16.054688 -59.863281 20.890625 -62.71875 C 25.734375 -65.570312 31.132812 -67 37.09375 -67 C 43.21875 -67 48.59375 -65.65625 53.21875 -62.96875 C 57.851562 -60.28125 61.429688 -56.367188 63.953125 -51.234375 C 66.472656 -46.109375 67.734375 -40.03125 67.734375 -33 L 67.734375 -32.5 C 67.734375 -31.757812 67.628906 -31.203125 67.421875 -30.828125 C 67.222656 -30.453125 66.707031 -30.265625 65.875 -30.265625 L 19.96875 -30.265625 C 19.144531 -30.265625 18.734375 -29.601562 18.734375 -28.28125 Z M 52.609375 -38.09375 C 53.429688 -38.09375 53.988281 -38.210938 54.28125 -38.453125 C 54.570312 -38.703125 54.71875 -39.160156 54.71875 -39.828125 C 54.71875 -43.046875 54.035156 -46.0625 52.671875 -48.875 C 51.304688 -51.6875 49.316406 -53.941406 46.703125 -55.640625 C 44.097656 -57.335938 41.019531 -58.1875 37.46875 -58.1875 C 33.75 -58.1875 30.484375 -57.253906 27.671875 -55.390625 C 24.859375 -53.535156 22.6875 -51.097656 21.15625 -48.078125 C 19.625 -45.054688 18.898438 -41.769531 18.984375 -38.21875 Z M 52.609375 -38.09375 "/></g></g></g><g fill="rgb(4.708862%, 20.779419%, 42.749023%)" fill-opacity="1"><g transform="translate(773.973062, 383.77206)"><g><path d="M 10.671875 0 C 9.347656 0 8.6875 -0.660156 8.6875 -1.984375 L 8.6875 -63.890625 C 8.6875 -65.128906 9.222656 -65.75 10.296875 -65.75 L 20.09375 -65.75 C 21.09375 -65.75 21.59375 -65.210938 21.59375 -64.140625 L 21.59375 -57.3125 C 21.59375 -56.820312 21.691406 -56.535156 21.890625 -56.453125 C 22.097656 -56.367188 22.410156 -56.53125 22.828125 -56.9375 C 27.128906 -60.414062 30.929688 -62.960938 34.234375 -64.578125 C 37.546875 -66.191406 41.144531 -67 45.03125 -67 C 51.238281 -67 56.097656 -65.28125 59.609375 -61.84375 C 63.128906 -58.414062 64.890625 -53.804688 64.890625 -48.015625 L 64.890625 -2.234375 C 64.890625 -0.742188 64.1875 0 62.78125 0 L 53.59375 0 C 52.351562 0 51.734375 -0.660156 51.734375 -1.984375 L 51.734375 -45.40625 C 51.734375 -49.125 50.757812 -51.992188 48.8125 -54.015625 C 46.875 -56.046875 43.960938 -57.0625 40.078125 -57.0625 C 36.929688 -57.0625 34.015625 -56.335938 31.328125 -54.890625 C 28.640625 -53.453125 25.472656 -51.078125 21.828125 -47.765625 L 21.828125 -2.109375 C 21.828125 -1.367188 21.640625 -0.832031 21.265625 -0.5 C 20.898438 -0.164062 20.304688 0 19.484375 0 Z M 10.671875 0 "/></g></g></g><g fill="rgb(4.708862%, 20.779419%, 42.749023%)" fill-opacity="1"><g transform="translate(846.915909, 383.77206)"><g><path d="M 29.28125 -56.328125 C 28.53125 -56.328125 28.15625 -55.910156 28.15625 -55.078125 L 28.15625 -18.734375 C 28.15625 -15.253906 28.796875 -12.851562 30.078125 -11.53125 C 31.367188 -10.207031 33.414062 -9.546875 36.21875 -9.546875 L 44.171875 -9.546875 C 45.160156 -9.546875 45.65625 -9.050781 45.65625 -8.0625 L 45.65625 -2.734375 C 45.65625 -1.578125 45.035156 -0.875 43.796875 -0.625 C 41.148438 -0.207031 36.929688 0 31.140625 0 C 25.679688 0 21.628906 -1.257812 18.984375 -3.78125 C 16.335938 -6.300781 15.015625 -10.210938 15.015625 -15.515625 L 15.015625 -54.828125 C 15.015625 -55.828125 14.597656 -56.328125 13.765625 -56.328125 L 4.46875 -56.328125 C 3.394531 -56.328125 2.859375 -56.820312 2.859375 -57.8125 L 2.859375 -64.390625 C 2.859375 -65.296875 3.351562 -65.75 4.34375 -65.75 L 14.265625 -65.75 C 14.929688 -65.75 15.265625 -66.125 15.265625 -66.875 L 16.75 -86.34375 C 16.914062 -87.5 17.410156 -88.078125 18.234375 -88.078125 L 26.796875 -88.078125 C 27.867188 -88.078125 28.40625 -87.414062 28.40625 -86.09375 L 28.40625 -66.875 C 28.40625 -66.125 28.78125 -65.75 29.53125 -65.75 L 44.421875 -65.75 C 45.410156 -65.75 45.90625 -65.296875 45.90625 -64.390625 L 45.90625 -57.8125 C 45.90625 -56.820312 45.328125 -56.328125 44.171875 -56.328125 Z M 29.28125 -56.328125 "/></g></g></g><g fill="rgb(4.708862%, 20.779419%, 42.749023%)" fill-opacity="1"><g transform="translate(896.660985, 383.77206)"><g><path d="M 10.671875 0 C 9.347656 0 8.6875 -0.660156 8.6875 -1.984375 L 8.6875 -63.890625 C 8.6875 -65.128906 9.222656 -65.75 10.296875 -65.75 L 19.84375 -65.75 C 20.84375 -65.75 21.34375 -65.210938 21.34375 -64.140625 L 21.34375 -56.328125 C 21.34375 -55.828125 21.484375 -55.535156 21.765625 -55.453125 C 22.054688 -55.367188 22.367188 -55.535156 22.703125 -55.953125 C 25.765625 -59.503906 28.925781 -62.234375 32.1875 -64.140625 C 35.457031 -66.046875 38.664062 -67 41.8125 -67 C 44.707031 -67 46.15625 -66.414062 46.15625 -65.25 L 46.15625 -55.578125 C 46.15625 -54.585938 45.695312 -54.175781 44.78125 -54.34375 C 43.207031 -54.75 41.019531 -54.953125 38.21875 -54.953125 C 35.894531 -54.953125 33.453125 -54.3125 30.890625 -53.03125 C 28.328125 -51.75 26.175781 -50.070312 24.4375 -48 C 22.695312 -45.9375 21.828125 -43.832031 21.828125 -41.6875 L 21.828125 -2.109375 C 21.828125 -0.703125 21.046875 0 19.484375 0 Z M 10.671875 0 "/></g></g></g><g fill="rgb(4.708862%, 20.779419%, 42.749023%)" fill-opacity="1"><g transform="translate(945.785792, 383.77206)"><g><path d="M 46.28125 -7.4375 C 40.238281 -1.65625 33.164062 1.234375 25.0625 1.234375 C 18.695312 1.234375 13.671875 -0.394531 9.984375 -3.65625 C 6.304688 -6.925781 4.46875 -11.289062 4.46875 -16.75 C 4.46875 -23.445312 7.378906 -28.78125 13.203125 -32.75 C 19.035156 -36.71875 27.332031 -38.953125 38.09375 -39.453125 L 46.15625 -40.078125 C 47.476562 -40.242188 48.140625 -40.863281 48.140625 -41.9375 L 48.140625 -45.03125 C 48.140625 -49.082031 46.894531 -52.285156 44.40625 -54.640625 C 41.925781 -57.003906 38.535156 -58.1875 34.234375 -58.1875 C 27.453125 -58.1875 22.035156 -55.125 17.984375 -49 C 17.734375 -48.507812 17.460938 -48.203125 17.171875 -48.078125 C 16.890625 -47.953125 16.457031 -47.972656 15.875 -48.140625 L 7.4375 -50.625 C 6.945312 -50.78125 6.703125 -51.109375 6.703125 -51.609375 C 6.703125 -51.941406 6.828125 -52.394531 7.078125 -52.96875 C 9.390625 -57.4375 12.921875 -60.890625 17.671875 -63.328125 C 22.429688 -65.773438 28.160156 -67 34.859375 -67 C 43.546875 -67 50.039062 -65.132812 54.34375 -61.40625 C 58.644531 -57.6875 60.796875 -52.519531 60.796875 -45.90625 L 60.796875 -2.109375 C 60.796875 -1.285156 60.648438 -0.726562 60.359375 -0.4375 C 60.066406 -0.144531 59.59375 0 58.9375 0 L 50.625 0 C 49.457031 0 48.789062 -0.828125 48.625 -2.484375 L 48.390625 -7.203125 C 48.222656 -7.859375 47.972656 -8.1875 47.640625 -8.1875 C 47.390625 -8.1875 46.9375 -7.9375 46.28125 -7.4375 Z M 48.140625 -30.890625 C 48.140625 -32.210938 47.5625 -32.832031 46.40625 -32.75 L 39.703125 -32.25 C 32.835938 -31.84375 27.398438 -30.457031 23.390625 -28.09375 C 19.378906 -25.738281 17.375 -22.492188 17.375 -18.359375 C 17.375 -15.128906 18.53125 -12.582031 20.84375 -10.71875 C 23.15625 -8.863281 26.253906 -7.9375 30.140625 -7.9375 C 34.609375 -7.9375 38.828125 -9.46875 42.796875 -12.53125 C 46.359375 -15.425781 48.140625 -18.320312 48.140625 -21.21875 Z M 48.140625 -30.890625 "/></g></g></g><g fill="rgb(4.708862%, 20.779419%, 42.749023%)" fill-opacity="1"><g transform="translate(1014.262767, 383.77206)"><g><path d="M 21.953125 -2.359375 C 21.953125 -1.453125 21.765625 -0.832031 21.390625 -0.5 C 21.023438 -0.164062 20.347656 0 19.359375 0 L 10.921875 0 C 10.085938 0 9.503906 -0.144531 9.171875 -0.4375 C 8.847656 -0.726562 8.6875 -1.242188 8.6875 -1.984375 L 8.9375 -90.1875 C 8.9375 -91.425781 9.472656 -92.046875 10.546875 -92.046875 L 20.34375 -92.046875 C 21.414062 -92.046875 21.953125 -91.425781 21.953125 -90.1875 Z M 21.953125 -2.359375 "/></g></g></g><g fill="rgb(4.708862%, 20.779419%, 42.749023%)" fill-opacity="1"><g transform="translate(1045.027755, 383.77206)"><g/></g></g><g fill="rgb(4.708862%, 20.779419%, 42.749023%)" fill-opacity="1"><g transform="translate(1071.326869, 383.77206)"><g><path d="M 6.578125 0 C 5.585938 0 5.09375 -0.492188 5.09375 -1.484375 L 5.328125 -2.609375 L 36.96875 -90.0625 C 37.21875 -90.8125 37.546875 -91.328125 37.953125 -91.609375 C 38.367188 -91.898438 38.953125 -92.046875 39.703125 -92.046875 L 52.234375 -92.046875 C 53.804688 -92.046875 54.835938 -91.347656 55.328125 -89.953125 L 86.71875 -2.484375 C 86.800781 -2.316406 86.84375 -2.023438 86.84375 -1.609375 C 86.84375 -0.535156 86.390625 0 85.484375 0 L 73.6875 0 C 72.613281 0 71.910156 -0.492188 71.578125 -1.484375 L 63.640625 -23.578125 C 63.472656 -23.984375 63.304688 -24.269531 63.140625 -24.4375 C 62.984375 -24.601562 62.65625 -24.6875 62.15625 -24.6875 L 27.796875 -24.6875 C 27.046875 -24.6875 26.546875 -24.359375 26.296875 -23.703125 L 18.234375 -1.234375 C 17.984375 -0.410156 17.28125 0 16.125 0 Z M 58.3125 -36.34375 C 58.882812 -36.34375 59.234375 -36.488281 59.359375 -36.78125 C 59.484375 -37.070312 59.460938 -37.507812 59.296875 -38.09375 L 45.90625 -75.3125 C 45.65625 -75.882812 45.363281 -76.171875 45.03125 -76.171875 C 44.695312 -76.171875 44.410156 -75.84375 44.171875 -75.1875 L 30.390625 -37.96875 L 30.265625 -37.21875 C 30.265625 -36.632812 30.640625 -36.34375 31.390625 -36.34375 Z M 58.3125 -36.34375 "/></g></g></g><g fill="rgb(4.708862%, 20.779419%, 42.749023%)" fill-opacity="1"><g transform="translate(1163.249804, 383.77206)"><g><path d="M 10.671875 0 C 9.347656 0 8.6875 -0.660156 8.6875 -1.984375 L 8.6875 -63.890625 C 8.6875 -65.128906 9.222656 -65.75 10.296875 -65.75 L 19.84375 -65.75 C 20.84375 -65.75 21.34375 -65.210938 21.34375 -64.140625 L 21.34375 -56.328125 C 21.34375 -55.828125 21.484375 -55.535156 21.765625 -55.453125 C 22.054688 -55.367188 22.367188 -55.535156 22.703125 -55.953125 C 25.765625 -59.503906 28.925781 -62.234375 32.1875 -64.140625 C 35.457031 -66.046875 38.664062 -67 41.8125 -67 C 44.707031 -67 46.15625 -66.414062 46.15625 -65.25 L 46.15625 -55.578125 C 46.15625 -54.585938 45.695312 -54.175781 44.78125 -54.34375 C 43.207031 -54.75 41.019531 -54.953125 38.21875 -54.953125 C 35.894531 -54.953125 33.453125 -54.3125 30.890625 -53.03125 C 28.328125 -51.75 26.175781 -50.070312 24.4375 -48 C 22.695312 -45.9375 21.828125 -43.832031 21.828125 -41.6875 L 21.828125 -2.109375 C 21.828125 -0.703125 21.046875 0 19.484375 0 Z M 10.671875 0 "/></g></g></g><g fill="rgb(4.708862%, 20.779419%, 42.749023%)" fill-opacity="1"><g transform="translate(1212.374611, 383.77206)"><g><path d="M 18.734375 -28.28125 C 18.734375 -24.5625 19.617188 -21.191406 21.390625 -18.171875 C 23.171875 -15.148438 25.59375 -12.75 28.65625 -10.96875 C 31.71875 -9.195312 35.066406 -8.3125 38.703125 -8.3125 C 42.515625 -8.3125 45.90625 -9.097656 48.875 -10.671875 C 51.851562 -12.242188 54.582031 -14.679688 57.0625 -17.984375 C 57.3125 -18.316406 57.601562 -18.484375 57.9375 -18.484375 C 58.351562 -18.484375 58.6875 -18.398438 58.9375 -18.234375 L 65.25 -15.265625 C 65.664062 -15.015625 65.875 -14.679688 65.875 -14.265625 C 65.875 -14.015625 65.75 -13.6875 65.5 -13.28125 C 62.03125 -8.144531 58.0625 -4.441406 53.59375 -2.171875 C 49.125 0.0976562 43.707031 1.234375 37.34375 1.234375 C 31.132812 1.234375 25.59375 -0.171875 20.71875 -2.984375 C 15.84375 -5.796875 12.035156 -9.742188 9.296875 -14.828125 C 6.566406 -19.910156 5.203125 -25.675781 5.203125 -32.125 C 5.203125 -39.070312 6.609375 -45.191406 9.421875 -50.484375 C 12.234375 -55.785156 16.054688 -59.863281 20.890625 -62.71875 C 25.734375 -65.570312 31.132812 -67 37.09375 -67 C 43.21875 -67 48.59375 -65.65625 53.21875 -62.96875 C 57.851562 -60.28125 61.429688 -56.367188 63.953125 -51.234375 C 66.472656 -46.109375 67.734375 -40.03125 67.734375 -33 L 67.734375 -32.5 C 67.734375 -31.757812 67.628906 -31.203125 67.421875 -30.828125 C 67.222656 -30.453125 66.707031 -30.265625 65.875 -30.265625 L 19.96875 -30.265625 C 19.144531 -30.265625 18.734375 -29.601562 18.734375 -28.28125 Z M 52.609375 -38.09375 C 53.429688 -38.09375 53.988281 -38.210938 54.28125 -38.453125 C 54.570312 -38.703125 54.71875 -39.160156 54.71875 -39.828125 C 54.71875 -43.046875 54.035156 -46.0625 52.671875 -48.875 C 51.304688 -51.6875 49.316406 -53.941406 46.703125 -55.640625 C 44.097656 -57.335938 41.019531 -58.1875 37.46875 -58.1875 C 33.75 -58.1875 30.484375 -57.253906 27.671875 -55.390625 C 24.859375 -53.535156 22.6875 -51.097656 21.15625 -48.078125 C 19.625 -45.054688 18.898438 -41.769531 18.984375 -38.21875 Z M 52.609375 -38.09375 "/></g></g></g><g fill="rgb(4.708862%, 20.779419%, 42.749023%)" fill-opacity="1"><g transform="translate(1284.573147, 383.77206)"><g><path d="M 46.28125 -7.4375 C 40.238281 -1.65625 33.164062 1.234375 25.0625 1.234375 C 18.695312 1.234375 13.671875 -0.394531 9.984375 -3.65625 C 6.304688 -6.925781 4.46875 -11.289062 4.46875 -16.75 C 4.46875 -23.445312 7.378906 -28.78125 13.203125 -32.75 C 19.035156 -36.71875 27.332031 -38.953125 38.09375 -39.453125 L 46.15625 -40.078125 C 47.476562 -40.242188 48.140625 -40.863281 48.140625 -41.9375 L 48.140625 -45.03125 C 48.140625 -49.082031 46.894531 -52.285156 44.40625 -54.640625 C 41.925781 -57.003906 38.535156 -58.1875 34.234375 -58.1875 C 27.453125 -58.1875 22.035156 -55.125 17.984375 -49 C 17.734375 -48.507812 17.460938 -48.203125 17.171875 -48.078125 C 16.890625 -47.953125 16.457031 -47.972656 15.875 -48.140625 L 7.4375 -50.625 C 6.945312 -50.78125 6.703125 -51.109375 6.703125 -51.609375 C 6.703125 -51.941406 6.828125 -52.394531 7.078125 -52.96875 C 9.390625 -57.4375 12.921875 -60.890625 17.671875 -63.328125 C 22.429688 -65.773438 28.160156 -67 34.859375 -67 C 43.546875 -67 50.039062 -65.132812 54.34375 -61.40625 C 58.644531 -57.6875 60.796875 -52.519531 60.796875 -45.90625 L 60.796875 -2.109375 C 60.796875 -1.285156 60.648438 -0.726562 60.359375 -0.4375 C 60.066406 -0.144531 59.59375 0 58.9375 0 L 50.625 0 C 49.457031 0 48.789062 -0.828125 48.625 -2.484375 L 48.390625 -7.203125 C 48.222656 -7.859375 47.972656 -8.1875 47.640625 -8.1875 C 47.390625 -8.1875 46.9375 -7.9375 46.28125 -7.4375 Z M 48.140625 -30.890625 C 48.140625 -32.210938 47.5625 -32.832031 46.40625 -32.75 L 39.703125 -32.25 C 32.835938 -31.84375 27.398438 -30.457031 23.390625 -28.09375 C 19.378906 -25.738281 17.375 -22.492188 17.375 -18.359375 C 17.375 -15.128906 18.53125 -12.582031 20.84375 -10.71875 C 23.15625 -8.863281 26.253906 -7.9375 30.140625 -7.9375 C 34.609375 -7.9375 38.828125 -9.46875 42.796875 -12.53125 C 46.359375 -15.425781 48.140625 -18.320312 48.140625 -21.21875 Z M 48.140625 -30.890625 "/></g></g></g><g fill="rgb(4.708862%, 20.779419%, 42.749023%)" fill-opacity="1"><g transform="translate(247.122152, 490.771098)"><g><path d="M 8.515625 -70.328125 C 8.515625 -71.296875 8.960938 -71.78125 9.859375 -71.78125 L 18.953125 -71.78125 C 19.796875 -71.78125 20.21875 -71.296875 20.21875 -70.328125 L 20.21875 -9.859375 C 20.21875 -9.472656 20.296875 -9.195312 20.453125 -9.03125 C 20.617188 -8.875 20.863281 -8.796875 21.1875 -8.796875 L 53.875 -8.796875 C 54.332031 -8.796875 54.671875 -8.710938 54.890625 -8.546875 C 55.117188 -8.390625 55.234375 -8.085938 55.234375 -7.640625 L 55.234375 -1.25 C 55.234375 -0.414062 54.78125 0 53.875 0 L 10.15625 0 C 9.570312 0 9.148438 -0.128906 8.890625 -0.390625 C 8.640625 -0.648438 8.515625 -1.035156 8.515625 -1.546875 Z M 8.515625 -70.328125 "/></g></g></g><g fill="rgb(4.708862%, 20.779419%, 42.749023%)" fill-opacity="1"><g transform="translate(306.1275, 490.771098)"><g><path d="M 36.078125 -5.796875 C 31.367188 -1.285156 25.859375 0.96875 19.546875 0.96875 C 14.578125 0.96875 10.65625 -0.300781 7.78125 -2.84375 C 4.914062 -5.394531 3.484375 -8.800781 3.484375 -13.0625 C 3.484375 -18.28125 5.753906 -22.4375 10.296875 -25.53125 C 14.847656 -28.632812 21.316406 -30.378906 29.703125 -30.765625 L 35.984375 -31.25 C 37.015625 -31.375 37.53125 -31.859375 37.53125 -32.703125 L 37.53125 -35.109375 C 37.53125 -38.273438 36.5625 -40.773438 34.625 -42.609375 C 32.695312 -44.453125 30.054688 -45.375 26.703125 -45.375 C 21.410156 -45.375 17.1875 -42.984375 14.03125 -38.203125 C 13.832031 -37.816406 13.617188 -37.578125 13.390625 -37.484375 C 13.171875 -37.390625 12.832031 -37.40625 12.375 -37.53125 L 5.796875 -39.46875 C 5.410156 -39.59375 5.21875 -39.847656 5.21875 -40.234375 C 5.21875 -40.492188 5.316406 -40.851562 5.515625 -41.3125 C 7.316406 -44.789062 10.070312 -47.476562 13.78125 -49.375 C 17.488281 -51.28125 21.957031 -52.234375 27.1875 -52.234375 C 33.957031 -52.234375 39.019531 -50.78125 42.375 -47.875 C 45.726562 -44.976562 47.40625 -40.953125 47.40625 -35.796875 L 47.40625 -1.640625 C 47.40625 -0.992188 47.289062 -0.554688 47.0625 -0.328125 C 46.832031 -0.109375 46.460938 0 45.953125 0 L 39.46875 0 C 38.5625 0 38.046875 -0.644531 37.921875 -1.9375 L 37.71875 -5.609375 C 37.59375 -6.128906 37.398438 -6.390625 37.140625 -6.390625 C 36.953125 -6.390625 36.597656 -6.191406 36.078125 -5.796875 Z M 37.53125 -24.09375 C 37.53125 -25.125 37.078125 -25.601562 36.171875 -25.53125 L 30.953125 -25.15625 C 25.597656 -24.832031 21.359375 -23.75 18.234375 -21.90625 C 15.109375 -20.070312 13.546875 -17.539062 13.546875 -14.3125 C 13.546875 -11.800781 14.445312 -9.816406 16.25 -8.359375 C 18.050781 -6.910156 20.46875 -6.1875 23.5 -6.1875 C 26.988281 -6.1875 30.28125 -7.378906 33.375 -9.765625 C 36.144531 -12.023438 37.53125 -14.285156 37.53125 -16.546875 Z M 37.53125 -24.09375 "/></g></g></g><g fill="rgb(4.708862%, 20.779419%, 42.749023%)" fill-opacity="1"><g transform="translate(359.522495, 490.771098)"><g><path d="M 8.3125 0 C 7.28125 0 6.765625 -0.515625 6.765625 -1.546875 L 6.765625 -49.8125 C 6.765625 -50.78125 7.1875 -51.265625 8.03125 -51.265625 L 15.671875 -51.265625 C 16.441406 -51.265625 16.828125 -50.847656 16.828125 -50.015625 L 16.828125 -44.6875 C 16.828125 -44.300781 16.90625 -44.078125 17.0625 -44.015625 C 17.226562 -43.953125 17.472656 -44.082031 17.796875 -44.40625 C 21.148438 -47.113281 24.113281 -49.09375 26.6875 -50.34375 C 29.269531 -51.601562 32.078125 -52.234375 35.109375 -52.234375 C 39.953125 -52.234375 43.742188 -50.894531 46.484375 -48.21875 C 49.222656 -45.539062 50.59375 -41.945312 50.59375 -37.4375 L 50.59375 -1.734375 C 50.59375 -0.578125 50.046875 0 48.953125 0 L 41.796875 0 C 40.828125 0 40.34375 -0.515625 40.34375 -1.546875 L 40.34375 -35.40625 C 40.34375 -38.300781 39.582031 -40.539062 38.0625 -42.125 C 36.550781 -43.707031 34.28125 -44.5 31.25 -44.5 C 28.789062 -44.5 26.515625 -43.929688 24.421875 -42.796875 C 22.328125 -41.671875 19.863281 -39.820312 17.03125 -37.25 L 17.03125 -1.640625 C 17.03125 -1.066406 16.882812 -0.648438 16.59375 -0.390625 C 16.300781 -0.128906 15.832031 0 15.1875 0 Z M 8.3125 0 "/></g></g></g><g fill="rgb(4.708862%, 20.779419%, 42.749023%)" fill-opacity="1"><g transform="translate(416.399773, 490.771098)"><g><path d="M 42.953125 0 C 41.921875 0 41.40625 -0.515625 41.40625 -1.546875 L 41.40625 -5.21875 C 41.40625 -5.800781 41.242188 -6.09375 40.921875 -6.09375 C 40.722656 -6.09375 40.460938 -5.929688 40.140625 -5.609375 C 38.210938 -3.742188 36.117188 -2.179688 33.859375 -0.921875 C 31.597656 0.335938 28.726562 0.96875 25.25 0.96875 C 21.1875 0.96875 17.554688 -0.015625 14.359375 -1.984375 C 11.171875 -3.953125 8.671875 -6.882812 6.859375 -10.78125 C 5.054688 -14.6875 4.15625 -19.410156 4.15625 -24.953125 C 4.15625 -30.304688 5.101562 -35.046875 7 -39.171875 C 8.90625 -43.304688 11.550781 -46.515625 14.9375 -48.796875 C 18.332031 -51.085938 22.125 -52.234375 26.3125 -52.234375 C 29.082031 -52.234375 31.53125 -51.78125 33.65625 -50.875 C 35.789062 -49.976562 37.789062 -48.722656 39.65625 -47.109375 C 39.976562 -46.785156 40.300781 -46.625 40.625 -46.625 C 41.007812 -46.625 41.203125 -47.007812 41.203125 -47.78125 L 41.203125 -70.328125 C 41.203125 -71.296875 41.625 -71.78125 42.46875 -71.78125 L 50.203125 -71.78125 C 50.585938 -71.78125 50.894531 -71.648438 51.125 -71.390625 C 51.351562 -71.128906 51.46875 -70.773438 51.46875 -70.328125 L 51.46875 -1.640625 C 51.46875 -1.066406 51.320312 -0.648438 51.03125 -0.390625 C 50.738281 -0.128906 50.269531 0 49.625 0 Z M 41.203125 -39.28125 C 39.273438 -41.269531 37.375 -42.75 35.5 -43.71875 C 33.632812 -44.6875 31.570312 -45.171875 29.3125 -45.171875 C 24.925781 -45.171875 21.378906 -43.460938 18.671875 -40.046875 C 15.960938 -36.628906 14.609375 -31.695312 14.609375 -25.25 C 14.609375 -18.800781 15.929688 -13.976562 18.578125 -10.78125 C 21.222656 -7.59375 24.640625 -6 28.828125 -6 C 31.085938 -6 33.148438 -6.53125 35.015625 -7.59375 C 36.890625 -8.65625 38.390625 -10.007812 39.515625 -11.65625 C 40.640625 -13.300781 41.203125 -14.960938 41.203125 -16.640625 Z M 41.203125 -39.28125 "/></g></g></g><g fill="rgb(4.708862%, 20.779419%, 42.749023%)" fill-opacity="1"><g transform="translate(474.631266, 490.771098)"><g/></g></g><g fill="rgb(4.708862%, 20.779419%, 42.749023%)" fill-opacity="1"><g transform="translate(495.138051, 490.771098)"><g><path d="M 61.234375 -24.765625 C 61.234375 -15.796875 58.972656 -9.265625 54.453125 -5.171875 C 49.941406 -1.078125 43.269531 0.96875 34.4375 0.96875 C 25.082031 0.96875 18.273438 -1.269531 14.015625 -5.75 C 9.765625 -10.238281 7.640625 -17.125 7.640625 -26.40625 L 7.640625 -70.234375 C 7.640625 -71.265625 8.0625 -71.78125 8.90625 -71.78125 L 18.09375 -71.78125 C 18.925781 -71.78125 19.34375 -71.296875 19.34375 -70.328125 L 19.34375 -24.375 C 19.34375 -13.28125 24.664062 -7.734375 35.3125 -7.734375 C 46.144531 -7.734375 51.5625 -13.378906 51.5625 -24.671875 L 51.5625 -70.328125 C 51.5625 -71.296875 51.945312 -71.78125 52.71875 -71.78125 L 60.078125 -71.78125 C 60.847656 -71.78125 61.234375 -71.328125 61.234375 -70.421875 Z M 61.234375 -24.765625 "/></g></g></g><g fill="rgb(4.708862%, 20.779419%, 42.749023%)" fill-opacity="1"><g transform="translate(564.106593, 490.771098)"><g><path d="M 37.828125 -39.28125 C 36.472656 -41.144531 34.695312 -42.640625 32.5 -43.765625 C 30.3125 -44.898438 27.765625 -45.46875 24.859375 -45.46875 C 21.640625 -45.46875 18.992188 -44.804688 16.921875 -43.484375 C 14.859375 -42.160156 13.828125 -40.367188 13.828125 -38.109375 C 13.828125 -36.816406 14.34375 -35.65625 15.375 -34.625 C 16.40625 -33.59375 18.273438 -32.691406 20.984375 -31.921875 L 32.890625 -28.53125 C 37.398438 -27.375 40.734375 -25.585938 42.890625 -23.171875 C 45.054688 -20.753906 46.140625 -17.898438 46.140625 -14.609375 C 46.140625 -11.515625 45.21875 -8.789062 43.375 -6.4375 C 41.539062 -4.082031 38.976562 -2.257812 35.6875 -0.96875 C 32.40625 0.320312 28.703125 0.96875 24.578125 0.96875 C 19.410156 0.96875 14.859375 -0.015625 10.921875 -1.984375 C 6.992188 -3.953125 4.191406 -6.515625 2.515625 -9.671875 C 2.316406 -9.992188 2.21875 -10.285156 2.21875 -10.546875 C 2.21875 -10.929688 2.378906 -11.222656 2.703125 -11.421875 L 7.453125 -13.9375 C 7.835938 -14.125 8.160156 -14.21875 8.421875 -14.21875 C 8.742188 -14.21875 9 -14.085938 9.1875 -13.828125 C 12.601562 -8.671875 17.664062 -6.09375 24.375 -6.09375 C 27.925781 -6.09375 30.859375 -6.753906 33.171875 -8.078125 C 35.492188 -9.398438 36.65625 -11.191406 36.65625 -13.453125 C 36.65625 -15.054688 35.992188 -16.421875 34.671875 -17.546875 C 33.359375 -18.679688 31.1875 -19.632812 28.15625 -20.40625 L 18.28125 -22.921875 C 13.507812 -24.085938 10.023438 -25.796875 7.828125 -28.046875 C 5.640625 -30.304688 4.546875 -33.144531 4.546875 -36.5625 C 4.546875 -39.65625 5.398438 -42.378906 7.109375 -44.734375 C 8.816406 -47.085938 11.203125 -48.925781 14.265625 -50.25 C 17.328125 -51.570312 20.890625 -52.234375 24.953125 -52.234375 C 29.335938 -52.234375 33.269531 -51.394531 36.75 -49.71875 C 40.238281 -48.039062 42.851562 -45.847656 44.59375 -43.140625 C 44.851562 -42.753906 44.984375 -42.429688 44.984375 -42.171875 C 44.984375 -41.921875 44.820312 -41.695312 44.5 -41.5 L 39.46875 -38.890625 C 39.34375 -38.828125 39.148438 -38.796875 38.890625 -38.796875 C 38.503906 -38.796875 38.148438 -38.957031 37.828125 -39.28125 Z M 37.828125 -39.28125 "/></g></g></g><g fill="rgb(4.708862%, 20.779419%, 42.749023%)" fill-opacity="1"><g transform="translate(614.212761, 490.771098)"><g><path d="M 14.609375 -22.0625 C 14.609375 -19.15625 15.300781 -16.523438 16.6875 -14.171875 C 18.070312 -11.816406 19.957031 -9.945312 22.34375 -8.5625 C 24.726562 -7.175781 27.34375 -6.484375 30.1875 -6.484375 C 33.144531 -6.484375 35.785156 -7.09375 38.109375 -8.3125 C 40.429688 -9.539062 42.5625 -11.445312 44.5 -14.03125 C 44.6875 -14.28125 44.910156 -14.40625 45.171875 -14.40625 C 45.492188 -14.40625 45.753906 -14.34375 45.953125 -14.21875 L 50.875 -11.890625 C 51.195312 -11.703125 51.359375 -11.445312 51.359375 -11.125 C 51.359375 -10.925781 51.265625 -10.664062 51.078125 -10.34375 C 48.367188 -6.351562 45.269531 -3.46875 41.78125 -1.6875 C 38.300781 0.0820312 34.078125 0.96875 29.109375 0.96875 C 24.273438 0.96875 19.957031 -0.125 16.15625 -2.3125 C 12.351562 -4.507812 9.382812 -7.59375 7.25 -11.5625 C 5.125 -15.53125 4.0625 -20.023438 4.0625 -25.046875 C 4.0625 -30.472656 5.15625 -35.25 7.34375 -39.375 C 9.539062 -43.5 12.523438 -46.671875 16.296875 -48.890625 C 20.066406 -51.117188 24.273438 -52.234375 28.921875 -52.234375 C 33.691406 -52.234375 37.882812 -51.1875 41.5 -49.09375 C 45.113281 -47 47.898438 -43.953125 49.859375 -39.953125 C 51.828125 -35.953125 52.8125 -31.210938 52.8125 -25.734375 L 52.8125 -25.34375 C 52.8125 -24.757812 52.726562 -24.320312 52.5625 -24.03125 C 52.40625 -23.75 52.003906 -23.609375 51.359375 -23.609375 L 15.578125 -23.609375 C 14.929688 -23.609375 14.609375 -23.09375 14.609375 -22.0625 Z M 41.015625 -29.703125 C 41.660156 -29.703125 42.09375 -29.796875 42.3125 -29.984375 C 42.539062 -30.179688 42.65625 -30.535156 42.65625 -31.046875 C 42.65625 -33.566406 42.125 -35.921875 41.0625 -38.109375 C 40 -40.304688 38.453125 -42.066406 36.421875 -43.390625 C 34.390625 -44.710938 31.988281 -45.375 29.21875 -45.375 C 26.3125 -45.375 23.757812 -44.644531 21.5625 -43.1875 C 19.375 -41.738281 17.679688 -39.835938 16.484375 -37.484375 C 15.296875 -35.128906 14.734375 -32.566406 14.796875 -29.796875 Z M 41.015625 -29.703125 "/></g></g></g><g fill="rgb(4.708862%, 20.779419%, 42.749023%)" fill-opacity="1"><g transform="translate(670.509667, 490.771098)"><g/></g></g><g fill="rgb(4.708862%, 20.779419%, 42.749023%)" fill-opacity="1"><g transform="translate(691.016452, 490.771098)"><g><path d="M 62.78125 -50.40625 C 62.78125 -43.5 60.441406 -38.238281 55.765625 -34.625 C 51.085938 -31.019531 44.847656 -29.21875 37.046875 -29.21875 L 21.1875 -29.21875 C 20.539062 -29.21875 20.21875 -28.894531 20.21875 -28.25 L 20.21875 -1.640625 C 20.21875 -0.546875 19.632812 0 18.46875 0 L 10.0625 0 C 9.03125 0 8.515625 -0.484375 8.515625 -1.453125 L 8.515625 -70.328125 C 8.515625 -70.835938 8.609375 -71.207031 8.796875 -71.4375 C 8.992188 -71.664062 9.347656 -71.78125 9.859375 -71.78125 L 35.6875 -71.78125 C 43.820312 -71.78125 50.367188 -69.988281 55.328125 -66.40625 C 60.296875 -62.832031 62.78125 -57.5 62.78125 -50.40625 Z M 50.78125 -50.6875 C 50.78125 -59.007812 45.523438 -63.171875 35.015625 -63.171875 L 21.671875 -63.171875 C 21.148438 -63.171875 20.773438 -63.070312 20.546875 -62.875 C 20.328125 -62.6875 20.21875 -62.332031 20.21875 -61.8125 L 20.21875 -39.28125 C 20.21875 -38.3125 20.570312 -37.828125 21.28125 -37.828125 L 35.6875 -37.828125 C 40.394531 -37.828125 44.085938 -38.90625 46.765625 -41.0625 C 49.441406 -43.21875 50.78125 -46.425781 50.78125 -50.6875 Z M 50.78125 -50.6875 "/></g></g></g><g fill="rgb(4.708862%, 20.779419%, 42.749023%)" fill-opacity="1"><g transform="translate(758.534039, 490.771098)"><g><path d="M 17.125 -1.84375 C 17.125 -1.132812 16.976562 -0.648438 16.6875 -0.390625 C 16.394531 -0.128906 15.863281 0 15.09375 0 L 8.515625 0 C 7.867188 0 7.414062 -0.109375 7.15625 -0.328125 C 6.894531 -0.554688 6.765625 -0.960938 6.765625 -1.546875 L 6.96875 -70.328125 C 6.96875 -71.296875 7.382812 -71.78125 8.21875 -71.78125 L 15.859375 -71.78125 C 16.703125 -71.78125 17.125 -71.296875 17.125 -70.328125 Z M 17.125 -1.84375 "/></g></g></g><g fill="rgb(4.708862%, 20.779419%, 42.749023%)" fill-opacity="1"><g transform="translate(782.523107, 490.771098)"><g><path d="M 36.078125 -5.796875 C 31.367188 -1.285156 25.859375 0.96875 19.546875 0.96875 C 14.578125 0.96875 10.65625 -0.300781 7.78125 -2.84375 C 4.914062 -5.394531 3.484375 -8.800781 3.484375 -13.0625 C 3.484375 -18.28125 5.753906 -22.4375 10.296875 -25.53125 C 14.847656 -28.632812 21.316406 -30.378906 29.703125 -30.765625 L 35.984375 -31.25 C 37.015625 -31.375 37.53125 -31.859375 37.53125 -32.703125 L 37.53125 -35.109375 C 37.53125 -38.273438 36.5625 -40.773438 34.625 -42.609375 C 32.695312 -44.453125 30.054688 -45.375 26.703125 -45.375 C 21.410156 -45.375 17.1875 -42.984375 14.03125 -38.203125 C 13.832031 -37.816406 13.617188 -37.578125 13.390625 -37.484375 C 13.171875 -37.390625 12.832031 -37.40625 12.375 -37.53125 L 5.796875 -39.46875 C 5.410156 -39.59375 5.21875 -39.847656 5.21875 -40.234375 C 5.21875 -40.492188 5.316406 -40.851562 5.515625 -41.3125 C 7.316406 -44.789062 10.070312 -47.476562 13.78125 -49.375 C 17.488281 -51.28125 21.957031 -52.234375 27.1875 -52.234375 C 33.957031 -52.234375 39.019531 -50.78125 42.375 -47.875 C 45.726562 -44.976562 47.40625 -40.953125 47.40625 -35.796875 L 47.40625 -1.640625 C 47.40625 -0.992188 47.289062 -0.554688 47.0625 -0.328125 C 46.832031 -0.109375 46.460938 0 45.953125 0 L 39.46875 0 C 38.5625 0 38.046875 -0.644531 37.921875 -1.9375 L 37.71875 -5.609375 C 37.59375 -6.128906 37.398438 -6.390625 37.140625 -6.390625 C 36.953125 -6.390625 36.597656 -6.191406 36.078125 -5.796875 Z M 37.53125 -24.09375 C 37.53125 -25.125 37.078125 -25.601562 36.171875 -25.53125 L 30.953125 -25.15625 C 25.597656 -24.832031 21.359375 -23.75 18.234375 -21.90625 C 15.109375 -20.070312 13.546875 -17.539062 13.546875 -14.3125 C 13.546875 -11.800781 14.445312 -9.816406 16.25 -8.359375 C 18.050781 -6.910156 20.46875 -6.1875 23.5 -6.1875 C 26.988281 -6.1875 30.28125 -7.378906 33.375 -9.765625 C 36.144531 -12.023438 37.53125 -14.285156 37.53125 -16.546875 Z M 37.53125 -24.09375 "/></g></g></g><g fill="rgb(4.708862%, 20.779419%, 42.749023%)" fill-opacity="1"><g transform="translate(835.918102, 490.771098)"><g><path d="M 8.3125 0 C 7.28125 0 6.765625 -0.515625 6.765625 -1.546875 L 6.765625 -49.8125 C 6.765625 -50.78125 7.1875 -51.265625 8.03125 -51.265625 L 15.671875 -51.265625 C 16.441406 -51.265625 16.828125 -50.847656 16.828125 -50.015625 L 16.828125 -44.6875 C 16.828125 -44.300781 16.90625 -44.078125 17.0625 -44.015625 C 17.226562 -43.953125 17.472656 -44.082031 17.796875 -44.40625 C 21.148438 -47.113281 24.113281 -49.09375 26.6875 -50.34375 C 29.269531 -51.601562 32.078125 -52.234375 35.109375 -52.234375 C 39.953125 -52.234375 43.742188 -50.894531 46.484375 -48.21875 C 49.222656 -45.539062 50.59375 -41.945312 50.59375 -37.4375 L 50.59375 -1.734375 C 50.59375 -0.578125 50.046875 0 48.953125 0 L 41.796875 0 C 40.828125 0 40.34375 -0.515625 40.34375 -1.546875 L 40.34375 -35.40625 C 40.34375 -38.300781 39.582031 -40.539062 38.0625 -42.125 C 36.550781 -43.707031 34.28125 -44.5 31.25 -44.5 C 28.789062 -44.5 26.515625 -43.929688 24.421875 -42.796875 C 22.328125 -41.671875 19.863281 -39.820312 17.03125 -37.25 L 17.03125 -1.640625 C 17.03125 -1.066406 16.882812 -0.648438 16.59375 -0.390625 C 16.300781 -0.128906 15.832031 0 15.1875 0 Z M 8.3125 0 "/></g></g></g><g fill="rgb(99.21875%, 36.859131%, 21.958923%)" fill-opacity="1"><g transform="translate(247.122152, 539.535983)"><g><path d="M 10.546875 -16.984375 C 8.492188 -16.984375 6.875 -16.300781 5.6875 -14.9375 C 4.507812 -13.570312 3.921875 -11.703125 3.921875 -9.328125 C 3.921875 -6.878906 4.488281 -4.988281 5.625 -3.65625 C 6.769531 -2.332031 8.40625 -1.671875 10.53125 -1.671875 C 11.820312 -1.671875 13.300781 -1.90625 14.96875 -2.375 L 14.96875 -0.46875 C 13.675781 0.0078125 12.082031 0.25 10.1875 0.25 C 7.445312 0.25 5.328125 -0.582031 3.828125 -2.25 C 2.335938 -3.914062 1.59375 -6.28125 1.59375 -9.34375 C 1.59375 -11.269531 1.953125 -12.957031 2.671875 -14.40625 C 3.390625 -15.851562 4.425781 -16.96875 5.78125 -17.75 C 7.132812 -18.53125 8.734375 -18.921875 10.578125 -18.921875 C 12.535156 -18.921875 14.242188 -18.5625 15.703125 -17.84375 L 14.78125 -15.984375 C 13.375 -16.648438 11.960938 -16.984375 10.546875 -16.984375 Z M 10.546875 -16.984375 "/></g></g><g transform="translate(263.606534, 539.535983)"><g><path d="M 4.234375 -13.984375 L 4.234375 -4.90625 C 4.234375 -3.769531 4.492188 -2.921875 5.015625 -2.359375 C 5.535156 -1.796875 6.347656 -1.515625 7.453125 -1.515625 C 8.910156 -1.515625 9.976562 -1.914062 10.65625 -2.71875 C 11.332031 -3.519531 11.671875 -4.828125 11.671875 -6.640625 L 11.671875 -13.984375 L 13.796875 -13.984375 L 13.796875 0 L 12.046875 0 L 11.734375 -1.875 L 11.625 -1.875 C 11.1875 -1.1875 10.582031 -0.660156 9.8125 -0.296875 C 9.039062 0.0664062 8.164062 0.25 7.1875 0.25 C 5.476562 0.25 4.203125 -0.148438 3.359375 -0.953125 C 2.515625 -1.765625 2.09375 -3.054688 2.09375 -4.828125 L 2.09375 -13.984375 Z M 4.234375 -13.984375 "/></g></g><g transform="translate(279.644358, 539.535983)"><g><path d="M 20.0625 0 L 20.0625 -9.09375 C 20.0625 -10.207031 19.820312 -11.039062 19.34375 -11.59375 C 18.875 -12.15625 18.132812 -12.4375 17.125 -12.4375 C 15.8125 -12.4375 14.835938 -12.054688 14.203125 -11.296875 C 13.578125 -10.546875 13.265625 -9.382812 13.265625 -7.8125 L 13.265625 0 L 11.15625 0 L 11.15625 -9.09375 C 11.15625 -10.207031 10.914062 -11.039062 10.4375 -11.59375 C 9.957031 -12.15625 9.210938 -12.4375 8.203125 -12.4375 C 6.878906 -12.4375 5.90625 -12.035156 5.28125 -11.234375 C 4.664062 -10.441406 4.359375 -9.140625 4.359375 -7.328125 L 4.359375 0 L 2.25 0 L 2.25 -13.984375 L 3.96875 -13.984375 L 4.3125 -12.0625 L 4.40625 -12.0625 C 4.8125 -12.75 5.375 -13.28125 6.09375 -13.65625 C 6.820312 -14.039062 7.640625 -14.234375 8.546875 -14.234375 C 10.734375 -14.234375 12.160156 -13.441406 12.828125 -11.859375 L 12.9375 -11.859375 C 13.351562 -12.585938 13.957031 -13.164062 14.75 -13.59375 C 15.539062 -14.019531 16.441406 -14.234375 17.453125 -14.234375 C 19.035156 -14.234375 20.21875 -13.828125 21 -13.015625 C 21.789062 -12.203125 22.1875 -10.90625 22.1875 -9.125 L 22.1875 0 Z M 20.0625 0 "/></g></g><g transform="translate(303.94989, 539.535983)"><g><path d="M 8.75 -14.203125 C 10.582031 -14.203125 12.007812 -13.578125 13.03125 -12.328125 C 14.050781 -11.078125 14.5625 -9.300781 14.5625 -7 C 14.5625 -4.707031 14.046875 -2.925781 13.015625 -1.65625 C 11.992188 -0.382812 10.570312 0.25 8.75 0.25 C 7.84375 0.25 7.007812 0.0820312 6.25 -0.25 C 5.5 -0.582031 4.867188 -1.097656 4.359375 -1.796875 L 4.203125 -1.796875 L 3.765625 0 L 2.25 0 L 2.25 -19.84375 L 4.359375 -19.84375 L 4.359375 -15.03125 C 4.359375 -13.945312 4.328125 -12.976562 4.265625 -12.125 L 4.359375 -12.125 C 5.347656 -13.507812 6.8125 -14.203125 8.75 -14.203125 Z M 8.4375 -12.4375 C 7 -12.4375 5.957031 -12.019531 5.3125 -11.1875 C 4.675781 -10.363281 4.359375 -8.96875 4.359375 -7 C 4.359375 -5.039062 4.6875 -3.632812 5.34375 -2.78125 C 6 -1.9375 7.050781 -1.515625 8.5 -1.515625 C 9.800781 -1.515625 10.769531 -1.988281 11.40625 -2.9375 C 12.039062 -3.882812 12.359375 -5.25 12.359375 -7.03125 C 12.359375 -8.851562 12.039062 -10.207031 11.40625 -11.09375 C 10.769531 -11.988281 9.78125 -12.4375 8.4375 -12.4375 Z M 8.4375 -12.4375 "/></g></g><g transform="translate(319.962196, 539.535983)"><g><path d="M 8.15625 0.25 C 6.082031 0.25 4.445312 -0.375 3.25 -1.625 C 2.0625 -2.882812 1.46875 -4.632812 1.46875 -6.875 C 1.46875 -9.125 2.019531 -10.910156 3.125 -12.234375 C 4.238281 -13.566406 5.734375 -14.234375 7.609375 -14.234375 C 9.359375 -14.234375 10.742188 -13.65625 11.765625 -12.5 C 12.785156 -11.351562 13.296875 -9.835938 13.296875 -7.953125 L 13.296875 -6.609375 L 3.65625 -6.609375 C 3.695312 -4.960938 4.109375 -3.710938 4.890625 -2.859375 C 5.679688 -2.015625 6.796875 -1.59375 8.234375 -1.59375 C 9.734375 -1.59375 11.21875 -1.90625 12.6875 -2.53125 L 12.6875 -0.65625 C 11.9375 -0.332031 11.226562 -0.101562 10.5625 0.03125 C 9.894531 0.175781 9.09375 0.25 8.15625 0.25 Z M 7.578125 -12.46875 C 6.453125 -12.46875 5.554688 -12.097656 4.890625 -11.359375 C 4.222656 -10.628906 3.832031 -9.617188 3.71875 -8.328125 L 11.015625 -8.328125 C 11.015625 -9.660156 10.71875 -10.679688 10.125 -11.390625 C 9.53125 -12.109375 8.679688 -12.46875 7.578125 -12.46875 Z M 7.578125 -12.46875 "/></g></g><g transform="translate(334.622068, 539.535983)"><g><path d="M 8.625 -14.234375 C 9.238281 -14.234375 9.796875 -14.179688 10.296875 -14.078125 L 10 -12.125 C 9.425781 -12.25 8.914062 -12.3125 8.46875 -12.3125 C 7.34375 -12.3125 6.375 -11.847656 5.5625 -10.921875 C 4.757812 -10.003906 4.359375 -8.863281 4.359375 -7.5 L 4.359375 0 L 2.25 0 L 2.25 -13.984375 L 4 -13.984375 L 4.234375 -11.390625 L 4.34375 -11.390625 C 4.851562 -12.296875 5.472656 -12.992188 6.203125 -13.484375 C 6.941406 -13.984375 7.75 -14.234375 8.625 -14.234375 Z M 8.625 -14.234375 "/></g></g><g transform="translate(345.288433, 539.535983)"><g><path d="M 4.359375 0 L 2.25 0 L 2.25 -19.84375 L 4.359375 -19.84375 Z M 4.359375 0 "/></g></g><g transform="translate(351.897496, 539.535983)"><g><path d="M 10.84375 0 L 10.421875 -1.984375 L 10.3125 -1.984375 C 9.625 -1.109375 8.929688 -0.515625 8.234375 -0.203125 C 7.535156 0.0976562 6.671875 0.25 5.640625 0.25 C 4.253906 0.25 3.164062 -0.101562 2.375 -0.8125 C 1.59375 -1.53125 1.203125 -2.546875 1.203125 -3.859375 C 1.203125 -6.679688 3.457031 -8.160156 7.96875 -8.296875 L 10.34375 -8.375 L 10.34375 -9.25 C 10.34375 -10.34375 10.101562 -11.148438 9.625 -11.671875 C 9.15625 -12.203125 8.40625 -12.46875 7.375 -12.46875 C 6.207031 -12.46875 4.890625 -12.109375 3.421875 -11.390625 L 2.765625 -13.015625 C 3.453125 -13.390625 4.207031 -13.679688 5.03125 -13.890625 C 5.851562 -14.097656 6.675781 -14.203125 7.5 -14.203125 C 9.164062 -14.203125 10.398438 -13.832031 11.203125 -13.09375 C 12.003906 -12.351562 12.40625 -11.171875 12.40625 -9.546875 L 12.40625 0 Z M 6.0625 -1.5 C 7.375 -1.5 8.40625 -1.859375 9.15625 -2.578125 C 9.914062 -3.296875 10.296875 -4.304688 10.296875 -5.609375 L 10.296875 -6.875 L 8.171875 -6.78125 C 6.492188 -6.726562 5.28125 -6.46875 4.53125 -6 C 3.789062 -5.539062 3.421875 -4.820312 3.421875 -3.84375 C 3.421875 -3.070312 3.648438 -2.488281 4.109375 -2.09375 C 4.578125 -1.695312 5.226562 -1.5 6.0625 -1.5 Z M 6.0625 -1.5 "/></g></g><g transform="translate(366.42978, 539.535983)"><g><path d="M 11.8125 0 L 11.8125 -9.046875 C 11.8125 -10.179688 11.550781 -11.03125 11.03125 -11.59375 C 10.507812 -12.15625 9.695312 -12.4375 8.59375 -12.4375 C 7.132812 -12.4375 6.0625 -12.039062 5.375 -11.25 C 4.695312 -10.457031 4.359375 -9.148438 4.359375 -7.328125 L 4.359375 0 L 2.25 0 L 2.25 -13.984375 L 3.96875 -13.984375 L 4.3125 -12.0625 L 4.40625 -12.0625 C 4.84375 -12.75 5.453125 -13.28125 6.234375 -13.65625 C 7.015625 -14.039062 7.890625 -14.234375 8.859375 -14.234375 C 10.535156 -14.234375 11.800781 -13.828125 12.65625 -13.015625 C 13.507812 -12.203125 13.9375 -10.90625 13.9375 -9.125 L 13.9375 0 Z M 11.8125 0 "/></g></g><g transform="translate(382.467604, 539.535983)"><g><path d="M 11.765625 -1.875 L 11.640625 -1.875 C 10.660156 -0.457031 9.203125 0.25 7.265625 0.25 C 5.429688 0.25 4.003906 -0.375 2.984375 -1.625 C 1.972656 -2.875 1.46875 -4.648438 1.46875 -6.953125 C 1.46875 -9.253906 1.976562 -11.039062 3 -12.3125 C 4.019531 -13.59375 5.441406 -14.234375 7.265625 -14.234375 C 9.160156 -14.234375 10.613281 -13.546875 11.625 -12.171875 L 11.78125 -12.171875 L 11.703125 -13.171875 L 11.640625 -14.15625 L 11.640625 -19.84375 L 13.765625 -19.84375 L 13.765625 0 L 12.046875 0 Z M 7.53125 -1.515625 C 8.96875 -1.515625 10.007812 -1.90625 10.65625 -2.6875 C 11.3125 -3.476562 11.640625 -4.75 11.640625 -6.5 L 11.640625 -6.953125 C 11.640625 -8.929688 11.3125 -10.34375 10.65625 -11.1875 C 10 -12.039062 8.945312 -12.46875 7.5 -12.46875 C 6.257812 -12.46875 5.304688 -11.984375 4.640625 -11.015625 C 3.984375 -10.046875 3.65625 -8.679688 3.65625 -6.921875 C 3.65625 -5.140625 3.984375 -3.789062 4.640625 -2.875 C 5.296875 -1.96875 6.257812 -1.515625 7.53125 -1.515625 Z M 7.53125 -1.515625 "/></g></g><g transform="translate(398.47991, 539.535983)"><g/></g><g transform="translate(405.267596, 539.535983)"><g><path d="M 10.546875 -16.984375 C 8.492188 -16.984375 6.875 -16.300781 5.6875 -14.9375 C 4.507812 -13.570312 3.921875 -11.703125 3.921875 -9.328125 C 3.921875 -6.878906 4.488281 -4.988281 5.625 -3.65625 C 6.769531 -2.332031 8.40625 -1.671875 10.53125 -1.671875 C 11.820312 -1.671875 13.300781 -1.90625 14.96875 -2.375 L 14.96875 -0.46875 C 13.675781 0.0078125 12.082031 0.25 10.1875 0.25 C 7.445312 0.25 5.328125 -0.582031 3.828125 -2.25 C 2.335938 -3.914062 1.59375 -6.28125 1.59375 -9.34375 C 1.59375 -11.269531 1.953125 -12.957031 2.671875 -14.40625 C 3.390625 -15.851562 4.425781 -16.96875 5.78125 -17.75 C 7.132812 -18.53125 8.734375 -18.921875 10.578125 -18.921875 C 12.535156 -18.921875 14.242188 -18.5625 15.703125 -17.84375 L 14.78125 -15.984375 C 13.375 -16.648438 11.960938 -16.984375 10.546875 -16.984375 Z M 10.546875 -16.984375 "/></g></g><g transform="translate(421.751978, 539.535983)"><g><path d="M 14.3125 -7 C 14.3125 -4.71875 13.738281 -2.9375 12.59375 -1.65625 C 11.445312 -0.382812 9.859375 0.25 7.828125 0.25 C 6.578125 0.25 5.46875 -0.0390625 4.5 -0.625 C 3.53125 -1.207031 2.78125 -2.046875 2.25 -3.140625 C 1.726562 -4.242188 1.46875 -5.53125 1.46875 -7 C 1.46875 -9.28125 2.035156 -11.054688 3.171875 -12.328125 C 4.316406 -13.597656 5.898438 -14.234375 7.921875 -14.234375 C 9.878906 -14.234375 11.429688 -13.582031 12.578125 -12.28125 C 13.734375 -10.976562 14.3125 -9.21875 14.3125 -7 Z M 3.65625 -7 C 3.65625 -5.21875 4.007812 -3.859375 4.71875 -2.921875 C 5.4375 -1.984375 6.492188 -1.515625 7.890625 -1.515625 C 9.273438 -1.515625 10.328125 -1.976562 11.046875 -2.90625 C 11.765625 -3.84375 12.125 -5.207031 12.125 -7 C 12.125 -8.78125 11.765625 -10.128906 11.046875 -11.046875 C 10.328125 -11.972656 9.265625 -12.4375 7.859375 -12.4375 C 6.472656 -12.4375 5.425781 -11.976562 4.71875 -11.0625 C 4.007812 -10.15625 3.65625 -8.800781 3.65625 -7 Z M 3.65625 -7 "/></g></g><g transform="translate(437.534626, 539.535983)"><g><path d="M 4.234375 -13.984375 L 4.234375 -4.90625 C 4.234375 -3.769531 4.492188 -2.921875 5.015625 -2.359375 C 5.535156 -1.796875 6.347656 -1.515625 7.453125 -1.515625 C 8.910156 -1.515625 9.976562 -1.914062 10.65625 -2.71875 C 11.332031 -3.519531 11.671875 -4.828125 11.671875 -6.640625 L 11.671875 -13.984375 L 13.796875 -13.984375 L 13.796875 0 L 12.046875 0 L 11.734375 -1.875 L 11.625 -1.875 C 11.1875 -1.1875 10.582031 -0.660156 9.8125 -0.296875 C 9.039062 0.0664062 8.164062 0.25 7.1875 0.25 C 5.476562 0.25 4.203125 -0.148438 3.359375 -0.953125 C 2.515625 -1.765625 2.09375 -3.054688 2.09375 -4.828125 L 2.09375 -13.984375 Z M 4.234375 -13.984375 "/></g></g><g transform="translate(453.572449, 539.535983)"><g><path d="M 11.8125 0 L 11.8125 -9.046875 C 11.8125 -10.179688 11.550781 -11.03125 11.03125 -11.59375 C 10.507812 -12.15625 9.695312 -12.4375 8.59375 -12.4375 C 7.132812 -12.4375 6.0625 -12.039062 5.375 -11.25 C 4.695312 -10.457031 4.359375 -9.148438 4.359375 -7.328125 L 4.359375 0 L 2.25 0 L 2.25 -13.984375 L 3.96875 -13.984375 L 4.3125 -12.0625 L 4.40625 -12.0625 C 4.84375 -12.75 5.453125 -13.28125 6.234375 -13.65625 C 7.015625 -14.039062 7.890625 -14.234375 8.859375 -14.234375 C 10.535156 -14.234375 11.800781 -13.828125 12.65625 -13.015625 C 13.507812 -12.203125 13.9375 -10.90625 13.9375 -9.125 L 13.9375 0 Z M 11.8125 0 "/></g></g><g transform="translate(469.610273, 539.535983)"><g><path d="M 6.765625 -1.5 C 7.140625 -1.5 7.5 -1.523438 7.84375 -1.578125 C 8.195312 -1.628906 8.472656 -1.6875 8.671875 -1.75 L 8.671875 -0.125 C 8.441406 -0.0195312 8.101562 0.0664062 7.65625 0.140625 C 7.207031 0.210938 6.804688 0.25 6.453125 0.25 C 3.742188 0.25 2.390625 -1.171875 2.390625 -4.015625 L 2.390625 -12.328125 L 0.390625 -12.328125 L 0.390625 -13.359375 L 2.390625 -14.234375 L 3.296875 -17.21875 L 4.515625 -17.21875 L 4.515625 -13.984375 L 8.578125 -13.984375 L 8.578125 -12.328125 L 4.515625 -12.328125 L 4.515625 -4.109375 C 4.515625 -3.265625 4.710938 -2.617188 5.109375 -2.171875 C 5.515625 -1.722656 6.066406 -1.5 6.765625 -1.5 Z M 6.765625 -1.5 "/></g></g><g transform="translate(478.834892, 539.535983)"><g><path d="M 0.03125 -13.984375 L 2.296875 -13.984375 L 5.359375 -6.015625 C 6.023438 -4.191406 6.441406 -2.875 6.609375 -2.0625 L 6.703125 -2.0625 C 6.816406 -2.5 7.050781 -3.242188 7.40625 -4.296875 C 7.757812 -5.347656 8.914062 -8.578125 10.875 -13.984375 L 13.140625 -13.984375 L 7.125 1.9375 C 6.53125 3.507812 5.835938 4.625 5.046875 5.28125 C 4.253906 5.945312 3.28125 6.28125 2.125 6.28125 C 1.46875 6.28125 0.828125 6.207031 0.203125 6.0625 L 0.203125 4.359375 C 0.671875 4.460938 1.191406 4.515625 1.765625 4.515625 C 3.222656 4.515625 4.265625 3.695312 4.890625 2.0625 L 5.65625 0.078125 Z M 0.03125 -13.984375 "/></g></g><g transform="translate(492.001983, 539.535983)"><g><path d="M 4.46875 -3.03125 L 4.65625 -2.75 C 4.4375 -1.894531 4.117188 -0.90625 3.703125 0.21875 C 3.285156 1.34375 2.847656 2.394531 2.390625 3.375 L 0.796875 3.375 C 1.023438 2.488281 1.28125 1.394531 1.5625 0.09375 C 1.84375 -1.207031 2.035156 -2.25 2.140625 -3.03125 Z M 4.46875 -3.03125 "/></g></g><g transform="translate(498.406906, 539.535983)"><g/></g><g transform="translate(505.194593, 539.535983)"><g><path d="M 17.125 0 L 14.65625 0 L 4.46875 -15.65625 L 4.359375 -15.65625 C 4.492188 -13.8125 4.5625 -12.125 4.5625 -10.59375 L 4.5625 0 L 2.5625 0 L 2.5625 -18.65625 L 5.015625 -18.65625 L 15.1875 -3.0625 L 15.28125 -3.0625 C 15.257812 -3.289062 15.21875 -4.023438 15.15625 -5.265625 C 15.101562 -6.515625 15.085938 -7.410156 15.109375 -7.953125 L 15.109375 -18.65625 L 17.125 -18.65625 Z M 17.125 0 "/></g></g><g transform="translate(524.894194, 539.535983)"><g><path d="M 10.546875 -16.984375 C 8.492188 -16.984375 6.875 -16.300781 5.6875 -14.9375 C 4.507812 -13.570312 3.921875 -11.703125 3.921875 -9.328125 C 3.921875 -6.878906 4.488281 -4.988281 5.625 -3.65625 C 6.769531 -2.332031 8.40625 -1.671875 10.53125 -1.671875 C 11.820312 -1.671875 13.300781 -1.90625 14.96875 -2.375 L 14.96875 -0.46875 C 13.675781 0.0078125 12.082031 0.25 10.1875 0.25 C 7.445312 0.25 5.328125 -0.582031 3.828125 -2.25 C 2.335938 -3.914062 1.59375 -6.28125 1.59375 -9.34375 C 1.59375 -11.269531 1.953125 -12.957031 2.671875 -14.40625 C 3.390625 -15.851562 4.425781 -16.96875 5.78125 -17.75 C 7.132812 -18.53125 8.734375 -18.921875 10.578125 -18.921875 C 12.535156 -18.921875 14.242188 -18.5625 15.703125 -17.84375 L 14.78125 -15.984375 C 13.375 -16.648438 11.960938 -16.984375 10.546875 -16.984375 Z M 10.546875 -16.984375 "/></g></g></g><g fill="rgb(99.21875%, 36.859131%, 21.958923%)" fill-opacity="1"><g transform="translate(541.365088, 539.535983)"><g/></g></g></svg>