<svg xmlns="http://www.w3.org/2000/svg" xmlns:xlink="http://www.w3.org/1999/xlink" width="1920" zoomAndPan="magnify" viewBox="0 0 1440 809.999993" height="1080" preserveAspectRatio="xMidYMid meet" version="1.0"><defs><g/></defs><path fill="rgb(34.899902%, 69.018555%, 74.508667%)" d="M 11.308594 358.980469 L 36.015625 383.683594 L 116.667969 303.03125 L 91.964844 278.324219 L 11.308594 358.980469 M 105.835938 302.949219 L 35.820312 372.964844 L 21.917969 359.0625 L 91.933594 289.042969 L 105.835938 302.949219 " fill-opacity="1" fill-rule="nonzero"/><path fill="rgb(32.548523%, 68.629456%, 74.508667%)" d="M 92.597656 278.097656 L 67.894531 302.804688 L 148.546875 383.457031 L 173.253906 358.753906 L 92.597656 278.097656 M 148.628906 372.625 L 78.613281 302.609375 L 92.515625 288.707031 L 162.535156 358.722656 L 148.628906 372.625 " fill-opacity="1" fill-rule="nonzero"/><path fill="rgb(99.21875%, 70.588684%, 29.40979%)" d="M 11.179688 432.226562 L 35.882812 456.933594 L 116.539062 376.277344 L 91.832031 351.574219 L 11.179688 432.226562 M 105.707031 376.195312 L 35.6875 446.210938 L 21.785156 432.308594 L 91.800781 362.292969 L 105.707031 376.195312 " fill-opacity="1" fill-rule="nonzero"/><path fill="rgb(99.21875%, 70.588684%, 29.40979%)" d="M 92.464844 351.347656 L 67.761719 376.050781 L 148.417969 456.707031 L 173.121094 432 L 92.464844 351.347656 M 148.5 445.875 L 78.480469 375.855469 L 92.386719 361.953125 L 162.402344 431.96875 L 148.5 445.875 " fill-opacity="1" fill-rule="nonzero"/><path fill="rgb(99.21875%, 36.859131%, 21.958923%)" d="M 75.074219 560.308594 L 110.011719 560.308594 L 110.011719 439.054688 L 75.074219 439.054688 L 75.074219 560.308594 M 102.292969 446.648438 L 102.292969 552.871094 L 82.632812 552.871094 L 82.632812 446.648438 L 102.292969 446.648438 " fill-opacity="1" fill-rule="nonzero"/><g fill="rgb(4.708862%, 20.779419%, 42.749023%)" fill-opacity="1"><g transform="translate(195.622189, 381.430802)"><g><path d="M 90.640625 -102.203125 C 91.648438 -102.203125 92.15625 -101.609375 92.15625 -100.421875 L 92.15625 -1.796875 C 92.15625 -1.242188 91.96875 -0.804688 91.59375 -0.484375 C 91.226562 -0.160156 90.726562 0 90.09375 0 L 81.140625 0 C 80.398438 0 79.820312 -0.0664062 79.40625 -0.203125 C 79 -0.335938 78.566406 -0.726562 78.109375 -1.375 L 27.828125 -73.5625 C 27.460938 -74.195312 27.117188 -74.46875 26.796875 -74.375 C 26.472656 -74.289062 26.3125 -73.972656 26.3125 -73.421875 L 26.3125 -1.921875 C 26.3125 -0.640625 25.578125 0 24.109375 0 L 14.328125 0 C 12.859375 0 12.125 -0.640625 12.125 -1.921875 L 12.125 -100.140625 C 12.125 -100.878906 12.285156 -101.40625 12.609375 -101.71875 C 12.929688 -102.039062 13.457031 -102.203125 14.1875 -102.203125 L 24.9375 -102.203125 C 25.757812 -102.203125 26.375 -102.085938 26.78125 -101.859375 C 27.195312 -101.628906 27.59375 -101.195312 27.96875 -100.5625 L 76.171875 -30.71875 C 76.722656 -30.070312 77.140625 -29.75 77.421875 -29.75 C 77.960938 -29.75 78.234375 -30.164062 78.234375 -31 L 78.234375 -100.28125 C 78.234375 -101.5625 78.878906 -102.203125 80.171875 -102.203125 Z M 90.640625 -102.203125 "/></g></g></g><g fill="rgb(4.708862%, 20.779419%, 42.749023%)" fill-opacity="1"><g transform="translate(299.887173, 381.430802)"><g><path d="M 41.1875 1.375 C 34.207031 1.375 28.03125 -0.207031 22.65625 -3.375 C 17.28125 -6.539062 13.125 -10.96875 10.1875 -16.65625 C 7.25 -22.351562 5.78125 -28.832031 5.78125 -36.09375 C 5.78125 -43.53125 7.296875 -50.164062 10.328125 -56 C 13.359375 -61.832031 17.5625 -66.351562 22.9375 -69.5625 C 28.3125 -72.78125 34.441406 -74.390625 41.328125 -74.390625 C 48.304688 -74.390625 54.476562 -72.757812 59.84375 -69.5 C 65.21875 -66.238281 69.375 -61.710938 72.3125 -55.921875 C 75.257812 -50.140625 76.734375 -43.578125 76.734375 -36.234375 C 76.734375 -28.972656 75.238281 -22.492188 72.25 -16.796875 C 69.257812 -11.109375 65.078125 -6.65625 59.703125 -3.4375 C 54.335938 -0.226562 48.164062 1.375 41.1875 1.375 Z M 41.46875 -8.953125 C 47.894531 -8.953125 52.894531 -11.363281 56.46875 -16.1875 C 60.050781 -21.007812 61.84375 -27.78125 61.84375 -36.5 C 61.84375 -45.226562 60.03125 -52.046875 56.40625 -56.953125 C 52.78125 -61.867188 47.753906 -64.328125 41.328125 -64.328125 C 34.898438 -64.328125 29.847656 -61.867188 26.171875 -56.953125 C 22.492188 -52.046875 20.65625 -45.226562 20.65625 -36.5 C 20.65625 -27.875 22.492188 -21.125 26.171875 -16.25 C 29.847656 -11.382812 34.945312 -8.953125 41.46875 -8.953125 Z M 41.46875 -8.953125 "/></g></g></g><g fill="rgb(4.708862%, 20.779419%, 42.749023%)" fill-opacity="1"><g transform="translate(382.390113, 381.430802)"><g><path d="M 11.84375 0 C 10.375 0 9.640625 -0.734375 9.640625 -2.203125 L 9.640625 -70.9375 C 9.640625 -72.3125 10.238281 -73 11.4375 -73 L 22.046875 -73 C 23.140625 -73 23.6875 -72.40625 23.6875 -71.21875 L 23.6875 -62.53125 C 23.6875 -61.988281 23.847656 -61.671875 24.171875 -61.578125 C 24.492188 -61.484375 24.835938 -61.664062 25.203125 -62.125 C 28.609375 -66.070312 32.125 -69.101562 35.75 -71.21875 C 39.375 -73.332031 42.929688 -74.390625 46.421875 -74.390625 C 49.640625 -74.390625 51.25 -73.742188 51.25 -72.453125 L 51.25 -61.71875 C 51.25 -60.613281 50.742188 -60.148438 49.734375 -60.328125 C 47.984375 -60.785156 45.546875 -61.015625 42.421875 -61.015625 C 39.847656 -61.015625 37.140625 -60.300781 34.296875 -58.875 C 31.453125 -57.457031 29.066406 -55.597656 27.140625 -53.296875 C 25.210938 -51.003906 24.25 -48.664062 24.25 -46.28125 L 24.25 -2.34375 C 24.25 -0.78125 23.375 0 21.625 0 Z M 11.84375 0 "/></g></g></g><g fill="rgb(4.708862%, 20.779419%, 42.749023%)" fill-opacity="1"><g transform="translate(436.932968, 381.430802)"><g><path d="M 32.515625 -62.53125 C 31.679688 -62.53125 31.265625 -62.070312 31.265625 -61.15625 L 31.265625 -20.796875 C 31.265625 -16.941406 31.976562 -14.28125 33.40625 -12.8125 C 34.832031 -11.34375 37.101562 -10.609375 40.21875 -10.609375 L 49.03125 -10.609375 C 50.132812 -10.609375 50.6875 -10.054688 50.6875 -8.953125 L 50.6875 -3.03125 C 50.6875 -1.75 50 -0.96875 48.625 -0.6875 C 45.6875 -0.226562 41.003906 0 34.578125 0 C 28.515625 0 24.015625 -1.398438 21.078125 -4.203125 C 18.140625 -7.003906 16.671875 -11.34375 16.671875 -17.21875 L 16.671875 -60.890625 C 16.671875 -61.984375 16.210938 -62.53125 15.296875 -62.53125 L 4.953125 -62.53125 C 3.765625 -62.53125 3.171875 -63.082031 3.171875 -64.1875 L 3.171875 -71.5 C 3.171875 -72.5 3.722656 -73 4.828125 -73 L 15.84375 -73 C 16.570312 -73 16.9375 -73.414062 16.9375 -74.25 L 18.59375 -95.875 C 18.78125 -97.15625 19.332031 -97.796875 20.25 -97.796875 L 29.75 -97.796875 C 30.945312 -97.796875 31.546875 -97.0625 31.546875 -95.59375 L 31.546875 -74.25 C 31.546875 -73.414062 31.957031 -73 32.78125 -73 L 49.3125 -73 C 50.414062 -73 50.96875 -72.5 50.96875 -71.5 L 50.96875 -64.1875 C 50.96875 -63.082031 50.320312 -62.53125 49.03125 -62.53125 Z M 32.515625 -62.53125 "/></g></g></g><g fill="rgb(4.708862%, 20.779419%, 42.749023%)" fill-opacity="1"><g transform="translate(492.164488, 381.430802)"><g><path d="M 11.984375 0 C 11.160156 0 10.585938 -0.179688 10.265625 -0.546875 C 9.941406 -0.921875 9.78125 -1.472656 9.78125 -2.203125 L 9.78125 -100.140625 C 9.78125 -101.515625 10.332031 -102.203125 11.4375 -102.203125 L 22.3125 -102.203125 C 23.414062 -102.203125 23.96875 -101.609375 23.96875 -100.421875 L 23.96875 -64.046875 C 23.96875 -62.953125 24.425781 -62.816406 25.34375 -63.640625 C 30.207031 -67.492188 34.476562 -70.25 38.15625 -71.90625 C 41.832031 -73.5625 45.828125 -74.390625 50.140625 -74.390625 C 57.210938 -74.390625 62.628906 -72.503906 66.390625 -68.734375 C 70.160156 -64.972656 72.046875 -59.785156 72.046875 -53.171875 L 72.046875 -2.484375 C 72.046875 -0.828125 71.265625 0 69.703125 0 L 59.515625 0 C 58.128906 0 57.4375 -0.734375 57.4375 -2.203125 L 57.4375 -50.421875 C 57.4375 -54.546875 56.378906 -57.734375 54.265625 -59.984375 C 52.160156 -62.234375 48.945312 -63.359375 44.625 -63.359375 C 41.050781 -63.359375 37.816406 -62.578125 34.921875 -61.015625 C 32.023438 -59.460938 28.507812 -56.800781 24.375 -53.03125 L 24.375 -2.34375 C 24.375 -0.78125 23.503906 0 21.765625 0 Z M 11.984375 0 "/></g></g></g><g fill="rgb(4.708862%, 20.779419%, 42.749023%)" fill-opacity="1"><g transform="translate(573.152359, 381.430802)"><g/></g></g><g fill="rgb(4.708862%, 20.779419%, 42.749023%)" fill-opacity="1"><g transform="translate(602.352049, 381.430802)"><g><path d="M 52.203125 -103.59375 C 58.546875 -103.59375 64.515625 -102.28125 70.109375 -99.65625 C 75.710938 -97.039062 80.347656 -93.53125 84.015625 -89.125 C 87.691406 -84.71875 89.945312 -79.894531 90.78125 -74.65625 C 90.875 -74.289062 90.921875 -73.832031 90.921875 -73.28125 C 90.921875 -72.820312 90.828125 -72.523438 90.640625 -72.390625 C 90.453125 -72.253906 90.082031 -72.140625 89.53125 -72.046875 L 76.734375 -71.21875 L 76.3125 -71.21875 C 75.757812 -71.21875 75.347656 -71.722656 75.078125 -72.734375 C 73.785156 -78.421875 71.1875 -82.960938 67.28125 -86.359375 C 63.382812 -89.765625 58.546875 -91.46875 52.765625 -91.46875 C 43.847656 -91.46875 37.070312 -88.140625 32.4375 -81.484375 C 27.800781 -74.828125 25.484375 -64.75 25.484375 -51.25 C 25.484375 -37.832031 27.800781 -27.816406 32.4375 -21.203125 C 37.070312 -14.597656 44.03125 -11.296875 53.3125 -11.296875 C 59.550781 -11.296875 64.757812 -12.8125 68.9375 -15.84375 C 73.125 -18.875 76.5 -23.738281 79.0625 -30.4375 C 79.15625 -31.082031 79.847656 -31.3125 81.140625 -31.125 L 90.921875 -28.796875 C 91.742188 -28.609375 92.0625 -27.828125 91.875 -26.453125 C 90.59375 -22.046875 88.273438 -17.726562 84.921875 -13.5 C 81.566406 -9.269531 77.132812 -5.734375 71.625 -2.890625 C 66.113281 -0.046875 59.78125 1.375 52.625 1.375 C 43.4375 1.375 35.488281 -0.78125 28.78125 -5.09375 C 22.082031 -9.414062 16.941406 -15.546875 13.359375 -23.484375 C 9.773438 -31.429688 7.984375 -40.726562 7.984375 -51.375 C 7.984375 -62.125 9.75 -71.421875 13.28125 -79.265625 C 16.820312 -87.117188 21.921875 -93.132812 28.578125 -97.3125 C 35.234375 -101.5 43.109375 -103.59375 52.203125 -103.59375 Z M 52.203125 -103.59375 "/></g></g></g><g fill="rgb(4.708862%, 20.779419%, 42.749023%)" fill-opacity="1"><g transform="translate(700.418977, 381.430802)"><g><path d="M 20.796875 -31.40625 C 20.796875 -27.269531 21.78125 -23.523438 23.75 -20.171875 C 25.726562 -16.828125 28.414062 -14.164062 31.8125 -12.1875 C 35.21875 -10.21875 38.941406 -9.234375 42.984375 -9.234375 C 47.203125 -9.234375 50.960938 -10.101562 54.265625 -11.84375 C 57.578125 -13.59375 60.609375 -16.300781 63.359375 -19.96875 C 63.640625 -20.34375 63.960938 -20.53125 64.328125 -20.53125 C 64.785156 -20.53125 65.15625 -20.4375 65.4375 -20.25 L 72.453125 -16.9375 C 72.910156 -16.664062 73.140625 -16.300781 73.140625 -15.84375 C 73.140625 -15.5625 73.003906 -15.191406 72.734375 -14.734375 C 68.878906 -9.046875 64.46875 -4.9375 59.5 -2.40625 C 54.539062 0.113281 48.53125 1.375 41.46875 1.375 C 34.570312 1.375 28.414062 -0.179688 23 -3.296875 C 17.582031 -6.421875 13.359375 -10.804688 10.328125 -16.453125 C 7.296875 -22.109375 5.78125 -28.515625 5.78125 -35.671875 C 5.78125 -43.390625 7.34375 -50.1875 10.46875 -56.0625 C 13.59375 -61.9375 17.835938 -66.457031 23.203125 -69.625 C 28.578125 -72.800781 34.570312 -74.390625 41.1875 -74.390625 C 47.976562 -74.390625 53.945312 -72.894531 59.09375 -69.90625 C 64.238281 -66.925781 68.210938 -62.585938 71.015625 -56.890625 C 73.816406 -51.191406 75.21875 -44.441406 75.21875 -36.640625 L 75.21875 -36.09375 C 75.21875 -35.257812 75.097656 -34.632812 74.859375 -34.21875 C 74.628906 -33.8125 74.054688 -33.609375 73.140625 -33.609375 L 22.171875 -33.609375 C 21.253906 -33.609375 20.796875 -32.875 20.796875 -31.40625 Z M 58.40625 -42.296875 C 59.320312 -42.296875 59.941406 -42.429688 60.265625 -42.703125 C 60.585938 -42.972656 60.75 -43.476562 60.75 -44.21875 C 60.75 -47.800781 59.988281 -51.148438 58.46875 -54.265625 C 56.957031 -57.390625 54.753906 -59.894531 51.859375 -61.78125 C 48.972656 -63.664062 45.550781 -64.609375 41.59375 -64.609375 C 37.46875 -64.609375 33.84375 -63.570312 30.71875 -61.5 C 27.59375 -59.4375 25.179688 -56.726562 23.484375 -53.375 C 21.785156 -50.019531 20.984375 -46.367188 21.078125 -42.421875 Z M 58.40625 -42.296875 "/></g></g></g><g fill="rgb(4.708862%, 20.779419%, 42.749023%)" fill-opacity="1"><g transform="translate(780.580417, 381.430802)"><g><path d="M 11.84375 0 C 10.375 0 9.640625 -0.734375 9.640625 -2.203125 L 9.640625 -70.9375 C 9.640625 -72.3125 10.238281 -73 11.4375 -73 L 22.3125 -73 C 23.414062 -73 23.96875 -72.40625 23.96875 -71.21875 L 23.96875 -63.640625 C 23.96875 -63.085938 24.082031 -62.765625 24.3125 -62.671875 C 24.539062 -62.578125 24.882812 -62.765625 25.34375 -63.234375 C 30.125 -67.085938 34.347656 -69.910156 38.015625 -71.703125 C 41.691406 -73.492188 45.6875 -74.390625 50 -74.390625 C 56.882812 -74.390625 62.28125 -72.484375 66.1875 -68.671875 C 70.09375 -64.859375 72.046875 -59.738281 72.046875 -53.3125 L 72.046875 -2.484375 C 72.046875 -0.828125 71.265625 0 69.703125 0 L 59.515625 0 C 58.128906 0 57.4375 -0.734375 57.4375 -2.203125 L 57.4375 -50.421875 C 57.4375 -54.546875 56.359375 -57.734375 54.203125 -59.984375 C 52.046875 -62.234375 48.8125 -63.359375 44.5 -63.359375 C 41.007812 -63.359375 37.769531 -62.554688 34.78125 -60.953125 C 31.800781 -59.347656 28.289062 -56.707031 24.25 -53.03125 L 24.25 -2.34375 C 24.25 -1.519531 24.039062 -0.921875 23.625 -0.546875 C 23.207031 -0.179688 22.539062 0 21.625 0 Z M 11.84375 0 "/></g></g></g><g fill="rgb(4.708862%, 20.779419%, 42.749023%)" fill-opacity="1"><g transform="translate(861.56826, 381.430802)"><g><path d="M 32.515625 -62.53125 C 31.679688 -62.53125 31.265625 -62.070312 31.265625 -61.15625 L 31.265625 -20.796875 C 31.265625 -16.941406 31.976562 -14.28125 33.40625 -12.8125 C 34.832031 -11.34375 37.101562 -10.609375 40.21875 -10.609375 L 49.03125 -10.609375 C 50.132812 -10.609375 50.6875 -10.054688 50.6875 -8.953125 L 50.6875 -3.03125 C 50.6875 -1.75 50 -0.96875 48.625 -0.6875 C 45.6875 -0.226562 41.003906 0 34.578125 0 C 28.515625 0 24.015625 -1.398438 21.078125 -4.203125 C 18.140625 -7.003906 16.671875 -11.34375 16.671875 -17.21875 L 16.671875 -60.890625 C 16.671875 -61.984375 16.210938 -62.53125 15.296875 -62.53125 L 4.953125 -62.53125 C 3.765625 -62.53125 3.171875 -63.082031 3.171875 -64.1875 L 3.171875 -71.5 C 3.171875 -72.5 3.722656 -73 4.828125 -73 L 15.84375 -73 C 16.570312 -73 16.9375 -73.414062 16.9375 -74.25 L 18.59375 -95.875 C 18.78125 -97.15625 19.332031 -97.796875 20.25 -97.796875 L 29.75 -97.796875 C 30.945312 -97.796875 31.546875 -97.0625 31.546875 -95.59375 L 31.546875 -74.25 C 31.546875 -73.414062 31.957031 -73 32.78125 -73 L 49.3125 -73 C 50.414062 -73 50.96875 -72.5 50.96875 -71.5 L 50.96875 -64.1875 C 50.96875 -63.082031 50.320312 -62.53125 49.03125 -62.53125 Z M 32.515625 -62.53125 "/></g></g></g><g fill="rgb(4.708862%, 20.779419%, 42.749023%)" fill-opacity="1"><g transform="translate(916.799808, 381.430802)"><g><path d="M 11.84375 0 C 10.375 0 9.640625 -0.734375 9.640625 -2.203125 L 9.640625 -70.9375 C 9.640625 -72.3125 10.238281 -73 11.4375 -73 L 22.046875 -73 C 23.140625 -73 23.6875 -72.40625 23.6875 -71.21875 L 23.6875 -62.53125 C 23.6875 -61.988281 23.847656 -61.671875 24.171875 -61.578125 C 24.492188 -61.484375 24.835938 -61.664062 25.203125 -62.125 C 28.609375 -66.070312 32.125 -69.101562 35.75 -71.21875 C 39.375 -73.332031 42.929688 -74.390625 46.421875 -74.390625 C 49.640625 -74.390625 51.25 -73.742188 51.25 -72.453125 L 51.25 -61.71875 C 51.25 -60.613281 50.742188 -60.148438 49.734375 -60.328125 C 47.984375 -60.785156 45.546875 -61.015625 42.421875 -61.015625 C 39.847656 -61.015625 37.140625 -60.300781 34.296875 -58.875 C 31.453125 -57.457031 29.066406 -55.597656 27.140625 -53.296875 C 25.210938 -51.003906 24.25 -48.664062 24.25 -46.28125 L 24.25 -2.34375 C 24.25 -0.78125 23.375 0 21.625 0 Z M 11.84375 0 "/></g></g></g><g fill="rgb(4.708862%, 20.779419%, 42.749023%)" fill-opacity="1"><g transform="translate(971.342677, 381.430802)"><g><path d="M 51.375 -8.265625 C 44.675781 -1.835938 36.828125 1.375 27.828125 1.375 C 20.753906 1.375 15.171875 -0.4375 11.078125 -4.0625 C 6.992188 -7.6875 4.953125 -12.53125 4.953125 -18.59375 C 4.953125 -26.03125 8.1875 -31.953125 14.65625 -36.359375 C 21.132812 -40.773438 30.347656 -43.253906 42.296875 -43.796875 L 51.25 -44.5 C 52.71875 -44.675781 53.453125 -45.363281 53.453125 -46.5625 L 53.453125 -50 C 53.453125 -54.5 52.070312 -58.054688 49.3125 -60.671875 C 46.5625 -63.296875 42.796875 -64.609375 38.015625 -64.609375 C 30.484375 -64.609375 24.46875 -61.207031 19.96875 -54.40625 C 19.695312 -53.851562 19.398438 -53.507812 19.078125 -53.375 C 18.753906 -53.238281 18.269531 -53.265625 17.625 -53.453125 L 8.265625 -56.203125 C 7.710938 -56.390625 7.4375 -56.753906 7.4375 -57.296875 C 7.4375 -57.671875 7.578125 -58.175781 7.859375 -58.8125 C 10.421875 -63.769531 14.34375 -67.601562 19.625 -70.3125 C 24.90625 -73.03125 31.265625 -74.390625 38.703125 -74.390625 C 48.347656 -74.390625 55.554688 -72.320312 60.328125 -68.1875 C 65.109375 -64.050781 67.5 -58.3125 67.5 -50.96875 L 67.5 -2.34375 C 67.5 -1.425781 67.335938 -0.804688 67.015625 -0.484375 C 66.691406 -0.160156 66.164062 0 65.4375 0 L 56.203125 0 C 54.921875 0 54.1875 -0.914062 54 -2.75 L 53.71875 -7.984375 C 53.539062 -8.722656 53.265625 -9.09375 52.890625 -9.09375 C 52.617188 -9.09375 52.113281 -8.816406 51.375 -8.265625 Z M 53.453125 -34.296875 C 53.453125 -35.765625 52.804688 -36.453125 51.515625 -36.359375 L 44.078125 -35.8125 C 36.453125 -35.351562 30.410156 -33.816406 25.953125 -31.203125 C 21.503906 -28.585938 19.28125 -24.984375 19.28125 -20.390625 C 19.28125 -16.804688 20.566406 -13.976562 23.140625 -11.90625 C 25.710938 -9.84375 29.15625 -8.8125 33.46875 -8.8125 C 38.425781 -8.8125 43.113281 -10.507812 47.53125 -13.90625 C 51.476562 -17.125 53.453125 -20.34375 53.453125 -23.5625 Z M 53.453125 -34.296875 "/></g></g></g><g fill="rgb(4.708862%, 20.779419%, 42.749023%)" fill-opacity="1"><g transform="translate(1047.372098, 381.430802)"><g><path d="M 24.375 -2.625 C 24.375 -1.613281 24.164062 -0.921875 23.75 -0.546875 C 23.34375 -0.179688 22.585938 0 21.484375 0 L 12.125 0 C 11.207031 0 10.5625 -0.160156 10.1875 -0.484375 C 9.820312 -0.804688 9.640625 -1.378906 9.640625 -2.203125 L 9.921875 -100.140625 C 9.921875 -101.515625 10.515625 -102.203125 11.703125 -102.203125 L 22.59375 -102.203125 C 23.78125 -102.203125 24.375 -101.515625 24.375 -100.140625 Z M 24.375 -2.625 "/></g></g></g><g fill="rgb(4.708862%, 20.779419%, 42.749023%)" fill-opacity="1"><g transform="translate(1081.530211, 381.430802)"><g/></g></g><g fill="rgb(4.708862%, 20.779419%, 42.749023%)" fill-opacity="1"><g transform="translate(1110.729901, 381.430802)"><g><path d="M 7.296875 0 C 6.191406 0 5.640625 -0.550781 5.640625 -1.65625 L 5.921875 -2.890625 L 41.046875 -100 C 41.328125 -100.832031 41.695312 -101.40625 42.15625 -101.71875 C 42.613281 -102.039062 43.253906 -102.203125 44.078125 -102.203125 L 58 -102.203125 C 59.738281 -102.203125 60.882812 -101.425781 61.4375 -99.875 L 96.28125 -2.75 C 96.375 -2.570312 96.421875 -2.253906 96.421875 -1.796875 C 96.421875 -0.597656 95.914062 0 94.90625 0 L 81.828125 0 C 80.628906 0 79.847656 -0.550781 79.484375 -1.65625 L 70.671875 -26.171875 C 70.484375 -26.628906 70.296875 -26.945312 70.109375 -27.125 C 69.929688 -27.3125 69.566406 -27.40625 69.015625 -27.40625 L 30.859375 -27.40625 C 30.023438 -27.40625 29.472656 -27.039062 29.203125 -26.3125 L 20.25 -1.375 C 19.976562 -0.457031 19.195312 0 17.90625 0 Z M 64.75 -40.359375 C 65.382812 -40.359375 65.769531 -40.519531 65.90625 -40.84375 C 66.050781 -41.164062 66.03125 -41.648438 65.84375 -42.296875 L 50.96875 -83.609375 C 50.6875 -84.253906 50.363281 -84.578125 50 -84.578125 C 49.632812 -84.578125 49.3125 -84.207031 49.03125 -83.46875 L 33.75 -42.15625 L 33.609375 -41.328125 C 33.609375 -40.679688 34.019531 -40.359375 34.84375 -40.359375 Z M 64.75 -40.359375 "/></g></g></g><g fill="rgb(4.708862%, 20.779419%, 42.749023%)" fill-opacity="1"><g transform="translate(1212.791179, 381.430802)"><g><path d="M 11.84375 0 C 10.375 0 9.640625 -0.734375 9.640625 -2.203125 L 9.640625 -70.9375 C 9.640625 -72.3125 10.238281 -73 11.4375 -73 L 22.046875 -73 C 23.140625 -73 23.6875 -72.40625 23.6875 -71.21875 L 23.6875 -62.53125 C 23.6875 -61.988281 23.847656 -61.671875 24.171875 -61.578125 C 24.492188 -61.484375 24.835938 -61.664062 25.203125 -62.125 C 28.609375 -66.070312 32.125 -69.101562 35.75 -71.21875 C 39.375 -73.332031 42.929688 -74.390625 46.421875 -74.390625 C 49.640625 -74.390625 51.25 -73.742188 51.25 -72.453125 L 51.25 -61.71875 C 51.25 -60.613281 50.742188 -60.148438 49.734375 -60.328125 C 47.984375 -60.785156 45.546875 -61.015625 42.421875 -61.015625 C 39.847656 -61.015625 37.140625 -60.300781 34.296875 -58.875 C 31.453125 -57.457031 29.066406 -55.597656 27.140625 -53.296875 C 25.210938 -51.003906 24.25 -48.664062 24.25 -46.28125 L 24.25 -2.34375 C 24.25 -0.78125 23.375 0 21.625 0 Z M 11.84375 0 "/></g></g></g><g fill="rgb(4.708862%, 20.779419%, 42.749023%)" fill-opacity="1"><g transform="translate(1267.334048, 381.430802)"><g><path d="M 20.796875 -31.40625 C 20.796875 -27.269531 21.78125 -23.523438 23.75 -20.171875 C 25.726562 -16.828125 28.414062 -14.164062 31.8125 -12.1875 C 35.21875 -10.21875 38.941406 -9.234375 42.984375 -9.234375 C 47.203125 -9.234375 50.960938 -10.101562 54.265625 -11.84375 C 57.578125 -13.59375 60.609375 -16.300781 63.359375 -19.96875 C 63.640625 -20.34375 63.960938 -20.53125 64.328125 -20.53125 C 64.785156 -20.53125 65.15625 -20.4375 65.4375 -20.25 L 72.453125 -16.9375 C 72.910156 -16.664062 73.140625 -16.300781 73.140625 -15.84375 C 73.140625 -15.5625 73.003906 -15.191406 72.734375 -14.734375 C 68.878906 -9.046875 64.46875 -4.9375 59.5 -2.40625 C 54.539062 0.113281 48.53125 1.375 41.46875 1.375 C 34.570312 1.375 28.414062 -0.179688 23 -3.296875 C 17.582031 -6.421875 13.359375 -10.804688 10.328125 -16.453125 C 7.296875 -22.109375 5.78125 -28.515625 5.78125 -35.671875 C 5.78125 -43.390625 7.34375 -50.1875 10.46875 -56.0625 C 13.59375 -61.9375 17.835938 -66.457031 23.203125 -69.625 C 28.578125 -72.800781 34.570312 -74.390625 41.1875 -74.390625 C 47.976562 -74.390625 53.945312 -72.894531 59.09375 -69.90625 C 64.238281 -66.925781 68.210938 -62.585938 71.015625 -56.890625 C 73.816406 -51.191406 75.21875 -44.441406 75.21875 -36.640625 L 75.21875 -36.09375 C 75.21875 -35.257812 75.097656 -34.632812 74.859375 -34.21875 C 74.628906 -33.8125 74.054688 -33.609375 73.140625 -33.609375 L 22.171875 -33.609375 C 21.253906 -33.609375 20.796875 -32.875 20.796875 -31.40625 Z M 58.40625 -42.296875 C 59.320312 -42.296875 59.941406 -42.429688 60.265625 -42.703125 C 60.585938 -42.972656 60.75 -43.476562 60.75 -44.21875 C 60.75 -47.800781 59.988281 -51.148438 58.46875 -54.265625 C 56.957031 -57.390625 54.753906 -59.894531 51.859375 -61.78125 C 48.972656 -63.664062 45.550781 -64.609375 41.59375 -64.609375 C 37.46875 -64.609375 33.84375 -63.570312 30.71875 -61.5 C 27.59375 -59.4375 25.179688 -56.726562 23.484375 -53.375 C 21.785156 -50.019531 20.984375 -46.367188 21.078125 -42.421875 Z M 58.40625 -42.296875 "/></g></g></g><g fill="rgb(4.708862%, 20.779419%, 42.749023%)" fill-opacity="1"><g transform="translate(1347.495488, 381.430802)"><g><path d="M 51.375 -8.265625 C 44.675781 -1.835938 36.828125 1.375 27.828125 1.375 C 20.753906 1.375 15.171875 -0.4375 11.078125 -4.0625 C 6.992188 -7.6875 4.953125 -12.53125 4.953125 -18.59375 C 4.953125 -26.03125 8.1875 -31.953125 14.65625 -36.359375 C 21.132812 -40.773438 30.347656 -43.253906 42.296875 -43.796875 L 51.25 -44.5 C 52.71875 -44.675781 53.453125 -45.363281 53.453125 -46.5625 L 53.453125 -50 C 53.453125 -54.5 52.070312 -58.054688 49.3125 -60.671875 C 46.5625 -63.296875 42.796875 -64.609375 38.015625 -64.609375 C 30.484375 -64.609375 24.46875 -61.207031 19.96875 -54.40625 C 19.695312 -53.851562 19.398438 -53.507812 19.078125 -53.375 C 18.753906 -53.238281 18.269531 -53.265625 17.625 -53.453125 L 8.265625 -56.203125 C 7.710938 -56.390625 7.4375 -56.753906 7.4375 -57.296875 C 7.4375 -57.671875 7.578125 -58.175781 7.859375 -58.8125 C 10.421875 -63.769531 14.34375 -67.601562 19.625 -70.3125 C 24.90625 -73.03125 31.265625 -74.390625 38.703125 -74.390625 C 48.347656 -74.390625 55.554688 -72.320312 60.328125 -68.1875 C 65.109375 -64.050781 67.5 -58.3125 67.5 -50.96875 L 67.5 -2.34375 C 67.5 -1.425781 67.335938 -0.804688 67.015625 -0.484375 C 66.691406 -0.160156 66.164062 0 65.4375 0 L 56.203125 0 C 54.921875 0 54.1875 -0.914062 54 -2.75 L 53.71875 -7.984375 C 53.539062 -8.722656 53.265625 -9.09375 52.890625 -9.09375 C 52.617188 -9.09375 52.113281 -8.816406 51.375 -8.265625 Z M 53.453125 -34.296875 C 53.453125 -35.765625 52.804688 -36.453125 51.515625 -36.359375 L 44.078125 -35.8125 C 36.453125 -35.351562 30.410156 -33.816406 25.953125 -31.203125 C 21.503906 -28.585938 19.28125 -24.984375 19.28125 -20.390625 C 19.28125 -16.804688 20.566406 -13.976562 23.140625 -11.90625 C 25.710938 -9.84375 29.15625 -8.8125 33.46875 -8.8125 C 38.425781 -8.8125 43.113281 -10.507812 47.53125 -13.90625 C 51.476562 -17.125 53.453125 -20.34375 53.453125 -23.5625 Z M 53.453125 -34.296875 "/></g></g></g><g fill="rgb(4.708862%, 20.779419%, 42.749023%)" fill-opacity="1"><g transform="translate(195.622189, 500.230958)"><g><path d="M 9.453125 -78.078125 C 9.453125 -79.160156 9.953125 -79.703125 10.953125 -79.703125 L 21.046875 -79.703125 C 21.984375 -79.703125 22.453125 -79.160156 22.453125 -78.078125 L 22.453125 -10.953125 C 22.453125 -10.523438 22.539062 -10.222656 22.71875 -10.046875 C 22.894531 -9.867188 23.160156 -9.78125 23.515625 -9.78125 L 59.828125 -9.78125 C 60.328125 -9.78125 60.703125 -9.6875 60.953125 -9.5 C 61.203125 -9.320312 61.328125 -8.984375 61.328125 -8.484375 L 61.328125 -1.390625 C 61.328125 -0.460938 60.828125 0 59.828125 0 L 11.28125 0 C 10.632812 0 10.164062 -0.140625 9.875 -0.421875 C 9.59375 -0.710938 9.453125 -1.144531 9.453125 -1.71875 Z M 9.453125 -78.078125 "/></g></g></g><g fill="rgb(4.708862%, 20.779419%, 42.749023%)" fill-opacity="1"><g transform="translate(261.135341, 500.230958)"><g><path d="M 40.0625 -6.4375 C 34.832031 -1.425781 28.710938 1.078125 21.703125 1.078125 C 16.179688 1.078125 11.828125 -0.332031 8.640625 -3.15625 C 5.453125 -5.988281 3.859375 -9.769531 3.859375 -14.5 C 3.859375 -20.300781 6.382812 -24.921875 11.4375 -28.359375 C 16.488281 -31.796875 23.664062 -33.726562 32.96875 -34.15625 L 39.953125 -34.6875 C 41.097656 -34.832031 41.671875 -35.367188 41.671875 -36.296875 L 41.671875 -38.984375 C 41.671875 -42.492188 40.597656 -45.269531 38.453125 -47.3125 C 36.304688 -49.351562 33.367188 -50.375 29.640625 -50.375 C 23.773438 -50.375 19.085938 -47.722656 15.578125 -42.421875 C 15.359375 -41.992188 15.125 -41.722656 14.875 -41.609375 C 14.625 -41.503906 14.25 -41.523438 13.75 -41.671875 L 6.4375 -43.828125 C 6.007812 -43.960938 5.796875 -44.25 5.796875 -44.6875 C 5.796875 -44.96875 5.90625 -45.359375 6.125 -45.859375 C 8.125 -49.722656 11.179688 -52.710938 15.296875 -54.828125 C 19.421875 -56.941406 24.382812 -58 30.1875 -58 C 37.695312 -58 43.3125 -56.382812 47.03125 -53.15625 C 50.757812 -49.9375 52.625 -45.460938 52.625 -39.734375 L 52.625 -1.828125 C 52.625 -1.109375 52.5 -0.625 52.25 -0.375 C 52 -0.125 51.585938 0 51.015625 0 L 43.828125 0 C 42.816406 0 42.242188 -0.710938 42.109375 -2.140625 L 41.890625 -6.234375 C 41.742188 -6.804688 41.53125 -7.09375 41.25 -7.09375 C 41.03125 -7.09375 40.632812 -6.875 40.0625 -6.4375 Z M 41.671875 -26.75 C 41.671875 -27.894531 41.171875 -28.429688 40.171875 -28.359375 L 34.375 -27.921875 C 28.425781 -27.566406 23.710938 -26.367188 20.234375 -24.328125 C 16.765625 -22.285156 15.03125 -19.472656 15.03125 -15.890625 C 15.03125 -13.097656 16.03125 -10.894531 18.03125 -9.28125 C 20.039062 -7.675781 22.726562 -6.875 26.09375 -6.875 C 29.96875 -6.875 33.625 -8.195312 37.0625 -10.84375 C 40.132812 -13.351562 41.671875 -15.859375 41.671875 -18.359375 Z M 41.671875 -26.75 "/></g></g></g><g fill="rgb(4.708862%, 20.779419%, 42.749023%)" fill-opacity="1"><g transform="translate(320.419364, 500.230958)"><g><path d="M 9.234375 0 C 8.085938 0 7.515625 -0.570312 7.515625 -1.71875 L 7.515625 -55.3125 C 7.515625 -56.382812 7.984375 -56.921875 8.921875 -56.921875 L 17.40625 -56.921875 C 18.257812 -56.921875 18.6875 -56.457031 18.6875 -55.53125 L 18.6875 -49.625 C 18.6875 -49.195312 18.773438 -48.945312 18.953125 -48.875 C 19.128906 -48.800781 19.398438 -48.941406 19.765625 -49.296875 C 23.484375 -52.304688 26.773438 -54.507812 29.640625 -55.90625 C 32.503906 -57.300781 35.617188 -58 38.984375 -58 C 44.359375 -58 48.566406 -56.507812 51.609375 -53.53125 C 54.648438 -50.5625 56.171875 -46.570312 56.171875 -41.5625 L 56.171875 -1.9375 C 56.171875 -0.644531 55.5625 0 54.34375 0 L 46.40625 0 C 45.320312 0 44.78125 -0.570312 44.78125 -1.71875 L 44.78125 -39.3125 C 44.78125 -42.53125 43.9375 -45.015625 42.25 -46.765625 C 40.570312 -48.523438 38.050781 -49.40625 34.6875 -49.40625 C 31.96875 -49.40625 29.441406 -48.773438 27.109375 -47.515625 C 24.785156 -46.265625 22.050781 -44.207031 18.90625 -41.34375 L 18.90625 -1.828125 C 18.90625 -1.179688 18.742188 -0.710938 18.421875 -0.421875 C 18.097656 -0.140625 17.578125 0 16.859375 0 Z M 9.234375 0 "/></g></g></g><g fill="rgb(4.708862%, 20.779419%, 42.749023%)" fill-opacity="1"><g transform="translate(383.569738, 500.230958)"><g><path d="M 47.6875 0 C 46.539062 0 45.96875 -0.570312 45.96875 -1.71875 L 45.96875 -5.796875 C 45.96875 -6.441406 45.789062 -6.765625 45.4375 -6.765625 C 45.21875 -6.765625 44.929688 -6.585938 44.578125 -6.234375 C 42.421875 -4.148438 40.085938 -2.410156 37.578125 -1.015625 C 35.078125 0.378906 31.894531 1.078125 28.03125 1.078125 C 23.519531 1.078125 19.492188 -0.015625 15.953125 -2.203125 C 12.410156 -4.390625 9.632812 -7.644531 7.625 -11.96875 C 5.625 -16.300781 4.625 -21.546875 4.625 -27.703125 C 4.625 -33.648438 5.675781 -38.914062 7.78125 -43.5 C 9.894531 -48.082031 12.832031 -51.644531 16.59375 -54.1875 C 20.351562 -56.726562 24.5625 -58 29.21875 -58 C 32.289062 -58 35.007812 -57.492188 37.375 -56.484375 C 39.738281 -55.484375 41.957031 -54.09375 44.03125 -52.3125 C 44.394531 -51.945312 44.753906 -51.765625 45.109375 -51.765625 C 45.535156 -51.765625 45.75 -52.195312 45.75 -53.0625 L 45.75 -78.078125 C 45.75 -79.160156 46.21875 -79.703125 47.15625 -79.703125 L 55.75 -79.703125 C 56.175781 -79.703125 56.515625 -79.554688 56.765625 -79.265625 C 57.015625 -78.984375 57.140625 -78.585938 57.140625 -78.078125 L 57.140625 -1.828125 C 57.140625 -1.179688 56.976562 -0.710938 56.65625 -0.421875 C 56.332031 -0.140625 55.8125 0 55.09375 0 Z M 45.75 -43.609375 C 43.601562 -45.828125 41.488281 -47.472656 39.40625 -48.546875 C 37.332031 -49.617188 35.046875 -50.15625 32.546875 -50.15625 C 27.671875 -50.15625 23.726562 -48.257812 20.71875 -44.46875 C 17.71875 -40.675781 16.21875 -35.195312 16.21875 -28.03125 C 16.21875 -20.875 17.6875 -15.519531 20.625 -11.96875 C 23.5625 -8.425781 27.351562 -6.65625 32 -6.65625 C 34.507812 -6.65625 36.800781 -7.242188 38.875 -8.421875 C 40.957031 -9.609375 42.625 -11.113281 43.875 -12.9375 C 45.125 -14.769531 45.75 -16.613281 45.75 -18.46875 Z M 45.75 -43.609375 "/></g></g></g><g fill="rgb(4.708862%, 20.779419%, 42.749023%)" fill-opacity="1"><g transform="translate(448.223685, 500.230958)"><g/></g></g><g fill="rgb(4.708862%, 20.779419%, 42.749023%)" fill-opacity="1"><g transform="translate(470.9922, 500.230958)"><g><path d="M 67.984375 -27.5 C 67.984375 -17.539062 65.476562 -10.285156 60.46875 -5.734375 C 55.457031 -1.191406 48.046875 1.078125 38.234375 1.078125 C 27.847656 1.078125 20.289062 -1.410156 15.5625 -6.390625 C 10.84375 -11.367188 8.484375 -19.015625 8.484375 -29.328125 L 8.484375 -77.984375 C 8.484375 -79.128906 8.945312 -79.703125 9.875 -79.703125 L 20.078125 -79.703125 C 21.015625 -79.703125 21.484375 -79.160156 21.484375 -78.078125 L 21.484375 -27.0625 C 21.484375 -14.75 27.390625 -8.59375 39.203125 -8.59375 C 51.234375 -8.59375 57.25 -14.859375 57.25 -27.390625 L 57.25 -78.078125 C 57.25 -79.160156 57.675781 -79.703125 58.53125 -79.703125 L 66.703125 -79.703125 C 67.554688 -79.703125 67.984375 -79.195312 67.984375 -78.1875 Z M 67.984375 -27.5 "/></g></g></g><g fill="rgb(4.708862%, 20.779419%, 42.749023%)" fill-opacity="1"><g transform="translate(547.567404, 500.230958)"><g><path d="M 42 -43.609375 C 40.488281 -45.679688 38.515625 -47.34375 36.078125 -48.59375 C 33.648438 -49.851562 30.828125 -50.484375 27.609375 -50.484375 C 24.023438 -50.484375 21.085938 -49.75 18.796875 -48.28125 C 16.503906 -46.8125 15.359375 -44.820312 15.359375 -42.3125 C 15.359375 -40.882812 15.929688 -39.597656 17.078125 -38.453125 C 18.222656 -37.304688 20.300781 -36.300781 23.3125 -35.4375 L 36.515625 -31.6875 C 41.523438 -30.394531 45.226562 -28.40625 47.625 -25.71875 C 50.03125 -23.039062 51.234375 -19.875 51.234375 -16.21875 C 51.234375 -12.78125 50.210938 -9.753906 48.171875 -7.140625 C 46.128906 -4.523438 43.28125 -2.5 39.625 -1.0625 C 35.976562 0.363281 31.863281 1.078125 27.28125 1.078125 C 21.550781 1.078125 16.5 -0.015625 12.125 -2.203125 C 7.757812 -4.390625 4.648438 -7.234375 2.796875 -10.734375 C 2.578125 -11.097656 2.46875 -11.421875 2.46875 -11.703125 C 2.46875 -12.140625 2.644531 -12.460938 3 -12.671875 L 8.265625 -15.46875 C 8.703125 -15.675781 9.0625 -15.78125 9.34375 -15.78125 C 9.695312 -15.78125 9.984375 -15.640625 10.203125 -15.359375 C 13.992188 -9.628906 19.613281 -6.765625 27.0625 -6.765625 C 31 -6.765625 34.253906 -7.5 36.828125 -8.96875 C 39.410156 -10.4375 40.703125 -12.421875 40.703125 -14.921875 C 40.703125 -16.710938 39.96875 -18.234375 38.5 -19.484375 C 37.03125 -20.742188 34.613281 -21.800781 31.25 -22.65625 L 20.296875 -25.453125 C 15.003906 -26.742188 11.140625 -28.640625 8.703125 -31.140625 C 6.265625 -33.648438 5.046875 -36.800781 5.046875 -40.59375 C 5.046875 -44.03125 5.992188 -47.054688 7.890625 -49.671875 C 9.785156 -52.285156 12.429688 -54.328125 15.828125 -55.796875 C 19.234375 -57.265625 23.191406 -58 27.703125 -58 C 32.578125 -58 36.945312 -57.066406 40.8125 -55.203125 C 44.675781 -53.347656 47.578125 -50.914062 49.515625 -47.90625 C 49.796875 -47.476562 49.9375 -47.117188 49.9375 -46.828125 C 49.9375 -46.546875 49.757812 -46.296875 49.40625 -46.078125 L 43.828125 -43.171875 C 43.679688 -43.097656 43.460938 -43.0625 43.171875 -43.0625 C 42.742188 -43.0625 42.351562 -43.242188 42 -43.609375 Z M 42 -43.609375 "/></g></g></g><g fill="rgb(4.708862%, 20.779419%, 42.749023%)" fill-opacity="1"><g transform="translate(603.19987, 500.230958)"><g><path d="M 16.21875 -24.484375 C 16.21875 -21.265625 16.988281 -18.347656 18.53125 -15.734375 C 20.070312 -13.117188 22.164062 -11.039062 24.8125 -9.5 C 27.457031 -7.96875 30.359375 -7.203125 33.515625 -7.203125 C 36.804688 -7.203125 39.738281 -7.878906 42.3125 -9.234375 C 44.894531 -10.597656 47.257812 -12.710938 49.40625 -15.578125 C 49.625 -15.859375 49.875 -16 50.15625 -16 C 50.519531 -16 50.804688 -15.925781 51.015625 -15.78125 L 56.5 -13.21875 C 56.851562 -13 57.03125 -12.710938 57.03125 -12.359375 C 57.03125 -12.140625 56.921875 -11.851562 56.703125 -11.5 C 53.703125 -7.050781 50.265625 -3.84375 46.390625 -1.875 C 42.523438 0.09375 37.835938 1.078125 32.328125 1.078125 C 26.960938 1.078125 22.164062 -0.140625 17.9375 -2.578125 C 13.707031 -5.015625 10.410156 -8.429688 8.046875 -12.828125 C 5.691406 -17.234375 4.515625 -22.226562 4.515625 -27.8125 C 4.515625 -33.832031 5.726562 -39.132812 8.15625 -43.71875 C 10.59375 -48.300781 13.90625 -51.828125 18.09375 -54.296875 C 22.28125 -56.765625 26.953125 -58 32.109375 -58 C 37.410156 -58 42.066406 -56.832031 46.078125 -54.5 C 50.085938 -52.175781 53.179688 -48.796875 55.359375 -44.359375 C 57.546875 -39.921875 58.640625 -34.65625 58.640625 -28.5625 L 58.640625 -28.140625 C 58.640625 -27.492188 58.550781 -27.007812 58.375 -26.6875 C 58.195312 -26.363281 57.75 -26.203125 57.03125 -26.203125 L 17.296875 -26.203125 C 16.578125 -26.203125 16.21875 -25.628906 16.21875 -24.484375 Z M 45.546875 -32.96875 C 46.253906 -32.96875 46.734375 -33.078125 46.984375 -33.296875 C 47.234375 -33.515625 47.359375 -33.910156 47.359375 -34.484375 C 47.359375 -37.273438 46.769531 -39.882812 45.59375 -42.3125 C 44.414062 -44.75 42.695312 -46.703125 40.4375 -48.171875 C 38.1875 -49.640625 35.519531 -50.375 32.4375 -50.375 C 29.21875 -50.375 26.390625 -49.566406 23.953125 -47.953125 C 21.515625 -46.347656 19.632812 -44.238281 18.3125 -41.625 C 16.988281 -39.007812 16.363281 -36.160156 16.4375 -33.078125 Z M 45.546875 -32.96875 "/></g></g></g><g fill="rgb(4.708862%, 20.779419%, 42.749023%)" fill-opacity="1"><g transform="translate(665.705862, 500.230958)"><g/></g></g><g fill="rgb(4.708862%, 20.779419%, 42.749023%)" fill-opacity="1"><g transform="translate(688.474376, 500.230958)"><g><path d="M 69.703125 -55.953125 C 69.703125 -48.296875 67.101562 -42.460938 61.90625 -38.453125 C 56.71875 -34.441406 49.796875 -32.4375 41.140625 -32.4375 L 23.515625 -32.4375 C 22.804688 -32.4375 22.453125 -32.078125 22.453125 -31.359375 L 22.453125 -1.828125 C 22.453125 -0.609375 21.804688 0 20.515625 0 L 11.171875 0 C 10.023438 0 9.453125 -0.535156 9.453125 -1.609375 L 9.453125 -78.078125 C 9.453125 -78.648438 9.554688 -79.0625 9.765625 -79.3125 C 9.984375 -79.570312 10.378906 -79.703125 10.953125 -79.703125 L 39.640625 -79.703125 C 48.660156 -79.703125 55.925781 -77.710938 61.4375 -73.734375 C 66.945312 -69.753906 69.703125 -63.828125 69.703125 -55.953125 Z M 56.390625 -56.28125 C 56.390625 -65.519531 50.550781 -70.140625 38.875 -70.140625 L 24.0625 -70.140625 C 23.488281 -70.140625 23.078125 -70.03125 22.828125 -69.8125 C 22.578125 -69.59375 22.453125 -69.195312 22.453125 -68.625 L 22.453125 -43.609375 C 22.453125 -42.535156 22.84375 -42 23.625 -42 L 39.640625 -42 C 44.859375 -42 48.953125 -43.195312 51.921875 -45.59375 C 54.898438 -47.988281 56.390625 -51.550781 56.390625 -56.28125 Z M 56.390625 -56.28125 "/></g></g></g><g fill="rgb(4.708862%, 20.779419%, 42.749023%)" fill-opacity="1"><g transform="translate(763.438597, 500.230958)"><g><path d="M 19.015625 -2.046875 C 19.015625 -1.253906 18.851562 -0.710938 18.53125 -0.421875 C 18.207031 -0.140625 17.613281 0 16.75 0 L 9.453125 0 C 8.734375 0 8.226562 -0.125 7.9375 -0.375 C 7.65625 -0.625 7.515625 -1.070312 7.515625 -1.71875 L 7.734375 -78.078125 C 7.734375 -79.160156 8.195312 -79.703125 9.125 -79.703125 L 17.609375 -79.703125 C 18.546875 -79.703125 19.015625 -79.160156 19.015625 -78.078125 Z M 19.015625 -2.046875 "/></g></g></g><g fill="rgb(4.708862%, 20.779419%, 42.749023%)" fill-opacity="1"><g transform="translate(790.073462, 500.230958)"><g><path d="M 40.0625 -6.4375 C 34.832031 -1.425781 28.710938 1.078125 21.703125 1.078125 C 16.179688 1.078125 11.828125 -0.332031 8.640625 -3.15625 C 5.453125 -5.988281 3.859375 -9.769531 3.859375 -14.5 C 3.859375 -20.300781 6.382812 -24.921875 11.4375 -28.359375 C 16.488281 -31.796875 23.664062 -33.726562 32.96875 -34.15625 L 39.953125 -34.6875 C 41.097656 -34.832031 41.671875 -35.367188 41.671875 -36.296875 L 41.671875 -38.984375 C 41.671875 -42.492188 40.597656 -45.269531 38.453125 -47.3125 C 36.304688 -49.351562 33.367188 -50.375 29.640625 -50.375 C 23.773438 -50.375 19.085938 -47.722656 15.578125 -42.421875 C 15.359375 -41.992188 15.125 -41.722656 14.875 -41.609375 C 14.625 -41.503906 14.25 -41.523438 13.75 -41.671875 L 6.4375 -43.828125 C 6.007812 -43.960938 5.796875 -44.25 5.796875 -44.6875 C 5.796875 -44.96875 5.90625 -45.359375 6.125 -45.859375 C 8.125 -49.722656 11.179688 -52.710938 15.296875 -54.828125 C 19.421875 -56.941406 24.382812 -58 30.1875 -58 C 37.695312 -58 43.3125 -56.382812 47.03125 -53.15625 C 50.757812 -49.9375 52.625 -45.460938 52.625 -39.734375 L 52.625 -1.828125 C 52.625 -1.109375 52.5 -0.625 52.25 -0.375 C 52 -0.125 51.585938 0 51.015625 0 L 43.828125 0 C 42.816406 0 42.242188 -0.710938 42.109375 -2.140625 L 41.890625 -6.234375 C 41.742188 -6.804688 41.53125 -7.09375 41.25 -7.09375 C 41.03125 -7.09375 40.632812 -6.875 40.0625 -6.4375 Z M 41.671875 -26.75 C 41.671875 -27.894531 41.171875 -28.429688 40.171875 -28.359375 L 34.375 -27.921875 C 28.425781 -27.566406 23.710938 -26.367188 20.234375 -24.328125 C 16.765625 -22.285156 15.03125 -19.472656 15.03125 -15.890625 C 15.03125 -13.097656 16.03125 -10.894531 18.03125 -9.28125 C 20.039062 -7.675781 22.726562 -6.875 26.09375 -6.875 C 29.96875 -6.875 33.625 -8.195312 37.0625 -10.84375 C 40.132812 -13.351562 41.671875 -15.859375 41.671875 -18.359375 Z M 41.671875 -26.75 "/></g></g></g><g fill="rgb(4.708862%, 20.779419%, 42.749023%)" fill-opacity="1"><g transform="translate(849.357485, 500.230958)"><g><path d="M 9.234375 0 C 8.085938 0 7.515625 -0.570312 7.515625 -1.71875 L 7.515625 -55.3125 C 7.515625 -56.382812 7.984375 -56.921875 8.921875 -56.921875 L 17.40625 -56.921875 C 18.257812 -56.921875 18.6875 -56.457031 18.6875 -55.53125 L 18.6875 -49.625 C 18.6875 -49.195312 18.773438 -48.945312 18.953125 -48.875 C 19.128906 -48.800781 19.398438 -48.941406 19.765625 -49.296875 C 23.484375 -52.304688 26.773438 -54.507812 29.640625 -55.90625 C 32.503906 -57.300781 35.617188 -58 38.984375 -58 C 44.359375 -58 48.566406 -56.507812 51.609375 -53.53125 C 54.648438 -50.5625 56.171875 -46.570312 56.171875 -41.5625 L 56.171875 -1.9375 C 56.171875 -0.644531 55.5625 0 54.34375 0 L 46.40625 0 C 45.320312 0 44.78125 -0.570312 44.78125 -1.71875 L 44.78125 -39.3125 C 44.78125 -42.53125 43.9375 -45.015625 42.25 -46.765625 C 40.570312 -48.523438 38.050781 -49.40625 34.6875 -49.40625 C 31.96875 -49.40625 29.441406 -48.773438 27.109375 -47.515625 C 24.785156 -46.265625 22.050781 -44.207031 18.90625 -41.34375 L 18.90625 -1.828125 C 18.90625 -1.179688 18.742188 -0.710938 18.421875 -0.421875 C 18.097656 -0.140625 17.578125 0 16.859375 0 Z M 9.234375 0 "/></g></g></g><g fill="rgb(99.21875%, 36.859131%, 21.958923%)" fill-opacity="1"><g transform="translate(195.622189, 554.37414)"><g><path d="M 11.71875 -18.859375 C 9.4375 -18.859375 7.632812 -18.097656 6.3125 -16.578125 C 5 -15.066406 4.34375 -12.992188 4.34375 -10.359375 C 4.34375 -7.648438 4.976562 -5.554688 6.25 -4.078125 C 7.519531 -2.597656 9.332031 -1.859375 11.6875 -1.859375 C 13.132812 -1.859375 14.785156 -2.117188 16.640625 -2.640625 L 16.640625 -0.53125 C 15.203125 0.0078125 13.425781 0.28125 11.3125 0.28125 C 8.269531 0.28125 5.914062 -0.640625 4.25 -2.484375 C 2.59375 -4.335938 1.765625 -6.972656 1.765625 -10.390625 C 1.765625 -12.523438 2.164062 -14.394531 2.96875 -16 C 3.769531 -17.601562 4.921875 -18.835938 6.421875 -19.703125 C 7.929688 -20.578125 9.707031 -21.015625 11.75 -21.015625 C 13.914062 -21.015625 15.8125 -20.617188 17.4375 -19.828125 L 16.421875 -17.75 C 14.847656 -18.488281 13.28125 -18.859375 11.71875 -18.859375 Z M 11.71875 -18.859375 "/></g></g><g transform="translate(213.924661, 554.37414)"><g><path d="M 4.703125 -15.53125 L 4.703125 -5.453125 C 4.703125 -4.191406 4.988281 -3.25 5.5625 -2.625 C 6.144531 -2 7.050781 -1.6875 8.28125 -1.6875 C 9.894531 -1.6875 11.078125 -2.128906 11.828125 -3.015625 C 12.585938 -3.898438 12.96875 -5.351562 12.96875 -7.375 L 12.96875 -15.53125 L 15.3125 -15.53125 L 15.3125 0 L 13.375 0 L 13.03125 -2.078125 L 12.90625 -2.078125 C 12.425781 -1.316406 11.757812 -0.734375 10.90625 -0.328125 C 10.050781 0.078125 9.070312 0.28125 7.96875 0.28125 C 6.082031 0.28125 4.671875 -0.164062 3.734375 -1.0625 C 2.796875 -1.957031 2.328125 -3.394531 2.328125 -5.375 L 2.328125 -15.53125 Z M 4.703125 -15.53125 "/></g></g><g transform="translate(231.731322, 554.37414)"><g><path d="M 22.28125 0 L 22.28125 -10.109375 C 22.28125 -11.335938 22.015625 -12.257812 21.484375 -12.875 C 20.960938 -13.5 20.144531 -13.8125 19.03125 -13.8125 C 17.5625 -13.8125 16.476562 -13.390625 15.78125 -12.546875 C 15.082031 -11.710938 14.734375 -10.421875 14.734375 -8.671875 L 14.734375 0 L 12.375 0 L 12.375 -10.109375 C 12.375 -11.335938 12.109375 -12.257812 11.578125 -12.875 C 11.054688 -13.5 10.234375 -13.8125 9.109375 -13.8125 C 7.640625 -13.8125 6.5625 -13.367188 5.875 -12.484375 C 5.1875 -11.609375 4.84375 -10.160156 4.84375 -8.140625 L 4.84375 0 L 2.5 0 L 2.5 -15.53125 L 4.40625 -15.53125 L 4.78125 -13.40625 L 4.90625 -13.40625 C 5.34375 -14.15625 5.960938 -14.742188 6.765625 -15.171875 C 7.578125 -15.597656 8.488281 -15.8125 9.5 -15.8125 C 11.925781 -15.8125 13.507812 -14.929688 14.25 -13.171875 L 14.359375 -13.171875 C 14.828125 -13.984375 15.5 -14.625 16.375 -15.09375 C 17.257812 -15.570312 18.257812 -15.8125 19.375 -15.8125 C 21.132812 -15.8125 22.453125 -15.359375 23.328125 -14.453125 C 24.203125 -13.554688 24.640625 -12.113281 24.640625 -10.125 L 24.640625 0 Z M 22.28125 0 "/></g></g><g transform="translate(258.717552, 554.37414)"><g><path d="M 9.71875 -15.78125 C 11.757812 -15.78125 13.34375 -15.082031 14.46875 -13.6875 C 15.601562 -12.300781 16.171875 -10.332031 16.171875 -7.78125 C 16.171875 -5.226562 15.597656 -3.242188 14.453125 -1.828125 C 13.316406 -0.421875 11.738281 0.28125 9.71875 0.28125 C 8.707031 0.28125 7.785156 0.0976562 6.953125 -0.265625 C 6.117188 -0.640625 5.414062 -1.21875 4.84375 -2 L 4.671875 -2 L 4.171875 0 L 2.5 0 L 2.5 -22.046875 L 4.84375 -22.046875 L 4.84375 -16.6875 C 4.84375 -15.488281 4.804688 -14.410156 4.734375 -13.453125 L 4.84375 -13.453125 C 5.9375 -15.003906 7.5625 -15.78125 9.71875 -15.78125 Z M 9.375 -13.8125 C 7.769531 -13.8125 6.613281 -13.347656 5.90625 -12.421875 C 5.195312 -11.503906 4.84375 -9.957031 4.84375 -7.78125 C 4.84375 -5.59375 5.207031 -4.03125 5.9375 -3.09375 C 6.664062 -2.15625 7.832031 -1.6875 9.4375 -1.6875 C 10.882812 -1.6875 11.960938 -2.210938 12.671875 -3.265625 C 13.378906 -4.316406 13.734375 -5.832031 13.734375 -7.8125 C 13.734375 -9.832031 13.378906 -11.335938 12.671875 -12.328125 C 11.960938 -13.316406 10.863281 -13.8125 9.375 -13.8125 Z M 9.375 -13.8125 "/></g></g><g transform="translate(276.495881, 554.37414)"><g><path d="M 9.046875 0.28125 C 6.753906 0.28125 4.941406 -0.414062 3.609375 -1.8125 C 2.285156 -3.207031 1.625 -5.148438 1.625 -7.640625 C 1.625 -10.140625 2.238281 -12.125 3.46875 -13.59375 C 4.707031 -15.070312 6.363281 -15.8125 8.4375 -15.8125 C 10.382812 -15.8125 11.925781 -15.171875 13.0625 -13.890625 C 14.195312 -12.609375 14.765625 -10.921875 14.765625 -8.828125 L 14.765625 -7.34375 L 4.0625 -7.34375 C 4.113281 -5.519531 4.578125 -4.132812 5.453125 -3.1875 C 6.328125 -2.238281 7.554688 -1.765625 9.140625 -1.765625 C 10.804688 -1.765625 12.457031 -2.113281 14.09375 -2.8125 L 14.09375 -0.71875 C 13.257812 -0.363281 12.472656 -0.109375 11.734375 0.046875 C 10.992188 0.203125 10.097656 0.28125 9.046875 0.28125 Z M 8.421875 -13.84375 C 7.171875 -13.84375 6.175781 -13.4375 5.4375 -12.625 C 4.695312 -11.8125 4.257812 -10.6875 4.125 -9.25 L 12.234375 -9.25 C 12.234375 -10.726562 11.898438 -11.863281 11.234375 -12.65625 C 10.578125 -13.445312 9.640625 -13.84375 8.421875 -13.84375 Z M 8.421875 -13.84375 "/></g></g><g transform="translate(292.772615, 554.37414)"><g><path d="M 9.578125 -15.8125 C 10.265625 -15.8125 10.882812 -15.753906 11.4375 -15.640625 L 11.109375 -13.453125 C 10.460938 -13.597656 9.894531 -13.671875 9.40625 -13.671875 C 8.144531 -13.671875 7.066406 -13.160156 6.171875 -12.140625 C 5.285156 -11.117188 4.84375 -9.847656 4.84375 -8.328125 L 4.84375 0 L 2.5 0 L 2.5 -15.53125 L 4.4375 -15.53125 L 4.703125 -12.65625 L 4.8125 -12.65625 C 5.394531 -13.664062 6.09375 -14.441406 6.90625 -14.984375 C 7.71875 -15.535156 8.609375 -15.8125 9.578125 -15.8125 Z M 9.578125 -15.8125 "/></g></g><g transform="translate(304.615391, 554.37414)"><g><path d="M 4.84375 0 L 2.5 0 L 2.5 -22.046875 L 4.84375 -22.046875 Z M 4.84375 0 "/></g></g><g transform="translate(311.953379, 554.37414)"><g><path d="M 12.046875 0 L 11.578125 -2.203125 L 11.46875 -2.203125 C 10.6875 -1.234375 9.910156 -0.578125 9.140625 -0.234375 C 8.367188 0.109375 7.410156 0.28125 6.265625 0.28125 C 4.722656 0.28125 3.515625 -0.113281 2.640625 -0.90625 C 1.765625 -1.695312 1.328125 -2.828125 1.328125 -4.296875 C 1.328125 -7.429688 3.835938 -9.070312 8.859375 -9.21875 L 11.484375 -9.3125 L 11.484375 -10.265625 C 11.484375 -11.484375 11.222656 -12.382812 10.703125 -12.96875 C 10.179688 -13.550781 9.34375 -13.84375 8.1875 -13.84375 C 6.894531 -13.84375 5.429688 -13.445312 3.796875 -12.65625 L 3.078125 -14.453125 C 3.835938 -14.867188 4.671875 -15.191406 5.578125 -15.421875 C 6.492188 -15.660156 7.410156 -15.78125 8.328125 -15.78125 C 10.179688 -15.78125 11.550781 -15.367188 12.4375 -14.546875 C 13.332031 -13.722656 13.78125 -12.40625 13.78125 -10.59375 L 13.78125 0 Z M 6.734375 -1.65625 C 8.191406 -1.65625 9.335938 -2.054688 10.171875 -2.859375 C 11.015625 -3.660156 11.4375 -4.785156 11.4375 -6.234375 L 11.4375 -7.640625 L 9.078125 -7.53125 C 7.210938 -7.46875 5.863281 -7.175781 5.03125 -6.65625 C 4.207031 -6.144531 3.796875 -5.347656 3.796875 -4.265625 C 3.796875 -3.410156 4.050781 -2.757812 4.5625 -2.3125 C 5.082031 -1.875 5.804688 -1.65625 6.734375 -1.65625 Z M 6.734375 -1.65625 "/></g></g><g transform="translate(328.088452, 554.37414)"><g><path d="M 13.125 0 L 13.125 -10.046875 C 13.125 -11.304688 12.832031 -12.25 12.25 -12.875 C 11.675781 -13.5 10.773438 -13.8125 9.546875 -13.8125 C 7.921875 -13.8125 6.726562 -13.367188 5.96875 -12.484375 C 5.21875 -11.609375 4.84375 -10.160156 4.84375 -8.140625 L 4.84375 0 L 2.5 0 L 2.5 -15.53125 L 4.40625 -15.53125 L 4.78125 -13.40625 L 4.90625 -13.40625 C 5.382812 -14.164062 6.054688 -14.753906 6.921875 -15.171875 C 7.796875 -15.597656 8.765625 -15.8125 9.828125 -15.8125 C 11.703125 -15.8125 13.109375 -15.359375 14.046875 -14.453125 C 14.992188 -13.554688 15.46875 -12.113281 15.46875 -10.125 L 15.46875 0 Z M 13.125 0 "/></g></g><g transform="translate(345.895114, 554.37414)"><g><path d="M 13.0625 -2.078125 L 12.9375 -2.078125 C 11.851562 -0.503906 10.226562 0.28125 8.0625 0.28125 C 6.03125 0.28125 4.445312 -0.410156 3.3125 -1.796875 C 2.1875 -3.179688 1.625 -5.15625 1.625 -7.71875 C 1.625 -10.28125 2.191406 -12.269531 3.328125 -13.6875 C 4.460938 -15.101562 6.039062 -15.8125 8.0625 -15.8125 C 10.164062 -15.8125 11.78125 -15.046875 12.90625 -13.515625 L 13.09375 -13.515625 L 12.984375 -14.640625 L 12.9375 -15.71875 L 12.9375 -22.046875 L 15.28125 -22.046875 L 15.28125 0 L 13.375 0 Z M 8.359375 -1.6875 C 9.960938 -1.6875 11.125 -2.125 11.84375 -3 C 12.570312 -3.875 12.9375 -5.28125 12.9375 -7.21875 L 12.9375 -7.71875 C 12.9375 -9.914062 12.566406 -11.484375 11.828125 -12.421875 C 11.097656 -13.367188 9.929688 -13.84375 8.328125 -13.84375 C 6.953125 -13.84375 5.894531 -13.304688 5.15625 -12.234375 C 4.425781 -11.160156 4.0625 -9.644531 4.0625 -7.6875 C 4.0625 -5.707031 4.425781 -4.210938 5.15625 -3.203125 C 5.882812 -2.191406 6.953125 -1.6875 8.359375 -1.6875 Z M 8.359375 -1.6875 "/></g></g><g transform="translate(363.673443, 554.37414)"><g/></g><g transform="translate(371.209755, 554.37414)"><g><path d="M 11.71875 -18.859375 C 9.4375 -18.859375 7.632812 -18.097656 6.3125 -16.578125 C 5 -15.066406 4.34375 -12.992188 4.34375 -10.359375 C 4.34375 -7.648438 4.976562 -5.554688 6.25 -4.078125 C 7.519531 -2.597656 9.332031 -1.859375 11.6875 -1.859375 C 13.132812 -1.859375 14.785156 -2.117188 16.640625 -2.640625 L 16.640625 -0.53125 C 15.203125 0.0078125 13.425781 0.28125 11.3125 0.28125 C 8.269531 0.28125 5.914062 -0.640625 4.25 -2.484375 C 2.59375 -4.335938 1.765625 -6.972656 1.765625 -10.390625 C 1.765625 -12.523438 2.164062 -14.394531 2.96875 -16 C 3.769531 -17.601562 4.921875 -18.835938 6.421875 -19.703125 C 7.929688 -20.578125 9.707031 -21.015625 11.75 -21.015625 C 13.914062 -21.015625 15.8125 -20.617188 17.4375 -19.828125 L 16.421875 -17.75 C 14.847656 -18.488281 13.28125 -18.859375 11.71875 -18.859375 Z M 11.71875 -18.859375 "/></g></g><g transform="translate(389.512227, 554.37414)"><g><path d="M 15.890625 -7.78125 C 15.890625 -5.25 15.253906 -3.269531 13.984375 -1.84375 C 12.710938 -0.425781 10.953125 0.28125 8.703125 0.28125 C 7.304688 0.28125 6.070312 -0.0390625 5 -0.6875 C 3.925781 -1.34375 3.09375 -2.28125 2.5 -3.5 C 1.914062 -4.71875 1.625 -6.144531 1.625 -7.78125 C 1.625 -10.3125 2.253906 -12.28125 3.515625 -13.6875 C 4.785156 -15.101562 6.546875 -15.8125 8.796875 -15.8125 C 10.972656 -15.8125 12.695312 -15.085938 13.96875 -13.640625 C 15.25 -12.191406 15.890625 -10.238281 15.890625 -7.78125 Z M 4.0625 -7.78125 C 4.0625 -5.789062 4.457031 -4.273438 5.25 -3.234375 C 6.050781 -2.203125 7.21875 -1.6875 8.75 -1.6875 C 10.289062 -1.6875 11.457031 -2.203125 12.25 -3.234375 C 13.050781 -4.265625 13.453125 -5.78125 13.453125 -7.78125 C 13.453125 -9.75 13.050781 -11.242188 12.25 -12.265625 C 11.457031 -13.296875 10.285156 -13.8125 8.734375 -13.8125 C 7.191406 -13.8125 6.023438 -13.304688 5.234375 -12.296875 C 4.453125 -11.285156 4.0625 -9.78125 4.0625 -7.78125 Z M 4.0625 -7.78125 "/></g></g><g transform="translate(407.035569, 554.37414)"><g><path d="M 4.703125 -15.53125 L 4.703125 -5.453125 C 4.703125 -4.191406 4.988281 -3.25 5.5625 -2.625 C 6.144531 -2 7.050781 -1.6875 8.28125 -1.6875 C 9.894531 -1.6875 11.078125 -2.128906 11.828125 -3.015625 C 12.585938 -3.898438 12.96875 -5.351562 12.96875 -7.375 L 12.96875 -15.53125 L 15.3125 -15.53125 L 15.3125 0 L 13.375 0 L 13.03125 -2.078125 L 12.90625 -2.078125 C 12.425781 -1.316406 11.757812 -0.734375 10.90625 -0.328125 C 10.050781 0.078125 9.070312 0.28125 7.96875 0.28125 C 6.082031 0.28125 4.671875 -0.164062 3.734375 -1.0625 C 2.796875 -1.957031 2.328125 -3.394531 2.328125 -5.375 L 2.328125 -15.53125 Z M 4.703125 -15.53125 "/></g></g><g transform="translate(424.84223, 554.37414)"><g><path d="M 13.125 0 L 13.125 -10.046875 C 13.125 -11.304688 12.832031 -12.25 12.25 -12.875 C 11.675781 -13.5 10.773438 -13.8125 9.546875 -13.8125 C 7.921875 -13.8125 6.726562 -13.367188 5.96875 -12.484375 C 5.21875 -11.609375 4.84375 -10.160156 4.84375 -8.140625 L 4.84375 0 L 2.5 0 L 2.5 -15.53125 L 4.40625 -15.53125 L 4.78125 -13.40625 L 4.90625 -13.40625 C 5.382812 -14.164062 6.054688 -14.753906 6.921875 -15.171875 C 7.796875 -15.597656 8.765625 -15.8125 9.828125 -15.8125 C 11.703125 -15.8125 13.109375 -15.359375 14.046875 -14.453125 C 14.992188 -13.554688 15.46875 -12.113281 15.46875 -10.125 L 15.46875 0 Z M 13.125 0 "/></g></g><g transform="translate(442.648892, 554.37414)"><g><path d="M 7.515625 -1.65625 C 7.921875 -1.65625 8.316406 -1.6875 8.703125 -1.75 C 9.097656 -1.8125 9.410156 -1.875 9.640625 -1.9375 L 9.640625 -0.140625 C 9.378906 -0.015625 9 0.0820312 8.5 0.15625 C 8.007812 0.238281 7.566406 0.28125 7.171875 0.28125 C 4.160156 0.28125 2.65625 -1.300781 2.65625 -4.46875 L 2.65625 -13.703125 L 0.4375 -13.703125 L 0.4375 -14.828125 L 2.65625 -15.8125 L 3.65625 -19.125 L 5.015625 -19.125 L 5.015625 -15.53125 L 9.515625 -15.53125 L 9.515625 -13.703125 L 5.015625 -13.703125 L 5.015625 -4.5625 C 5.015625 -3.625 5.234375 -2.90625 5.671875 -2.40625 C 6.117188 -1.90625 6.734375 -1.65625 7.515625 -1.65625 Z M 7.515625 -1.65625 "/></g></g><g transform="translate(452.890909, 554.37414)"><g><path d="M 0.03125 -15.53125 L 2.546875 -15.53125 L 5.953125 -6.671875 C 6.691406 -4.648438 7.15625 -3.191406 7.34375 -2.296875 L 7.453125 -2.296875 C 7.578125 -2.773438 7.832031 -3.597656 8.21875 -4.765625 C 8.613281 -5.929688 9.898438 -9.519531 12.078125 -15.53125 L 14.59375 -15.53125 L 7.921875 2.15625 C 7.253906 3.90625 6.476562 5.144531 5.59375 5.875 C 4.71875 6.601562 3.640625 6.96875 2.359375 6.96875 C 1.640625 6.96875 0.929688 6.890625 0.234375 6.734375 L 0.234375 4.84375 C 0.742188 4.957031 1.320312 5.015625 1.96875 5.015625 C 3.582031 5.015625 4.734375 4.109375 5.421875 2.296875 L 6.296875 0.078125 Z M 0.03125 -15.53125 "/></g></g><g transform="translate(467.510221, 554.37414)"><g><path d="M 4.953125 -3.375 L 5.171875 -3.046875 C 4.921875 -2.097656 4.566406 -1 4.109375 0.25 C 3.648438 1.5 3.164062 2.660156 2.65625 3.734375 L 0.890625 3.734375 C 1.148438 2.753906 1.429688 1.539062 1.734375 0.09375 C 2.046875 -1.34375 2.257812 -2.5 2.375 -3.375 Z M 4.953125 -3.375 "/></g></g><g transform="translate(474.621553, 554.37414)"><g/></g><g transform="translate(482.157865, 554.37414)"><g><path d="M 19.03125 0 L 16.28125 0 L 4.953125 -17.390625 L 4.84375 -17.390625 C 5 -15.347656 5.078125 -13.472656 5.078125 -11.765625 L 5.078125 0 L 2.84375 0 L 2.84375 -20.71875 L 5.5625 -20.71875 L 16.859375 -3.40625 L 16.96875 -3.40625 C 16.945312 -3.65625 16.90625 -4.472656 16.84375 -5.859375 C 16.78125 -7.242188 16.757812 -8.234375 16.78125 -8.828125 L 16.78125 -20.71875 L 19.03125 -20.71875 Z M 19.03125 0 "/></g></g><g transform="translate(504.030168, 554.37414)"><g><path d="M 11.71875 -18.859375 C 9.4375 -18.859375 7.632812 -18.097656 6.3125 -16.578125 C 5 -15.066406 4.34375 -12.992188 4.34375 -10.359375 C 4.34375 -7.648438 4.976562 -5.554688 6.25 -4.078125 C 7.519531 -2.597656 9.332031 -1.859375 11.6875 -1.859375 C 13.132812 -1.859375 14.785156 -2.117188 16.640625 -2.640625 L 16.640625 -0.53125 C 15.203125 0.0078125 13.425781 0.28125 11.3125 0.28125 C 8.269531 0.28125 5.914062 -0.640625 4.25 -2.484375 C 2.59375 -4.335938 1.765625 -6.972656 1.765625 -10.390625 C 1.765625 -12.523438 2.164062 -14.394531 2.96875 -16 C 3.769531 -17.601562 4.921875 -18.835938 6.421875 -19.703125 C 7.929688 -20.578125 9.707031 -21.015625 11.75 -21.015625 C 13.914062 -21.015625 15.8125 -20.617188 17.4375 -19.828125 L 16.421875 -17.75 C 14.847656 -18.488281 13.28125 -18.859375 11.71875 -18.859375 Z M 11.71875 -18.859375 "/></g></g></g><g fill="rgb(99.21875%, 36.859131%, 21.958923%)" fill-opacity="1"><g transform="translate(522.317663, 554.37414)"><g/></g></g></svg>