<svg xmlns="http://www.w3.org/2000/svg" xmlns:xlink="http://www.w3.org/1999/xlink" width="1080" zoomAndPan="magnify" viewBox="0 0 810 809.999993" height="1080" preserveAspectRatio="xMidYMid meet" version="1.0"><defs><clipPath id="b4f21ca60b"><path d="M 73.886719 17.429688 L 719.636719 17.429688 L 719.636719 803.3125 L 73.886719 803.3125 Z M 73.886719 17.429688 " clip-rule="nonzero"/></clipPath><clipPath id="fee3d9e92e"><path d="M 77.855469 22.261719 L 715.410156 22.261719 L 715.410156 798.308594 L 77.855469 798.308594 Z M 77.855469 22.261719 " clip-rule="nonzero"/></clipPath><clipPath id="6b3dcd8420"><path d="M 74 6 L 100 6 L 100 32 L 74 32 Z M 74 6 " clip-rule="nonzero"/></clipPath><clipPath id="7d621d50da"><path d="M 74.195312 16.15625 L 91.425781 6.675781 L 99.722656 21.753906 L 82.488281 31.234375 Z M 74.195312 16.15625 " clip-rule="nonzero"/></clipPath><clipPath id="dd80727806"><path d="M 75 9 L 101 9 L 101 34 L 75 34 Z M 75 9 " clip-rule="nonzero"/></clipPath><clipPath id="0c753678be"><path d="M 75.367188 18.640625 L 92.597656 9.160156 L 100.894531 24.238281 L 83.664062 33.71875 Z M 75.367188 18.640625 " clip-rule="nonzero"/></clipPath><clipPath id="2c49928981"><path d="M 90.761719 6.734375 L 736.511719 6.734375 L 736.511719 792.613281 L 90.761719 792.613281 Z M 90.761719 6.734375 " clip-rule="nonzero"/></clipPath><clipPath id="38136ac4a5"><path d="M 94.59375 11.398438 L 732.148438 11.398438 L 732.148438 788.265625 L 94.59375 788.265625 Z M 94.59375 11.398438 " clip-rule="nonzero"/></clipPath><clipPath id="d74989babd"><path d="M 76.683594 18.820312 L 88.15625 18.820312 L 88.15625 28.65625 L 76.683594 28.65625 Z M 76.683594 18.820312 " clip-rule="nonzero"/></clipPath><clipPath id="45580b41af"><path d="M 157.964844 103.574219 L 652.214844 103.574219 L 652.214844 597.824219 L 157.964844 597.824219 Z M 157.964844 103.574219 " clip-rule="nonzero"/></clipPath><clipPath id="b3bae095b1"><path d="M 282 371 L 370 371 L 370 470.910156 L 282 470.910156 Z M 282 371 " clip-rule="nonzero"/></clipPath><clipPath id="0378ef44c3"><path d="M 234.75 322 L 249 322 L 249 351 L 234.75 351 Z M 234.75 322 " clip-rule="nonzero"/></clipPath><clipPath id="872b21efb8"><path d="M 482 230.160156 L 497 230.160156 L 497 443 L 482 443 Z M 482 230.160156 " clip-rule="nonzero"/></clipPath></defs><g clip-path="url(#b4f21ca60b)"><path fill="#545454" d="M 73.886719 17.433594 L 73.886719 593.011719 L 396.46875 803.308594 L 719.636719 593.011719 L 719.636719 17.433594 L 73.886719 17.433594 " fill-opacity="1" fill-rule="nonzero"/></g><g clip-path="url(#fee3d9e92e)"><path fill="#c7d0d8" d="M 77.859375 22.261719 L 77.859375 590.640625 L 396.339844 798.308594 L 715.40625 590.640625 L 715.40625 22.261719 L 77.859375 22.261719 " fill-opacity="1" fill-rule="nonzero"/></g><g clip-path="url(#6b3dcd8420)"><g clip-path="url(#7d621d50da)"><path fill="#545454" d="M 74.199219 16.15625 L 91.421875 6.679688 L 99.714844 21.757812 L 82.496094 31.230469 L 74.199219 16.15625 " fill-opacity="1" fill-rule="nonzero"/></g></g><g clip-path="url(#dd80727806)"><g clip-path="url(#0c753678be)"><path fill="#c7d0d8" d="M 75.371094 18.640625 L 92.59375 9.164062 L 100.890625 24.242188 L 83.667969 33.714844 L 75.371094 18.640625 " fill-opacity="1" fill-rule="nonzero"/></g></g><g clip-path="url(#2c49928981)"><path fill="#737373" d="M 90.761719 6.734375 L 90.761719 582.316406 L 413.339844 792.609375 L 736.511719 582.316406 L 736.511719 6.734375 L 90.761719 6.734375 " fill-opacity="1" fill-rule="nonzero"/></g><g clip-path="url(#38136ac4a5)"><path fill="#f5f6f7" d="M 94.597656 11.398438 L 94.597656 580.382812 L 413.082031 788.265625 L 732.148438 580.382812 L 732.148438 11.398438 L 94.597656 11.398438 " fill-opacity="1" fill-rule="nonzero"/></g><g clip-path="url(#d74989babd)"><path fill="#c7d0d8" d="M 76.683594 18.820312 L 88.152344 18.820312 L 88.152344 28.65625 L 76.683594 28.65625 L 76.683594 18.820312 " fill-opacity="1" fill-rule="nonzero"/></g><g clip-path="url(#45580b41af)"><path fill="#fe5c36" d="M 405.089844 103.574219 C 268.605469 103.574219 157.964844 214.21875 157.964844 350.699219 C 157.964844 487.183594 268.605469 597.824219 405.089844 597.824219 C 541.570312 597.824219 652.214844 487.183594 652.214844 350.699219 C 652.214844 214.21875 541.570312 103.574219 405.089844 103.574219 " fill-opacity="1" fill-rule="nonzero"/></g><path fill="#e6e9ed" d="M 355.019531 414.082031 C 355.019531 417.984375 351.847656 421.15625 347.941406 421.15625 C 344.03125 421.15625 340.863281 417.984375 340.863281 414.082031 C 340.863281 410.175781 344.03125 407.007812 347.941406 407.007812 C 351.847656 407.007812 355.019531 410.175781 355.019531 414.082031 Z M 355.019531 414.082031 " fill-opacity="1" fill-rule="nonzero"/><g clip-path="url(#b3bae095b1)"><path fill="#434a54" d="M 369.164062 470.804688 L 305.492188 470.804688 L 282.199219 371.507812 L 369.289062 372.117188 L 349.214844 413.5625 Z M 369.164062 470.804688 " fill-opacity="1" fill-rule="nonzero"/></g><path fill="#434a54" d="M 517.71875 335.652344 C 517.71875 359.078125 498.714844 378.070312 475.273438 378.070312 C 451.832031 378.070312 432.828125 359.078125 432.828125 335.652344 C 432.828125 312.214844 451.832031 293.234375 475.273438 293.234375 C 498.714844 293.234375 517.71875 312.214844 517.71875 335.652344 Z M 517.71875 335.652344 " fill-opacity="1" fill-rule="nonzero"/><g clip-path="url(#0378ef44c3)"><path fill="#434a54" d="M 248.902344 329.242188 C 248.902344 325.335938 245.730469 322.167969 241.824219 322.167969 C 237.917969 322.167969 234.757812 325.335938 234.757812 329.242188 L 234.757812 343.390625 C 234.757812 347.285156 237.917969 350.453125 241.824219 350.453125 C 245.730469 350.453125 248.902344 347.285156 248.902344 343.390625 Z M 248.902344 329.242188 " fill-opacity="1" fill-rule="nonzero"/></g><path fill="#e6e9ed" d="M 496.496094 435.289062 L 362.085938 392.871094 L 362.085938 279.757812 L 496.496094 237.339844 Z M 496.496094 435.289062 " fill-opacity="1" fill-rule="nonzero"/><path fill="#feb449" d="M 319.183594 364.597656 C 319.183594 368.492188 316.011719 371.660156 312.105469 371.660156 L 248.902344 371.660156 C 244.996094 371.660156 241.824219 368.492188 241.824219 364.597656 L 241.824219 308.03125 C 241.824219 304.128906 244.996094 300.96875 248.902344 300.96875 L 312.105469 300.96875 C 316.011719 300.96875 319.183594 304.128906 319.183594 308.03125 Z M 319.183594 364.597656 " fill-opacity="1" fill-rule="nonzero"/><path fill="#f5f7fa" d="M 369.164062 385.808594 C 369.164062 389.703125 365.992188 392.871094 362.085938 392.871094 L 277.203125 392.871094 C 273.285156 392.871094 270.125 389.703125 270.125 385.808594 L 270.125 286.824219 C 270.125 282.917969 273.285156 279.757812 277.203125 279.757812 L 362.085938 279.757812 C 365.992188 279.757812 369.164062 282.917969 369.164062 286.824219 Z M 369.164062 385.808594 " fill-opacity="1" fill-rule="nonzero"/><g clip-path="url(#872b21efb8)"><path fill="#ccd1d9" d="M 489.417969 230.265625 C 485.511719 230.265625 482.351562 233.433594 482.351562 237.339844 L 482.351562 435.289062 C 482.351562 439.195312 485.515625 442.363281 489.417969 442.363281 C 493.328125 442.363281 496.496094 439.195312 496.496094 435.289062 L 496.496094 237.339844 C 496.496094 233.4375 493.324219 230.265625 489.417969 230.265625 Z M 489.417969 230.265625 " fill-opacity="1" fill-rule="nonzero"/></g><path fill="#feb449" d="M 531.867188 329.242188 C 527.957031 329.242188 524.796875 332.410156 524.796875 336.316406 C 524.796875 340.21875 527.960938 343.390625 531.867188 343.390625 L 567.246094 343.390625 C 571.152344 343.390625 574.3125 340.21875 574.3125 336.316406 C 574.3125 332.410156 571.152344 329.242188 567.246094 329.242188 Z M 531.867188 329.242188 " fill-opacity="1" fill-rule="nonzero"/><path fill="#feb449" d="M 531.875 315.105469 C 532.746094 315.105469 533.636719 314.941406 534.496094 314.597656 L 569.867188 300.460938 C 573.492188 299.011719 575.253906 294.890625 573.804688 291.265625 C 572.351562 287.640625 568.238281 285.878906 564.613281 287.328125 L 529.242188 301.464844 C 525.617188 302.917969 523.855469 307.039062 525.304688 310.664062 C 526.40625 313.429688 529.066406 315.105469 531.875 315.105469 Z M 531.875 315.105469 " fill-opacity="1" fill-rule="nonzero"/><path fill="#feb449" d="M 569.867188 372.167969 L 534.496094 358.03125 C 530.871094 356.582031 526.757812 358.34375 525.304688 361.96875 C 523.855469 365.59375 525.617188 369.703125 529.242188 371.152344 L 564.613281 385.300781 C 565.472656 385.644531 566.363281 385.808594 567.234375 385.808594 C 570.042969 385.808594 572.707031 384.121094 573.804688 381.355469 C 575.253906 377.730469 573.492188 373.617188 569.867188 372.167969 Z M 569.867188 372.167969 " fill-opacity="1" fill-rule="nonzero"/></svg>