<svg xmlns="http://www.w3.org/2000/svg" xmlns:xlink="http://www.w3.org/1999/xlink" width="400" zoomAndPan="magnify" viewBox="0 0 300 299.999988" height="400" preserveAspectRatio="xMidYMid meet" version="1.0"><defs><clipPath id="id1"><path d="M 23.816406 6.207031 L 275.816406 6.207031 L 275.816406 293.457031 L 23.816406 293.457031 Z M 23.816406 6.207031 " clip-rule="nonzero"/></clipPath><clipPath id="id2"><path d="M 63.855469 57.492188 L 226.910156 57.492188 L 226.910156 266.246094 L 63.855469 266.246094 Z M 63.855469 57.492188 " clip-rule="nonzero"/></clipPath><clipPath id="id3"><path d="M 104 28.5 L 187 28.5 L 187 74 L 104 74 Z M 104 28.5 " clip-rule="nonzero"/></clipPath></defs><path fill="#c7d0d8" d="M 56.585938 287.285156 C 42.363281 287.285156 30.824219 274.949219 30.824219 261.792969 L 30.824219 31.90625 C 30.824219 28.203125 31.648438 24.503906 33.089844 21.214844 C 28.554688 25.53125 25.875 31.492188 25.875 38.175781 L 25.875 267.960938 C 25.875 280.910156 36.59375 291.601562 49.578125 291.601562 L 243.046875 291.601562 C 249.023438 291.601562 254.382812 289.339844 258.503906 285.84375 C 255.824219 286.875 252.9375 287.285156 250.054688 287.285156 L 56.585938 287.285156 " fill-opacity="1" fill-rule="nonzero"/><path fill="#f5f6f7" d="M 32.882812 31.90625 L 32.882812 261.382812 C 32.882812 274.332031 43.601562 285.023438 56.585938 285.023438 L 250.054688 285.023438 C 263.039062 285.023438 273.753906 274.332031 273.753906 261.382812 L 273.753906 31.90625 C 273.753906 18.953125 263.039062 8.265625 250.054688 8.265625 L 56.585938 8.265625 C 43.394531 8.265625 32.882812 18.953125 32.882812 31.90625 " fill-opacity="1" fill-rule="nonzero"/><g clip-path="url(#id1)"><path fill="#a6a6a6" d="M 263.65625 283.171875 C 270.871094 278.652344 275.816406 270.632812 275.816406 261.382812 L 275.816406 31.90625 C 275.816406 17.722656 264.273438 6.207031 250.054688 6.207031 L 56.585938 6.207031 C 48.136719 6.207031 40.714844 10.320312 35.976562 16.488281 C 28.761719 21.011719 23.816406 29.027344 23.816406 38.394531 L 23.816406 267.753906 C 23.816406 281.941406 35.355469 293.453125 49.578125 293.453125 L 243.046875 293.453125 C 251.496094 293.453125 258.914062 289.339844 263.65625 283.171875 M 56.585938 8.265625 L 250.054688 8.265625 C 263.039062 8.265625 273.753906 18.953125 273.753906 31.90625 L 273.753906 261.382812 C 273.753906 274.332031 263.039062 285.023438 250.054688 285.023438 L 56.585938 285.023438 C 43.601562 285.023438 32.882812 274.332031 32.882812 261.382812 L 32.882812 31.90625 C 32.882812 18.953125 43.394531 8.265625 56.585938 8.265625 M 49.578125 291.601562 C 36.59375 291.601562 25.875 280.707031 25.875 267.753906 L 25.875 38.394531 C 25.875 31.699219 28.554688 25.738281 33.089844 21.421875 C 31.648438 24.710938 30.824219 28.203125 30.824219 32.109375 L 30.824219 261.589844 C 30.824219 275.773438 42.363281 287.285156 56.585938 287.285156 L 250.054688 287.285156 C 252.9375 287.285156 255.824219 286.667969 258.503906 285.84375 C 254.382812 289.339844 249.023438 291.601562 243.046875 291.601562 L 49.578125 291.601562 " fill-opacity="1" fill-rule="nonzero"/></g><g clip-path="url(#id2)"><path fill="#fe5c36" d="M 210.339844 266.246094 L 80 266.246094 C 71.085938 266.246094 63.855469 259.003906 63.855469 250.074219 L 63.855469 73.902344 C 63.855469 64.964844 71.085938 57.71875 80 57.71875 L 210.339844 57.71875 C 219.25 57.71875 226.476562 64.964844 226.476562 73.902344 L 226.476562 250.074219 C 226.476562 259.003906 219.25 266.246094 210.339844 266.246094 " fill-opacity="1" fill-rule="nonzero"/></g><path fill="#f5f6f7" d="M 80 261.078125 C 73.945312 261.078125 69.023438 256.140625 69.023438 250.074219 L 69.023438 73.894531 C 69.023438 67.832031 73.945312 62.898438 80 62.898438 L 210.332031 62.898438 C 216.390625 62.898438 221.308594 67.832031 221.308594 73.894531 L 221.308594 250.074219 C 221.308594 256.140625 216.390625 261.078125 210.332031 261.078125 L 80 261.078125 " fill-opacity="1" fill-rule="nonzero"/><g clip-path="url(#id3)"><path fill="#fe5c36" d="M 128.855469 40.835938 C 128.855469 42.964844 130.574219 44.691406 132.699219 44.691406 L 157.632812 44.691406 C 159.757812 44.691406 161.484375 42.964844 161.484375 40.835938 C 161.484375 37 158.382812 33.890625 154.554688 33.890625 L 135.777344 33.890625 C 131.957031 33.890625 128.855469 37 128.855469 40.835938 Z M 186.125 63.613281 C 186.125 68.964844 181.800781 73.296875 176.464844 73.296875 L 113.875 73.296875 C 108.539062 73.296875 104.207031 68.964844 104.207031 63.613281 C 104.207031 53.988281 111.996094 46.183594 121.601562 46.183594 L 121.765625 46.183594 C 121.761719 46.097656 121.714844 46.023438 121.714844 45.9375 C 121.714844 36.308594 129.5 28.503906 139.105469 28.503906 L 151.234375 28.503906 C 160.839844 28.503906 168.621094 36.308594 168.621094 45.9375 C 168.621094 46.023438 168.574219 46.097656 168.574219 46.183594 L 168.738281 46.183594 C 178.34375 46.183594 186.125 53.988281 186.125 63.613281 " fill-opacity="1" fill-rule="nonzero"/></g><path fill="#feb449" d="M 116.417969 232.167969 L 116.417969 218.835938 C 116.417969 215.070312 113.371094 212.019531 109.617188 212.019531 L 96.3125 212.019531 C 92.558594 212.019531 89.511719 215.070312 89.511719 218.835938 L 89.511719 232.167969 C 89.511719 235.929688 92.558594 238.984375 96.3125 238.984375 L 109.617188 238.984375 C 113.371094 238.984375 116.417969 235.929688 116.417969 232.167969 Z M 116.417969 192.917969 L 116.417969 179.585938 C 116.417969 175.820312 113.371094 172.769531 109.617188 172.769531 L 96.3125 172.769531 C 92.558594 172.769531 89.511719 175.820312 89.511719 179.585938 L 89.511719 192.917969 C 89.511719 196.683594 92.558594 199.734375 96.3125 199.734375 L 109.617188 199.734375 C 113.371094 199.734375 116.417969 196.683594 116.417969 192.917969 Z M 116.417969 153.671875 L 116.417969 140.335938 C 116.417969 136.574219 113.371094 133.519531 109.617188 133.519531 L 96.3125 133.519531 C 92.558594 133.519531 89.511719 136.574219 89.511719 140.335938 L 89.511719 153.671875 C 89.511719 157.433594 92.558594 160.484375 96.3125 160.484375 L 109.617188 160.484375 C 113.371094 160.484375 116.417969 157.433594 116.417969 153.671875 Z M 109.617188 121.238281 L 96.3125 121.238281 C 92.558594 121.238281 89.511719 118.183594 89.511719 114.421875 L 89.511719 101.085938 C 89.511719 97.324219 92.558594 94.273438 96.3125 94.273438 L 109.617188 94.273438 C 113.371094 94.273438 116.417969 97.324219 116.417969 101.085938 L 116.417969 114.421875 C 116.417969 118.183594 113.371094 121.238281 109.617188 121.238281 " fill-opacity="1" fill-rule="nonzero"/><path fill="#fe5c36" d="M 109.164062 232.902344 L 131.214844 211.929688 C 132.660156 210.566406 132.714844 208.289062 131.351562 206.847656 C 129.988281 205.402344 127.714844 205.351562 126.285156 206.714844 L 106.71875 225.320312 L 100.078125 218.875 C 98.65625 217.496094 96.386719 217.53125 95.007812 218.957031 C 93.628906 220.382812 93.667969 222.660156 95.089844 224.039062 L 104.207031 232.882812 C 104.902344 233.558594 105.804688 233.890625 106.699219 233.890625 C 107.59375 233.890625 108.484375 233.5625 109.164062 232.902344 Z M 109.164062 194.03125 L 131.214844 173.058594 C 132.660156 171.6875 132.714844 169.414062 131.351562 167.976562 C 129.988281 166.523438 127.714844 166.476562 126.285156 167.835938 L 106.71875 186.441406 L 100.078125 179.996094 C 98.65625 178.621094 96.375 178.660156 95.007812 180.085938 C 93.628906 181.511719 93.667969 183.785156 95.089844 185.164062 L 104.207031 194.003906 C 104.902344 194.679688 105.804688 195.015625 106.699219 195.015625 C 107.59375 195.015625 108.484375 194.683594 109.164062 194.03125 Z M 109.164062 155.152344 L 131.214844 134.183594 C 132.660156 132.816406 132.714844 130.539062 131.351562 129.097656 C 129.988281 127.65625 127.714844 127.601562 126.285156 128.964844 L 106.71875 147.5625 L 100.078125 141.125 C 98.65625 139.75 96.375 139.78125 95.007812 141.207031 C 93.628906 142.636719 93.667969 144.914062 95.089844 146.292969 L 104.207031 155.132812 C 104.902344 155.800781 105.804688 156.140625 106.699219 156.140625 C 107.59375 156.140625 108.484375 155.8125 109.164062 155.152344 Z M 106.699219 117.269531 C 105.804688 117.269531 104.902344 116.929688 104.207031 116.253906 L 95.089844 107.417969 C 93.667969 106.039062 93.628906 103.765625 95.007812 102.332031 C 96.375 100.902344 98.65625 100.867188 100.078125 102.25 L 106.71875 108.691406 L 126.285156 90.089844 C 127.714844 88.726562 129.988281 88.777344 131.351562 90.226562 C 132.714844 91.660156 132.660156 93.9375 131.214844 95.304688 L 109.164062 116.28125 C 108.484375 116.9375 107.59375 117.269531 106.699219 117.269531 " fill-opacity="1" fill-rule="nonzero"/><path fill="#f5f6f7" d="M 243.441406 147.976562 L 237.898438 153.53125 L 232.621094 148.242188 L 165.71875 215.429688 C 167.433594 217.546875 168.882812 219.664062 170.203125 221.515625 C 164.398438 222.96875 158.589844 224.558594 152.785156 226.011719 L 143.019531 216.222656 C 144.46875 210.40625 145.921875 204.585938 147.375 198.632812 C 149.21875 199.957031 151.332031 201.414062 153.574219 203.132812 L 220.484375 136.074219 L 215.203125 130.78125 L 220.746094 125.226562 L 243.441406 147.976562 " fill-opacity="1" fill-rule="nonzero"/><path fill="#262626" d="M 152.722656 225.996094 C 148.402344 227.097656 144.078125 228.199219 139.757812 229.300781 C 140.835938 224.949219 141.910156 220.59375 142.988281 216.238281 L 152.722656 225.996094 " fill-opacity="1" fill-rule="nonzero"/><path fill="#f5f6f7" d="M 243.441406 147.976562 L 243.308594 148.109375 L 220.609375 125.226562 L 220.746094 125.226562 L 243.441406 147.976562 " fill-opacity="1" fill-rule="nonzero"/><path fill="#feb449" d="M 250.832031 129.328125 L 239.347656 117.824219 C 236.316406 114.648438 231.167969 114.648438 228.136719 117.824219 L 220.746094 125.226562 L 220.609375 125.226562 L 243.308594 148.109375 L 250.832031 140.566406 C 253.996094 137.53125 253.996094 132.371094 250.832031 129.328125 Z M 232.488281 148.109375 L 164.660156 216.089844 C 163.605469 218.601562 162.414062 221.121094 161.230469 223.761719 C 164.265625 222.96875 167.167969 222.308594 170.203125 221.515625 C 192.765625 198.894531 215.464844 176.148438 238.035156 153.664062 Z M 215.203125 130.78125 C 192.636719 153.269531 169.941406 176.019531 147.375 198.632812 C 146.578125 201.675781 145.921875 204.585938 145.257812 207.492188 C 147.769531 206.4375 150.277344 205.25 152.785156 204.1875 L 220.609375 136.207031 Z M 229.324219 144.933594 L 161.496094 212.785156 C 159.117188 213.316406 156.871094 213.847656 154.632812 214.371094 C 155.027344 212.125 155.554688 209.742188 155.949219 207.363281 C 178.644531 184.742188 201.214844 162.128906 223.78125 139.378906 L 229.324219 144.933594 " fill-opacity="1" fill-rule="nonzero"/></svg>